<?xml version="1.0" encoding="utf-8"?>
<!-- Generator: Adobe Illustrator 19.0.1, SVG Export Plug-In . SVG Version: 6.00 Build 0)  -->
<svg version="1.1" id="Слой_1" xmlns="http://www.w3.org/2000/svg" xmlns:xlink="http://www.w3.org/1999/xlink" x="0px" y="0px"
	 viewBox="-49 172.9 496 496" style="enable-background:new -49 172.9 496 496;" xml:space="preserve">
<path d="M439,356.9h-8v-8c0-13.2-10.8-24-24-24h-16c-13.2,0-24,10.8-24,24v8h-8c-4.4,0-8,3.6-8,8V393L180.3,524.9H151
	c-4.4,0-8,3.6-8,8v24H23c-4.4,0-8,3.6-8,8v24h-56c-4.4,0-8,3.6-8,8v64c0,4.4,3.6,8,8,8h240c4.4,0,8-3.6,8-8v-84l144-108
	c0,4.4,3.6,8,8,8h8v48h-48c-1.8,0-3.6,0.6-5,1.8l-40,32c-1.9,1.5-3,3.8-3,6.2v40h-40c-4.4,0-8,3.6-8,8v48c0,4.4,3.6,8,8,8h192
	c4.4,0,8-3.6,8-8v-184h8c4.4,0,8-3.6,8-8v-32c0-4.4-3.6-8-8-8h-8v-24h8c4.4,0,8-3.6,8-8v-32C447,360.5,443.4,356.9,439,356.9z
	 M383,348.9c0-4.4,3.6-8,8-8h16c4.4,0,8,3.6,8,8v8h-32V348.9z M159,540.9h16v16h-16V540.9z M-33,604.9h48v48h-48V604.9z M191,652.9
	H31v-80h160V652.9z M204.2,559c-1.4-1.2-3.2-2.1-5.2-2.1h-8v-20.1l170.7-131.9h5.3v24h-8c-4.4,0-8,3.6-8,8v12L204.2,559z M239,620.9
	h32v32h-32V620.9z M287,612.9v-44.2l34.8-27.8H367v112h-80V612.9z M415,652.9h-32v-176h32V652.9z M431,460.9h-64v-16h64V460.9z
	 M415,428.9h-32v-24h32V428.9z M431,388.9h-64v-16h64V388.9z"/>
<path d="M47,284.9h3.7c1.3,4.1,2.9,8.2,4.9,12l-6.3,6.3c-3.1,3.1-3.1,8.2,0,11.3l24,24c3,3,8.3,3,11.3,0l6.3-6.3
	c3.9,2,7.9,3.6,12,4.9v3.7c0,4.4,3.6,8,8,8h32c4.4,0,8-3.6,8-8v-3.7c4.1-1.3,8.2-2.9,12-4.9l6.3,6.3c3.1,3.1,8.2,3.1,11.3,0l24-24
	c3.1-3.1,3.1-8.2,0-11.3l-6.3-6.3c2-3.9,3.6-7.9,4.9-12h3.7c4.4,0,8-3.6,8-8v-32c0-4.4-3.6-8-8-8h-3.7c-1.3-4.1-2.9-8.2-4.9-12
	l6.3-6.3c3.1-3.1,3.1-8.2,0-11.3l-24-24c-3.1-3.1-8.2-3.1-11.3,0l-6.3,6.3c-3.9-2-7.9-3.6-12-4.9v-3.7c0-4.4-3.6-8-8-8h-32
	c-4.4,0-8,3.6-8,8v3.7c-4.1,1.3-8.2,2.9-12,4.9l-6.3-6.3c-1.5-1.5-3.5-2.3-5.7-2.3s-4.2,0.8-5.7,2.3l-24,24c-3.1,3.1-3.1,8.2,0,11.3
	l6.3,6.3c-2,3.9-3.6,7.9-4.9,12H47c-4.4,0-8,3.6-8,8v32C39,281.3,42.6,284.9,47,284.9z M55,252.9h1.8c3.7,0,7-2.6,7.8-6.2
	c1.5-6.7,4.1-13.1,7.8-19c1.9-3.2,1.4-7.2-1.2-9.8l-4.9-4.9L79,200.2l4.9,4.9c2.6,2.6,6.7,3.1,9.8,1.2c5.9-3.6,12.3-6.2,19-7.8
	c3.6-0.8,6.2-4.1,6.2-7.8v-1.8h16v1.8c0,3.7,2.6,7,6.2,7.8c6.7,1.5,13.1,4.1,19,7.8c3.2,1.9,7.2,1.5,9.8-1.2l4.9-4.9l12.7,12.7
	l-4.9,4.9c-2.6,2.6-3.1,6.7-1.2,9.8c3.6,5.9,6.2,12.3,7.8,19c0.8,3.6,4.1,6.2,7.8,6.2h1.8v16h-1.8c-3.7,0-7,2.6-7.8,6.2
	c-1.5,6.7-4.1,13.1-7.8,19c-1.9,3.2-1.4,7.2,1.2,9.8l4.9,4.9L175,321.6l-4.9-4.9c-2.6-2.6-6.7-3.1-9.8-1.2c-5.9,3.6-12.3,6.2-19,7.8
	c-3.6,0.8-6.2,4.1-6.2,7.8v1.8h-16v-1.8c0-3.7-2.6-7-6.2-7.8c-6.7-1.5-13.1-4.1-19-7.8c-3.1-1.9-7.2-1.4-9.8,1.2l-4.9,4.9
	l-12.7-12.7l4.9-4.9c2.6-2.6,3.1-6.7,1.2-9.8c-3.6-5.9-6.2-12.3-7.8-19c-0.8-3.6-4.1-6.2-7.8-6.2H55V252.9z"/>
<path d="M127,308.9c26.5,0,48-21.5,48-48s-21.5-48-48-48s-48,21.5-48,48S100.5,308.9,127,308.9z M127,228.9c17.6,0,32,14.4,32,32
	s-14.4,32-32,32s-32-14.4-32-32S109.4,228.9,127,228.9z"/>
<path d="M-41,460.9h3.7c1.3,4.1,2.9,8.2,4.9,12l-6.3,6.3c-3.1,3.1-3.1,8.2,0,11.3l24,24c3,3,8.3,3,11.3,0l6.3-6.3
	c3.9,2,7.9,3.6,12,4.9v3.7c0,4.4,3.6,8,8,8h32c4.4,0,8-3.6,8-8v-3.7c4.1-1.3,8.2-2.9,12-4.9l6.3,6.3c3.1,3.1,8.2,3.1,11.3,0l24-24
	c3.1-3.1,3.1-8.2,0-11.3l-6.3-6.3c2-3.9,3.6-7.9,4.9-12h3.7c4.4,0,8-3.6,8-8v-32c0-4.4-3.6-8-8-8h-3.7c-1.3-4.1-2.9-8.2-4.9-12
	l6.3-6.3c3.1-3.1,3.1-8.2,0-11.3l-24-24c-3.1-3.1-8.2-3.1-11.3,0l-6.3,6.3c-3.9-2-7.9-3.6-12-4.9v-3.7c0-4.4-3.6-8-8-8H23
	c-4.4,0-8,3.6-8,8v3.7c-4.1,1.3-8.2,2.9-12,4.9l-6.3-6.3c-1.5-1.5-3.5-2.3-5.7-2.3s-4.2,0.8-5.7,2.3l-24,24c-3.1,3.1-3.1,8.2,0,11.3
	l6.3,6.3c-2,3.9-3.6,7.9-4.9,12H-41c-4.4,0-8,3.6-8,8v32C-49,457.3-45.4,460.9-41,460.9z M-33,428.9h1.8c3.7,0,7-2.6,7.8-6.2
	c1.5-6.7,4.1-13.1,7.8-19c1.9-3.2,1.4-7.2-1.2-9.8l-4.9-4.9L-9,376.2l4.9,4.9c2.6,2.6,6.7,3.1,9.8,1.2c5.9-3.6,12.3-6.2,19-7.8
	c3.6-0.8,6.2-4.1,6.2-7.8v-1.8h16v1.8c0,3.7,2.6,7,6.2,7.8c6.7,1.5,13.1,4.1,19,7.8c3.2,1.9,7.2,1.5,9.8-1.2l4.9-4.9l12.7,12.7
	l-4.9,4.9c-2.6,2.6-3.1,6.7-1.2,9.8c3.6,5.9,6.2,12.3,7.8,19c0.8,3.6,4.1,6.2,7.8,6.2h1.8v16h-1.8c-3.7,0-7,2.6-7.8,6.2
	c-1.5,6.7-4.1,13.1-7.8,19c-1.9,3.2-1.4,7.2,1.2,9.8l4.9,4.9L87,497.6l-4.9-4.9c-2.6-2.6-6.7-3.1-9.8-1.2c-5.9,3.6-12.3,6.2-19,7.8
	c-3.6,0.8-6.2,4.1-6.2,7.8v1.8H31v-1.8c0-3.7-2.6-7-6.2-7.8c-6.7-1.5-13.1-4.1-19-7.8c-3.1-1.9-7.2-1.4-9.8,1.2l-4.9,4.9l-12.7-12.7
	l4.9-4.9c2.6-2.6,3.1-6.7,1.2-9.8c-3.6-5.9-6.2-12.3-7.8-19c-0.8-3.6-4.1-6.2-7.8-6.2H-33V428.9z"/>
<path d="M39,484.9c26.5,0,48-21.5,48-48s-21.5-48-48-48s-48,21.5-48,48S12.5,484.9,39,484.9z M39,404.9c17.6,0,32,14.4,32,32
	s-14.4,32-32,32s-32-14.4-32-32S21.4,404.9,39,404.9z"/>
<path d="M335,556.9h16v16h-16V556.9z"/>
<path d="M335,588.9h16v16h-16V588.9z"/>
<path d="M335,620.9h16v16h-16V620.9z"/>
<path d="M47,588.9h16v16H47V588.9z"/>
<path d="M79,588.9h16v16H79V588.9z"/>
<path d="M111,588.9h16v16h-16V588.9z"/>
<path d="M143,588.9h16v16h-16V588.9z"/>
<path d="M319,268.9h80c17.6,0,32-14.4,32-32c0-1.4-0.2-2.8-0.4-4.2c9.8-5.5,16.4-15.8,16.4-27.8c0-17.6-14.4-32-32-32
	c-10.8,0-20.3,5.4-26.1,13.6c-7.3-8.3-18-13.6-29.9-13.6c-19.3,0-35.5,13.8-39.2,32c-17.9-0.5-32.8,14.1-32.8,32
	C287,254.5,301.4,268.9,319,268.9z M415,188.9c8.8,0,16,7.2,16,16c0,5.3-2.6,9.9-6.6,12.8c-6-8-15.6-13.1-26.2-12.8v0h0.8
	C399,196.1,406.2,188.9,415,188.9z M319,220.9c1.7,0,3.5,0.3,5.4,1c2.5,0.9,5.3,0.5,7.5-1.1c2.2-1.6,3.4-4.1,3.3-6.8
	c0-0.3-0.1-0.9-0.1-1.2c0-13.2,10.8-24,24-24s24,10.8,24,23.7c0,0.3-0.1,1.2-0.1,1.4c-0.1,2.7,1.1,5.2,3.3,6.8c2.2,1.6,5,2,7.5,1.1
	c1.9-0.7,3.7-1,5.4-1c8.8,0,16,7.2,16,16s-7.2,16-16,16h-80c-8.8,0-16-7.2-16-16S310.2,220.9,319,220.9z"/>
</svg>
