<?xml version="1.0" encoding="utf-8"?>
<!-- Generator: Adobe Illustrator 19.0.1, SVG Export Plug-In . SVG Version: 6.00 Build 0)  -->
<svg version="1.1" id="Capa_1" xmlns="http://www.w3.org/2000/svg" xmlns:xlink="http://www.w3.org/1999/xlink" x="0px" y="0px"
	 viewBox="-41 164.9 512 512" style="enable-background:new -41 164.9 512 512;" xml:space="preserve">
<g>
	<g>
		<path d="M465.4,578.4L360.1,473.1c-3.6-3.6-8.4-5.6-13.4-5.6c-3.5,0-6.9,1-9.8,2.7l-59.2-59.2c-3-3-7.9-3-11,0c-3,3-3,7.9,0,11
			l58.7,58.7l-21.6,21.6L196.2,394.8l21.6-21.6l14.4,14.4c3,3,7.9,3,11,0c3-3,3-7.9,0-11l-14.4-14.4l37.5-37.5l3,3
			c3.7,3.7,8.6,5.7,13.8,5.7c5.2,0,10.1-2,13.8-5.7l13.8-13.8c3.7-3.7,5.7-8.6,5.7-13.8c0-5.2-2-10.1-5.7-13.8L204.6,180
			c-3.7-3.7-8.6-5.7-13.8-5.7c-5.2,0-10.1,2-13.8,5.7l-13.8,13.8c-3.7,3.7-5.7,8.6-5.7,13.8c0,5.2,2,10.1,5.7,13.8l3,3L47.5,343.1
			l-3-3c-7.6-7.6-20-7.6-27.6,0L3.1,353.9c-3.7,3.7-5.7,8.6-5.7,13.8c0,5.2,2,10.1,5.7,13.8l106.1,106.1c3.7,3.7,8.6,5.7,13.8,5.7
			s10.1-2,13.8-5.7l13.8-13.8c0,0,0,0,0,0c7.6-7.6,7.6-20,0-27.6l-3-3l37.5-37.5l108.2,108.2c-1.8,2.9-2.7,6.3-2.7,9.8
			c0,5.1,2,9.8,5.6,13.4l105.3,105.3c3.6,3.6,8.4,5.6,13.4,5.6c5.1,0,9.8-2,13.4-5.6l37.1-37.1c3.6-3.6,5.6-8.4,5.6-13.4
			S469,582,465.4,578.4z M174.1,204.8L188,191c0.8-0.8,1.8-1.2,2.8-1.2c1.1,0,2.1,0.4,2.8,1.2l106.1,106.1c0.8,0.8,1.2,1.8,1.2,2.8
			c0,1.1-0.4,2.1-1.2,2.8l-13.8,13.8c-1.5,1.5-4.1,1.5-5.7,0L174.1,210.5c-0.8-0.8-1.2-1.8-1.2-2.8
			C173,206.6,173.4,205.6,174.1,204.8z M139.6,462.9l-13.8,13.8c-1.5,1.5-4.1,1.5-5.7,0L14,370.6c-0.8-0.8-1.2-1.8-1.2-2.8
			c0-1.1,0.4-2.1,1.2-2.8l13.8-13.8c0.8-0.8,1.8-1.2,2.8-1.2s2,0.4,2.8,1.2l106.1,106.1C141.2,458.8,141.2,461.3,139.6,462.9z
			 M179.7,389.3C179.7,389.3,179.7,389.3,179.7,389.3l-43,43l-78.2-78.2l118.6-118.6l78.2,78.2l-43,43c0,0,0,0,0,0L179.7,389.3z
			 M454.5,594.3l-37.1,37.1c-0.9,0.9-1.9,1-2.4,1c-0.5,0-1.6-0.1-2.4-1L307.1,526.1c-0.9-0.9-1-1.9-1-2.4s0.1-1.6,1-2.4l2.3-2.3
			l34.9-34.9c0.9-0.9,1.9-1,2.4-1c0.5,0,1.6,0.1,2.4,1l105.3,105.3c0.9,0.9,1,1.9,1,2.4S455.3,593.4,454.5,594.3z"/>
	</g>
</g>
<g>
	<g>
		<path d="M253.8,598.7h-11.9v-40.9c0-9.1-7.4-16.5-16.5-16.5H91.6c-4.3,0-7.8,3.5-7.8,7.8s3.5,7.8,7.8,7.8h133.8c0.6,0,1,0.5,1,1
			v40.9H20.1v-40.9c0-0.6,0.5-1,1-1h21.6c4.3,0,7.8-3.5,7.8-7.8s-3.5-7.8-7.8-7.8H21.2c-9.1,0-16.5,7.4-16.5,16.5v40.9H-7.3
			c-18.6,0-33.7,15.1-33.7,33.7v22.1c0,7.2,5.8,13,13,13h302.6c7.2,0,13-5.8,13-13v-22.1C287.6,613.8,272.4,598.7,253.8,598.7z
			 M272,651.9L272,651.9H-25.5v-19.6c0-10,8.2-18.2,18.2-18.2h261.1c10,0,18.2,8.2,18.2,18.2V651.9z"/>
	</g>
</g>
</svg>
