<?xml version="1.0" encoding="utf-8"?>
<!-- Generator: Adobe Illustrator 19.0.1, SVG Export Plug-In . SVG Version: 6.00 Build 0)  -->
<svg version="1.1" id="Capa_1" xmlns="http://www.w3.org/2000/svg" xmlns:xlink="http://www.w3.org/1999/xlink" x="0px" y="0px"
	 viewBox="-41 164.9 512 512" style="enable-background:new -41 164.9 512 512;" xml:space="preserve">
<style type="text/css">
	.st0{fill:#3F6F9F;}
</style>
<g>
	<g>
		<path class="st0" d="M249.1,164.9H78.5c-23.5,0-42.7,19.1-42.7,42.7v307.2c0,23.5,19.1,42.7,42.7,42.7h153.6v-17.1H78.5
			c-14.1,0-25.6-11.5-25.6-25.6V207.6c0-14.1,11.5-25.6,25.6-25.6h170.7c14.1,0,25.6,11.5,25.6,25.6V455h17.1V207.6
			C291.8,184,272.7,164.9,249.1,164.9z"/>
	</g>
</g>
<g>
	<g>
		<path class="st0" d="M373.6,392.2l-83.7-104.6l-13.3,10.7l83.7,104.6c10.9,13.6,16.8,30.6,16.8,48v209H252.3
			c-44.1,0-80-35.9-80-80v-31h-17.1v31c0,53.5,43.5,97,97,97h133.4c4.7,0,8.5-3.8,8.5-8.5V450.9
			C394.2,429.6,386.9,408.8,373.6,392.2z"/>
	</g>
</g>
<g>
	<g>
		<path class="st0" d="M180.8,366.1c6,0.2,11.6,2.7,15.7,7L311.2,495l12.4-11.7L208.9,361.4c-7.2-7.7-17.1-12.1-27.6-12.4
			c-10.7-0.4-20.6,3.5-28.2,10.7c-0.1,0.1-0.8,0.7-0.9,0.8c-14.6,14.6-15.6,37.6-2.3,53.4l73.5,86.8v26.4
			c0,47.2,29.6,89.9,73.8,106.5l6-16c-37.5-14.1-62.7-50.4-62.7-90.5v-29.5c0-2-0.7-4-2-5.5L163.1,403c-7.6-9-7-22.1,1.7-30.8
			C169.1,368.1,174.8,366.1,180.8,366.1z"/>
	</g>
</g>
<g>
	<g>
		<rect x="223.5" y="182" class="st0" width="17.1" height="213.3"/>
	</g>
</g>
<g>
	<g>
		<rect x="180.9" y="446.5" class="st0" width="17.1" height="102.4"/>
	</g>
</g>
<g>
	<g>
		<rect x="180.9" y="173.4" class="st0" width="17.1" height="187.7"/>
	</g>
</g>
<g>
	<g>
		<rect x="78.5" y="207.6" class="st0" width="17.1" height="110.9"/>
	</g>
</g>
<g>
	<g>
		<rect x="121.1" y="207.6" class="st0" width="17.1" height="68.3"/>
	</g>
</g>
<g>
	<g>
		<path class="st0" d="M138.2,446.5H87c-4.7,0-8.5,3.8-8.5,8.5v51.2c0,4.7,3.8,8.5,8.5,8.5h51.2c4.7,0,8.5-3.8,8.5-8.5V455
			C146.7,450.3,142.9,446.5,138.2,446.5z M129.7,497.7H95.5v-34.1h34.1V497.7z"/>
	</g>
</g>
</svg>
