<?xml version="1.0" encoding="utf-8"?>
<!-- Generator: Adobe Illustrator 19.0.1, SVG Export Plug-In . SVG Version: 6.00 Build 0)  -->
<svg version="1.1" id="Слой_1" xmlns="http://www.w3.org/2000/svg" xmlns:xlink="http://www.w3.org/1999/xlink" x="0px" y="0px"
	 viewBox="-49 172.9 496 496" style="enable-background:new -49 172.9 496 496;" xml:space="preserve">
<style type="text/css">
	.st0{fill:#FFFFFF;}
</style>
<path class="st0" d="M303.5,428.9c4.8,0,9.4,1.4,13.3,4l55.9,37.3c6.6,4.4,14.3,6.7,22.2,6.7H447v-16h-52.1c-4.8,0-9.4-1.4-13.3-4
	l-22.6-15V172.9H55v48H-49v448h304v-48h104v-67.3c0.5-0.1,1-0.2,1.5-0.3l37.2-9.3c8.3-2.1,16.8-3.1,25.3-3.1h24v-16h-24
	c-9.8,0-19.6,1.2-29.1,3.6l-37.2,9.3c-19.1,4.8-39.5,4-58.2-2.2l-13.5-4.5c-12.3-4.1-25.1-6.2-38-6.2h-69.8c0-13.2,10.8-24,24-24h88
	c13.2,0,24-10.8,24-24c0-12.3-9.3-22.3-21.2-23.7l6.6-24.3H303.5z M293.4,550.7c12.3,4.1,25.1,6.2,38,6.2c3.9,0,7.8-0.3,11.6-0.7
	v48.7h-88v-26.2c2.8-3.2,5-7.1,6.2-11.4l6.6-24.3c4.1,0.8,8.2,1.8,12.2,3.2L293.4,550.7z M251.7,541.1l-6,22.1
	c-1.6,5.7-6.8,9.8-12.7,9.8h-2.6c-7.3,0-13.2-5.9-13.2-13.2c0-1.2,0.2-2.3,0.5-3.4l4.2-15.4H247C248.6,540.9,250.1,541,251.7,541.1z
	 M205.2,540.9l-3,11.2c-0.7,2.5-1,5-1,7.6c0,10.8,6,20.2,14.7,25.2l-2.5,10l15.5,3.9l2.5-9.9h1.5c2.1,0,4.1-0.3,6-0.7v64.7H-33v-416
	H71v-48h272v242.3l-17.3-11.5c-6.6-4.4-14.3-6.7-22.2-6.7h-0.6l33.3-123.2c0.7-2.5,1-5,1-7.6c0-16.1-13.1-29.2-29.2-29.2h-2.6
	c-13.2,0-24.7,8.9-28.2,21.6L255,356.8V220.9H87v16h152v176h-16.6c-8.7,0-16.9,2.9-23.8,8H119v16h62.9l-16,16H119v16h30.9
	l-13.4,13.4c-4.7,4.7-7.3,11-7.3,17.7c0,13.8,11.2,25,25,25c2.5,0,4.8-0.5,7.1-1.2c0,0.4-0.1,0.8-0.1,1.2c0,8.8,7.2,16,16,16H205.2z
	 M266.9,484.9h-29.9l33.8-125l27.4,9.1L266.9,484.9z M205.5,435.9c4.5-4.5,10.7-7,17-7h13.1L229,453c-10.1,0.4-19.6,4.4-26.8,11.6
	l-41.7,41.7c-1.7,1.7-4,2.6-6.3,2.6c-5,0-9-4-9-9c0-2.4,0.9-4.6,2.6-6.3L205.5,435.9z M213.5,475.9c3-3,6.9-5.1,11-6.2l-4.1,15.1
	h-15.9L213.5,475.9z M320.7,285.5l-9.8,36.2l-27.4-9.1l9.2-34c1.6-5.7,6.8-9.8,12.7-9.8h2.6c7.3,0,13.2,5.9,13.2,13.2
	C321.2,283.2,321,284.4,320.7,285.5z M279.3,328.1l27.4,9.1l-4.4,16.3l-27.4-9.1L279.3,328.1z M289.2,468.9c4.4,0,8,3.6,8,8
	s-3.6,8-8,8h-5.8l4.3-16H289.2z"/>
<path class="st0" d="M191,252.9H-17v80h208V252.9z M175,316.9H-1v-48h176V316.9z"/>
<path class="st0" d="M15,284.9h16v16H15V284.9z"/>
<path class="st0" d="M47,284.9h16v16H47V284.9z"/>
<path class="st0" d="M79,284.9h16v16H79V284.9z"/>
<path class="st0" d="M111,284.9h16v16h-16V284.9z"/>
<path class="st0" d="M143,284.9h16v16h-16V284.9z"/>
<path class="st0" d="M79,428.9H63v32H-1v-64h48v-16h-64v96h96V428.9z"/>
<path class="st0" d="M105.3,351.2L31,425.6l-10.3-10.3L9.3,426.5L31,448.2l85.7-85.7L105.3,351.2z"/>
<path class="st0" d="M63,596.9H-1v-64h48v-16h-64v96h96v-48H63V596.9z"/>
<path class="st0" d="M20.7,551.2L9.3,562.5L31,584.2l85.7-85.7l-11.3-11.3L31,561.6L20.7,551.2z"/>
<path class="st0" d="M207,612.9h16v16h-16V612.9z"/>
<path class="st0" d="M103,612.9h88v16h-88V612.9z"/>
<path class="st0" d="M119,388.9h104v16H119V388.9z"/>
</svg>
