<?xml version="1.0" encoding="utf-8"?>
<!-- Generator: Adobe Illustrator 19.0.1, SVG Export Plug-In . SVG Version: 6.00 Build 0)  -->
<svg version="1.1" id="Capa_1" xmlns="http://www.w3.org/2000/svg" xmlns:xlink="http://www.w3.org/1999/xlink" x="0px" y="0px"
	 viewBox="-41 164.9 512 512" style="enable-background:new -41 164.9 512 512;" xml:space="preserve">
<g>
	<g>
		<path d="M111.8,328.8c-6.3,0-12.4,1.7-17.7,4.9c-5.2-3.1-11.2-4.9-17.7-4.9c-18.9,0-34.3,15.4-34.3,34.3
			c0,18.9,15.4,34.3,34.3,34.3c6.5,0,12.5-1.8,17.7-4.9c5.3,3.2,11.4,4.9,17.7,4.9c18.9,0,34.3-15.4,34.3-34.3
			C146.1,344.2,130.7,328.8,111.8,328.8z M76.4,382.5c-10.7,0-19.3-8.7-19.3-19.3c0-10.7,8.7-19.3,19.3-19.3s19.3,8.7,19.3,19.3
			C95.7,373.8,87,382.5,76.4,382.5z M111.8,382.5c-2.2,0-4.3-0.4-6.3-1.1c3.3-5.3,5.3-11.5,5.3-18.3c0-6.7-1.9-13-5.3-18.3
			c2-0.7,4.2-1.1,6.3-1.1c10.7,0,19.3,8.7,19.3,19.3C131.1,373.8,122.4,382.5,111.8,382.5z"/>
	</g>
</g>
<g>
	<g>
		<path d="M365.9,490h-72.7c-4.1,0-7.5,3.4-7.5,7.5s3.4,7.5,7.5,7.5h72.7c4.1,0,7.5-3.4,7.5-7.5C373.4,493.4,370.1,490,365.9,490z"
			/>
	</g>
</g>
<g>
	<g>
		<path d="M269.8,490h-14.4c-4.1,0-7.5,3.4-7.5,7.5s3.4,7.5,7.5,7.5h14.4c4.1,0,7.5-3.4,7.5-7.5S274,490,269.8,490z"/>
	</g>
</g>
<g>
	<g>
		<path d="M63.3,490H48.8c-4.1,0-7.5,3.4-7.5,7.5s3.4,7.5,7.5,7.5h14.4c4.1,0,7.5-3.4,7.5-7.5C70.8,493.4,67.4,490,63.3,490z"/>
	</g>
</g>
<g>
	<g>
		<path d="M396,239.9c-10.3-10.3-21.4-19.7-33.2-28c-3.4-2.4-8.1-1.6-10.5,1.8c-2.4,3.4-1.6,8.1,1.8,10.5
			c11.1,7.9,21.6,16.7,31.3,26.4c45.5,45.5,70.6,106,70.6,170.4s-25.1,124.9-70.6,170.4c-45.5,45.5-106,70.6-170.4,70.6
			S90.1,636.8,44.6,591.3c-3.3-3.3-6.6-6.8-9.7-10.3c-0.3-0.8-0.8-1.6-1.4-2.3c-2.8-3.1-7.5-3.3-10.6-0.5c-0.2,0.2-0.4,0.4-0.6,0.6
			c-2.8,2.8-2.9,7.3-0.3,10.2c3.9,4.5,8,8.8,12.1,13c48.4,48.3,112.6,75,181,75s132.7-26.6,181-75c48.3-48.4,75-112.6,75-181
			S444.4,288.2,396,239.9z"/>
	</g>
</g>
<g>
	<g>
		<path d="M344.8,263.6c-0.1-2.1-1.2-4.1-2.9-5.5c-36.6-28.6-80.5-43.8-127-43.8c-32.8,0-64.2,7.5-93.3,22.3
			c-27.7,14.1-52.4,34.7-71.2,59.6C23,332.4,8.5,375.5,8.5,420.9c0,45.4,14.5,88.5,41.9,124.6c0.6,0.8,1.2,1.6,1.8,2.4
			c1.3,1.7,3.3,2.7,5.4,2.9c0.1,0,0.3,0,0.4,0c2,0,3.9-0.8,5.3-2.2l2.3-2.3c0,0,0,0,0,0l276.9-276.9
			C344.2,267.9,345,265.8,344.8,263.6z M158.7,432.1H57v-10h111.7L158.7,432.1z M183.7,407.1H49.5c-4.1,0-7.5,3.4-7.5,7.5v25
			c0,4.1,3.4,7.5,7.5,7.5h94.2l-17.1,17.1H48.4c-4.1,0-7.5,3.4-7.5,7.5s3.4,7.5,7.5,7.5h63.2L59,531.8
			c-23.2-32.5-35.5-70.8-35.5-110.9c0-40.8,12.7-79.7,36.7-112.6h222.3L183.7,407.1z M297.5,293.3H72.3
			c36.4-40.8,87.5-63.9,142.7-63.9c40.2,0,78.4,12.2,110.9,35.5L297.5,293.3z"/>
	</g>
</g>
<g>
	<g>
		<path d="M379.5,296.3c-0.6-0.8-1.2-1.6-1.8-2.4c-1.3-1.7-3.3-2.7-5.4-2.9c-2.1-0.1-4.2,0.7-5.8,2.2l-2.3,2.3c0,0,0,0,0,0
			L87.3,572.4c-1.5,1.5-2.3,3.6-2.2,5.8c0.1,2.1,1.2,4.1,2.9,5.5c36.6,28.6,80.5,43.8,127,43.8c68.9,0,133-34.2,171.5-91.6
			c0.1-0.1,0.1-0.2,0.2-0.3c22.7-34,34.8-73.6,34.8-114.6C421.5,375.5,407,332.4,379.5,296.3z M310.8,384.1c0-1.8,1.5-3.3,3.3-3.3
			h30.6v6.9l0,0h-33.9V384.1z M310.8,402.7h33.9v4.4h-33.9V402.7z M310.8,422.1h33.9v5.3H314c-1.8,0-3.3-1.5-3.3-3.3V422.1z
			 M258.9,422.1h6.1v10h-16.1L258.9,422.1z M375.3,525.5c-10.3,5.2-21.9,8-33.6,8H226.3c-4.1,0-7.5,3.4-7.5,7.5
			c0,4.1,3.4,7.5,7.5,7.5h115.3c5.9,0,11.8-0.6,17.5-1.7c-36.2,41.5-88.5,65.6-144.2,65.6c-40.2,0-78.4-12.2-110.9-35.5l28.4-28.4
			h63.8c4.1,0,7.5-3.4,7.5-7.5c0-4.1-3.4-7.5-7.5-7.5h-48.8l54.3-54.3h164.2c4.1,0,7.5-3.4,7.5-7.5s-3.4-7.5-7.5-7.5H216.7
			l17.1-17.1h38.6c4.1,0,7.5-3.4,7.5-7.5v-25c0-3.7-2.7-6.8-6.3-7.4l22-22v38.9c0,10.1,8.2,18.3,18.3,18.3h54.9
			c10.1,0,18.3-8.2,18.3-18.3v-40c0-10.1-8.2-18.3-18.3-18.3h-53.8L371,310c23.2,32.5,35.5,70.8,35.5,110.9
			C406.5,458.2,395.7,494.4,375.3,525.5z M359.6,427.4v-46.6h9.3l0,0c1.8,0,3.3,1.5,3.3,3.3v40c0,1.8-1.5,3.3-3.3,3.3H359.6z"/>
	</g>
</g>
<g>
	<g>
		<path d="M335.9,195.1c-36.8-19.8-78.6-30.2-120.9-30.2c-68.4,0-132.7,26.6-181,75c-48.3,48.4-75,112.6-75,181
			c0,51.7,15.3,101.4,44.1,143.8c1.5,2.1,3.8,3.3,6.2,3.3c1.5,0,2.9-0.4,4.2-1.3c3.4-2.3,4.3-7,2-10.4
			C-11.6,516.4-26,469.6-26,420.9c0-64.4,25.1-124.9,70.6-170.4c45.5-45.5,106-70.6,170.4-70.6c39.8,0,79.2,9.8,113.8,28.4
			c3.6,2,8.2,0.6,10.2-3.1C340.9,201.6,339.5,197.1,335.9,195.1z"/>
	</g>
</g>
</svg>
