<?xml version="1.0" encoding="utf-8"?>
<!-- Generator: Adobe Illustrator 19.0.1, SVG Export Plug-In . SVG Version: 6.00 Build 0)  -->
<svg version="1.1" id="Слой_1" xmlns="http://www.w3.org/2000/svg" xmlns:xlink="http://www.w3.org/1999/xlink" x="0px" y="0px"
	 viewBox="-41 164.9 512 512" style="enable-background:new -41 164.9 512 512;" xml:space="preserve">
<style type="text/css">
	.st0{fill:#336699;}
</style>
<path class="st0" d="M276,638.4c-5,14.8-15.5,26.2-28.5,32.6c-12.5,6.2-27.2,7.8-41.4,3.4L-2.5,604.1c-14.8-5-26.2-15.5-32.6-28.5
	c-6.4-13-7.9-28.4-2.9-43.2l82.4-244c4.1-12,11.8-22.1,22.4-29.1l99.1-82.5c6.4-5.6,17.1-9.8,25.4-11.2c9.1-1.5,18.5-0.8,27.3,2.2
	l74.5,25c9.9,3.4,18.3,9.2,24.7,16.6c6.5,7.5,10.9,16.7,12.8,26.5l28.8,125.7c1.5,5.4,2.1,11,1.9,16.4c-0.2,5.7-1.2,11.2-2.9,16.4
	l-13.1,38.9c8.5,2.9,17.7,5.5,27.5,7.6c5.4,1.2,8.8,6.5,7.6,11.9c-1.2,5.4-6.5,8.8-11.9,7.6c-10.6-2.4-20.4-5.1-29.6-8.2L276,638.4z
	 M111.4,514.5c0-4.6-2.5-8-6.8-9.5l-52.1-17.5c-5.2-1.8-10.9,1.1-12.7,6.3c-1.8,5.2,1.1,10.9,6.3,12.7l51.8,17.4
	c1.1,0.4,2.2,0.6,3.4,0.6C106.9,524.5,111.4,519.5,111.4,514.5z M179,530.1c-6.2-1.8-12.8,3.2-12.8,9.6c0,4.5,2.3,7.7,6.4,9.3
	c0.2,0.1,0.4,0.2,0.7,0.2l51.4,17.3c5.2,1.8,10.9-1.1,12.7-6.3s-1.1-10.9-6.3-12.7L179,530.1z M138.6,517.3c-5.5,0-10,4.5-10,10
	s4.5,10,10,10c5.5,0,10-4.5,10-10S144.1,517.3,138.6,517.3z M208.8,289.6c0.1-5.5,4.7-9.9,10.2-9.8c5.5,0.1,9.9,4.7,9.8,10.2
	c0,0.1-0.4,12.5,4,30.4c0.3-0.1,0.6-0.3,0.9-0.4c7.7-3.8,14-10.6,16.9-19.3c3-8.8,2.1-18-1.7-25.7c-3.8-7.7-10.6-14-19.3-16.9
	c-8.8-3-18-2.1-25.7,1.7c-7.7,3.8-14,10.6-16.9,19.3c-3,8.8-2.1,18,1.7,25.7c3.8,7.7,10.6,14,19.3,16.9c1.6,0.6,3.3,1,5,1.3
	C208.3,303.3,208.8,289.8,208.8,289.6z M239,339.5c11.5,28.8,35.8,63.9,87.4,86.5l12.8-38.1c1.1-3.4,1.8-6.9,1.9-10.5
	c0.1-3.5-0.3-7.1-1.3-10.7l-28.9-126.4c-1.2-6.7-3.9-12.7-8.4-17.8c-4.1-4.8-9.5-8.5-15.9-10.7l-74.5-25c-5.7-1.9-11.8-2.4-17.7-1.4
	c-1.5,0.2-12.7,4.5-16.1,7L78.1,275.8c-6.9,4.5-12.1,11.2-14.7,18.9l-82.4,244c-3.2,9.6-2.3,19.6,1.9,27.9
	c4.1,8.4,11.5,15.2,21,18.4l206.8,69.8c9.6,3.2,19.6,2.3,27.9-1.9c8.4-4.1,15.2-11.5,18.4-21l63-186.9
	c-60.7-26-88.3-67.8-100.8-101.6c-20.4,0.1-39.3-11.4-48.5-29.9c-13.1-26.6-2.3-58.8,24.3-71.9c26.6-13.1,58.8-2.3,71.9,24.3
	c6.1,12.3,7.5,26.9,2.8,40.9c-4.7,14.1-14.7,24.9-27,31C241.4,338.5,240.2,339,239,339.5z M82.8,398.1l178.5,60.1
	c5.2,1.8,10.9-1.1,12.7-6.3s-1.1-10.9-6.3-12.7L89.1,379.2c-5.2-1.8-10.9,1.1-12.7,6.3S77.5,396.4,82.8,398.1z M64.5,452.3
	L243,512.4c5.2,1.8,10.9-1.1,12.7-6.3s-1.1-10.9-6.3-12.7L70.8,433.3c-5.2-1.8-10.9,1.1-12.7,6.3S59.2,450.6,64.5,452.3z"/>
</svg>
