<?xml version="1.0" encoding="utf-8"?>
<!-- Generator: Adobe Illustrator 19.0.1, SVG Export Plug-In . SVG Version: 6.00 Build 0)  -->
<svg version="1.1" id="Слой_1" xmlns="http://www.w3.org/2000/svg" xmlns:xlink="http://www.w3.org/1999/xlink" x="0px" y="0px"
	 viewBox="-57 180.9 480 480" style="enable-background:new -57 180.9 480 480;" xml:space="preserve">
<style type="text/css">
	.st0{fill:#00CCFF;}
</style>
<path class="st0" d="M7,444.9h32v-24h168c13.3,0,24,10.7,24,24v8h-8c-4.4,0-8,3.6-8,8v32c0,4.4,3.6,8,8,8h6.7l-22.6,150.8
	c-0.3,2.3,0.3,4.6,1.8,6.4c1.5,1.8,3.7,2.8,6.1,2.8h112c2.3,0,4.5-1,6.1-2.8c1.5-1.8,2.2-4.1,1.8-6.4l-22.6-150.8h6.7
	c4.4,0,8-3.6,8-8v-32c0-4.4-3.6-8-8-8h-8v-24c-0.1-48.6-39.4-87.9-88-88h-19.1l-13.7-27.6c-1.4-2.7-4.2-4.4-7.2-4.4h-8v-24
	c0-4.4-3.6-8-8-8h-8v-16h64c4.4,0,8-3.6,8-8v-32c0-4.4-3.6-8-8-8h-64v-8c0-13.3-10.7-24-24-24s-24,10.7-24,24v8H47c-4.4,0-8,3.6-8,8
	v32c0,4.4,3.6,8,8,8h64v16h-8c-4.4,0-8,3.6-8,8v24h-8c-3,0-5.8,1.7-7.2,4.4l-13.8,27.6H39v-24H7v-16h-64v160H7V444.9z M231,468.9h80
	v16h-80V468.9z M317.7,644.9h-15.5L295,580l-15.9,1.8l7,63.1h-29.6l14.4-86.7l-15.8-2.6l-14.9,89.3h-15.9l21.6-144h50.2L317.7,644.9
	z M95,244.9v-16h32v16H95z M175,228.9v16h-32v-16H175z M215,244.9h-24v-16h24V244.9z M127,204.9c0-4.4,3.6-8,8-8s8,3.6,8,8v8h-16
	V204.9z M55,228.9h24v16H55V228.9z M127,260.9h16v16h-16V260.9z M111,292.9h48v16h-48V292.9z M70.2,356.9l39.2,7.8l3.1-15.7l-29.7-6
	l9.1-18.2h86.1l9.1,18.2l-29.8,6l3.1,15.7l39.3-7.8H223c39.7,0,72,32.3,72,72v24h-48v-8c0-22.1-17.9-40-40-40H39v-48H70.2z
	 M23,332.9v96H7v-96H23z M-41,444.9v-128h32v128H-41z"/>
<path class="st0" d="M368.8,551.8c-22.2,27.3-17.9,68.2-17.7,69.9c0.4,3.4,2.9,6.1,6.2,6.8c0.6,0.1,1.2,0.2,1.8,0.2
	c2.8,0,5.4-1.4,6.9-3.8c0.1-0.1,6.4-9.6,37.4-29.4c11.6-5.9,18.4-18.3,17.3-31.2c-2-11.2-10.3-20.3-21.3-23.2
	C387.9,538.2,375.8,542.4,368.8,551.8z M391.7,556.2c1.1,0,2.2,0.2,3.3,0.5c4.9,1.3,8.7,5.2,9.7,10.2c0.8,5.2-2.8,10.7-10,15.3
	c-9.6,6-18.8,12.5-27.6,19.6c0.8-14.3,5.7-28.1,14.1-39.7C383.6,558.5,387.5,556.4,391.7,556.2z"/>
<path class="st0" d="M127.2,553.1c-10.3,5.2-16.9,15.7-17.1,27.2c0.4,13.8,8.6,26.1,21.2,31.7c16.7,7.9,32.1,18.1,45.9,30.4
	c2.2,2.4,5.6,3.2,8.7,2.1s5.1-4,5.2-7.2c0.1-2.3,1.6-57.1-27.2-78.7C153.7,549.8,139.4,547.7,127.2,553.1z M174.2,619.3
	c-11.3-8-23.2-15.2-35.5-21.5c-7.2-2.8-12.1-9.6-12.7-17.3c0.1-5.5,3.2-10.6,8.2-13.1c2-1,4.1-1.5,6.3-1.4c5,0.3,9.8,2.1,13.6,5.3
	C167.1,581,172.4,602.6,174.2,619.3z"/>
<path class="st0" d="M191,548.9h16v16h-16V548.9z"/>
<path class="st0" d="M335,524.9h16v16h-16V524.9z"/>
<path class="st0" d="M159,500.9h16v16h-16V500.9z"/>
<path class="st0" d="M367,460.9h16v16h-16V460.9z"/>
</svg>
