<?xml version="1.0" encoding="utf-8"?>
<!-- Generator: Adobe Illustrator 19.0.1, SVG Export Plug-In . SVG Version: 6.00 Build 0)  -->
<svg version="1.1" id="Capa_1" xmlns="http://www.w3.org/2000/svg" xmlns:xlink="http://www.w3.org/1999/xlink" x="0px" y="0px"
	 viewBox="-62 185.9 470 470" style="enable-background:new -62 185.9 470 470;" xml:space="preserve">
<g>
	<path d="M298.8,570.2c1.7-1.4,2.8-3.5,2.8-5.8c0-0.1,0-341,0-341c0-4.1-3.4-7.5-7.5-7.5h-217c-5.4-17.4-21.5-30-40.6-30
		c-18.8,0-35.2,12.5-40.6,30h-24c-4.1,0-7.5,3.4-7.5,7.5v425c0,4.1,3.4,7.5,7.5,7.5h238.2c2.4,0,4.5-1.1,5.9-2.8L298.8,570.2z
		 M217.6,630.2v-58.3H276L217.6,630.2z M36.5,200.9c10.7,0,19.9,6.1,24.5,15H12C16.6,206.9,26,200.9,36.5,200.9z M-20.6,230.9H64
		v52.5c0,6.9-5.6,12.5-12.5,12.5S39,290.3,39,283.4v-30c0-4.1-3.4-7.5-7.5-7.5s-7.5,3.4-7.5,7.5v30c0,15.2,12.3,27.5,27.5,27.5
		S79,298.6,79,283.4v-52.5h207.6v326h-76.5c-4.1,0-7.5,3.4-7.5,7.5v76.5H-20.6V230.9z"/>
	<path d="M234.1,531.4c4.1,0,7.5-3.4,7.5-7.5s-3.4-7.5-7.5-7.5H31.9c-4.1,0-7.5,3.4-7.5,7.5s3.4,7.5,7.5,7.5H234.1z"/>
	<path d="M31.9,486.4h202.3c4.1,0,7.5-3.4,7.5-7.5s-3.4-7.5-7.5-7.5H31.9c-4.1,0-7.5,3.4-7.5,7.5S27.7,486.4,31.9,486.4z"/>
	<path d="M31.9,441.4h202.3c4.1,0,7.5-3.4,7.5-7.5s-3.4-7.5-7.5-7.5H31.9c-4.1,0-7.5,3.4-7.5,7.5S27.7,441.4,31.9,441.4z"/>
	<path d="M31.9,396.4h202.3c4.1,0,7.5-3.4,7.5-7.5s-3.4-7.5-7.5-7.5H31.9c-4.1,0-7.5,3.4-7.5,7.5S27.7,396.4,31.9,396.4z"/>
	<path d="M31.9,351.4h202.3c4.1,0,7.5-3.4,7.5-7.5s-3.4-7.5-7.5-7.5H31.9c-4.1,0-7.5,3.4-7.5,7.5S27.7,351.4,31.9,351.4z"/>
	<path d="M334.1,215.9h-10c-4.1,0-7.5,3.4-7.5,7.5s3.4,7.5,7.5,7.5h2.5v410h-80.1c-4.1,0-7.5,3.4-7.5,7.5s3.4,7.5,7.5,7.5h87.6
		c4.1,0,7.5-3.4,7.5-7.5v-425C341.6,219.2,338.3,215.9,334.1,215.9z"/>
	<path d="M374.1,215.9h-10c-4.1,0-7.5,3.4-7.5,7.5s3.4,7.5,7.5,7.5h2.5v410h-2.5c-4.1,0-7.5,3.4-7.5,7.5s3.4,7.5,7.5,7.5h10
		c4.1,0,7.5-3.4,7.5-7.5v-425C381.6,219.2,378.3,215.9,374.1,215.9z"/>
</g>
</svg>
