<?xml version="1.0" encoding="utf-8"?>
<!-- Generator: Adobe Illustrator 19.0.1, SVG Export Plug-In . SVG Version: 6.00 Build 0)  -->
<svg version="1.1" id="Слой_1" xmlns="http://www.w3.org/2000/svg" xmlns:xlink="http://www.w3.org/1999/xlink" x="0px" y="0px"
	 viewBox="-41 164.9 512 512" style="enable-background:new -41 164.9 512 512;" xml:space="preserve">
<style type="text/css">
	.st0{fill:#00CCFF;}
</style>
<path class="st0" d="M266.2,456c0,4.7-3.8,8.5-8.5,8.5c-4.7,0-8.5-3.8-8.5-8.5c0-4.7,3.8-8.5,8.5-8.5
	C262.4,447.5,266.2,451.3,266.2,456z"/>
<path class="st0" d="M266.2,541.4c0,4.7-3.8,8.5-8.5,8.5c-4.7,0-8.5-3.8-8.5-8.5c0-4.7,3.8-8.5,8.5-8.5
	C262.4,532.8,266.2,536.6,266.2,541.4z"/>
<path class="st0" d="M383,241.6c6.8-5.8,12.1-13.1,15.5-21.4c6.1-14.9,0.2-33-5.8-45.6c-3.7-7.9-12.9-11.7-21.1-8.8
	c-13.2,4.7-30.1,13.3-36.3,28.2c-2.9,9.2-4,18.8-3.5,28.4v0.4c-2.3,0-4.7,0-6.9,0.1c-7.5-0.2-14.9,0.9-21.9,3.4
	c-14.9,6.2-23.6,23.2-28.2,36.3c-2.9,8.2,0.8,17.3,8.7,21.1c12.6,6,30.7,11.9,45.7,5.8c8.6-3.5,16.3-9.2,22.1-16.5
	c13,26.3,11.5,57.5-3.9,82.5c-5.4-7.6-11.6-14.6-18.6-20.8c-6.5-5.8-16.2-5.8-22.7,0c-11.7,10.4-31.3,31.6-31.3,57.2
	c0,1.5,0.1,2.9,0.1,4.3h-0.1c-58.1,0-102.4,72.7-102.4,102.4c0,38,41.4,99.1,96.4,102.2c2,0.1,3.9,0.2,6,0.2s3.9-0.1,5.8-0.2
	c16.5-0.4,33-3,48.9-7.5c3.6,5.6,7.7,10.9,12.4,15.6c15.4,15.4,38.7,18.5,55,18.5c2.8,0,5.4-0.1,7.7-0.2c8.6-0.5,15.5-7.4,16-16
	c0.9-14.7-0.3-41.1-15.5-59.2c45.6-40.5,69.8-99.8,65.5-160.7C466.2,330.6,433.8,275.3,383,241.6L383,241.6z M291.8,392
	c0-19.6,17.9-37.6,25.7-44.4c7.3,6.5,13.6,14,18.7,22.4c-11.9,12.5-27.4,21-44.3,24.5C291.9,393.7,291.8,392.9,291.8,392z
	 M189.4,498.7c0-20.4,36.6-82.2,82.1-85.1l30.3,30.3c6.7,6.7,6.7,17.5,0,24.1c-6.4,6.4-10,15.1-10,24.1v4.4c0,9.1,3.6,17.7,10,24.1
	l1.3,1.3c6.3,6.3,6.7,16.4,0.9,23.2l-33.1,38.6c-0.4,0-0.9,0-1.3,0C226.1,581.4,189.4,529.8,189.4,498.7z M403.4,610.3
	c-10.3,0.6-35.7,0.5-49.5-13.3c-2.8-2.8-5.4-5.9-7.8-9.1c16.3-6.3,31.6-14.7,45.7-25.1C403.8,577,404,600.5,403.4,610.3z
	 M388.6,543.5c-1,0.5-1.9,1.2-2.7,2.1c-26.4,20.8-58.1,33.7-91.5,37.2l22.6-26.4c11.5-13.6,10.8-33.7-1.8-46.3l-1.3-1.3
	c-3.2-3.2-5-7.5-5-12.1v-4.4c0-4.5,1.8-8.9,5-12.1c13.3-13.3,13.3-34.9,0-48.3l-20.4-20.3c23-4.3,43.9-16.4,59.1-34.2
	c0.3-0.2,0.5-0.5,0.7-0.8c26-31.1,31.2-74.6,13.3-111c-2.6-5.2-7.7-8.8-13.5-9.4c-0.6-0.1-1.2-0.1-1.8-0.1c-5.2,0-10.2,2.4-13.4,6.5
	c-4.1,5-9.3,8.8-15.3,11.2c-7,2.9-18.6,0.9-31.7-5.4c4.8-13.8,11.6-23.3,18.6-26.2c5.2-1.6,10.5-2.3,15.9-2.1
	c2.2-0.1,4.4-0.1,6.5-0.1c1.5,0,3,0,4.2-0.1c5.2,0,9.9-3.2,11.8-8l0.2-0.4c0.5-1.3,0.8-2.7,0.8-4.1l0.1-4.7
	c-0.4-7.4,0.3-14.8,2.2-22c2.9-7,12.5-13.8,26.2-18.7c6.3,13.2,8.3,24.8,5.4,31.7c-2.3,5.7-6,10.8-10.6,14.9
	c-4,3.4-6.2,8.4-5.8,13.7c0.3,5.4,3.2,10.3,7.7,13.3c47.3,31.5,77,83.5,79.9,140.3C456.7,452.6,432.5,507.4,388.6,543.5L388.6,543.5
	z"/>
<path class="st0" d="M180.9,336.6c0,4.7-3.8,8.5-8.5,8.5c-4.7,0-8.5-3.8-8.5-8.5c0-4.7,3.8-8.5,8.5-8.5
	C177,328,180.9,331.8,180.9,336.6z"/>
<path class="st0" d="M180.9,251.2c0,4.7-3.8,8.5-8.5,8.5c-4.7,0-8.5-3.8-8.5-8.5c0-4.7,3.8-8.5,8.5-8.5
	C177,242.7,180.9,246.5,180.9,251.2z"/>
<path class="st0" d="M-41,387.7c-0.2,65.8,33,127.2,88,163.2c-6.8,5.8-12.1,13.1-15.5,21.4c-6.1,14.9-0.2,33,5.8,45.6
	c3.7,7.9,12.8,11.7,21,8.7c13.1-4.6,30.1-13.3,36.3-28.2c2.9-9.2,4-18.8,3.5-28.4v-0.4c2.2,0,4.7,0,6.9-0.1
	c7.5,0.2,14.9-0.9,21.9-3.4c14.9-6.2,23.6-23.1,28.2-36.3c2.9-8.2-0.8-17.3-8.7-21.1c-12.6-6-30.7-11.9-45.7-5.8
	c-8.6,3.5-16.2,9.2-22.1,16.5c-13-26.3-11.5-57.5,3.9-82.5c5.4,7.6,11.6,14.6,18.6,20.8c6.5,5.8,16.2,5.8,22.7,0
	c11.7-10.4,31.3-31.6,31.3-57.2c0-1.5-0.1-2.9-0.1-4.3h0.1c58.1,0,102.4-72.7,102.4-102.4c0-38-41.4-99.1-96.4-102.2
	c-1.8-0.1-3.5,0-5.3,0c-0.6-0.1-1.2-0.1-1.8,0c-1.5,0-3.1-0.1-4.6,0c-16.5,0.4-33,3-48.9,7.5c-3.6-5.6-7.7-10.9-12.4-15.6
	c-18.1-18.1-47-19.2-62.6-18.3c-8.6,0.5-15.5,7.4-16,16c-0.9,14.7,0.3,41.1,15.5,59.2C-17.2,277.7-41.2,331.4-41,387.7z M63.4,527
	c2.6,5.2,7.7,8.8,13.5,9.4c5.8,0.6,11.5-1.8,15.2-6.4c4.1-5,9.3-8.8,15.3-11.3c7-2.9,18.6-0.9,31.7,5.4
	c-4.8,13.8-11.6,23.3-18.6,26.2c-5.2,1.6-10.5,2.3-15.9,2.1c-3.8,0.2-7.9,0.1-10.7,0.2c-5.2,0-9.9,3.2-11.8,8
	c-0.1,0.2-0.1,0.3-0.2,0.5c-0.5,1.3-0.7,2.7-0.8,4.1l-0.1,4.7c0.4,7.4-0.3,14.8-2.2,22c-2.9,7-12.5,13.8-26.2,18.7
	c-6.3-13.2-8.3-24.8-5.4-31.7c2.3-5.7,6-10.8,10.7-14.8c4-3.3,6.2-8.4,5.8-13.6c-0.3-5.4-3.2-10.3-7.7-13.3
	c-47.7-31.7-77.4-84.3-80-141.6c-2.5-57.3,22.5-112.3,67.3-148c0.2-0.1,0.4-0.3,0.6-0.4c26.4-20.8,58.1-33.7,91.6-37.2L113,236.1
	c-11.5,13.6-10.8,33.7,1.8,46.3l1.3,1.3c3.2,3.2,5,7.5,5,12.1v4.4c0,4.5-1.8,8.9-5,12.1c-13.3,13.3-13.3,34.9,0,48.3l20.4,20.3
	c-23,4.3-43.9,16.4-59,34.2c-0.3,0.3-0.5,0.5-0.7,0.8C50.7,447.1,45.5,490.6,63.4,527L63.4,527z M138.2,400.5
	c0,19.6-17.9,37.5-25.7,44.4c-7.3-6.5-13.6-14-18.7-22.4c11.9-12.5,27.4-21,44.3-24.5C138.1,398.8,138.2,399.6,138.2,400.5z
	 M240.6,293.8c0,20.4-36.6,82.2-82.1,85.1l-30.3-30.3c-6.7-6.7-6.7-17.5,0-24.1c6.4-6.4,10-15.1,10-24.1v-4.4
	c0-9.1-3.6-17.7-10-24.1l-1.3-1.3c-6.3-6.3-6.7-16.4-0.9-23.2l33.1-38.6c0.4,0,0.9,0,1.2,0C203.9,211.1,240.6,262.7,240.6,293.8z
	 M26.6,182.2c10.3-0.6,35.7-0.5,49.5,13.3c2.8,2.8,5.4,5.9,7.8,9.1c-16.3,6.3-31.6,14.7-45.7,25.1C26.2,215.6,26,192,26.6,182.2z"/>
<path class="st0" d="M39.6,278.3c-1.1,0.8-28.4,19.5-46.1,81.6c-0.6,2.2-0.4,4.5,0.8,6.5c1.1,2,2.9,3.4,5.1,4.1
	c0.8,0.2,1.5,0.3,2.3,0.3c3.8,0,7.2-2.5,8.2-6.2c15.7-54.9,38.8-71.7,39.3-72.1c3.9-2.6,4.9-7.9,2.3-11.8
	C48.8,276.7,43.5,275.6,39.6,278.3L39.6,278.3z"/>
<path class="st0" d="M91.7,258.3c3.9-2.6,5-7.9,2.4-11.8c-2.6-3.9-7.9-5-11.8-2.4L64.4,256c-3.9,2.6-4.9,7.9-2.3,11.8
	s7.9,5,11.8,2.4L91.7,258.3z"/>
</svg>
