<?xml version="1.0" encoding="utf-8"?>
<!-- Generator: Adobe Illustrator 19.0.1, SVG Export Plug-In . SVG Version: 6.00 Build 0)  -->
<svg version="1.1" id="Layer_1" xmlns="http://www.w3.org/2000/svg" xmlns:xlink="http://www.w3.org/1999/xlink" x="0px" y="0px"
	 viewBox="-41 164.9 512 512" style="enable-background:new -41 164.9 512 512;" xml:space="preserve">
<style type="text/css">
	.st0{fill:#B3404A;}
	.st1{fill:#F4B2B0;}
</style>
<g>
	<path class="st0" d="M391.5,676.9h-37.8c-8,0-14.5-6.5-14.5-14.5s6.5-14.5,14.5-14.5h37.8c27.8,0,50.5-22.7,50.5-50.5V244.4
		c0-27.8-22.6-50.5-50.5-50.5H173.4c-8,0-14.5-6.5-14.5-14.5s6.5-14.5,14.5-14.5h218.1c43.9,0,79.5,35.7,79.5,79.5v352.9
		C471,641.2,435.3,676.9,391.5,676.9z"/>
	<path class="st0" d="M248.7,676.9H38.5c-43.9,0-79.5-35.7-79.5-79.5V244.4c0-43.9,35.7-79.5,79.5-79.5h32.7c8,0,14.5,6.5,14.5,14.5
		s-6.5,14.5-14.5,14.5H38.5c-27.8,0-50.5,22.7-50.5,50.5v352.9c0,27.8,22.6,50.5,50.5,50.5h210.2c8,0,14.5,6.5,14.5,14.5
		C263.2,670.4,256.7,676.9,248.7,676.9z"/>
</g>
<path class="st1" d="M318.6,266.9H111.4c-27.8,0-50.3,22.5-50.3,50.3v207.2c0,27.8,22.5,50.3,50.3,50.3h207.2
	c27.8,0,50.3-22.5,50.3-50.3V317.3C368.9,289.5,346.4,266.9,318.6,266.9z M215,495.7c-41.3,0-74.8-33.5-74.8-74.8
	s33.5-74.8,74.8-74.8s74.8,33.5,74.8,74.8S256.3,495.7,215,495.7z"/>
<g>
	<path class="st0" d="M318.6,589.4H111.4c-35.8,0-64.9-29.1-64.9-64.9V317.3c0-35.8,29.1-64.9,64.9-64.9h207.2
		c35.8,0,64.9,29.1,64.9,64.9v207.2C383.5,560.3,354.4,589.4,318.6,589.4z M111.4,281.5c-19.8,0-35.8,16.1-35.8,35.8v207.2
		c0,19.8,16.1,35.8,35.8,35.8h207.2c19.8,0,35.8-16.1,35.8-35.8V317.3c0-19.8-16.1-35.8-35.8-35.8L111.4,281.5L111.4,281.5z
		 M215,510.2c-49.2,0-89.3-40.1-89.3-89.3s40.1-89.3,89.3-89.3s89.3,40.1,89.3,89.3S264.2,510.2,215,510.2z M215,360.6
		c-33.2,0-60.3,27-60.3,60.3s27,60.3,60.3,60.3s60.3-27,60.3-60.3S248.2,360.6,215,360.6z"/>
	<circle class="st0" cx="305.4" cy="329.4" r="20.4"/>
</g>
</svg>
