<?xml version="1.0" encoding="utf-8"?>
<!-- Generator: Adobe Illustrator 19.0.1, SVG Export Plug-In . SVG Version: 6.00 Build 0)  -->
<svg version="1.1" id="Режим_изоляции"
	 xmlns="http://www.w3.org/2000/svg" xmlns:xlink="http://www.w3.org/1999/xlink" x="0px" y="0px" viewBox="-187 240.9 220 360"
	 style="enable-background:new -187 240.9 220 360;" xml:space="preserve">
<style type="text/css">
	.st0{opacity:0.1;}
	.st1{fill:#213148;}
	.st2{fill:#E4BE8D;}
	.st3{fill:#D6DCDD;}
</style>
<g class="st0">
	<path class="st1" d="M0.3,280.6c-3.9-0.2-7.6-0.3-11.4,0.4c-0.6,0.1-1-0.6-0.6-1c1.7-1.9,3.1-4.1,4.1-6.4c0.2-0.5,1.1-0.1,0.9,0.4
		c-0.8,2-1.9,3.8-3.1,5.5c2-0.3,4-0.4,6.1-0.4c-0.3-0.1-0.4-0.4-0.2-0.7c0.4-0.5,0.8-1.1,1-1.7c-0.3-0.4-0.5-0.8-0.8-1.1
		c-0.4,0.6-0.7,1.3-1,1.9c-0.3,0.5-1,0.1-0.8-0.5c0.3-0.8,0.8-1.5,1.3-2.3c-0.1-0.1-0.1-0.2-0.2-0.3c-0.4,0.4-0.8,0.8-1.2,1.2
		c-0.4,0.4-1.1-0.3-0.6-0.6c0.5-0.4,1-0.8,1.4-1.3c-0.6-1-1.2-2.1-1.7-3.2c-0.4-0.9,0.8-1.6,1.4-0.8c1.1,1.6,2,3.3,3,5
		c1,1.6,2.1,3.3,3.1,4.9C1.1,280,0.8,280.6,0.3,280.6z M-3.2,279.1c0.7,0,1.4,0,2.1,0.1c-0.4-0.5-0.8-1-1.1-1.6
		c-0.2,0.5-0.4,0.9-0.8,1.3C-3.1,279.1-3.2,279.1-3.2,279.1z"/>
	<path class="st1" d="M13.8,256.5c3.1,2.4,6.1,4.6,9.7,6.1c0.6,0.2,0.5,1-0.1,1.2c-2.5,0.6-4.8,1.7-7,3c-0.5,0.3-1-0.5-0.5-0.8
		c1.8-1.2,3.7-2.1,5.7-2.8c-1.8-0.9-3.6-1.9-5.3-3.1c0.1,0.2,0.1,0.6-0.2,0.7c-0.6,0.2-1.3,0.5-1.8,0.8c0,0.4,0,0.9,0,1.4
		c0.6-0.3,1.3-0.7,1.9-1c0.5-0.3,0.9,0.5,0.4,0.8c-0.7,0.5-1.5,0.8-2.3,1.2c0,0.1,0,0.3,0,0.4c0.6-0.1,1.1-0.3,1.7-0.3
		c0.6-0.1,0.7,0.8,0.2,0.8c-0.6,0-1.3,0.2-1.9,0.3c-0.1,1.2-0.2,2.4-0.4,3.6c-0.2,1-1.6,0.9-1.6-0.1c0-1.9,0.2-3.9,0.3-5.8
		c0.1-1.9,0.1-3.9,0.2-5.8C12.8,256.5,13.4,256.2,13.8,256.5z M15.9,259.7c-0.6-0.4-1.1-0.8-1.7-1.2c0,0.6,0.1,1.3,0.1,1.9
		c0.4-0.3,0.9-0.5,1.4-0.7C15.7,259.7,15.8,259.7,15.9,259.7z"/>
	<path class="st1" d="M-16.3,300.9c3.9,0.2,7.6,0.2,11.4-0.6c0.6-0.1,1,0.5,0.6,1c-1.7,1.9-3,4.1-4,6.5c-0.2,0.5-1.1,0.1-0.9-0.4
		c0.8-2,1.8-3.8,3-5.6c-2,0.4-4,0.5-6.1,0.5c0.3,0.1,0.4,0.4,0.2,0.7c-0.4,0.5-0.8,1.1-1,1.7c0.3,0.4,0.5,0.7,0.8,1.1
		c0.3-0.6,0.6-1.3,1-1.9c0.3-0.5,1-0.1,0.8,0.5c-0.3,0.8-0.8,1.5-1.2,2.3c0.1,0.1,0.1,0.2,0.2,0.3c0.4-0.4,0.8-0.9,1.2-1.2
		c0.4-0.4,1.1,0.3,0.6,0.6c-0.5,0.4-1,0.8-1.4,1.3c0.6,1,1.2,2.1,1.8,3.2c0.4,0.9-0.8,1.6-1.3,0.8c-1.1-1.6-2-3.3-3.1-4.9
		c-1-1.6-2.1-3.2-3.1-4.9C-17.1,301.5-16.8,300.9-16.3,300.9z M-12.8,302.3c-0.7,0-1.4,0-2.1,0c0.4,0.5,0.8,1,1.2,1.5
		c0.2-0.5,0.4-0.9,0.7-1.4C-12.9,302.4-12.8,302.4-12.8,302.3z"/>
	<path class="st2" d="M10.7,306.5c-0.2-3.9-0.4-7.6-1.6-11.3c-0.2-0.6,0.5-1.1,1-0.7c2.1,1.5,4.4,2.6,6.8,3.4c0.5,0.2,0.3,1.1-0.3,1
		c-2.1-0.6-4-1.5-5.8-2.5c0.5,2,0.8,4,1,6c0.1-0.3,0.4-0.5,0.7-0.3c0.6,0.4,1.2,0.7,1.8,0.9c0.3-0.3,0.7-0.6,1-0.9
		c-0.7-0.3-1.3-0.5-2-0.8c-0.6-0.2-0.2-1,0.4-0.8c0.8,0.3,1.6,0.6,2.4,1c0.1-0.1,0.2-0.2,0.3-0.3c-0.5-0.3-0.9-0.7-1.3-1.1
		c-0.4-0.4,0.2-1.1,0.6-0.7c0.4,0.5,0.9,0.9,1.4,1.3c1-0.7,2-1.4,3-2c0.9-0.5,1.7,0.6,0.9,1.3c-1.5,1.2-3.1,2.3-4.6,3.5
		c-1.5,1.2-3,2.4-4.6,3.5C11.4,307.3,10.8,307,10.7,306.5z M11.9,302.8c0.1,0.7,0.1,1.4,0.2,2.1c0.5-0.4,0.9-0.9,1.4-1.3
		c-0.5-0.1-1-0.4-1.4-0.6C11.9,303,11.9,302.9,11.9,302.8z"/>
	<path class="st3" d="M-28.5,292.1c-2.8-2.6-5.6-5.1-9.1-7c-0.5-0.3-0.4-1.1,0.2-1.2c2.5-0.4,4.9-1.2,7.2-2.3
		c0.5-0.3,0.9,0.6,0.5,0.9c-1.9,1-3.9,1.7-5.9,2.3c1.8,1,3.4,2.3,4.9,3.6c-0.1-0.3-0.1-0.6,0.3-0.6c0.6-0.1,1.3-0.4,1.9-0.7
		c0-0.5,0.1-0.9,0.1-1.4c-0.7,0.3-1.3,0.6-2,0.8c-0.6,0.2-0.8-0.6-0.3-0.9c0.8-0.4,1.6-0.7,2.4-0.9c0-0.1,0-0.3,0.1-0.4
		c-0.6,0.1-1.1,0.1-1.7,0.1c-0.6,0-0.6-0.9-0.1-0.9c0.6,0,1.3,0,1.9-0.1c0.2-1.2,0.4-2.4,0.7-3.5c0.3-1,1.7-0.8,1.6,0.3
		c-0.2,1.9-0.6,3.8-0.9,5.7s-0.5,3.8-0.8,5.7C-27.5,292.1-28.1,292.4-28.5,292.1z M-30.3,288.7c0.5,0.5,1.1,0.9,1.6,1.4
		c0-0.6,0.1-1.3,0.1-1.9c-0.4,0.2-0.9,0.4-1.4,0.6C-30.1,288.7-30.2,288.7-30.3,288.7z"/>
	<path class="st2" d="M-20.4,258.7c-3.8,0.9-7.4,1.9-10.8,3.8c-0.5,0.3-1.1-0.2-0.9-0.8c1.1-2.3,1.7-4.8,2-7.3c0.1-0.6,1-0.5,1,0.1
		c-0.2,2.1-0.6,4.2-1.3,6.2c1.8-0.9,3.7-1.6,5.7-2.2c-0.3,0-0.5-0.3-0.4-0.6c0.2-0.6,0.4-1.3,0.5-1.9c-0.4-0.3-0.7-0.6-1.1-0.9
		c-0.1,0.7-0.3,1.4-0.4,2.1c-0.1,0.6-1,0.4-0.9-0.2c0.1-0.9,0.3-1.7,0.5-2.5c-0.1-0.1-0.2-0.2-0.3-0.3c-0.2,0.5-0.5,1-0.8,1.5
		c-0.3,0.5-1.1,0.1-0.8-0.4c0.4-0.5,0.7-1.1,0.9-1.7c-0.9-0.8-1.8-1.7-2.6-2.6c-0.7-0.7,0.3-1.8,1.1-1.2c1.5,1.2,2.9,2.6,4.3,3.8
		c1.4,1.3,2.9,2.5,4.4,3.8C-19.7,257.8-19.9,258.5-20.4,258.7z M-24.2,258.3c0.7-0.2,1.4-0.4,2-0.6c-0.5-0.4-1.1-0.8-1.6-1.2
		c0,0.5-0.1,1-0.3,1.5C-24.1,258.2-24.1,258.3-24.2,258.3z"/>
</g>
<g class="st0">
	<path class="st1" d="M0.3,350.6c-3.9-0.2-7.6-0.3-11.4,0.4c-0.6,0.1-1-0.6-0.6-1c1.7-1.9,3.1-4.1,4.1-6.4c0.2-0.5,1.1-0.1,0.9,0.4
		c-0.8,2-1.9,3.8-3.1,5.5c2-0.3,4-0.4,6.1-0.4c-0.3-0.1-0.4-0.4-0.2-0.7c0.4-0.5,0.8-1.1,1-1.7c-0.3-0.4-0.5-0.8-0.8-1.1
		c-0.4,0.6-0.7,1.3-1,1.9c-0.3,0.5-1,0.1-0.8-0.5c0.3-0.8,0.8-1.5,1.3-2.3c-0.1-0.1-0.1-0.2-0.2-0.3c-0.4,0.4-0.8,0.8-1.2,1.2
		c-0.4,0.4-1.1-0.3-0.6-0.6c0.5-0.4,1-0.8,1.4-1.3c-0.6-1.1-1.2-2.1-1.7-3.2c-0.4-0.9,0.8-1.6,1.4-0.8c1.1,1.6,2,3.3,3,5
		c1,1.6,2.1,3.3,3.1,4.9C1.1,350,0.8,350.6,0.3,350.6z M-3.2,349.1c0.7,0,1.4,0,2.1,0.1c-0.4-0.5-0.8-1-1.1-1.6
		c-0.2,0.5-0.4,0.9-0.8,1.3C-3.1,349.1-3.2,349.1-3.2,349.1z"/>
	<path class="st1" d="M13.8,326.5c3.1,2.4,6.1,4.6,9.7,6.1c0.6,0.2,0.5,1-0.1,1.2c-2.5,0.6-4.8,1.7-7,3c-0.5,0.3-1-0.5-0.5-0.8
		c1.8-1.2,3.7-2.1,5.7-2.8c-1.8-0.9-3.6-1.9-5.3-3.1c0.1,0.2,0.1,0.6-0.2,0.7c-0.6,0.2-1.3,0.5-1.8,0.8c0,0.4,0,0.9,0,1.3
		c0.6-0.3,1.3-0.7,1.9-1c0.5-0.3,0.9,0.5,0.4,0.8c-0.7,0.5-1.5,0.8-2.3,1.2c0,0.1,0,0.3,0,0.4c0.6-0.1,1.1-0.3,1.7-0.3
		c0.6-0.1,0.7,0.8,0.2,0.9c-0.6,0-1.3,0.1-1.9,0.3c-0.1,1.2-0.2,2.4-0.4,3.6c-0.2,1-1.6,0.9-1.6-0.1c0-1.9,0.2-3.9,0.3-5.8
		c0.1-1.9,0.1-3.9,0.2-5.8C12.8,326.5,13.4,326.2,13.8,326.5z M15.9,329.7c-0.6-0.4-1.1-0.8-1.7-1.2c0,0.6,0.1,1.3,0.1,1.9
		c0.4-0.3,0.9-0.5,1.4-0.7C15.7,329.7,15.8,329.7,15.9,329.7z"/>
	<path class="st1" d="M-16.3,370.9c3.9,0.2,7.6,0.2,11.4-0.6c0.6-0.1,1,0.6,0.6,1c-1.7,1.9-3,4.1-4,6.5c-0.2,0.5-1.1,0.1-0.9-0.4
		c0.8-2,1.8-3.8,3-5.6c-2,0.4-4,0.5-6.1,0.5c0.3,0.1,0.4,0.4,0.2,0.7c-0.4,0.5-0.8,1.1-1,1.7c0.3,0.4,0.5,0.7,0.8,1.1
		c0.3-0.6,0.6-1.3,1-1.9c0.3-0.5,1-0.1,0.8,0.5c-0.3,0.8-0.8,1.5-1.2,2.3c0.1,0.1,0.1,0.2,0.2,0.3c0.4-0.4,0.8-0.9,1.2-1.2
		c0.4-0.4,1.1,0.3,0.6,0.6c-0.5,0.4-1,0.9-1.4,1.3c0.6,1,1.2,2.1,1.8,3.2c0.4,0.9-0.8,1.6-1.3,0.8c-1.1-1.6-2-3.3-3.1-4.9
		c-1-1.6-2.1-3.2-3.1-4.9C-17.1,371.5-16.8,370.9-16.3,370.9z M-12.8,372.3c-0.7,0-1.4,0-2.1,0c0.4,0.5,0.8,1,1.2,1.6
		c0.2-0.5,0.4-0.9,0.7-1.4C-12.9,372.4-12.8,372.4-12.8,372.3z"/>
	<path class="st2" d="M10.7,376.5c-0.2-3.9-0.4-7.6-1.6-11.3c-0.2-0.6,0.5-1.1,1-0.7c2.1,1.5,4.4,2.6,6.8,3.4
		c0.5,0.2,0.3,1.1-0.3,0.9c-2.1-0.6-4-1.5-5.8-2.5c0.5,1.9,0.8,4,1,6c0.1-0.3,0.4-0.4,0.7-0.3c0.6,0.4,1.2,0.6,1.8,0.9
		c0.3-0.3,0.7-0.6,1-0.9c-0.7-0.3-1.3-0.5-2-0.8c-0.6-0.2-0.2-1,0.4-0.8c0.8,0.3,1.6,0.6,2.4,1c0.1-0.1,0.2-0.2,0.3-0.3
		c-0.5-0.3-0.9-0.7-1.3-1.1c-0.4-0.4,0.2-1.1,0.6-0.7c0.4,0.5,0.9,0.9,1.4,1.3c1-0.7,2-1.4,3-2c0.9-0.5,1.7,0.6,0.9,1.3
		c-1.5,1.2-3.1,2.3-4.6,3.5c-1.5,1.2-3,2.4-4.6,3.6C11.4,377.3,10.8,377,10.7,376.5z M11.9,372.8c0.1,0.7,0.1,1.4,0.2,2.1
		c0.5-0.4,0.9-0.9,1.4-1.3c-0.5-0.1-1-0.4-1.4-0.6C11.9,373,11.9,372.9,11.9,372.8z"/>
	<path class="st3" d="M-28.5,362.1c-2.8-2.6-5.6-5.1-9.1-7c-0.5-0.3-0.4-1.1,0.2-1.2c2.5-0.4,4.9-1.2,7.2-2.3
		c0.5-0.3,0.9,0.6,0.5,0.9c-1.9,1-3.9,1.7-5.9,2.3c1.8,1,3.4,2.3,4.9,3.6c-0.1-0.3-0.1-0.6,0.3-0.6c0.6-0.1,1.3-0.4,1.9-0.7
		c0-0.5,0.1-0.9,0.1-1.4c-0.7,0.3-1.3,0.6-2,0.8c-0.6,0.2-0.8-0.6-0.3-0.9c0.8-0.4,1.6-0.7,2.4-0.9c0-0.1,0-0.3,0.1-0.4
		c-0.6,0.1-1.1,0.1-1.7,0.1c-0.6,0-0.6-0.9-0.1-0.9c0.6,0,1.3,0,1.9-0.1c0.2-1.2,0.4-2.4,0.7-3.5c0.3-1,1.7-0.8,1.6,0.3
		c-0.2,1.9-0.6,3.8-0.9,5.7s-0.5,3.8-0.8,5.7C-27.5,362.1-28.1,362.4-28.5,362.1z M-30.3,358.7c0.5,0.5,1.1,0.9,1.6,1.4
		c0-0.6,0.1-1.3,0.1-1.9c-0.4,0.2-0.9,0.4-1.4,0.6C-30.1,358.7-30.2,358.7-30.3,358.7z"/>
	<path class="st2" d="M-20.4,328.7c-3.8,0.9-7.4,1.9-10.8,3.8c-0.5,0.3-1.1-0.2-0.9-0.8c1.1-2.3,1.7-4.8,2-7.3c0.1-0.6,1-0.5,1,0.1
		c-0.2,2.1-0.6,4.2-1.3,6.2c1.8-0.9,3.7-1.6,5.7-2.2c-0.3,0-0.5-0.3-0.4-0.6c0.2-0.6,0.4-1.3,0.5-1.9c-0.4-0.3-0.7-0.6-1.1-0.9
		c-0.1,0.7-0.3,1.4-0.4,2.1c-0.1,0.6-1,0.4-0.9-0.2c0.1-0.9,0.3-1.7,0.5-2.5c-0.1-0.1-0.2-0.2-0.3-0.3c-0.2,0.5-0.5,1-0.8,1.5
		c-0.3,0.5-1.1,0-0.8-0.4c0.4-0.5,0.7-1.1,0.9-1.7c-0.9-0.8-1.8-1.7-2.6-2.5c-0.7-0.7,0.3-1.8,1.1-1.2c1.5,1.2,2.9,2.6,4.3,3.8
		c1.4,1.3,2.9,2.5,4.4,3.8C-19.7,327.8-19.9,328.6-20.4,328.7z M-24.2,328.3c0.7-0.2,1.4-0.4,2-0.6c-0.5-0.4-1.1-0.8-1.6-1.2
		c0,0.5-0.1,1-0.3,1.5C-24.1,328.2-24.1,328.3-24.2,328.3z"/>
</g>
<g class="st0">
	<path class="st1" d="M0.3,420.6c-3.9-0.2-7.6-0.3-11.4,0.4c-0.6,0.1-1-0.6-0.6-1c1.7-1.9,3.1-4.1,4.1-6.4c0.2-0.5,1.1-0.1,0.9,0.4
		c-0.8,2-1.9,3.8-3.1,5.5c2-0.3,4-0.4,6.1-0.4c-0.3-0.1-0.4-0.4-0.2-0.7c0.4-0.5,0.8-1.1,1-1.7c-0.3-0.4-0.5-0.8-0.8-1.1
		c-0.4,0.6-0.7,1.3-1,1.9c-0.3,0.5-1,0.1-0.8-0.5c0.3-0.8,0.8-1.5,1.3-2.3c-0.1-0.1-0.1-0.2-0.2-0.3c-0.4,0.4-0.8,0.8-1.2,1.2
		c-0.4,0.4-1.1-0.3-0.6-0.6c0.5-0.4,1-0.8,1.4-1.3c-0.6-1.1-1.2-2.1-1.7-3.2c-0.4-0.9,0.8-1.6,1.4-0.8c1.1,1.6,2,3.3,3,4.9
		c1,1.6,2.1,3.3,3.1,4.9C1.1,420,0.8,420.6,0.3,420.6z M-3.2,419.1c0.7,0,1.4,0,2.1,0.1c-0.4-0.5-0.8-1-1.1-1.6
		c-0.2,0.5-0.4,0.9-0.8,1.4C-3.1,419.1-3.2,419.1-3.2,419.1z"/>
	<path class="st1" d="M13.8,396.5c3.1,2.4,6.1,4.6,9.7,6.1c0.6,0.2,0.5,1-0.1,1.2c-2.5,0.6-4.8,1.7-7,3c-0.5,0.3-1-0.5-0.5-0.8
		c1.8-1.2,3.7-2.1,5.7-2.8c-1.8-0.9-3.6-1.9-5.3-3.1c0.1,0.2,0.1,0.6-0.2,0.7c-0.6,0.2-1.3,0.5-1.8,0.8c0,0.5,0,0.9,0,1.4
		c0.6-0.3,1.3-0.7,1.9-1c0.5-0.3,0.9,0.5,0.4,0.8c-0.7,0.5-1.5,0.8-2.3,1.2c0,0.1,0,0.3,0,0.4c0.6-0.1,1.1-0.3,1.7-0.3
		c0.6-0.1,0.7,0.8,0.2,0.9c-0.6,0-1.3,0.1-1.9,0.3c-0.1,1.2-0.2,2.4-0.4,3.6c-0.2,1-1.6,0.9-1.6-0.1c0-1.9,0.2-3.9,0.3-5.8
		c0.1-1.9,0.1-3.9,0.2-5.8C12.8,396.5,13.4,396.2,13.8,396.5z M15.9,399.7c-0.6-0.4-1.1-0.8-1.7-1.2c0,0.6,0.1,1.3,0.1,1.9
		c0.4-0.3,0.9-0.5,1.4-0.7C15.7,399.7,15.8,399.7,15.9,399.7z"/>
	<path class="st1" d="M-16.3,440.9c3.9,0.2,7.6,0.2,11.4-0.6c0.6-0.1,1,0.6,0.6,1c-1.7,1.9-3,4.1-4,6.5c-0.2,0.5-1.1,0.1-0.9-0.4
		c0.8-2,1.8-3.8,3-5.6c-2,0.4-4,0.5-6.1,0.5c0.3,0.1,0.4,0.4,0.2,0.7c-0.4,0.5-0.8,1.1-1,1.7c0.3,0.4,0.5,0.7,0.8,1.1
		c0.3-0.6,0.6-1.3,1-1.9c0.3-0.5,1-0.1,0.8,0.5c-0.3,0.8-0.8,1.5-1.2,2.3c0.1,0.1,0.1,0.2,0.2,0.3c0.4-0.4,0.8-0.9,1.2-1.2
		c0.4-0.4,1.1,0.3,0.6,0.6c-0.5,0.4-1,0.9-1.4,1.3c0.6,1,1.2,2.1,1.8,3.2c0.4,0.9-0.8,1.6-1.3,0.8c-1.1-1.6-2-3.3-3.1-4.9
		c-1-1.6-2.1-3.2-3.1-4.9C-17.1,441.5-16.8,440.9-16.3,440.9z M-12.8,442.3c-0.7,0-1.4,0-2.1,0c0.4,0.5,0.8,1,1.2,1.6
		c0.2-0.5,0.4-0.9,0.7-1.4C-12.9,442.4-12.8,442.4-12.8,442.3z"/>
	<path class="st2" d="M10.7,446.5c-0.2-3.9-0.4-7.6-1.6-11.3c-0.2-0.6,0.5-1.1,1-0.7c2.1,1.5,4.4,2.6,6.8,3.4
		c0.5,0.2,0.3,1.1-0.3,0.9c-2.1-0.6-4-1.5-5.8-2.5c0.5,1.9,0.8,4,1,6c0.1-0.3,0.4-0.4,0.7-0.3c0.6,0.4,1.2,0.6,1.8,0.9
		c0.3-0.3,0.7-0.6,1-0.9c-0.7-0.3-1.3-0.5-2-0.8c-0.6-0.2-0.2-1,0.4-0.8c0.8,0.3,1.6,0.6,2.4,1c0.1-0.1,0.2-0.2,0.3-0.3
		c-0.5-0.3-0.9-0.7-1.3-1.1c-0.4-0.4,0.2-1.1,0.6-0.7c0.4,0.5,0.9,0.9,1.4,1.3c1-0.7,2-1.4,3-2c0.9-0.5,1.7,0.6,0.9,1.3
		c-1.5,1.2-3.1,2.3-4.6,3.5c-1.5,1.2-3,2.4-4.6,3.6C11.4,447.3,10.8,447,10.7,446.5z M11.9,442.8c0.1,0.7,0.1,1.4,0.2,2.1
		c0.5-0.4,0.9-0.9,1.4-1.3c-0.5-0.1-1-0.4-1.4-0.6C11.9,443,11.9,442.9,11.9,442.8z"/>
	<path class="st3" d="M-28.5,432.1c-2.8-2.6-5.6-5.1-9.1-7c-0.5-0.3-0.4-1.1,0.2-1.2c2.5-0.4,4.9-1.2,7.2-2.3
		c0.5-0.3,0.9,0.6,0.5,0.9c-1.9,1-3.9,1.7-5.9,2.3c1.8,1,3.4,2.3,4.9,3.6c-0.1-0.3-0.1-0.6,0.3-0.6c0.6-0.1,1.3-0.4,1.9-0.7
		c0-0.5,0.1-0.9,0.1-1.4c-0.7,0.3-1.3,0.5-2,0.8c-0.6,0.2-0.8-0.6-0.3-0.9c0.8-0.4,1.6-0.7,2.4-0.9c0-0.1,0-0.3,0.1-0.4
		c-0.6,0.1-1.1,0.1-1.7,0.1c-0.6,0-0.6-0.9-0.1-0.9c0.6,0,1.3,0,1.9-0.1c0.2-1.2,0.4-2.4,0.7-3.6c0.3-1,1.7-0.8,1.6,0.3
		c-0.2,1.9-0.6,3.8-0.9,5.7c-0.3,1.9-0.5,3.8-0.8,5.7C-27.5,432.1-28.1,432.4-28.5,432.1z M-30.3,428.7c0.5,0.5,1.1,0.9,1.6,1.4
		c0-0.6,0.1-1.3,0.1-1.9c-0.4,0.2-0.9,0.4-1.4,0.6C-30.1,428.7-30.2,428.7-30.3,428.7z"/>
	<path class="st2" d="M-20.4,398.7c-3.8,0.9-7.4,1.9-10.8,3.8c-0.5,0.3-1.1-0.2-0.9-0.8c1.1-2.3,1.7-4.8,2-7.3c0.1-0.6,1-0.5,1,0.1
		c-0.2,2.1-0.6,4.2-1.3,6.2c1.8-0.9,3.7-1.6,5.7-2.2c-0.3,0-0.5-0.3-0.4-0.6c0.2-0.6,0.4-1.3,0.5-2c-0.4-0.3-0.7-0.6-1.1-0.9
		c-0.1,0.7-0.3,1.4-0.4,2.1c-0.1,0.6-1,0.4-0.9-0.2c0.1-0.9,0.3-1.7,0.5-2.5c-0.1-0.1-0.2-0.2-0.3-0.3c-0.2,0.5-0.5,1-0.8,1.5
		c-0.3,0.5-1.1,0-0.8-0.4c0.4-0.5,0.7-1.1,0.9-1.7c-0.9-0.8-1.8-1.7-2.6-2.5c-0.7-0.7,0.3-1.8,1.1-1.2c1.5,1.2,2.9,2.6,4.3,3.8
		s2.9,2.5,4.4,3.8C-19.7,397.8-19.9,398.6-20.4,398.7z M-24.2,398.3c0.7-0.2,1.4-0.4,2-0.6c-0.5-0.4-1.1-0.8-1.6-1.2
		c0,0.5-0.1,1-0.3,1.5C-24.1,398.2-24.1,398.3-24.2,398.3z"/>
</g>
<g class="st0">
	<path class="st1" d="M0.3,490.6c-3.9-0.2-7.6-0.3-11.4,0.4c-0.6,0.1-1-0.6-0.6-1c1.7-1.9,3.1-4.1,4.1-6.4c0.2-0.5,1.1-0.1,0.9,0.4
		c-0.8,2-1.9,3.8-3.1,5.5c2-0.3,4-0.4,6.1-0.4c-0.3-0.1-0.4-0.4-0.2-0.7c0.4-0.5,0.8-1.1,1-1.7c-0.3-0.4-0.5-0.8-0.8-1.1
		c-0.4,0.6-0.7,1.3-1,1.9c-0.3,0.5-1,0.1-0.8-0.5c0.3-0.8,0.8-1.5,1.3-2.3c-0.1-0.1-0.1-0.2-0.2-0.3c-0.4,0.4-0.8,0.8-1.2,1.2
		c-0.4,0.4-1.1-0.3-0.6-0.6c0.5-0.4,1-0.8,1.4-1.3c-0.6-1.1-1.2-2.1-1.7-3.2c-0.4-0.9,0.8-1.6,1.4-0.8c1.1,1.6,2,3.3,3,4.9
		c1,1.6,2.1,3.3,3.1,4.9C1.1,490,0.8,490.6,0.3,490.6z M-3.2,489.1c0.7,0,1.4,0,2.1,0.1c-0.4-0.5-0.8-1-1.1-1.6
		c-0.2,0.5-0.4,0.9-0.8,1.4C-3.1,489.1-3.2,489.1-3.2,489.1z"/>
	<path class="st1" d="M13.8,466.5c3.1,2.4,6.1,4.6,9.7,6.1c0.6,0.2,0.5,1-0.1,1.2c-2.5,0.6-4.8,1.7-7,3c-0.5,0.3-1-0.5-0.5-0.8
		c1.8-1.2,3.7-2.1,5.7-2.8c-1.8-0.9-3.6-1.9-5.3-3.1c0.1,0.2,0.1,0.6-0.2,0.7c-0.6,0.2-1.3,0.5-1.8,0.8c0,0.5,0,0.9,0,1.4
		c0.6-0.3,1.3-0.7,1.9-1c0.5-0.3,0.9,0.5,0.4,0.8c-0.7,0.5-1.5,0.8-2.3,1.2c0,0.1,0,0.3,0,0.4c0.6-0.1,1.1-0.3,1.7-0.3
		c0.6-0.1,0.7,0.8,0.2,0.9c-0.6,0-1.3,0.1-1.9,0.3c-0.1,1.2-0.2,2.4-0.4,3.6c-0.2,1-1.6,0.9-1.6-0.1c0-1.9,0.2-3.9,0.3-5.8
		c0.1-1.9,0.1-3.9,0.2-5.8C12.8,466.5,13.4,466.2,13.8,466.5z M15.9,469.7c-0.6-0.4-1.1-0.8-1.7-1.2c0,0.6,0.1,1.3,0.1,1.9
		c0.4-0.3,0.9-0.5,1.4-0.7C15.7,469.7,15.8,469.7,15.9,469.7z"/>
	<path class="st1" d="M-16.3,510.9c3.9,0.2,7.6,0.2,11.4-0.6c0.6-0.1,1,0.5,0.6,1c-1.7,1.9-3,4.1-4,6.5c-0.2,0.5-1.1,0.2-0.9-0.4
		c0.8-2,1.8-3.8,3-5.6c-2,0.4-4,0.5-6.1,0.5c0.3,0.1,0.4,0.4,0.2,0.7c-0.4,0.5-0.8,1.1-1,1.7c0.3,0.4,0.5,0.7,0.8,1.1
		c0.3-0.6,0.6-1.3,1-1.9c0.3-0.5,1-0.1,0.8,0.5c-0.3,0.8-0.8,1.5-1.2,2.3c0.1,0.1,0.1,0.2,0.2,0.3c0.4-0.4,0.8-0.8,1.2-1.2
		c0.4-0.4,1.1,0.3,0.6,0.6c-0.5,0.4-1,0.8-1.4,1.3c0.6,1,1.2,2.1,1.8,3.2c0.4,0.9-0.8,1.6-1.3,0.8c-1.1-1.6-2-3.3-3.1-4.9
		c-1-1.6-2.1-3.2-3.1-4.8C-17.1,511.5-16.8,510.9-16.3,510.9z M-12.8,512.3c-0.7,0-1.4,0-2.1,0c0.4,0.5,0.8,1,1.2,1.5
		c0.2-0.5,0.4-0.9,0.7-1.4C-12.9,512.4-12.8,512.4-12.8,512.3z"/>
	<path class="st2" d="M10.7,516.5c-0.2-3.9-0.4-7.6-1.6-11.3c-0.2-0.6,0.5-1.1,1-0.7c2.1,1.5,4.4,2.6,6.8,3.4c0.5,0.2,0.3,1.1-0.3,1
		c-2.1-0.6-4-1.5-5.8-2.5c0.5,2,0.8,4,1,6c0.1-0.3,0.4-0.4,0.7-0.3c0.6,0.4,1.2,0.7,1.8,0.9c0.3-0.3,0.7-0.6,1-0.9
		c-0.7-0.3-1.3-0.5-2-0.8c-0.6-0.2-0.2-1,0.4-0.8c0.8,0.3,1.6,0.6,2.4,1c0.1-0.1,0.2-0.2,0.3-0.3c-0.5-0.3-0.9-0.7-1.3-1.1
		c-0.4-0.4,0.2-1.1,0.6-0.7c0.4,0.5,0.9,0.9,1.4,1.3c1-0.7,2-1.4,3-2c0.9-0.5,1.7,0.6,0.9,1.3c-1.5,1.2-3.1,2.3-4.6,3.5
		c-1.5,1.2-3,2.4-4.6,3.5C11.4,517.3,10.8,517,10.7,516.5z M11.9,512.8c0.1,0.7,0.1,1.4,0.2,2.1c0.5-0.4,0.9-0.9,1.4-1.3
		c-0.5-0.1-1-0.4-1.4-0.6C11.9,513,11.9,512.9,11.9,512.8z"/>
	<path class="st3" d="M-28.5,502.1c-2.8-2.6-5.6-5.1-9.1-7c-0.5-0.3-0.4-1.1,0.2-1.2c2.5-0.4,4.9-1.2,7.2-2.3
		c0.5-0.3,0.9,0.6,0.5,0.9c-1.9,1-3.9,1.7-5.9,2.3c1.8,1,3.4,2.3,4.9,3.6c-0.1-0.3-0.1-0.6,0.3-0.6c0.6-0.1,1.3-0.4,1.9-0.7
		c0-0.5,0.1-0.9,0.1-1.4c-0.7,0.3-1.3,0.5-2,0.8c-0.6,0.2-0.8-0.6-0.3-0.9c0.8-0.4,1.6-0.7,2.4-0.9c0-0.1,0-0.3,0.1-0.4
		c-0.6,0.1-1.1,0.1-1.7,0.1c-0.6,0-0.6-0.9-0.1-0.9c0.6,0,1.3,0,1.9-0.1c0.2-1.2,0.4-2.4,0.7-3.6c0.3-1,1.7-0.8,1.6,0.3
		c-0.2,1.9-0.6,3.8-0.9,5.7c-0.3,1.9-0.5,3.8-0.8,5.7C-27.5,502.1-28.1,502.4-28.5,502.1z M-30.3,498.7c0.5,0.5,1.1,0.9,1.6,1.4
		c0-0.6,0.1-1.3,0.1-1.9c-0.4,0.2-0.9,0.4-1.4,0.5C-30.1,498.7-30.2,498.7-30.3,498.7z"/>
	<path class="st2" d="M-20.4,468.7c-3.8,0.9-7.4,1.9-10.8,3.8c-0.5,0.3-1.1-0.2-0.9-0.8c1.1-2.3,1.7-4.8,2-7.3c0.1-0.6,1-0.5,1,0.1
		c-0.2,2.1-0.6,4.2-1.3,6.2c1.8-0.9,3.7-1.6,5.7-2.2c-0.3,0-0.5-0.3-0.4-0.6c0.2-0.6,0.4-1.3,0.5-2c-0.4-0.3-0.7-0.6-1.1-0.9
		c-0.1,0.7-0.3,1.4-0.4,2.1c-0.1,0.6-1,0.4-0.9-0.2c0.1-0.9,0.3-1.7,0.5-2.5c-0.1-0.1-0.2-0.2-0.3-0.3c-0.2,0.5-0.5,1-0.8,1.5
		c-0.3,0.5-1.1,0-0.8-0.4c0.4-0.5,0.7-1.1,0.9-1.7c-0.9-0.8-1.8-1.7-2.6-2.5c-0.7-0.7,0.3-1.8,1.1-1.2c1.5,1.2,2.9,2.6,4.3,3.8
		s2.9,2.5,4.4,3.8C-19.7,467.8-19.9,468.6-20.4,468.7z M-24.2,468.3c0.7-0.2,1.4-0.4,2-0.6c-0.5-0.4-1.1-0.8-1.6-1.2
		c0,0.5-0.1,1-0.3,1.5C-24.1,468.2-24.1,468.3-24.2,468.3z"/>
</g>
<g class="st0">
	<path class="st1" d="M0.3,560.6c-3.9-0.2-7.6-0.3-11.4,0.4c-0.6,0.1-1-0.6-0.6-1c1.7-1.9,3.1-4.1,4.1-6.4c0.2-0.5,1.1-0.1,0.9,0.4
		c-0.8,2-1.9,3.8-3.1,5.5c2-0.3,4-0.4,6.1-0.4c-0.3-0.1-0.4-0.4-0.2-0.7c0.4-0.5,0.8-1.1,1-1.7c-0.3-0.4-0.5-0.8-0.8-1.1
		c-0.4,0.6-0.7,1.3-1,1.9c-0.3,0.5-1,0.1-0.8-0.5c0.3-0.8,0.8-1.5,1.3-2.3c-0.1-0.1-0.1-0.2-0.2-0.3c-0.4,0.4-0.8,0.8-1.2,1.2
		c-0.4,0.4-1.1-0.3-0.6-0.6c0.5-0.4,1-0.8,1.4-1.3c-0.6-1-1.2-2.1-1.7-3.2c-0.4-0.9,0.8-1.6,1.4-0.8c1.1,1.6,2,3.3,3,5
		s2.1,3.3,3.1,4.9C1.1,560,0.8,560.7,0.3,560.6z M-3.2,559.2c0.7,0,1.4,0,2.1,0.1c-0.4-0.5-0.8-1-1.1-1.6c-0.2,0.5-0.4,0.9-0.8,1.3
		C-3.1,559.1-3.2,559.1-3.2,559.2z"/>
	<path class="st1" d="M13.8,536.5c3.1,2.3,6.1,4.6,9.7,6.1c0.6,0.2,0.5,1-0.1,1.2c-2.5,0.6-4.8,1.7-7,3c-0.5,0.3-1-0.5-0.5-0.8
		c1.8-1.2,3.7-2.1,5.7-2.8c-1.8-0.8-3.6-1.9-5.3-3.1c0.1,0.2,0.1,0.6-0.2,0.7c-0.6,0.2-1.3,0.5-1.8,0.8c0,0.5,0,0.9,0,1.3
		c0.6-0.3,1.3-0.7,1.9-1c0.5-0.3,0.9,0.5,0.4,0.8c-0.7,0.5-1.5,0.8-2.3,1.2c0,0.1,0,0.3,0,0.4c0.6-0.1,1.1-0.3,1.7-0.3
		c0.6-0.1,0.7,0.8,0.2,0.9c-0.6,0-1.3,0.1-1.9,0.3c-0.1,1.2-0.2,2.4-0.4,3.6c-0.2,1-1.6,0.9-1.6-0.1c0-1.9,0.2-3.9,0.3-5.8
		c0.1-1.9,0.1-3.9,0.2-5.8C12.8,536.5,13.4,536.2,13.8,536.5z M15.9,539.7c-0.6-0.4-1.1-0.8-1.7-1.2c0,0.6,0.1,1.3,0.1,1.9
		c0.4-0.3,0.9-0.5,1.4-0.7C15.7,539.7,15.8,539.7,15.9,539.7z"/>
	<path class="st1" d="M-16.3,580.9c3.9,0.2,7.6,0.2,11.4-0.6c0.6-0.1,1,0.5,0.6,1c-1.7,1.9-3,4.1-4,6.5c-0.2,0.5-1.1,0.2-0.9-0.4
		c0.8-2,1.8-3.8,3-5.6c-2,0.4-4,0.5-6.1,0.5c0.3,0.1,0.4,0.4,0.2,0.7c-0.4,0.5-0.8,1.1-1,1.7c0.3,0.4,0.5,0.7,0.8,1.1
		c0.3-0.6,0.6-1.3,1-1.9c0.3-0.5,1-0.1,0.8,0.5c-0.3,0.8-0.8,1.5-1.2,2.3c0.1,0.1,0.1,0.2,0.2,0.3c0.4-0.4,0.8-0.8,1.2-1.2
		c0.4-0.4,1.1,0.3,0.6,0.6c-0.5,0.4-1,0.8-1.4,1.3c0.6,1,1.2,2.1,1.8,3.2c0.4,0.9-0.8,1.6-1.3,0.8c-1.1-1.6-2-3.3-3.1-4.9
		c-1-1.6-2.1-3.2-3.1-4.8C-17.1,581.5-16.8,580.9-16.3,580.9z M-12.8,582.3c-0.7,0-1.4,0-2.1,0c0.4,0.5,0.8,1,1.2,1.5
		c0.2-0.5,0.4-0.9,0.7-1.4C-12.9,582.4-12.8,582.4-12.8,582.3z"/>
	<path class="st2" d="M10.7,586.5c-0.2-3.9-0.4-7.6-1.6-11.3c-0.2-0.6,0.5-1.1,1-0.7c2.1,1.5,4.4,2.6,6.8,3.4c0.5,0.2,0.3,1.1-0.3,1
		c-2.1-0.6-4-1.5-5.8-2.5c0.5,2,0.8,4,1,6c0.1-0.3,0.4-0.5,0.7-0.3c0.6,0.4,1.2,0.7,1.8,0.9c0.3-0.3,0.7-0.6,1-0.9
		c-0.7-0.3-1.3-0.5-2-0.8c-0.6-0.2-0.2-1,0.4-0.8c0.8,0.3,1.6,0.6,2.4,1c0.1-0.1,0.2-0.2,0.3-0.3c-0.5-0.3-0.9-0.7-1.3-1.1
		c-0.4-0.4,0.2-1.1,0.6-0.7c0.4,0.5,0.9,0.9,1.4,1.3c1-0.7,2-1.4,3-2c0.9-0.5,1.7,0.6,0.9,1.3c-1.5,1.2-3.1,2.3-4.6,3.5
		c-1.5,1.2-3,2.4-4.6,3.5C11.4,587.3,10.8,587,10.7,586.5z M11.9,582.8c0.1,0.7,0.1,1.4,0.2,2.1c0.5-0.4,0.9-0.9,1.4-1.3
		c-0.5-0.1-1-0.4-1.4-0.6C11.9,583,11.9,582.9,11.9,582.8z"/>
	<path class="st3" d="M-28.5,572.1c-2.8-2.6-5.6-5.1-9.1-7c-0.5-0.3-0.4-1.1,0.2-1.2c2.5-0.3,4.9-1.2,7.2-2.3
		c0.5-0.3,0.9,0.6,0.5,0.9c-1.9,1-3.9,1.7-5.9,2.3c1.8,1,3.4,2.3,4.9,3.6c-0.1-0.3-0.1-0.6,0.3-0.6c0.6-0.1,1.3-0.4,1.9-0.7
		c0-0.5,0.1-0.9,0.1-1.4c-0.7,0.3-1.3,0.5-2,0.8c-0.6,0.2-0.8-0.6-0.3-0.9c0.8-0.4,1.6-0.7,2.4-0.9c0-0.1,0-0.3,0.1-0.4
		c-0.6,0.1-1.1,0.1-1.7,0.1c-0.6,0-0.6-0.9-0.1-0.9c0.6,0,1.3,0,1.9-0.1c0.2-1.2,0.4-2.4,0.7-3.5c0.3-1,1.7-0.8,1.6,0.3
		c-0.2,1.9-0.6,3.8-0.9,5.7c-0.3,1.9-0.5,3.8-0.8,5.7C-27.5,572.1-28.1,572.4-28.5,572.1z M-30.3,568.7c0.5,0.5,1.1,0.9,1.6,1.4
		c0-0.6,0.1-1.3,0.1-1.9c-0.4,0.2-0.9,0.4-1.4,0.5C-30.1,568.7-30.2,568.7-30.3,568.7z"/>
	<path class="st2" d="M-20.4,538.7c-3.8,0.9-7.4,1.9-10.8,3.8c-0.5,0.3-1.1-0.2-0.9-0.8c1.1-2.3,1.7-4.8,2-7.3c0.1-0.6,1-0.5,1,0.1
		c-0.2,2.1-0.6,4.2-1.3,6.2c1.8-0.9,3.7-1.6,5.7-2.2c-0.3,0-0.5-0.3-0.4-0.6c0.2-0.6,0.4-1.3,0.5-2c-0.4-0.3-0.7-0.6-1.1-0.9
		c-0.1,0.7-0.3,1.4-0.4,2.1c-0.1,0.6-1,0.4-0.9-0.2c0.1-0.9,0.3-1.7,0.5-2.5c-0.1-0.1-0.2-0.2-0.3-0.3c-0.2,0.5-0.5,1-0.8,1.5
		c-0.3,0.5-1.1,0-0.8-0.4c0.4-0.5,0.7-1.1,0.9-1.7c-0.9-0.8-1.8-1.7-2.6-2.5c-0.7-0.7,0.3-1.8,1.1-1.2c1.5,1.2,2.9,2.6,4.3,3.8
		c1.4,1.3,2.9,2.5,4.4,3.8C-19.7,537.8-19.9,538.5-20.4,538.7z M-24.2,538.3c0.7-0.2,1.4-0.4,2-0.6c-0.5-0.4-1.1-0.8-1.6-1.2
		c0,0.5-0.1,1-0.3,1.5C-24.1,538.2-24.1,538.3-24.2,538.3z"/>
</g>
<g class="st0">
	<path class="st1" d="M-69.7,280.6c-3.9-0.2-7.6-0.3-11.4,0.4c-0.6,0.1-1-0.6-0.6-1c1.7-1.9,3.1-4.1,4.1-6.4
		c0.2-0.5,1.1-0.1,0.9,0.4c-0.8,2-1.8,3.8-3.1,5.5c2-0.3,4-0.4,6.1-0.4c-0.3-0.1-0.4-0.4-0.2-0.7c0.4-0.5,0.8-1.1,1-1.7
		c-0.3-0.4-0.5-0.8-0.8-1.1c-0.3,0.6-0.7,1.3-1,1.9c-0.3,0.5-1,0.1-0.8-0.5c0.3-0.8,0.8-1.5,1.3-2.3c-0.1-0.1-0.1-0.2-0.2-0.3
		c-0.4,0.4-0.8,0.8-1.2,1.2c-0.4,0.4-1.1-0.3-0.6-0.6c0.5-0.4,1-0.8,1.4-1.3c-0.6-1-1.2-2.1-1.7-3.2c-0.4-0.9,0.8-1.6,1.4-0.8
		c1.1,1.6,2,3.3,3,5c1,1.6,2.1,3.3,3.1,4.9C-68.8,280-69.2,280.6-69.7,280.6z M-73.2,279.1c0.7,0,1.4,0,2.1,0.1
		c-0.4-0.5-0.8-1-1.2-1.6c-0.2,0.5-0.4,0.9-0.8,1.3C-73.1,279.1-73.2,279.1-73.2,279.1z"/>
	<path class="st1" d="M-56.2,256.5c3.1,2.4,6.1,4.6,9.7,6.1c0.6,0.2,0.5,1-0.1,1.2c-2.5,0.6-4.8,1.7-7,3c-0.5,0.3-1-0.5-0.5-0.8
		c1.8-1.2,3.7-2.1,5.7-2.8c-1.8-0.9-3.6-1.9-5.3-3.1c0.1,0.2,0.1,0.6-0.2,0.7c-0.6,0.2-1.3,0.5-1.8,0.8c0,0.4,0,0.9,0,1.4
		c0.6-0.3,1.3-0.7,1.9-1c0.5-0.3,0.9,0.5,0.4,0.8c-0.7,0.5-1.5,0.8-2.3,1.2c0,0.1,0,0.3,0,0.4c0.6-0.1,1.1-0.3,1.7-0.3
		c0.6-0.1,0.7,0.8,0.2,0.8c-0.6,0-1.3,0.2-1.9,0.3c-0.1,1.2-0.2,2.4-0.4,3.6c-0.2,1-1.6,0.9-1.6-0.1c0-1.9,0.2-3.9,0.3-5.8
		c0.1-1.9,0.1-3.9,0.2-5.8C-57.2,256.5-56.6,256.2-56.2,256.5z M-54.1,259.7c-0.6-0.4-1.1-0.8-1.7-1.2c0,0.6,0.1,1.3,0.1,1.9
		c0.4-0.3,0.9-0.5,1.4-0.7C-54.3,259.7-54.2,259.7-54.1,259.7z"/>
	<path class="st1" d="M-86.3,300.9c3.9,0.2,7.6,0.2,11.4-0.6c0.6-0.1,1,0.5,0.6,1c-1.7,1.9-3,4.1-4,6.5c-0.2,0.5-1.1,0.1-0.9-0.4
		c0.8-2,1.8-3.8,3-5.6c-2,0.4-4,0.5-6.1,0.5c0.3,0.1,0.4,0.4,0.2,0.7c-0.4,0.5-0.8,1.1-1,1.7c0.3,0.4,0.5,0.7,0.8,1.1
		c0.3-0.6,0.6-1.3,1-1.9c0.3-0.5,1-0.1,0.8,0.5c-0.3,0.8-0.8,1.5-1.2,2.3c0.1,0.1,0.2,0.2,0.2,0.3c0.4-0.4,0.8-0.9,1.2-1.2
		c0.4-0.4,1.1,0.3,0.6,0.6c-0.5,0.4-1,0.8-1.4,1.3c0.6,1,1.2,2.1,1.8,3.2c0.4,0.9-0.8,1.6-1.3,0.8c-1.1-1.6-2-3.3-3.1-4.9
		c-1-1.6-2.1-3.2-3.2-4.9C-87.2,301.5-86.8,300.9-86.3,300.9z M-82.8,302.3c-0.7,0-1.4,0-2.1,0c0.4,0.5,0.8,1,1.2,1.5
		c0.2-0.5,0.4-0.9,0.7-1.4C-82.9,302.4-82.8,302.4-82.8,302.3z"/>
	<path class="st2" d="M-59.3,306.5c-0.2-3.9-0.4-7.6-1.6-11.3c-0.2-0.6,0.5-1.1,1-0.7c2,1.5,4.4,2.6,6.8,3.4c0.5,0.2,0.3,1.1-0.3,1
		c-2.1-0.6-4-1.5-5.8-2.5c0.5,2,0.8,4,1,6c0.1-0.3,0.4-0.5,0.7-0.3c0.6,0.4,1.2,0.7,1.8,0.9c0.3-0.3,0.7-0.6,1-0.9
		c-0.7-0.3-1.3-0.5-2-0.8c-0.6-0.2-0.2-1,0.4-0.8c0.8,0.3,1.6,0.6,2.4,1c0.1-0.1,0.2-0.2,0.3-0.3c-0.5-0.3-0.9-0.7-1.3-1.1
		c-0.4-0.4,0.2-1.1,0.6-0.7c0.4,0.5,0.9,0.9,1.4,1.3c1-0.7,2-1.4,3-2c0.9-0.5,1.7,0.6,0.9,1.3c-1.5,1.2-3.1,2.3-4.6,3.5
		c-1.5,1.2-3,2.4-4.6,3.5C-58.6,307.3-59.2,307-59.3,306.5z M-58.1,302.8c0.1,0.7,0.1,1.4,0.2,2.1c0.5-0.4,0.9-0.9,1.4-1.3
		c-0.5-0.1-1-0.4-1.4-0.6C-58.1,303-58.1,302.9-58.1,302.8z"/>
	<path class="st3" d="M-98.5,292.1c-2.8-2.6-5.6-5.1-9.1-7c-0.5-0.3-0.4-1.1,0.2-1.2c2.5-0.4,4.9-1.2,7.2-2.3
		c0.5-0.3,0.9,0.6,0.5,0.9c-1.9,1-3.9,1.7-5.9,2.3c1.8,1,3.4,2.3,4.9,3.6c-0.1-0.3-0.1-0.6,0.3-0.6c0.7-0.1,1.3-0.4,1.9-0.7
		c0-0.5,0.1-0.9,0.1-1.4c-0.7,0.3-1.3,0.6-2,0.8c-0.6,0.2-0.8-0.6-0.3-0.9c0.8-0.4,1.6-0.7,2.4-0.9c0-0.1,0-0.3,0.1-0.4
		c-0.6,0.1-1.1,0.1-1.7,0.1c-0.6,0-0.6-0.9-0.1-0.9c0.6,0,1.3,0,1.9-0.1c0.2-1.2,0.4-2.4,0.7-3.5c0.3-1,1.7-0.8,1.6,0.3
		c-0.2,1.9-0.6,3.8-0.9,5.7c-0.3,1.9-0.5,3.8-0.8,5.7C-97.5,292.1-98.1,292.4-98.5,292.1z M-100.3,288.7c0.5,0.5,1.1,0.9,1.6,1.4
		c0-0.6,0.1-1.3,0.1-1.9c-0.4,0.2-0.9,0.4-1.4,0.6C-100.1,288.7-100.2,288.7-100.3,288.7z"/>
	<path class="st2" d="M-90.4,258.7c-3.8,0.9-7.4,1.9-10.8,3.8c-0.5,0.3-1.2-0.2-0.9-0.8c1.1-2.3,1.7-4.8,2-7.3c0.1-0.6,1-0.5,1,0.1
		c-0.2,2.1-0.6,4.2-1.3,6.2c1.8-0.9,3.7-1.6,5.7-2.2c-0.3,0-0.5-0.3-0.4-0.6c0.2-0.6,0.4-1.3,0.5-1.9c-0.3-0.3-0.7-0.6-1.1-0.9
		c-0.1,0.7-0.3,1.4-0.4,2.1c-0.1,0.6-1,0.4-0.9-0.2c0.1-0.9,0.3-1.7,0.5-2.5c-0.1-0.1-0.2-0.2-0.3-0.3c-0.2,0.5-0.5,1-0.8,1.5
		c-0.3,0.5-1.1,0.1-0.8-0.4c0.4-0.5,0.7-1.1,0.9-1.7c-0.9-0.8-1.8-1.7-2.6-2.6c-0.7-0.7,0.3-1.8,1.1-1.2c1.5,1.2,2.9,2.6,4.3,3.8
		c1.4,1.3,2.9,2.5,4.4,3.8C-89.7,257.8-89.9,258.5-90.4,258.7z M-94.2,258.3c0.7-0.2,1.4-0.4,2-0.6c-0.5-0.4-1.1-0.8-1.6-1.2
		c0,0.5-0.2,1-0.3,1.5C-94.1,258.2-94.1,258.3-94.2,258.3z"/>
</g>
<g class="st0">
	<path class="st1" d="M-69.7,350.6c-3.9-0.2-7.6-0.3-11.4,0.4c-0.6,0.1-1-0.6-0.6-1c1.7-1.9,3.1-4.1,4.1-6.4
		c0.2-0.5,1.1-0.1,0.9,0.4c-0.8,2-1.8,3.8-3.1,5.5c2-0.3,4-0.4,6.1-0.4c-0.3-0.1-0.4-0.4-0.2-0.7c0.4-0.5,0.8-1.1,1-1.7
		c-0.3-0.4-0.5-0.8-0.8-1.1c-0.3,0.6-0.7,1.3-1,1.9c-0.3,0.5-1,0.1-0.8-0.5c0.3-0.8,0.8-1.5,1.3-2.3c-0.1-0.1-0.1-0.2-0.2-0.3
		c-0.4,0.4-0.8,0.8-1.2,1.2c-0.4,0.4-1.1-0.3-0.6-0.6c0.5-0.4,1-0.8,1.4-1.3c-0.6-1.1-1.2-2.1-1.7-3.2c-0.4-0.9,0.8-1.6,1.4-0.8
		c1.1,1.6,2,3.3,3,5c1,1.6,2.1,3.3,3.1,4.9C-68.8,350-69.2,350.6-69.7,350.6z M-73.2,349.1c0.7,0,1.4,0,2.1,0.1
		c-0.4-0.5-0.8-1-1.2-1.6c-0.2,0.5-0.4,0.9-0.8,1.3C-73.1,349.1-73.2,349.1-73.2,349.1z"/>
	<path class="st1" d="M-56.2,326.5c3.1,2.4,6.1,4.6,9.7,6.1c0.6,0.2,0.5,1-0.1,1.2c-2.5,0.6-4.8,1.7-7,3c-0.5,0.3-1-0.5-0.5-0.8
		c1.8-1.2,3.7-2.1,5.7-2.8c-1.8-0.9-3.6-1.9-5.3-3.1c0.1,0.2,0.1,0.6-0.2,0.7c-0.6,0.2-1.3,0.5-1.8,0.8c0,0.4,0,0.9,0,1.3
		c0.6-0.3,1.3-0.7,1.9-1c0.5-0.3,0.9,0.5,0.4,0.8c-0.7,0.5-1.5,0.8-2.3,1.2c0,0.1,0,0.3,0,0.4c0.6-0.1,1.1-0.3,1.7-0.3
		c0.6-0.1,0.7,0.8,0.2,0.9c-0.6,0-1.3,0.1-1.9,0.3c-0.1,1.2-0.2,2.4-0.4,3.6c-0.2,1-1.6,0.9-1.6-0.1c0-1.9,0.2-3.9,0.3-5.8
		c0.1-1.9,0.1-3.9,0.2-5.8C-57.2,326.5-56.6,326.2-56.2,326.5z M-54.1,329.7c-0.6-0.4-1.1-0.8-1.7-1.2c0,0.6,0.1,1.3,0.1,1.9
		c0.4-0.3,0.9-0.5,1.4-0.7C-54.3,329.7-54.2,329.7-54.1,329.7z"/>
	<path class="st1" d="M-86.3,370.9c3.9,0.2,7.6,0.2,11.4-0.6c0.6-0.1,1,0.6,0.6,1c-1.7,1.9-3,4.1-4,6.5c-0.2,0.5-1.1,0.1-0.9-0.4
		c0.8-2,1.8-3.8,3-5.6c-2,0.4-4,0.5-6.1,0.5c0.3,0.1,0.4,0.4,0.2,0.7c-0.4,0.5-0.8,1.1-1,1.7c0.3,0.4,0.5,0.7,0.8,1.1
		c0.3-0.6,0.6-1.3,1-1.9c0.3-0.5,1-0.1,0.8,0.5c-0.3,0.8-0.8,1.5-1.2,2.3c0.1,0.1,0.2,0.2,0.2,0.3c0.4-0.4,0.8-0.9,1.2-1.2
		c0.4-0.4,1.1,0.3,0.6,0.6c-0.5,0.4-1,0.9-1.4,1.3c0.6,1,1.2,2.1,1.8,3.2c0.4,0.9-0.8,1.6-1.3,0.8c-1.1-1.6-2-3.3-3.1-4.9
		c-1-1.6-2.1-3.2-3.2-4.9C-87.2,371.5-86.8,370.9-86.3,370.9z M-82.8,372.3c-0.7,0-1.4,0-2.1,0c0.4,0.5,0.8,1,1.2,1.6
		c0.2-0.5,0.4-0.9,0.7-1.4C-82.9,372.4-82.8,372.4-82.8,372.3z"/>
	<path class="st2" d="M-59.3,376.5c-0.2-3.9-0.4-7.6-1.6-11.3c-0.2-0.6,0.5-1.1,1-0.7c2,1.5,4.4,2.6,6.8,3.4
		c0.5,0.2,0.3,1.1-0.3,0.9c-2.1-0.6-4-1.5-5.8-2.5c0.5,1.9,0.8,4,1,6c0.1-0.3,0.4-0.4,0.7-0.3c0.6,0.4,1.2,0.6,1.8,0.9
		c0.3-0.3,0.7-0.6,1-0.9c-0.7-0.3-1.3-0.5-2-0.8c-0.6-0.2-0.2-1,0.4-0.8c0.8,0.3,1.6,0.6,2.4,1c0.1-0.1,0.2-0.2,0.3-0.3
		c-0.5-0.3-0.9-0.7-1.3-1.1c-0.4-0.4,0.2-1.1,0.6-0.7c0.4,0.5,0.9,0.9,1.4,1.3c1-0.7,2-1.4,3-2c0.9-0.5,1.7,0.6,0.9,1.3
		c-1.5,1.2-3.1,2.3-4.6,3.5c-1.5,1.2-3,2.4-4.6,3.6C-58.6,377.3-59.2,377-59.3,376.5z M-58.1,372.8c0.1,0.7,0.1,1.4,0.2,2.1
		c0.5-0.4,0.9-0.9,1.4-1.3c-0.5-0.1-1-0.4-1.4-0.6C-58.1,373-58.1,372.9-58.1,372.8z"/>
	<path class="st3" d="M-98.5,362.1c-2.8-2.6-5.6-5.1-9.1-7c-0.5-0.3-0.4-1.1,0.2-1.2c2.5-0.4,4.9-1.2,7.2-2.3
		c0.5-0.3,0.9,0.6,0.5,0.9c-1.9,1-3.9,1.7-5.9,2.3c1.8,1,3.4,2.3,4.9,3.6c-0.1-0.3-0.1-0.6,0.3-0.6c0.7-0.1,1.3-0.4,1.9-0.7
		c0-0.5,0.1-0.9,0.1-1.4c-0.7,0.3-1.3,0.6-2,0.8c-0.6,0.2-0.8-0.6-0.3-0.9c0.8-0.4,1.6-0.7,2.4-0.9c0-0.1,0-0.3,0.1-0.4
		c-0.6,0.1-1.1,0.1-1.7,0.1c-0.6,0-0.6-0.9-0.1-0.9c0.6,0,1.3,0,1.9-0.1c0.2-1.2,0.4-2.4,0.7-3.5c0.3-1,1.7-0.8,1.6,0.3
		c-0.2,1.9-0.6,3.8-0.9,5.7c-0.3,1.9-0.5,3.8-0.8,5.7C-97.5,362.1-98.1,362.4-98.5,362.1z M-100.3,358.7c0.5,0.5,1.1,0.9,1.6,1.4
		c0-0.6,0.1-1.3,0.1-1.9c-0.4,0.2-0.9,0.4-1.4,0.6C-100.1,358.7-100.2,358.7-100.3,358.7z"/>
	<path class="st2" d="M-90.4,328.7c-3.8,0.9-7.4,1.9-10.8,3.8c-0.5,0.3-1.2-0.2-0.9-0.8c1.1-2.3,1.7-4.8,2-7.3c0.1-0.6,1-0.5,1,0.1
		c-0.2,2.1-0.6,4.2-1.3,6.2c1.8-0.9,3.7-1.6,5.7-2.2c-0.3,0-0.5-0.3-0.4-0.6c0.2-0.6,0.4-1.3,0.5-1.9c-0.3-0.3-0.7-0.6-1.1-0.9
		c-0.1,0.7-0.3,1.4-0.4,2.1c-0.1,0.6-1,0.4-0.9-0.2c0.1-0.9,0.3-1.7,0.5-2.5c-0.1-0.1-0.2-0.2-0.3-0.3c-0.2,0.5-0.5,1-0.8,1.5
		c-0.3,0.5-1.1,0-0.8-0.4c0.4-0.5,0.7-1.1,0.9-1.7c-0.9-0.8-1.8-1.7-2.6-2.5c-0.7-0.7,0.3-1.8,1.1-1.2c1.5,1.2,2.9,2.6,4.3,3.8
		c1.4,1.3,2.9,2.5,4.4,3.8C-89.7,327.8-89.9,328.6-90.4,328.7z M-94.2,328.3c0.7-0.2,1.4-0.4,2-0.6c-0.5-0.4-1.1-0.8-1.6-1.2
		c0,0.5-0.2,1-0.3,1.5C-94.1,328.2-94.1,328.3-94.2,328.3z"/>
</g>
<g class="st0">
	<path class="st1" d="M-69.7,420.6c-3.9-0.2-7.6-0.3-11.4,0.4c-0.6,0.1-1-0.6-0.6-1c1.7-1.9,3.1-4.1,4.1-6.4
		c0.2-0.5,1.1-0.1,0.9,0.4c-0.8,2-1.8,3.8-3.1,5.5c2-0.3,4-0.4,6.1-0.4c-0.3-0.1-0.4-0.4-0.2-0.7c0.4-0.5,0.8-1.1,1-1.7
		c-0.3-0.4-0.5-0.8-0.8-1.1c-0.3,0.6-0.7,1.3-1,1.9c-0.3,0.5-1,0.1-0.8-0.5c0.3-0.8,0.8-1.5,1.3-2.3c-0.1-0.1-0.1-0.2-0.2-0.3
		c-0.4,0.4-0.8,0.8-1.2,1.2c-0.4,0.4-1.1-0.3-0.6-0.6c0.5-0.4,1-0.8,1.4-1.3c-0.6-1.1-1.2-2.1-1.7-3.2c-0.4-0.9,0.8-1.6,1.4-0.8
		c1.1,1.6,2,3.3,3,4.9c1,1.6,2.1,3.3,3.1,4.9C-68.8,420-69.2,420.6-69.7,420.6z M-73.2,419.1c0.7,0,1.4,0,2.1,0.1
		c-0.4-0.5-0.8-1-1.2-1.6c-0.2,0.5-0.4,0.9-0.8,1.4C-73.1,419.1-73.2,419.1-73.2,419.1z"/>
	<path class="st1" d="M-56.2,396.5c3.1,2.4,6.1,4.6,9.7,6.1c0.6,0.2,0.5,1-0.1,1.2c-2.5,0.6-4.8,1.7-7,3c-0.5,0.3-1-0.5-0.5-0.8
		c1.8-1.2,3.7-2.1,5.7-2.8c-1.8-0.9-3.6-1.9-5.3-3.1c0.1,0.2,0.1,0.6-0.2,0.7c-0.6,0.2-1.3,0.5-1.8,0.8c0,0.5,0,0.9,0,1.4
		c0.6-0.3,1.3-0.7,1.9-1c0.5-0.3,0.9,0.5,0.4,0.8c-0.7,0.5-1.5,0.8-2.3,1.2c0,0.1,0,0.3,0,0.4c0.6-0.1,1.1-0.3,1.7-0.3
		c0.6-0.1,0.7,0.8,0.2,0.9c-0.6,0-1.3,0.1-1.9,0.3c-0.1,1.2-0.2,2.4-0.4,3.6c-0.2,1-1.6,0.9-1.6-0.1c0-1.9,0.2-3.9,0.3-5.8
		c0.1-1.9,0.1-3.9,0.2-5.8C-57.2,396.5-56.6,396.2-56.2,396.5z M-54.1,399.7c-0.6-0.4-1.1-0.8-1.7-1.2c0,0.6,0.1,1.3,0.1,1.9
		c0.4-0.3,0.9-0.5,1.4-0.7C-54.3,399.7-54.2,399.7-54.1,399.7z"/>
	<path class="st1" d="M-86.3,440.9c3.9,0.2,7.6,0.2,11.4-0.6c0.6-0.1,1,0.6,0.6,1c-1.7,1.9-3,4.1-4,6.5c-0.2,0.5-1.1,0.1-0.9-0.4
		c0.8-2,1.8-3.8,3-5.6c-2,0.4-4,0.5-6.1,0.5c0.3,0.1,0.4,0.4,0.2,0.7c-0.4,0.5-0.8,1.1-1,1.7c0.3,0.4,0.5,0.7,0.8,1.1
		c0.3-0.6,0.6-1.3,1-1.9c0.3-0.5,1-0.1,0.8,0.5c-0.3,0.8-0.8,1.5-1.2,2.3c0.1,0.1,0.2,0.2,0.2,0.3c0.4-0.4,0.8-0.9,1.2-1.2
		c0.4-0.4,1.1,0.3,0.6,0.6c-0.5,0.4-1,0.9-1.4,1.3c0.6,1,1.2,2.1,1.8,3.2c0.4,0.9-0.8,1.6-1.3,0.8c-1.1-1.6-2-3.3-3.1-4.9
		c-1-1.6-2.1-3.2-3.2-4.9C-87.2,441.5-86.8,440.9-86.3,440.9z M-82.8,442.3c-0.7,0-1.4,0-2.1,0c0.4,0.5,0.8,1,1.2,1.6
		c0.2-0.5,0.4-0.9,0.7-1.4C-82.9,442.4-82.8,442.4-82.8,442.3z"/>
	<path class="st2" d="M-59.3,446.5c-0.2-3.9-0.4-7.6-1.6-11.3c-0.2-0.6,0.5-1.1,1-0.7c2,1.5,4.4,2.6,6.8,3.4
		c0.5,0.2,0.3,1.1-0.3,0.9c-2.1-0.6-4-1.5-5.8-2.5c0.5,1.9,0.8,4,1,6c0.1-0.3,0.4-0.4,0.7-0.3c0.6,0.4,1.2,0.6,1.8,0.9
		c0.3-0.3,0.7-0.6,1-0.9c-0.7-0.3-1.3-0.5-2-0.8c-0.6-0.2-0.2-1,0.4-0.8c0.8,0.3,1.6,0.6,2.4,1c0.1-0.1,0.2-0.2,0.3-0.3
		c-0.5-0.3-0.9-0.7-1.3-1.1c-0.4-0.4,0.2-1.1,0.6-0.7c0.4,0.5,0.9,0.9,1.4,1.3c1-0.7,2-1.4,3-2c0.9-0.5,1.7,0.6,0.9,1.3
		c-1.5,1.2-3.1,2.3-4.6,3.5c-1.5,1.2-3,2.4-4.6,3.6C-58.6,447.3-59.2,447-59.3,446.5z M-58.1,442.8c0.1,0.7,0.1,1.4,0.2,2.1
		c0.5-0.4,0.9-0.9,1.4-1.3c-0.5-0.1-1-0.4-1.4-0.6C-58.1,443-58.1,442.9-58.1,442.8z"/>
	<path class="st3" d="M-98.5,432.1c-2.8-2.6-5.6-5.1-9.1-7c-0.5-0.3-0.4-1.1,0.2-1.2c2.5-0.4,4.9-1.2,7.2-2.3
		c0.5-0.3,0.9,0.6,0.5,0.9c-1.9,1-3.9,1.7-5.9,2.3c1.8,1,3.4,2.3,4.9,3.6c-0.1-0.3-0.1-0.6,0.3-0.6c0.7-0.1,1.3-0.4,1.9-0.7
		c0-0.5,0.1-0.9,0.1-1.4c-0.7,0.3-1.3,0.5-2,0.8c-0.6,0.2-0.8-0.6-0.3-0.9c0.8-0.4,1.6-0.7,2.4-0.9c0-0.1,0-0.3,0.1-0.4
		c-0.6,0.1-1.1,0.1-1.7,0.1c-0.6,0-0.6-0.9-0.1-0.9c0.6,0,1.3,0,1.9-0.1c0.2-1.2,0.4-2.4,0.7-3.6c0.3-1,1.7-0.8,1.6,0.3
		c-0.2,1.9-0.6,3.8-0.9,5.7c-0.3,1.9-0.5,3.8-0.8,5.7C-97.5,432.1-98.1,432.4-98.5,432.1z M-100.3,428.7c0.5,0.5,1.1,0.9,1.6,1.4
		c0-0.6,0.1-1.3,0.1-1.9c-0.4,0.2-0.9,0.4-1.4,0.6C-100.1,428.7-100.2,428.7-100.3,428.7z"/>
	<path class="st2" d="M-90.4,398.7c-3.8,0.9-7.4,1.9-10.8,3.8c-0.5,0.3-1.2-0.2-0.9-0.8c1.1-2.3,1.7-4.8,2-7.3c0.1-0.6,1-0.5,1,0.1
		c-0.2,2.1-0.6,4.2-1.3,6.2c1.8-0.9,3.7-1.6,5.7-2.2c-0.3,0-0.5-0.3-0.4-0.6c0.2-0.6,0.4-1.3,0.5-2c-0.3-0.3-0.7-0.6-1.1-0.9
		c-0.1,0.7-0.3,1.4-0.4,2.1c-0.1,0.6-1,0.4-0.9-0.2c0.1-0.9,0.3-1.7,0.5-2.5c-0.1-0.1-0.2-0.2-0.3-0.3c-0.2,0.5-0.5,1-0.8,1.5
		c-0.3,0.5-1.1,0-0.8-0.4c0.4-0.5,0.7-1.1,0.9-1.7c-0.9-0.8-1.8-1.7-2.6-2.5c-0.7-0.7,0.3-1.8,1.1-1.2c1.5,1.2,2.9,2.6,4.3,3.8
		s2.9,2.5,4.4,3.8C-89.7,397.8-89.9,398.6-90.4,398.7z M-94.2,398.3c0.7-0.2,1.4-0.4,2-0.6c-0.5-0.4-1.1-0.8-1.6-1.2
		c0,0.5-0.2,1-0.3,1.5C-94.1,398.2-94.1,398.3-94.2,398.3z"/>
</g>
<g class="st0">
	<path class="st1" d="M-69.7,490.6c-3.9-0.2-7.6-0.3-11.4,0.4c-0.6,0.1-1-0.6-0.6-1c1.7-1.9,3.1-4.1,4.1-6.4
		c0.2-0.5,1.1-0.1,0.9,0.4c-0.8,2-1.8,3.8-3.1,5.5c2-0.3,4-0.4,6.1-0.4c-0.3-0.1-0.4-0.4-0.2-0.7c0.4-0.5,0.8-1.1,1-1.7
		c-0.3-0.4-0.5-0.8-0.8-1.1c-0.3,0.6-0.7,1.3-1,1.9c-0.3,0.5-1,0.1-0.8-0.5c0.3-0.8,0.8-1.5,1.3-2.3c-0.1-0.1-0.1-0.2-0.2-0.3
		c-0.4,0.4-0.8,0.8-1.2,1.2c-0.4,0.4-1.1-0.3-0.6-0.6c0.5-0.4,1-0.8,1.4-1.3c-0.6-1.1-1.2-2.1-1.7-3.2c-0.4-0.9,0.8-1.6,1.4-0.8
		c1.1,1.6,2,3.3,3,4.9c1,1.6,2.1,3.3,3.1,4.9C-68.8,490-69.2,490.6-69.7,490.6z M-73.2,489.1c0.7,0,1.4,0,2.1,0.1
		c-0.4-0.5-0.8-1-1.2-1.6c-0.2,0.5-0.4,0.9-0.8,1.4C-73.1,489.1-73.2,489.1-73.2,489.1z"/>
	<path class="st1" d="M-56.2,466.5c3.1,2.4,6.1,4.6,9.7,6.1c0.6,0.2,0.5,1-0.1,1.2c-2.5,0.6-4.8,1.7-7,3c-0.5,0.3-1-0.5-0.5-0.8
		c1.8-1.2,3.7-2.1,5.7-2.8c-1.8-0.9-3.6-1.9-5.3-3.1c0.1,0.2,0.1,0.6-0.2,0.7c-0.6,0.2-1.3,0.5-1.8,0.8c0,0.5,0,0.9,0,1.4
		c0.6-0.3,1.3-0.7,1.9-1c0.5-0.3,0.9,0.5,0.4,0.8c-0.7,0.5-1.5,0.8-2.3,1.2c0,0.1,0,0.3,0,0.4c0.6-0.1,1.1-0.3,1.7-0.3
		c0.6-0.1,0.7,0.8,0.2,0.9c-0.6,0-1.3,0.1-1.9,0.3c-0.1,1.2-0.2,2.4-0.4,3.6c-0.2,1-1.6,0.9-1.6-0.1c0-1.9,0.2-3.9,0.3-5.8
		c0.1-1.9,0.1-3.9,0.2-5.8C-57.2,466.5-56.6,466.2-56.2,466.5z M-54.1,469.7c-0.6-0.4-1.1-0.8-1.7-1.2c0,0.6,0.1,1.3,0.1,1.9
		c0.4-0.3,0.9-0.5,1.4-0.7C-54.3,469.7-54.2,469.7-54.1,469.7z"/>
	<path class="st1" d="M-86.3,510.9c3.9,0.2,7.6,0.2,11.4-0.6c0.6-0.1,1,0.5,0.6,1c-1.7,1.9-3,4.1-4,6.5c-0.2,0.5-1.1,0.2-0.9-0.4
		c0.8-2,1.8-3.8,3-5.6c-2,0.4-4,0.5-6.1,0.5c0.3,0.1,0.4,0.4,0.2,0.7c-0.4,0.5-0.8,1.1-1,1.7c0.3,0.4,0.5,0.7,0.8,1.1
		c0.3-0.6,0.6-1.3,1-1.9c0.3-0.5,1-0.1,0.8,0.5c-0.3,0.8-0.8,1.5-1.2,2.3c0.1,0.1,0.2,0.2,0.2,0.3c0.4-0.4,0.8-0.8,1.2-1.2
		c0.4-0.4,1.1,0.3,0.6,0.6c-0.5,0.4-1,0.8-1.4,1.3c0.6,1,1.2,2.1,1.8,3.2c0.4,0.9-0.8,1.6-1.3,0.8c-1.1-1.6-2-3.3-3.1-4.9
		c-1-1.6-2.1-3.2-3.2-4.8C-87.2,511.5-86.8,510.9-86.3,510.9z M-82.8,512.3c-0.7,0-1.4,0-2.1,0c0.4,0.5,0.8,1,1.2,1.5
		c0.2-0.5,0.4-0.9,0.7-1.4C-82.9,512.4-82.8,512.4-82.8,512.3z"/>
	<path class="st2" d="M-59.3,516.5c-0.2-3.9-0.4-7.6-1.6-11.3c-0.2-0.6,0.5-1.1,1-0.7c2,1.5,4.4,2.6,6.8,3.4c0.5,0.2,0.3,1.1-0.3,1
		c-2.1-0.6-4-1.5-5.8-2.5c0.5,2,0.8,4,1,6c0.1-0.3,0.4-0.4,0.7-0.3c0.6,0.4,1.2,0.7,1.8,0.9c0.3-0.3,0.7-0.6,1-0.9
		c-0.7-0.3-1.3-0.5-2-0.8c-0.6-0.2-0.2-1,0.4-0.8c0.8,0.3,1.6,0.6,2.4,1c0.1-0.1,0.2-0.2,0.3-0.3c-0.5-0.3-0.9-0.7-1.3-1.1
		c-0.4-0.4,0.2-1.1,0.6-0.7c0.4,0.5,0.9,0.9,1.4,1.3c1-0.7,2-1.4,3-2c0.9-0.5,1.7,0.6,0.9,1.3c-1.5,1.2-3.1,2.3-4.6,3.5
		c-1.5,1.2-3,2.4-4.6,3.5C-58.6,517.3-59.2,517-59.3,516.5z M-58.1,512.8c0.1,0.7,0.1,1.4,0.2,2.1c0.5-0.4,0.9-0.9,1.4-1.3
		c-0.5-0.1-1-0.4-1.4-0.6C-58.1,513-58.1,512.9-58.1,512.8z"/>
	<path class="st3" d="M-98.5,502.1c-2.8-2.6-5.6-5.1-9.1-7c-0.5-0.3-0.4-1.1,0.2-1.2c2.5-0.4,4.9-1.2,7.2-2.3
		c0.5-0.3,0.9,0.6,0.5,0.9c-1.9,1-3.9,1.7-5.9,2.3c1.8,1,3.4,2.3,4.9,3.6c-0.1-0.3-0.1-0.6,0.3-0.6c0.7-0.1,1.3-0.4,1.9-0.7
		c0-0.5,0.1-0.9,0.1-1.4c-0.7,0.3-1.3,0.5-2,0.8c-0.6,0.2-0.8-0.6-0.3-0.9c0.8-0.4,1.6-0.7,2.4-0.9c0-0.1,0-0.3,0.1-0.4
		c-0.6,0.1-1.1,0.1-1.7,0.1c-0.6,0-0.6-0.9-0.1-0.9c0.6,0,1.3,0,1.9-0.1c0.2-1.2,0.4-2.4,0.7-3.6c0.3-1,1.7-0.8,1.6,0.3
		c-0.2,1.9-0.6,3.8-0.9,5.7c-0.3,1.9-0.5,3.8-0.8,5.7C-97.5,502.1-98.1,502.4-98.5,502.1z M-100.3,498.7c0.5,0.5,1.1,0.9,1.6,1.4
		c0-0.6,0.1-1.3,0.1-1.9c-0.4,0.2-0.9,0.4-1.4,0.5C-100.1,498.7-100.2,498.7-100.3,498.7z"/>
	<path class="st2" d="M-90.4,468.7c-3.8,0.9-7.4,1.9-10.8,3.8c-0.5,0.3-1.2-0.2-0.9-0.8c1.1-2.3,1.7-4.8,2-7.3c0.1-0.6,1-0.5,1,0.1
		c-0.2,2.1-0.6,4.2-1.3,6.2c1.8-0.9,3.7-1.6,5.7-2.2c-0.3,0-0.5-0.3-0.4-0.6c0.2-0.6,0.4-1.3,0.5-2c-0.3-0.3-0.7-0.6-1.1-0.9
		c-0.1,0.7-0.3,1.4-0.4,2.1c-0.1,0.6-1,0.4-0.9-0.2c0.1-0.9,0.3-1.7,0.5-2.5c-0.1-0.1-0.2-0.2-0.3-0.3c-0.2,0.5-0.5,1-0.8,1.5
		c-0.3,0.5-1.1,0-0.8-0.4c0.4-0.5,0.7-1.1,0.9-1.7c-0.9-0.8-1.8-1.7-2.6-2.5c-0.7-0.7,0.3-1.8,1.1-1.2c1.5,1.2,2.9,2.6,4.3,3.8
		s2.9,2.5,4.4,3.8C-89.7,467.8-89.9,468.6-90.4,468.7z M-94.2,468.3c0.7-0.2,1.4-0.4,2-0.6c-0.5-0.4-1.1-0.8-1.6-1.2
		c0,0.5-0.2,1-0.3,1.5C-94.1,468.2-94.1,468.3-94.2,468.3z"/>
</g>
<g class="st0">
	<path class="st1" d="M-69.7,560.6c-3.9-0.2-7.6-0.3-11.4,0.4c-0.6,0.1-1-0.6-0.6-1c1.7-1.9,3.1-4.1,4.1-6.4
		c0.2-0.5,1.1-0.1,0.9,0.4c-0.8,2-1.8,3.8-3.1,5.5c2-0.3,4-0.4,6.1-0.4c-0.3-0.1-0.4-0.4-0.2-0.7c0.4-0.5,0.8-1.1,1-1.7
		c-0.3-0.4-0.5-0.8-0.8-1.1c-0.3,0.6-0.7,1.3-1,1.9c-0.3,0.5-1,0.1-0.8-0.5c0.3-0.8,0.8-1.5,1.3-2.3c-0.1-0.1-0.1-0.2-0.2-0.3
		c-0.4,0.4-0.8,0.8-1.2,1.2c-0.4,0.4-1.1-0.3-0.6-0.6c0.5-0.4,1-0.8,1.4-1.3c-0.6-1-1.2-2.1-1.7-3.2c-0.4-0.9,0.8-1.6,1.4-0.8
		c1.1,1.6,2,3.3,3,5s2.1,3.3,3.1,4.9C-68.8,560-69.2,560.7-69.7,560.6z M-73.2,559.2c0.7,0,1.4,0,2.1,0.1c-0.4-0.5-0.8-1-1.2-1.6
		c-0.2,0.5-0.4,0.9-0.8,1.3C-73.1,559.1-73.2,559.1-73.2,559.2z"/>
	<path class="st1" d="M-56.2,536.5c3.1,2.3,6.1,4.6,9.7,6.1c0.6,0.2,0.5,1-0.1,1.2c-2.5,0.6-4.8,1.7-7,3c-0.5,0.3-1-0.5-0.5-0.8
		c1.8-1.2,3.7-2.1,5.7-2.8c-1.8-0.8-3.6-1.9-5.3-3.1c0.1,0.2,0.1,0.6-0.2,0.7c-0.6,0.2-1.3,0.5-1.8,0.8c0,0.5,0,0.9,0,1.3
		c0.6-0.3,1.3-0.7,1.9-1c0.5-0.3,0.9,0.5,0.4,0.8c-0.7,0.5-1.5,0.8-2.3,1.2c0,0.1,0,0.3,0,0.4c0.6-0.1,1.1-0.3,1.7-0.3
		c0.6-0.1,0.7,0.8,0.2,0.9c-0.6,0-1.3,0.1-1.9,0.3c-0.1,1.2-0.2,2.4-0.4,3.6c-0.2,1-1.6,0.9-1.6-0.1c0-1.9,0.2-3.9,0.3-5.8
		c0.1-1.9,0.1-3.9,0.2-5.8C-57.2,536.5-56.6,536.2-56.2,536.5z M-54.1,539.7c-0.6-0.4-1.1-0.8-1.7-1.2c0,0.6,0.1,1.3,0.1,1.9
		c0.4-0.3,0.9-0.5,1.4-0.7C-54.3,539.7-54.2,539.7-54.1,539.7z"/>
	<path class="st1" d="M-86.3,580.9c3.9,0.2,7.6,0.2,11.4-0.6c0.6-0.1,1,0.5,0.6,1c-1.7,1.9-3,4.1-4,6.5c-0.2,0.5-1.1,0.2-0.9-0.4
		c0.8-2,1.8-3.8,3-5.6c-2,0.4-4,0.5-6.1,0.5c0.3,0.1,0.4,0.4,0.2,0.7c-0.4,0.5-0.8,1.1-1,1.7c0.3,0.4,0.5,0.7,0.8,1.1
		c0.3-0.6,0.6-1.3,1-1.9c0.3-0.5,1-0.1,0.8,0.5c-0.3,0.8-0.8,1.5-1.2,2.3c0.1,0.1,0.2,0.2,0.2,0.3c0.4-0.4,0.8-0.8,1.2-1.2
		c0.4-0.4,1.1,0.3,0.6,0.6c-0.5,0.4-1,0.8-1.4,1.3c0.6,1,1.2,2.1,1.8,3.2c0.4,0.9-0.8,1.6-1.3,0.8c-1.1-1.6-2-3.3-3.1-4.9
		c-1-1.6-2.1-3.2-3.2-4.8C-87.2,581.5-86.8,580.9-86.3,580.9z M-82.8,582.3c-0.7,0-1.4,0-2.1,0c0.4,0.5,0.8,1,1.2,1.5
		c0.2-0.5,0.4-0.9,0.7-1.4C-82.9,582.4-82.8,582.4-82.8,582.3z"/>
	<path class="st2" d="M-59.3,586.5c-0.2-3.9-0.4-7.6-1.6-11.3c-0.2-0.6,0.5-1.1,1-0.7c2,1.5,4.4,2.6,6.8,3.4c0.5,0.2,0.3,1.1-0.3,1
		c-2.1-0.6-4-1.5-5.8-2.5c0.5,2,0.8,4,1,6c0.1-0.3,0.4-0.5,0.7-0.3c0.6,0.4,1.2,0.7,1.8,0.9c0.3-0.3,0.7-0.6,1-0.9
		c-0.7-0.3-1.3-0.5-2-0.8c-0.6-0.2-0.2-1,0.4-0.8c0.8,0.3,1.6,0.6,2.4,1c0.1-0.1,0.2-0.2,0.3-0.3c-0.5-0.3-0.9-0.7-1.3-1.1
		c-0.4-0.4,0.2-1.1,0.6-0.7c0.4,0.5,0.9,0.9,1.4,1.3c1-0.7,2-1.4,3-2c0.9-0.5,1.7,0.6,0.9,1.3c-1.5,1.2-3.1,2.3-4.6,3.5
		c-1.5,1.2-3,2.4-4.6,3.5C-58.6,587.3-59.2,587-59.3,586.5z M-58.1,582.8c0.1,0.7,0.1,1.4,0.2,2.1c0.5-0.4,0.9-0.9,1.4-1.3
		c-0.5-0.1-1-0.4-1.4-0.6C-58.1,583-58.1,582.9-58.1,582.8z"/>
	<path class="st3" d="M-98.5,572.1c-2.8-2.6-5.6-5.1-9.1-7c-0.5-0.3-0.4-1.1,0.2-1.2c2.5-0.3,4.9-1.2,7.2-2.3
		c0.5-0.3,0.9,0.6,0.5,0.9c-1.9,1-3.9,1.7-5.9,2.3c1.8,1,3.4,2.3,4.9,3.6c-0.1-0.3-0.1-0.6,0.3-0.6c0.7-0.1,1.3-0.4,1.9-0.7
		c0-0.5,0.1-0.9,0.1-1.4c-0.7,0.3-1.3,0.5-2,0.8c-0.6,0.2-0.8-0.6-0.3-0.9c0.8-0.4,1.6-0.7,2.4-0.9c0-0.1,0-0.3,0.1-0.4
		c-0.6,0.1-1.1,0.1-1.7,0.1c-0.6,0-0.6-0.9-0.1-0.9c0.6,0,1.3,0,1.9-0.1c0.2-1.2,0.4-2.4,0.7-3.5c0.3-1,1.7-0.8,1.6,0.3
		c-0.2,1.9-0.6,3.8-0.9,5.7c-0.3,1.9-0.5,3.8-0.8,5.7C-97.5,572.1-98.1,572.4-98.5,572.1z M-100.3,568.7c0.5,0.5,1.1,0.9,1.6,1.4
		c0-0.6,0.1-1.3,0.1-1.9c-0.4,0.2-0.9,0.4-1.4,0.5C-100.1,568.7-100.2,568.7-100.3,568.7z"/>
	<path class="st2" d="M-90.4,538.7c-3.8,0.9-7.4,1.9-10.8,3.8c-0.5,0.3-1.2-0.2-0.9-0.8c1.1-2.3,1.7-4.8,2-7.3c0.1-0.6,1-0.5,1,0.1
		c-0.2,2.1-0.6,4.2-1.3,6.2c1.8-0.9,3.7-1.6,5.7-2.2c-0.3,0-0.5-0.3-0.4-0.6c0.2-0.6,0.4-1.3,0.5-2c-0.3-0.3-0.7-0.6-1.1-0.9
		c-0.1,0.7-0.3,1.4-0.4,2.1c-0.1,0.6-1,0.4-0.9-0.2c0.1-0.9,0.3-1.7,0.5-2.5c-0.1-0.1-0.2-0.2-0.3-0.3c-0.2,0.5-0.5,1-0.8,1.5
		c-0.3,0.5-1.1,0-0.8-0.4c0.4-0.5,0.7-1.1,0.9-1.7c-0.9-0.8-1.8-1.7-2.6-2.5c-0.7-0.7,0.3-1.8,1.1-1.2c1.5,1.2,2.9,2.6,4.3,3.8
		c1.4,1.3,2.9,2.5,4.4,3.8C-89.7,537.8-89.9,538.5-90.4,538.7z M-94.2,538.3c0.7-0.2,1.4-0.4,2-0.6c-0.5-0.4-1.1-0.8-1.6-1.2
		c0,0.5-0.2,1-0.3,1.5C-94.1,538.2-94.1,538.3-94.2,538.3z"/>
</g>
<g class="st0">
	<path class="st1" d="M-139.7,280.6c-3.9-0.2-7.6-0.3-11.4,0.4c-0.6,0.1-1-0.6-0.6-1c1.7-1.9,3-4.1,4.1-6.4c0.2-0.5,1.1-0.1,0.9,0.4
		c-0.8,2-1.9,3.8-3.1,5.5c2-0.3,4-0.4,6.1-0.4c-0.3-0.1-0.4-0.4-0.2-0.7c0.4-0.5,0.8-1.1,1-1.7c-0.3-0.4-0.5-0.8-0.8-1.1
		c-0.4,0.6-0.7,1.3-1,1.9c-0.3,0.5-1,0.1-0.8-0.5c0.3-0.8,0.8-1.5,1.3-2.3c-0.1-0.1-0.1-0.2-0.2-0.3c-0.4,0.4-0.8,0.8-1.2,1.2
		c-0.4,0.4-1.1-0.3-0.6-0.6c0.5-0.4,1-0.8,1.4-1.3c-0.6-1-1.2-2.1-1.7-3.2c-0.4-0.9,0.8-1.6,1.4-0.8c1.1,1.6,2,3.3,3,5
		c1,1.6,2.1,3.3,3.1,4.9C-138.9,280-139.2,280.6-139.7,280.6z M-143.2,279.1c0.7,0,1.4,0,2.1,0.1c-0.4-0.5-0.8-1-1.1-1.6
		c-0.2,0.5-0.4,0.9-0.8,1.3C-143.1,279.1-143.2,279.1-143.2,279.1z"/>
	<path class="st1" d="M-126.2,256.5c3.1,2.4,6.1,4.6,9.7,6.1c0.6,0.2,0.5,1-0.1,1.2c-2.5,0.6-4.8,1.7-7,3c-0.5,0.3-1-0.5-0.5-0.8
		c1.8-1.2,3.7-2.1,5.7-2.8c-1.8-0.9-3.6-1.9-5.3-3.1c0.1,0.2,0.1,0.6-0.2,0.7c-0.6,0.2-1.3,0.5-1.8,0.8c0,0.4,0,0.9,0,1.4
		c0.6-0.3,1.3-0.7,1.9-1c0.5-0.3,0.9,0.5,0.4,0.8c-0.7,0.5-1.5,0.8-2.3,1.2c0,0.1,0,0.3,0,0.4c0.5-0.1,1.1-0.3,1.7-0.3
		c0.6-0.1,0.7,0.8,0.2,0.8c-0.6,0-1.3,0.2-1.9,0.3c-0.1,1.2-0.2,2.4-0.4,3.6c-0.2,1-1.6,0.9-1.6-0.1c0-1.9,0.2-3.9,0.3-5.8
		c0.1-1.9,0.1-3.9,0.2-5.8C-127.2,256.5-126.6,256.2-126.2,256.5z M-124.1,259.7c-0.6-0.4-1.2-0.8-1.7-1.2c0,0.6,0.1,1.3,0.1,1.9
		c0.4-0.3,0.9-0.5,1.4-0.7C-124.3,259.7-124.2,259.7-124.1,259.7z"/>
	<path class="st1" d="M-156.3,300.9c3.9,0.2,7.6,0.2,11.4-0.6c0.6-0.1,1,0.5,0.6,1c-1.7,1.9-3,4.1-4,6.5c-0.2,0.5-1.1,0.1-0.9-0.4
		c0.8-2,1.8-3.8,3-5.6c-2,0.4-4,0.5-6.1,0.5c0.3,0.1,0.4,0.4,0.2,0.7c-0.4,0.5-0.8,1.1-1,1.7c0.3,0.4,0.5,0.7,0.8,1.1
		c0.3-0.6,0.6-1.3,1-1.9c0.3-0.5,1-0.1,0.8,0.5c-0.3,0.8-0.8,1.5-1.2,2.3c0.1,0.1,0.1,0.2,0.2,0.3c0.4-0.4,0.8-0.9,1.2-1.2
		c0.4-0.4,1.1,0.3,0.6,0.6c-0.5,0.4-1,0.8-1.4,1.3c0.6,1,1.2,2.1,1.8,3.2c0.4,0.9-0.8,1.6-1.3,0.8c-1.1-1.6-2-3.3-3.1-4.9
		c-1-1.6-2.1-3.2-3.1-4.9C-157.1,301.5-156.8,300.9-156.3,300.9z M-152.8,302.3c-0.7,0-1.4,0-2.1,0c0.4,0.5,0.8,1,1.2,1.5
		c0.2-0.5,0.4-0.9,0.7-1.4C-152.9,302.4-152.8,302.4-152.8,302.3z"/>
	<path class="st2" d="M-129.3,306.5c-0.2-3.9-0.4-7.6-1.6-11.3c-0.2-0.6,0.5-1.1,1-0.7c2,1.5,4.4,2.6,6.8,3.4c0.5,0.2,0.3,1.1-0.3,1
		c-2.1-0.6-4-1.5-5.8-2.5c0.5,2,0.8,4,1,6c0.1-0.3,0.3-0.5,0.7-0.3c0.6,0.4,1.2,0.7,1.8,0.9c0.3-0.3,0.7-0.6,1-0.9
		c-0.7-0.3-1.3-0.5-2-0.8c-0.6-0.2-0.2-1,0.4-0.8c0.8,0.3,1.6,0.6,2.4,1c0.1-0.1,0.2-0.2,0.3-0.3c-0.5-0.3-0.9-0.7-1.3-1.1
		c-0.4-0.4,0.2-1.1,0.6-0.7c0.4,0.5,0.9,0.9,1.4,1.3c1-0.7,2-1.4,3-2c0.9-0.5,1.7,0.6,0.9,1.3c-1.5,1.2-3.1,2.3-4.6,3.5
		c-1.5,1.2-3,2.4-4.6,3.5C-128.6,307.3-129.2,307-129.3,306.5z M-128.1,302.8c0.1,0.7,0.1,1.4,0.2,2.1c0.5-0.4,1-0.9,1.4-1.3
		c-0.5-0.1-1-0.4-1.4-0.6C-128.1,303-128.1,302.9-128.1,302.8z"/>
	<path class="st3" d="M-168.5,292.1c-2.8-2.6-5.6-5.1-9.1-7c-0.5-0.3-0.4-1.1,0.2-1.2c2.5-0.4,4.9-1.2,7.2-2.3
		c0.5-0.3,1,0.6,0.5,0.9c-1.9,1-3.9,1.7-5.9,2.3c1.8,1,3.4,2.3,4.9,3.6c-0.1-0.3-0.1-0.6,0.3-0.6c0.7-0.1,1.3-0.4,1.9-0.7
		c0-0.5,0.1-0.9,0.1-1.4c-0.7,0.3-1.3,0.6-2,0.8c-0.6,0.2-0.8-0.6-0.3-0.9c0.8-0.4,1.6-0.7,2.4-0.9c0-0.1,0-0.3,0.1-0.4
		c-0.6,0.1-1.1,0.1-1.7,0.1c-0.6,0-0.6-0.9-0.1-0.9c0.6,0,1.3,0,1.9-0.1c0.2-1.2,0.4-2.4,0.7-3.5c0.3-1,1.7-0.8,1.6,0.3
		c-0.2,1.9-0.6,3.8-0.9,5.7s-0.5,3.8-0.8,5.7C-167.5,292.1-168.1,292.4-168.5,292.1z M-170.3,288.7c0.5,0.5,1.1,0.9,1.6,1.4
		c0-0.6,0.1-1.3,0.1-1.9c-0.4,0.2-0.9,0.4-1.4,0.6C-170.1,288.7-170.2,288.7-170.3,288.7z"/>
	<path class="st2" d="M-160.4,258.7c-3.8,0.9-7.4,1.9-10.8,3.8c-0.5,0.3-1.1-0.2-0.9-0.8c1.1-2.3,1.7-4.8,2-7.3c0.1-0.6,1-0.5,1,0.1
		c-0.2,2.1-0.6,4.2-1.3,6.2c1.8-0.9,3.7-1.6,5.7-2.2c-0.3,0-0.5-0.3-0.4-0.6c0.2-0.6,0.4-1.3,0.5-1.9c-0.3-0.3-0.7-0.6-1.1-0.9
		c-0.1,0.7-0.3,1.4-0.4,2.1c-0.1,0.6-1,0.4-0.9-0.2c0.1-0.9,0.3-1.7,0.5-2.5c-0.1-0.1-0.2-0.2-0.3-0.3c-0.2,0.5-0.5,1-0.8,1.5
		c-0.3,0.5-1.1,0.1-0.8-0.4c0.4-0.5,0.7-1.1,0.9-1.7c-0.9-0.8-1.8-1.7-2.6-2.6c-0.7-0.7,0.3-1.8,1.1-1.2c1.5,1.2,2.9,2.6,4.3,3.8
		c1.5,1.3,2.9,2.5,4.4,3.8C-159.7,257.8-159.9,258.5-160.4,258.7z M-164.2,258.3c0.7-0.2,1.4-0.4,2-0.6c-0.5-0.4-1.1-0.8-1.6-1.2
		c0,0.5-0.2,1-0.3,1.5C-164.1,258.2-164.1,258.3-164.2,258.3z"/>
</g>
<g class="st0">
	<path class="st1" d="M-139.7,350.6c-3.9-0.2-7.6-0.3-11.4,0.4c-0.6,0.1-1-0.6-0.6-1c1.7-1.9,3-4.1,4.1-6.4c0.2-0.5,1.1-0.1,0.9,0.4
		c-0.8,2-1.9,3.8-3.1,5.5c2-0.3,4-0.4,6.1-0.4c-0.3-0.1-0.4-0.4-0.2-0.7c0.4-0.5,0.8-1.1,1-1.7c-0.3-0.4-0.5-0.8-0.8-1.1
		c-0.4,0.6-0.7,1.3-1,1.9c-0.3,0.5-1,0.1-0.8-0.5c0.3-0.8,0.8-1.5,1.3-2.3c-0.1-0.1-0.1-0.2-0.2-0.3c-0.4,0.4-0.8,0.8-1.2,1.2
		c-0.4,0.4-1.1-0.3-0.6-0.6c0.5-0.4,1-0.8,1.4-1.3c-0.6-1.1-1.2-2.1-1.7-3.2c-0.4-0.9,0.8-1.6,1.4-0.8c1.1,1.6,2,3.3,3,5
		c1,1.6,2.1,3.3,3.1,4.9C-138.9,350-139.2,350.6-139.7,350.6z M-143.2,349.1c0.7,0,1.4,0,2.1,0.1c-0.4-0.5-0.8-1-1.1-1.6
		c-0.2,0.5-0.4,0.9-0.8,1.3C-143.1,349.1-143.2,349.1-143.2,349.1z"/>
	<path class="st1" d="M-126.2,326.5c3.1,2.4,6.1,4.6,9.7,6.1c0.6,0.2,0.5,1-0.1,1.2c-2.5,0.6-4.8,1.7-7,3c-0.5,0.3-1-0.5-0.5-0.8
		c1.8-1.2,3.7-2.1,5.7-2.8c-1.8-0.9-3.6-1.9-5.3-3.1c0.1,0.2,0.1,0.6-0.2,0.7c-0.6,0.2-1.3,0.5-1.8,0.8c0,0.4,0,0.9,0,1.3
		c0.6-0.3,1.3-0.7,1.9-1c0.5-0.3,0.9,0.5,0.4,0.8c-0.7,0.5-1.5,0.8-2.3,1.2c0,0.1,0,0.3,0,0.4c0.5-0.1,1.1-0.3,1.7-0.3
		c0.6-0.1,0.7,0.8,0.2,0.9c-0.6,0-1.3,0.1-1.9,0.3c-0.1,1.2-0.2,2.4-0.4,3.6c-0.2,1-1.6,0.9-1.6-0.1c0-1.9,0.2-3.9,0.3-5.8
		c0.1-1.9,0.1-3.9,0.2-5.8C-127.2,326.5-126.6,326.2-126.2,326.5z M-124.1,329.7c-0.6-0.4-1.2-0.8-1.7-1.2c0,0.6,0.1,1.3,0.1,1.9
		c0.4-0.3,0.9-0.5,1.4-0.7C-124.3,329.7-124.2,329.7-124.1,329.7z"/>
	<path class="st1" d="M-156.3,370.9c3.9,0.2,7.6,0.2,11.4-0.6c0.6-0.1,1,0.6,0.6,1c-1.7,1.9-3,4.1-4,6.5c-0.2,0.5-1.1,0.1-0.9-0.4
		c0.8-2,1.8-3.8,3-5.6c-2,0.4-4,0.5-6.1,0.5c0.3,0.1,0.4,0.4,0.2,0.7c-0.4,0.5-0.8,1.1-1,1.7c0.3,0.4,0.5,0.7,0.8,1.1
		c0.3-0.6,0.6-1.3,1-1.9c0.3-0.5,1-0.1,0.8,0.5c-0.3,0.8-0.8,1.5-1.2,2.3c0.1,0.1,0.1,0.2,0.2,0.3c0.4-0.4,0.8-0.9,1.2-1.2
		c0.4-0.4,1.1,0.3,0.6,0.6c-0.5,0.4-1,0.9-1.4,1.3c0.6,1,1.2,2.1,1.8,3.2c0.4,0.9-0.8,1.6-1.3,0.8c-1.1-1.6-2-3.3-3.1-4.9
		c-1-1.6-2.1-3.2-3.1-4.9C-157.1,371.5-156.8,370.9-156.3,370.9z M-152.8,372.3c-0.7,0-1.4,0-2.1,0c0.4,0.5,0.8,1,1.2,1.6
		c0.2-0.5,0.4-0.9,0.7-1.4C-152.9,372.4-152.8,372.4-152.8,372.3z"/>
	<path class="st2" d="M-129.3,376.5c-0.2-3.9-0.4-7.6-1.6-11.3c-0.2-0.6,0.5-1.1,1-0.7c2,1.5,4.4,2.6,6.8,3.4
		c0.5,0.2,0.3,1.1-0.3,0.9c-2.1-0.6-4-1.5-5.8-2.5c0.5,1.9,0.8,4,1,6c0.1-0.3,0.3-0.4,0.7-0.3c0.6,0.4,1.2,0.6,1.8,0.9
		c0.3-0.3,0.7-0.6,1-0.9c-0.7-0.3-1.3-0.5-2-0.8c-0.6-0.2-0.2-1,0.4-0.8c0.8,0.3,1.6,0.6,2.4,1c0.1-0.1,0.2-0.2,0.3-0.3
		c-0.5-0.3-0.9-0.7-1.3-1.1c-0.4-0.4,0.2-1.1,0.6-0.7c0.4,0.5,0.9,0.9,1.4,1.3c1-0.7,2-1.4,3-2c0.9-0.5,1.7,0.6,0.9,1.3
		c-1.5,1.2-3.1,2.3-4.6,3.5c-1.5,1.2-3,2.4-4.6,3.6C-128.6,377.3-129.2,377-129.3,376.5z M-128.1,372.8c0.1,0.7,0.1,1.4,0.2,2.1
		c0.5-0.4,1-0.9,1.4-1.3c-0.5-0.1-1-0.4-1.4-0.6C-128.1,373-128.1,372.9-128.1,372.8z"/>
	<path class="st3" d="M-168.5,362.1c-2.8-2.6-5.6-5.1-9.1-7c-0.5-0.3-0.4-1.1,0.2-1.2c2.5-0.4,4.9-1.2,7.2-2.3
		c0.5-0.3,1,0.6,0.5,0.9c-1.9,1-3.9,1.7-5.9,2.3c1.8,1,3.4,2.3,4.9,3.6c-0.1-0.3-0.1-0.6,0.3-0.6c0.7-0.1,1.3-0.4,1.9-0.7
		c0-0.5,0.1-0.9,0.1-1.4c-0.7,0.3-1.3,0.6-2,0.8c-0.6,0.2-0.8-0.6-0.3-0.9c0.8-0.4,1.6-0.7,2.4-0.9c0-0.1,0-0.3,0.1-0.4
		c-0.6,0.1-1.1,0.1-1.7,0.1c-0.6,0-0.6-0.9-0.1-0.9c0.6,0,1.3,0,1.9-0.1c0.2-1.2,0.4-2.4,0.7-3.5c0.3-1,1.7-0.8,1.6,0.3
		c-0.2,1.9-0.6,3.8-0.9,5.7s-0.5,3.8-0.8,5.7C-167.5,362.1-168.1,362.4-168.5,362.1z M-170.3,358.7c0.5,0.5,1.1,0.9,1.6,1.4
		c0-0.6,0.1-1.3,0.1-1.9c-0.4,0.2-0.9,0.4-1.4,0.6C-170.1,358.7-170.2,358.7-170.3,358.7z"/>
	<path class="st2" d="M-160.4,328.7c-3.8,0.9-7.4,1.9-10.8,3.8c-0.5,0.3-1.1-0.2-0.9-0.8c1.1-2.3,1.7-4.8,2-7.3c0.1-0.6,1-0.5,1,0.1
		c-0.2,2.1-0.6,4.2-1.3,6.2c1.8-0.9,3.7-1.6,5.7-2.2c-0.3,0-0.5-0.3-0.4-0.6c0.2-0.6,0.4-1.3,0.5-1.9c-0.3-0.3-0.7-0.6-1.1-0.9
		c-0.1,0.7-0.3,1.4-0.4,2.1c-0.1,0.6-1,0.4-0.9-0.2c0.1-0.9,0.3-1.7,0.5-2.5c-0.1-0.1-0.2-0.2-0.3-0.3c-0.2,0.5-0.5,1-0.8,1.5
		c-0.3,0.5-1.1,0-0.8-0.4c0.4-0.5,0.7-1.1,0.9-1.7c-0.9-0.8-1.8-1.7-2.6-2.5c-0.7-0.7,0.3-1.8,1.1-1.2c1.5,1.2,2.9,2.6,4.3,3.8
		c1.5,1.3,2.9,2.5,4.4,3.8C-159.7,327.8-159.9,328.6-160.4,328.7z M-164.2,328.3c0.7-0.2,1.4-0.4,2-0.6c-0.5-0.4-1.1-0.8-1.6-1.2
		c0,0.5-0.2,1-0.3,1.5C-164.1,328.2-164.1,328.3-164.2,328.3z"/>
</g>
<g class="st0">
	<path class="st1" d="M-139.7,420.6c-3.9-0.2-7.6-0.3-11.4,0.4c-0.6,0.1-1-0.6-0.6-1c1.7-1.9,3-4.1,4.1-6.4c0.2-0.5,1.1-0.1,0.9,0.4
		c-0.8,2-1.9,3.8-3.1,5.5c2-0.3,4-0.4,6.1-0.4c-0.3-0.1-0.4-0.4-0.2-0.7c0.4-0.5,0.8-1.1,1-1.7c-0.3-0.4-0.5-0.8-0.8-1.1
		c-0.4,0.6-0.7,1.3-1,1.9c-0.3,0.5-1,0.1-0.8-0.5c0.3-0.8,0.8-1.5,1.3-2.3c-0.1-0.1-0.1-0.2-0.2-0.3c-0.4,0.4-0.8,0.8-1.2,1.2
		c-0.4,0.4-1.1-0.3-0.6-0.6c0.5-0.4,1-0.8,1.4-1.3c-0.6-1.1-1.2-2.1-1.7-3.2c-0.4-0.9,0.8-1.6,1.4-0.8c1.1,1.6,2,3.3,3,4.9
		c1,1.6,2.1,3.3,3.1,4.9C-138.9,420-139.2,420.6-139.7,420.6z M-143.2,419.1c0.7,0,1.4,0,2.1,0.1c-0.4-0.5-0.8-1-1.1-1.6
		c-0.2,0.5-0.4,0.9-0.8,1.4C-143.1,419.1-143.2,419.1-143.2,419.1z"/>
	<path class="st1" d="M-126.2,396.5c3.1,2.4,6.1,4.6,9.7,6.1c0.6,0.2,0.5,1-0.1,1.2c-2.5,0.6-4.8,1.7-7,3c-0.5,0.3-1-0.5-0.5-0.8
		c1.8-1.2,3.7-2.1,5.7-2.8c-1.8-0.9-3.6-1.9-5.3-3.1c0.1,0.2,0.1,0.6-0.2,0.7c-0.6,0.2-1.3,0.5-1.8,0.8c0,0.5,0,0.9,0,1.4
		c0.6-0.3,1.3-0.7,1.9-1c0.5-0.3,0.9,0.5,0.4,0.8c-0.7,0.5-1.5,0.8-2.3,1.2c0,0.1,0,0.3,0,0.4c0.5-0.1,1.1-0.3,1.7-0.3
		c0.6-0.1,0.7,0.8,0.2,0.9c-0.6,0-1.3,0.1-1.9,0.3c-0.1,1.2-0.2,2.4-0.4,3.6c-0.2,1-1.6,0.9-1.6-0.1c0-1.9,0.2-3.9,0.3-5.8
		c0.1-1.9,0.1-3.9,0.2-5.8C-127.2,396.5-126.6,396.2-126.2,396.5z M-124.1,399.7c-0.6-0.4-1.2-0.8-1.7-1.2c0,0.6,0.1,1.3,0.1,1.9
		c0.4-0.3,0.9-0.5,1.4-0.7C-124.3,399.7-124.2,399.7-124.1,399.7z"/>
	<path class="st1" d="M-156.3,440.9c3.9,0.2,7.6,0.2,11.4-0.6c0.6-0.1,1,0.6,0.6,1c-1.7,1.9-3,4.1-4,6.5c-0.2,0.5-1.1,0.1-0.9-0.4
		c0.8-2,1.8-3.8,3-5.6c-2,0.4-4,0.5-6.1,0.5c0.3,0.1,0.4,0.4,0.2,0.7c-0.4,0.5-0.8,1.1-1,1.7c0.3,0.4,0.5,0.7,0.8,1.1
		c0.3-0.6,0.6-1.3,1-1.9c0.3-0.5,1-0.1,0.8,0.5c-0.3,0.8-0.8,1.5-1.2,2.3c0.1,0.1,0.1,0.2,0.2,0.3c0.4-0.4,0.8-0.9,1.2-1.2
		c0.4-0.4,1.1,0.3,0.6,0.6c-0.5,0.4-1,0.9-1.4,1.3c0.6,1,1.2,2.1,1.8,3.2c0.4,0.9-0.8,1.6-1.3,0.8c-1.1-1.6-2-3.3-3.1-4.9
		c-1-1.6-2.1-3.2-3.1-4.9C-157.1,441.5-156.8,440.9-156.3,440.9z M-152.8,442.3c-0.7,0-1.4,0-2.1,0c0.4,0.5,0.8,1,1.2,1.6
		c0.2-0.5,0.4-0.9,0.7-1.4C-152.9,442.4-152.8,442.4-152.8,442.3z"/>
	<path class="st2" d="M-129.3,446.5c-0.2-3.9-0.4-7.6-1.6-11.3c-0.2-0.6,0.5-1.1,1-0.7c2,1.5,4.4,2.6,6.8,3.4
		c0.5,0.2,0.3,1.1-0.3,0.9c-2.1-0.6-4-1.5-5.8-2.5c0.5,1.9,0.8,4,1,6c0.1-0.3,0.3-0.4,0.7-0.3c0.6,0.4,1.2,0.6,1.8,0.9
		c0.3-0.3,0.7-0.6,1-0.9c-0.7-0.3-1.3-0.5-2-0.8c-0.6-0.2-0.2-1,0.4-0.8c0.8,0.3,1.6,0.6,2.4,1c0.1-0.1,0.2-0.2,0.3-0.3
		c-0.5-0.3-0.9-0.7-1.3-1.1c-0.4-0.4,0.2-1.1,0.6-0.7c0.4,0.5,0.9,0.9,1.4,1.3c1-0.7,2-1.4,3-2c0.9-0.5,1.7,0.6,0.9,1.3
		c-1.5,1.2-3.1,2.3-4.6,3.5c-1.5,1.2-3,2.4-4.6,3.6C-128.6,447.3-129.2,447-129.3,446.5z M-128.1,442.8c0.1,0.7,0.1,1.4,0.2,2.1
		c0.5-0.4,1-0.9,1.4-1.3c-0.5-0.1-1-0.4-1.4-0.6C-128.1,443-128.1,442.9-128.1,442.8z"/>
	<path class="st3" d="M-168.5,432.1c-2.8-2.6-5.6-5.1-9.1-7c-0.5-0.3-0.4-1.1,0.2-1.2c2.5-0.4,4.9-1.2,7.2-2.3
		c0.5-0.3,1,0.6,0.5,0.9c-1.9,1-3.9,1.7-5.9,2.3c1.8,1,3.4,2.3,4.9,3.6c-0.1-0.3-0.1-0.6,0.3-0.6c0.7-0.1,1.3-0.4,1.9-0.7
		c0-0.5,0.1-0.9,0.1-1.4c-0.7,0.3-1.3,0.5-2,0.8c-0.6,0.2-0.8-0.6-0.3-0.9c0.8-0.4,1.6-0.7,2.4-0.9c0-0.1,0-0.3,0.1-0.4
		c-0.6,0.1-1.1,0.1-1.7,0.1c-0.6,0-0.6-0.9-0.1-0.9c0.6,0,1.3,0,1.9-0.1c0.2-1.2,0.4-2.4,0.7-3.6c0.3-1,1.7-0.8,1.6,0.3
		c-0.2,1.9-0.6,3.8-0.9,5.7c-0.3,1.9-0.5,3.8-0.8,5.7C-167.5,432.1-168.1,432.4-168.5,432.1z M-170.3,428.7c0.5,0.5,1.1,0.9,1.6,1.4
		c0-0.6,0.1-1.3,0.1-1.9c-0.4,0.2-0.9,0.4-1.4,0.6C-170.1,428.7-170.2,428.7-170.3,428.7z"/>
	<path class="st2" d="M-160.4,398.7c-3.8,0.9-7.4,1.9-10.8,3.8c-0.5,0.3-1.1-0.2-0.9-0.8c1.1-2.3,1.7-4.8,2-7.3c0.1-0.6,1-0.5,1,0.1
		c-0.2,2.1-0.6,4.2-1.3,6.2c1.8-0.9,3.7-1.6,5.7-2.2c-0.3,0-0.5-0.3-0.4-0.6c0.2-0.6,0.4-1.3,0.5-2c-0.3-0.3-0.7-0.6-1.1-0.9
		c-0.1,0.7-0.3,1.4-0.4,2.1c-0.1,0.6-1,0.4-0.9-0.2c0.1-0.9,0.3-1.7,0.5-2.5c-0.1-0.1-0.2-0.2-0.3-0.3c-0.2,0.5-0.5,1-0.8,1.5
		c-0.3,0.5-1.1,0-0.8-0.4c0.4-0.5,0.7-1.1,0.9-1.7c-0.9-0.8-1.8-1.7-2.6-2.5c-0.7-0.7,0.3-1.8,1.1-1.2c1.5,1.2,2.9,2.6,4.3,3.8
		c1.5,1.3,2.9,2.5,4.4,3.8C-159.7,397.8-159.9,398.6-160.4,398.7z M-164.2,398.3c0.7-0.2,1.4-0.4,2-0.6c-0.5-0.4-1.1-0.8-1.6-1.2
		c0,0.5-0.2,1-0.3,1.5C-164.1,398.2-164.1,398.3-164.2,398.3z"/>
</g>
<g class="st0">
	<path class="st1" d="M-139.7,490.6c-3.9-0.2-7.6-0.3-11.4,0.4c-0.6,0.1-1-0.6-0.6-1c1.7-1.9,3-4.1,4.1-6.4c0.2-0.5,1.1-0.1,0.9,0.4
		c-0.8,2-1.9,3.8-3.1,5.5c2-0.3,4-0.4,6.1-0.4c-0.3-0.1-0.4-0.4-0.2-0.7c0.4-0.5,0.8-1.1,1-1.7c-0.3-0.4-0.5-0.8-0.8-1.1
		c-0.4,0.6-0.7,1.3-1,1.9c-0.3,0.5-1,0.1-0.8-0.5c0.3-0.8,0.8-1.5,1.3-2.3c-0.1-0.1-0.1-0.2-0.2-0.3c-0.4,0.4-0.8,0.8-1.2,1.2
		c-0.4,0.4-1.1-0.3-0.6-0.6c0.5-0.4,1-0.8,1.4-1.3c-0.6-1.1-1.2-2.1-1.7-3.2c-0.4-0.9,0.8-1.6,1.4-0.8c1.1,1.6,2,3.3,3,4.9
		c1,1.6,2.1,3.3,3.1,4.9C-138.9,490-139.2,490.6-139.7,490.6z M-143.2,489.1c0.7,0,1.4,0,2.1,0.1c-0.4-0.5-0.8-1-1.1-1.6
		c-0.2,0.5-0.4,0.9-0.8,1.4C-143.1,489.1-143.2,489.1-143.2,489.1z"/>
	<path class="st1" d="M-126.2,466.5c3.1,2.4,6.1,4.6,9.7,6.1c0.6,0.2,0.5,1-0.1,1.2c-2.5,0.6-4.8,1.7-7,3c-0.5,0.3-1-0.5-0.5-0.8
		c1.8-1.2,3.7-2.1,5.7-2.8c-1.8-0.9-3.6-1.9-5.3-3.1c0.1,0.2,0.1,0.6-0.2,0.7c-0.6,0.2-1.3,0.5-1.8,0.8c0,0.5,0,0.9,0,1.4
		c0.6-0.3,1.3-0.7,1.9-1c0.5-0.3,0.9,0.5,0.4,0.8c-0.7,0.5-1.5,0.8-2.3,1.2c0,0.1,0,0.3,0,0.4c0.5-0.1,1.1-0.3,1.7-0.3
		c0.6-0.1,0.7,0.8,0.2,0.9c-0.6,0-1.3,0.1-1.9,0.3c-0.1,1.2-0.2,2.4-0.4,3.6c-0.2,1-1.6,0.9-1.6-0.1c0-1.9,0.2-3.9,0.3-5.8
		c0.1-1.9,0.1-3.9,0.2-5.8C-127.2,466.5-126.6,466.2-126.2,466.5z M-124.1,469.7c-0.6-0.4-1.2-0.8-1.7-1.2c0,0.6,0.1,1.3,0.1,1.9
		c0.4-0.3,0.9-0.5,1.4-0.7C-124.3,469.7-124.2,469.7-124.1,469.7z"/>
	<path class="st1" d="M-156.3,510.9c3.9,0.2,7.6,0.2,11.4-0.6c0.6-0.1,1,0.5,0.6,1c-1.7,1.9-3,4.1-4,6.5c-0.2,0.5-1.1,0.2-0.9-0.4
		c0.8-2,1.8-3.8,3-5.6c-2,0.4-4,0.5-6.1,0.5c0.3,0.1,0.4,0.4,0.2,0.7c-0.4,0.5-0.8,1.1-1,1.7c0.3,0.4,0.5,0.7,0.8,1.1
		c0.3-0.6,0.6-1.3,1-1.9c0.3-0.5,1-0.1,0.8,0.5c-0.3,0.8-0.8,1.5-1.2,2.3c0.1,0.1,0.1,0.2,0.2,0.3c0.4-0.4,0.8-0.8,1.2-1.2
		c0.4-0.4,1.1,0.3,0.6,0.6c-0.5,0.4-1,0.8-1.4,1.3c0.6,1,1.2,2.1,1.8,3.2c0.4,0.9-0.8,1.6-1.3,0.8c-1.1-1.6-2-3.3-3.1-4.9
		c-1-1.6-2.1-3.2-3.1-4.8C-157.1,511.5-156.8,510.9-156.3,510.9z M-152.8,512.3c-0.7,0-1.4,0-2.1,0c0.4,0.5,0.8,1,1.2,1.5
		c0.2-0.5,0.4-0.9,0.7-1.4C-152.9,512.4-152.8,512.4-152.8,512.3z"/>
	<path class="st2" d="M-129.3,516.5c-0.2-3.9-0.4-7.6-1.6-11.3c-0.2-0.6,0.5-1.1,1-0.7c2,1.5,4.4,2.6,6.8,3.4c0.5,0.2,0.3,1.1-0.3,1
		c-2.1-0.6-4-1.5-5.8-2.5c0.5,2,0.8,4,1,6c0.1-0.3,0.3-0.4,0.7-0.3c0.6,0.4,1.2,0.7,1.8,0.9c0.3-0.3,0.7-0.6,1-0.9
		c-0.7-0.3-1.3-0.5-2-0.8c-0.6-0.2-0.2-1,0.4-0.8c0.8,0.3,1.6,0.6,2.4,1c0.1-0.1,0.2-0.2,0.3-0.3c-0.5-0.3-0.9-0.7-1.3-1.1
		c-0.4-0.4,0.2-1.1,0.6-0.7c0.4,0.5,0.9,0.9,1.4,1.3c1-0.7,2-1.4,3-2c0.9-0.5,1.7,0.6,0.9,1.3c-1.5,1.2-3.1,2.3-4.6,3.5
		c-1.5,1.2-3,2.4-4.6,3.5C-128.6,517.3-129.2,517-129.3,516.5z M-128.1,512.8c0.1,0.7,0.1,1.4,0.2,2.1c0.5-0.4,1-0.9,1.4-1.3
		c-0.5-0.1-1-0.4-1.4-0.6C-128.1,513-128.1,512.9-128.1,512.8z"/>
	<path class="st3" d="M-168.5,502.1c-2.8-2.6-5.6-5.1-9.1-7c-0.5-0.3-0.4-1.1,0.2-1.2c2.5-0.4,4.9-1.2,7.2-2.3
		c0.5-0.3,1,0.6,0.5,0.9c-1.9,1-3.9,1.7-5.9,2.3c1.8,1,3.4,2.3,4.9,3.6c-0.1-0.3-0.1-0.6,0.3-0.6c0.7-0.1,1.3-0.4,1.9-0.7
		c0-0.5,0.1-0.9,0.1-1.4c-0.7,0.3-1.3,0.5-2,0.8c-0.6,0.2-0.8-0.6-0.3-0.9c0.8-0.4,1.6-0.7,2.4-0.9c0-0.1,0-0.3,0.1-0.4
		c-0.6,0.1-1.1,0.1-1.7,0.1c-0.6,0-0.6-0.9-0.1-0.9c0.6,0,1.3,0,1.9-0.1c0.2-1.2,0.4-2.4,0.7-3.6c0.3-1,1.7-0.8,1.6,0.3
		c-0.2,1.9-0.6,3.8-0.9,5.7c-0.3,1.9-0.5,3.8-0.8,5.7C-167.5,502.1-168.1,502.4-168.5,502.1z M-170.3,498.7c0.5,0.5,1.1,0.9,1.6,1.4
		c0-0.6,0.1-1.3,0.1-1.9c-0.4,0.2-0.9,0.4-1.4,0.5C-170.1,498.7-170.2,498.7-170.3,498.7z"/>
	<path class="st2" d="M-160.4,468.7c-3.8,0.9-7.4,1.9-10.8,3.8c-0.5,0.3-1.1-0.2-0.9-0.8c1.1-2.3,1.7-4.8,2-7.3c0.1-0.6,1-0.5,1,0.1
		c-0.2,2.1-0.6,4.2-1.3,6.2c1.8-0.9,3.7-1.6,5.7-2.2c-0.3,0-0.5-0.3-0.4-0.6c0.2-0.6,0.4-1.3,0.5-2c-0.3-0.3-0.7-0.6-1.1-0.9
		c-0.1,0.7-0.3,1.4-0.4,2.1c-0.1,0.6-1,0.4-0.9-0.2c0.1-0.9,0.3-1.7,0.5-2.5c-0.1-0.1-0.2-0.2-0.3-0.3c-0.2,0.5-0.5,1-0.8,1.5
		c-0.3,0.5-1.1,0-0.8-0.4c0.4-0.5,0.7-1.1,0.9-1.7c-0.9-0.8-1.8-1.7-2.6-2.5c-0.7-0.7,0.3-1.8,1.1-1.2c1.5,1.2,2.9,2.6,4.3,3.8
		c1.5,1.3,2.9,2.5,4.4,3.8C-159.7,467.8-159.9,468.6-160.4,468.7z M-164.2,468.3c0.7-0.2,1.4-0.4,2-0.6c-0.5-0.4-1.1-0.8-1.6-1.2
		c0,0.5-0.2,1-0.3,1.5C-164.1,468.2-164.1,468.3-164.2,468.3z"/>
</g>
<g class="st0">
	<path class="st1" d="M-139.7,560.6c-3.9-0.2-7.6-0.3-11.4,0.4c-0.6,0.1-1-0.6-0.6-1c1.7-1.9,3-4.1,4.1-6.4c0.2-0.5,1.1-0.1,0.9,0.4
		c-0.8,2-1.9,3.8-3.1,5.5c2-0.3,4-0.4,6.1-0.4c-0.3-0.1-0.4-0.4-0.2-0.7c0.4-0.5,0.8-1.1,1-1.7c-0.3-0.4-0.5-0.8-0.8-1.1
		c-0.4,0.6-0.7,1.3-1,1.9c-0.3,0.5-1,0.1-0.8-0.5c0.3-0.8,0.8-1.5,1.3-2.3c-0.1-0.1-0.1-0.2-0.2-0.3c-0.4,0.4-0.8,0.8-1.2,1.2
		c-0.4,0.4-1.1-0.3-0.6-0.6c0.5-0.4,1-0.8,1.4-1.3c-0.6-1-1.2-2.1-1.7-3.2c-0.4-0.9,0.8-1.6,1.4-0.8c1.1,1.6,2,3.3,3,5
		s2.1,3.3,3.1,4.9C-138.9,560-139.2,560.7-139.7,560.6z M-143.2,559.2c0.7,0,1.4,0,2.1,0.1c-0.4-0.5-0.8-1-1.1-1.6
		c-0.2,0.5-0.4,0.9-0.8,1.3C-143.1,559.1-143.2,559.1-143.2,559.2z"/>
	<path class="st1" d="M-126.2,536.5c3.1,2.3,6.1,4.6,9.7,6.1c0.6,0.2,0.5,1-0.1,1.2c-2.5,0.6-4.8,1.7-7,3c-0.5,0.3-1-0.5-0.5-0.8
		c1.8-1.2,3.7-2.1,5.7-2.8c-1.8-0.8-3.6-1.9-5.3-3.1c0.1,0.2,0.1,0.6-0.2,0.7c-0.6,0.2-1.3,0.5-1.8,0.8c0,0.5,0,0.9,0,1.3
		c0.6-0.3,1.3-0.7,1.9-1c0.5-0.3,0.9,0.5,0.4,0.8c-0.7,0.5-1.5,0.8-2.3,1.2c0,0.1,0,0.3,0,0.4c0.5-0.1,1.1-0.3,1.7-0.3
		c0.6-0.1,0.7,0.8,0.2,0.9c-0.6,0-1.3,0.1-1.9,0.3c-0.1,1.2-0.2,2.4-0.4,3.6c-0.2,1-1.6,0.9-1.6-0.1c0-1.9,0.2-3.9,0.3-5.8
		c0.1-1.9,0.1-3.9,0.2-5.8C-127.2,536.5-126.6,536.2-126.2,536.5z M-124.1,539.7c-0.6-0.4-1.2-0.8-1.7-1.2c0,0.6,0.1,1.3,0.1,1.9
		c0.4-0.3,0.9-0.5,1.4-0.7C-124.3,539.7-124.2,539.7-124.1,539.7z"/>
	<path class="st1" d="M-156.3,580.9c3.9,0.2,7.6,0.2,11.4-0.6c0.6-0.1,1,0.5,0.6,1c-1.7,1.9-3,4.1-4,6.5c-0.2,0.5-1.1,0.2-0.9-0.4
		c0.8-2,1.8-3.8,3-5.6c-2,0.4-4,0.5-6.1,0.5c0.3,0.1,0.4,0.4,0.2,0.7c-0.4,0.5-0.8,1.1-1,1.7c0.3,0.4,0.5,0.7,0.8,1.1
		c0.3-0.6,0.6-1.3,1-1.9c0.3-0.5,1-0.1,0.8,0.5c-0.3,0.8-0.8,1.5-1.2,2.3c0.1,0.1,0.1,0.2,0.2,0.3c0.4-0.4,0.8-0.8,1.2-1.2
		c0.4-0.4,1.1,0.3,0.6,0.6c-0.5,0.4-1,0.8-1.4,1.3c0.6,1,1.2,2.1,1.8,3.2c0.4,0.9-0.8,1.6-1.3,0.8c-1.1-1.6-2-3.3-3.1-4.9
		c-1-1.6-2.1-3.2-3.1-4.8C-157.1,581.5-156.8,580.9-156.3,580.9z M-152.8,582.3c-0.7,0-1.4,0-2.1,0c0.4,0.5,0.8,1,1.2,1.5
		c0.2-0.5,0.4-0.9,0.7-1.4C-152.9,582.4-152.8,582.4-152.8,582.3z"/>
	<path class="st2" d="M-129.3,586.5c-0.2-3.9-0.4-7.6-1.6-11.3c-0.2-0.6,0.5-1.1,1-0.7c2,1.5,4.4,2.6,6.8,3.4c0.5,0.2,0.3,1.1-0.3,1
		c-2.1-0.6-4-1.5-5.8-2.5c0.5,2,0.8,4,1,6c0.1-0.3,0.3-0.5,0.7-0.3c0.6,0.4,1.2,0.7,1.8,0.9c0.3-0.3,0.7-0.6,1-0.9
		c-0.7-0.3-1.3-0.5-2-0.8c-0.6-0.2-0.2-1,0.4-0.8c0.8,0.3,1.6,0.6,2.4,1c0.1-0.1,0.2-0.2,0.3-0.3c-0.5-0.3-0.9-0.7-1.3-1.1
		c-0.4-0.4,0.2-1.1,0.6-0.7c0.4,0.5,0.9,0.9,1.4,1.3c1-0.7,2-1.4,3-2c0.9-0.5,1.7,0.6,0.9,1.3c-1.5,1.2-3.1,2.3-4.6,3.5
		c-1.5,1.2-3,2.4-4.6,3.5C-128.6,587.3-129.2,587-129.3,586.5z M-128.1,582.8c0.1,0.7,0.1,1.4,0.2,2.1c0.5-0.4,1-0.9,1.4-1.3
		c-0.5-0.1-1-0.4-1.4-0.6C-128.1,583-128.1,582.9-128.1,582.8z"/>
	<path class="st3" d="M-168.5,572.1c-2.8-2.6-5.6-5.1-9.1-7c-0.5-0.3-0.4-1.1,0.2-1.2c2.5-0.3,4.9-1.2,7.2-2.3
		c0.5-0.3,1,0.6,0.5,0.9c-1.9,1-3.9,1.7-5.9,2.3c1.8,1,3.4,2.3,4.9,3.6c-0.1-0.3-0.1-0.6,0.3-0.6c0.7-0.1,1.3-0.4,1.9-0.7
		c0-0.5,0.1-0.9,0.1-1.4c-0.7,0.3-1.3,0.5-2,0.8c-0.6,0.2-0.8-0.6-0.3-0.9c0.8-0.4,1.6-0.7,2.4-0.9c0-0.1,0-0.3,0.1-0.4
		c-0.6,0.1-1.1,0.1-1.7,0.1c-0.6,0-0.6-0.9-0.1-0.9c0.6,0,1.3,0,1.9-0.1c0.2-1.2,0.4-2.4,0.7-3.5c0.3-1,1.7-0.8,1.6,0.3
		c-0.2,1.9-0.6,3.8-0.9,5.7c-0.3,1.9-0.5,3.8-0.8,5.7C-167.5,572.1-168.1,572.4-168.5,572.1z M-170.3,568.7c0.5,0.5,1.1,0.9,1.6,1.4
		c0-0.6,0.1-1.3,0.1-1.9c-0.4,0.2-0.9,0.4-1.4,0.5C-170.1,568.7-170.2,568.7-170.3,568.7z"/>
	<path class="st2" d="M-160.4,538.7c-3.8,0.9-7.4,1.9-10.8,3.8c-0.5,0.3-1.1-0.2-0.9-0.8c1.1-2.3,1.7-4.8,2-7.3c0.1-0.6,1-0.5,1,0.1
		c-0.2,2.1-0.6,4.2-1.3,6.2c1.8-0.9,3.7-1.6,5.7-2.2c-0.3,0-0.5-0.3-0.4-0.6c0.2-0.6,0.4-1.3,0.5-2c-0.3-0.3-0.7-0.6-1.1-0.9
		c-0.1,0.7-0.3,1.4-0.4,2.1c-0.1,0.6-1,0.4-0.9-0.2c0.1-0.9,0.3-1.7,0.5-2.5c-0.1-0.1-0.2-0.2-0.3-0.3c-0.2,0.5-0.5,1-0.8,1.5
		c-0.3,0.5-1.1,0-0.8-0.4c0.4-0.5,0.7-1.1,0.9-1.7c-0.9-0.8-1.8-1.7-2.6-2.5c-0.7-0.7,0.3-1.8,1.1-1.2c1.5,1.2,2.9,2.6,4.3,3.8
		c1.5,1.3,2.9,2.5,4.4,3.8C-159.7,537.8-159.9,538.5-160.4,538.7z M-164.2,538.3c0.7-0.2,1.4-0.4,2-0.6c-0.5-0.4-1.1-0.8-1.6-1.2
		c0,0.5-0.2,1-0.3,1.5C-164.1,538.2-164.1,538.3-164.2,538.3z"/>
</g>
</svg>
