<?xml version="1.0" encoding="utf-8"?>
<!-- Generator: Adobe Illustrator 23.0.0, SVG Export Plug-In . SVG Version: 6.00 Build 0)  -->
<svg version="1.1" id="Режим_изоляции"
	 xmlns="http://www.w3.org/2000/svg" xmlns:xlink="http://www.w3.org/1999/xlink" x="0px" y="0px" viewBox="0 0 220 360"
	 style="enable-background:new 0 0 220 360;" xml:space="preserve">
<style type="text/css">
	.st0{fill:#213148;}
	.st1{fill:#E4BE8D;}
	.st2{fill:#D6DCDD;}
</style>
<g>
	<path class="st0" d="M187.29,39.73c-3.86-0.22-7.63-0.34-11.43,0.44c-0.61,0.12-1.03-0.56-0.6-1.03c1.72-1.89,3.05-4.08,4.06-6.41
		c0.23-0.52,1.13-0.14,0.92,0.39c-0.81,1.98-1.85,3.81-3.08,5.53c2-0.34,4.04-0.42,6.08-0.4c-0.25-0.12-0.41-0.4-0.19-0.68
		c0.41-0.53,0.76-1.11,1.03-1.72c-0.26-0.37-0.51-0.75-0.76-1.12c-0.35,0.63-0.66,1.27-0.99,1.91c-0.28,0.54-1.02,0.06-0.79-0.46
		c0.34-0.79,0.79-1.54,1.27-2.26c-0.07-0.11-0.14-0.23-0.21-0.34c-0.37,0.43-0.77,0.83-1.21,1.2c-0.43,0.36-1.05-0.27-0.61-0.61
		c0.51-0.4,0.97-0.84,1.38-1.32c-0.62-1.05-1.2-2.12-1.71-3.2c-0.43-0.91,0.79-1.64,1.36-0.79c1.07,1.61,2,3.31,3.01,4.95
		c1.01,1.64,2.06,3.26,3.07,4.9C188.15,39.13,187.81,39.76,187.29,39.73z M183.76,38.26c0.71,0.01,1.41,0.03,2.11,0.06
		c-0.39-0.51-0.77-1.04-1.15-1.57c-0.19,0.48-0.44,0.93-0.76,1.35C183.9,38.17,183.83,38.22,183.76,38.26z"/>
	<path class="st0" d="M200.81,15.63c3.07,2.35,6.12,4.57,9.7,6.06c0.57,0.24,0.53,1.04-0.08,1.19c-2.48,0.6-4.81,1.66-6.97,3.02
		c-0.48,0.3-1.01-0.52-0.54-0.83c1.78-1.19,3.67-2.11,5.66-2.84c-1.84-0.85-3.58-1.93-5.26-3.09c0.14,0.24,0.11,0.56-0.22,0.67
		c-0.64,0.21-1.25,0.49-1.82,0.84c0,0.45,0,0.9-0.01,1.35c0.64-0.32,1.26-0.67,1.9-1.02c0.53-0.29,0.88,0.52,0.4,0.83
		c-0.73,0.46-1.52,0.83-2.32,1.16c0,0.13-0.01,0.27-0.02,0.4c0.55-0.15,1.11-0.26,1.68-0.31c0.56-0.06,0.71,0.82,0.16,0.85
		c-0.64,0.04-1.27,0.15-1.89,0.31c-0.08,1.22-0.2,2.42-0.39,3.6c-0.16,1-1.58,0.91-1.57-0.11c0.02-1.93,0.21-3.86,0.3-5.78
		c0.09-1.93,0.13-3.85,0.22-5.78C199.76,15.65,200.39,15.31,200.81,15.63z M202.9,18.84c-0.58-0.41-1.15-0.82-1.72-1.23
		c0.03,0.64,0.06,1.29,0.07,1.94c0.42-0.29,0.89-0.52,1.39-0.69C202.74,18.83,202.82,18.83,202.9,18.84z"/>
	<path class="st0" d="M170.69,60.02c3.86,0.16,7.63,0.22,11.42-0.62c0.6-0.13,1.03,0.55,0.62,1.02c-1.69,1.91-2.99,4.12-3.97,6.47
		c-0.22,0.52-1.13,0.15-0.92-0.37c0.78-1.99,1.79-3.84,2.99-5.58c-1.99,0.37-4.04,0.48-6.08,0.49c0.25,0.12,0.41,0.39,0.2,0.68
		c-0.4,0.54-0.75,1.12-1.01,1.74c0.26,0.37,0.52,0.74,0.77,1.11c0.34-0.63,0.64-1.28,0.96-1.92c0.27-0.54,1.02-0.08,0.8,0.45
		c-0.33,0.79-0.77,1.55-1.23,2.28c0.07,0.11,0.15,0.23,0.22,0.34c0.36-0.44,0.76-0.85,1.19-1.22c0.42-0.37,1.05,0.26,0.62,0.61
		c-0.5,0.41-0.96,0.85-1.36,1.34c0.64,1.04,1.23,2.1,1.76,3.17c0.44,0.9-0.77,1.65-1.34,0.81c-1.09-1.59-2.04-3.28-3.08-4.9
		c-1.03-1.63-2.11-3.23-3.15-4.85C169.85,60.64,170.17,60,170.69,60.02z M174.25,61.44c-0.71,0-1.41-0.01-2.11-0.02
		c0.4,0.51,0.79,1.02,1.18,1.55c0.18-0.48,0.43-0.93,0.74-1.36C174.11,61.53,174.18,61.48,174.25,61.44z"/>
	<path class="st1" d="M197.74,65.6c-0.17-3.86-0.43-7.62-1.58-11.33c-0.18-0.59,0.46-1.08,0.97-0.7c2.05,1.52,4.36,2.63,6.79,3.4
		c0.54,0.17,0.25,1.11-0.29,0.95c-2.05-0.61-3.97-1.46-5.81-2.51c0.53,1.95,0.82,3.98,1,6.01c0.09-0.26,0.35-0.45,0.66-0.26
		c0.57,0.35,1.18,0.65,1.82,0.86c0.34-0.29,0.69-0.58,1.04-0.86c-0.66-0.28-1.33-0.53-2-0.8c-0.56-0.22-0.17-1.01,0.38-0.84
		c0.82,0.26,1.61,0.63,2.37,1.03c0.11-0.08,0.21-0.17,0.32-0.25c-0.47-0.32-0.91-0.69-1.32-1.09c-0.4-0.39,0.17-1.07,0.55-0.67
		c0.45,0.46,0.93,0.88,1.45,1.25c0.98-0.72,1.99-1.4,3.01-2.02c0.86-0.52,1.71,0.62,0.92,1.27c-1.49,1.22-3.09,2.32-4.63,3.48
		c-1.53,1.17-3.04,2.38-4.57,3.55C198.42,66.39,197.76,66.12,197.74,65.6z M198.85,61.93c0.06,0.7,0.11,1.41,0.16,2.11
		c0.47-0.44,0.95-0.87,1.44-1.3c-0.49-0.14-0.97-0.35-1.42-0.63C198.95,62.07,198.89,62,198.85,61.93z"/>
	<path class="st2" d="M158.49,51.17c-2.82-2.64-5.63-5.15-9.05-6.99c-0.54-0.29-0.42-1.09,0.2-1.18c2.53-0.35,4.95-1.17,7.23-2.31
		c0.51-0.25,0.95,0.62,0.46,0.88c-1.89,1-3.86,1.74-5.91,2.27c1.75,1.02,3.37,2.28,4.92,3.6c-0.12-0.25-0.06-0.57,0.29-0.64
		c0.65-0.15,1.3-0.36,1.9-0.66c0.04-0.45,0.09-0.9,0.14-1.35c-0.67,0.26-1.32,0.55-1.99,0.83c-0.56,0.23-0.83-0.61-0.31-0.87
		c0.77-0.38,1.59-0.67,2.42-0.92c0.02-0.13,0.04-0.27,0.06-0.4c-0.56,0.09-1.13,0.14-1.7,0.15c-0.56,0-0.63-0.88-0.08-0.87
		c0.64,0.02,1.28-0.02,1.91-0.12c0.2-1.2,0.44-2.39,0.74-3.55c0.25-0.97,1.66-0.75,1.55,0.26c-0.21,1.92-0.59,3.82-0.87,5.73
		c-0.28,1.91-0.51,3.82-0.79,5.73C159.53,51.25,158.87,51.52,158.49,51.17z M156.72,47.77c0.54,0.46,1.06,0.93,1.59,1.4
		c0.03-0.64,0.07-1.29,0.12-1.94c-0.45,0.24-0.93,0.43-1.45,0.55C156.88,47.79,156.8,47.79,156.72,47.77z"/>
	<path class="st1" d="M166.63,17.78c-3.75,0.94-7.38,1.94-10.79,3.81c-0.54,0.3-1.15-0.24-0.88-0.81c1.08-2.31,1.7-4.8,1.98-7.33
		c0.06-0.56,1.04-0.46,0.99,0.1c-0.18,2.13-0.64,4.19-1.3,6.2c1.81-0.91,3.74-1.59,5.69-2.18c-0.28-0.04-0.51-0.26-0.38-0.59
		c0.23-0.63,0.4-1.28,0.48-1.95c-0.35-0.28-0.71-0.56-1.05-0.85c-0.14,0.7-0.26,1.41-0.38,2.12c-0.1,0.59-0.96,0.37-0.9-0.21
		c0.09-0.85,0.3-1.7,0.54-2.53c-0.1-0.09-0.2-0.18-0.31-0.26c-0.22,0.52-0.49,1.03-0.8,1.51c-0.3,0.47-1.08,0.05-0.77-0.4
		c0.36-0.53,0.68-1.09,0.93-1.67c-0.9-0.82-1.77-1.67-2.58-2.55c-0.68-0.74,0.27-1.8,1.06-1.16c1.49,1.22,2.89,2.57,4.34,3.84
		c1.45,1.27,2.93,2.5,4.39,3.77C167.27,16.95,167.14,17.66,166.63,17.78z M162.82,17.42c0.68-0.2,1.36-0.39,2.04-0.57
		c-0.52-0.38-1.05-0.76-1.56-1.16c-0.04,0.51-0.15,1.02-0.33,1.52C162.93,17.3,162.88,17.37,162.82,17.42z"/>
</g>
<g>
	<path class="st0" d="M187.29,109.73c-3.86-0.22-7.63-0.34-11.43,0.44c-0.61,0.12-1.03-0.56-0.6-1.03c1.72-1.89,3.05-4.08,4.06-6.41
		c0.23-0.52,1.13-0.14,0.92,0.39c-0.81,1.98-1.85,3.81-3.08,5.53c2-0.34,4.04-0.42,6.08-0.4c-0.25-0.12-0.41-0.4-0.19-0.68
		c0.41-0.53,0.76-1.11,1.03-1.72c-0.26-0.37-0.51-0.75-0.76-1.12c-0.35,0.63-0.66,1.27-0.99,1.91c-0.28,0.54-1.02,0.06-0.79-0.46
		c0.34-0.79,0.79-1.54,1.27-2.26c-0.07-0.11-0.14-0.23-0.21-0.34c-0.37,0.43-0.77,0.83-1.21,1.2c-0.43,0.36-1.05-0.27-0.61-0.61
		c0.51-0.4,0.97-0.84,1.38-1.32c-0.62-1.05-1.2-2.12-1.71-3.2c-0.43-0.91,0.79-1.64,1.36-0.79c1.07,1.61,2,3.31,3.01,4.95
		c1.01,1.64,2.06,3.26,3.07,4.9C188.15,109.13,187.81,109.76,187.29,109.73z M183.76,108.26c0.71,0.01,1.41,0.03,2.11,0.06
		c-0.39-0.51-0.77-1.04-1.15-1.57c-0.19,0.48-0.44,0.93-0.76,1.35C183.9,108.17,183.83,108.22,183.76,108.26z"/>
	<path class="st0" d="M200.81,85.63c3.07,2.35,6.12,4.57,9.7,6.06c0.57,0.24,0.53,1.04-0.08,1.19c-2.48,0.6-4.81,1.66-6.97,3.02
		c-0.48,0.3-1.01-0.52-0.54-0.83c1.78-1.19,3.67-2.11,5.66-2.84c-1.84-0.85-3.58-1.93-5.26-3.09c0.14,0.24,0.11,0.56-0.22,0.67
		c-0.64,0.21-1.25,0.49-1.82,0.84c0,0.45,0,0.9-0.01,1.35c0.64-0.32,1.26-0.67,1.9-1.02c0.53-0.29,0.88,0.52,0.4,0.83
		c-0.73,0.46-1.52,0.83-2.32,1.16c0,0.13-0.01,0.27-0.02,0.4c0.55-0.15,1.11-0.26,1.68-0.31c0.56-0.06,0.71,0.82,0.16,0.85
		c-0.64,0.04-1.27,0.15-1.89,0.31c-0.08,1.22-0.2,2.42-0.39,3.6c-0.16,1-1.58,0.91-1.57-0.11c0.02-1.93,0.21-3.86,0.3-5.78
		c0.09-1.93,0.13-3.85,0.22-5.78C199.76,85.65,200.39,85.31,200.81,85.63z M202.9,88.84c-0.58-0.41-1.15-0.82-1.72-1.23
		c0.03,0.64,0.06,1.29,0.07,1.94c0.42-0.29,0.89-0.52,1.39-0.69C202.74,88.83,202.82,88.83,202.9,88.84z"/>
	<path class="st0" d="M170.69,130.02c3.86,0.16,7.63,0.22,11.42-0.62c0.6-0.13,1.03,0.55,0.62,1.02c-1.69,1.91-2.99,4.12-3.97,6.47
		c-0.22,0.52-1.13,0.15-0.92-0.37c0.78-1.99,1.79-3.84,2.99-5.58c-1.99,0.37-4.04,0.48-6.08,0.49c0.25,0.12,0.41,0.39,0.2,0.68
		c-0.4,0.54-0.75,1.12-1.01,1.74c0.26,0.37,0.52,0.74,0.77,1.11c0.34-0.63,0.64-1.28,0.96-1.92c0.27-0.54,1.02-0.08,0.8,0.45
		c-0.33,0.79-0.77,1.55-1.23,2.28c0.07,0.11,0.15,0.23,0.22,0.34c0.36-0.44,0.76-0.85,1.19-1.22c0.42-0.37,1.05,0.26,0.62,0.61
		c-0.5,0.41-0.96,0.85-1.36,1.34c0.64,1.04,1.23,2.1,1.76,3.17c0.44,0.9-0.77,1.65-1.34,0.81c-1.09-1.59-2.04-3.28-3.08-4.9
		c-1.03-1.63-2.11-3.23-3.15-4.85C169.85,130.64,170.17,130,170.69,130.02z M174.25,131.44c-0.71,0-1.41-0.01-2.11-0.02
		c0.4,0.51,0.79,1.02,1.18,1.55c0.18-0.48,0.43-0.93,0.74-1.36C174.11,131.53,174.18,131.48,174.25,131.44z"/>
	<path class="st1" d="M197.74,135.6c-0.17-3.86-0.43-7.62-1.58-11.33c-0.18-0.59,0.46-1.08,0.97-0.7c2.05,1.52,4.36,2.63,6.79,3.4
		c0.54,0.17,0.25,1.11-0.29,0.95c-2.05-0.61-3.97-1.46-5.81-2.51c0.53,1.95,0.82,3.98,1,6.01c0.09-0.26,0.35-0.45,0.66-0.26
		c0.57,0.35,1.18,0.65,1.82,0.86c0.34-0.29,0.69-0.58,1.04-0.86c-0.66-0.28-1.33-0.53-2-0.8c-0.56-0.22-0.17-1.01,0.38-0.84
		c0.82,0.26,1.61,0.63,2.37,1.03c0.11-0.08,0.21-0.17,0.32-0.25c-0.47-0.32-0.91-0.69-1.32-1.09c-0.4-0.39,0.17-1.07,0.55-0.67
		c0.45,0.46,0.93,0.88,1.45,1.25c0.98-0.72,1.99-1.4,3.01-2.02c0.86-0.52,1.71,0.62,0.92,1.27c-1.49,1.22-3.09,2.32-4.63,3.48
		c-1.53,1.17-3.04,2.38-4.57,3.55C198.42,136.39,197.76,136.12,197.74,135.6z M198.85,131.93c0.06,0.7,0.11,1.41,0.16,2.11
		c0.47-0.44,0.95-0.87,1.44-1.3c-0.49-0.14-0.97-0.35-1.42-0.63C198.95,132.07,198.89,132,198.85,131.93z"/>
	<path class="st2" d="M158.49,121.17c-2.82-2.64-5.63-5.15-9.05-6.99c-0.54-0.29-0.42-1.09,0.2-1.18c2.53-0.35,4.95-1.17,7.23-2.31
		c0.51-0.25,0.95,0.62,0.46,0.88c-1.89,1-3.86,1.74-5.91,2.27c1.75,1.02,3.37,2.28,4.92,3.6c-0.12-0.25-0.06-0.57,0.29-0.64
		c0.65-0.15,1.3-0.36,1.9-0.66c0.04-0.45,0.09-0.9,0.14-1.35c-0.67,0.26-1.32,0.55-1.99,0.83c-0.56,0.23-0.83-0.61-0.31-0.87
		c0.77-0.38,1.59-0.67,2.42-0.92c0.02-0.13,0.04-0.27,0.06-0.4c-0.56,0.09-1.13,0.14-1.7,0.15c-0.56,0-0.63-0.88-0.08-0.87
		c0.64,0.02,1.28-0.02,1.91-0.12c0.2-1.2,0.44-2.39,0.74-3.55c0.25-0.97,1.66-0.75,1.55,0.26c-0.21,1.92-0.59,3.82-0.87,5.73
		c-0.28,1.91-0.51,3.82-0.79,5.73C159.53,121.25,158.87,121.52,158.49,121.17z M156.72,117.77c0.54,0.46,1.06,0.93,1.59,1.4
		c0.03-0.64,0.07-1.29,0.12-1.94c-0.45,0.24-0.93,0.43-1.45,0.55C156.88,117.79,156.8,117.79,156.72,117.77z"/>
	<path class="st1" d="M166.63,87.78c-3.75,0.94-7.38,1.94-10.79,3.81c-0.54,0.3-1.15-0.24-0.88-0.81c1.08-2.31,1.7-4.8,1.98-7.33
		c0.06-0.56,1.04-0.46,0.99,0.1c-0.18,2.13-0.64,4.19-1.3,6.2c1.81-0.91,3.74-1.59,5.69-2.18c-0.28-0.04-0.51-0.26-0.38-0.59
		c0.23-0.63,0.4-1.28,0.48-1.95c-0.35-0.28-0.71-0.56-1.05-0.85c-0.14,0.7-0.26,1.41-0.38,2.12c-0.1,0.59-0.96,0.37-0.9-0.21
		c0.09-0.85,0.3-1.7,0.54-2.53c-0.1-0.09-0.2-0.18-0.31-0.26c-0.22,0.52-0.49,1.03-0.8,1.51c-0.3,0.47-1.08,0.05-0.77-0.4
		c0.36-0.53,0.68-1.09,0.93-1.67c-0.9-0.82-1.77-1.67-2.58-2.55c-0.68-0.74,0.27-1.8,1.06-1.16c1.49,1.22,2.89,2.57,4.34,3.84
		c1.45,1.27,2.93,2.5,4.39,3.77C167.27,86.95,167.14,87.66,166.63,87.78z M162.82,87.42c0.68-0.2,1.36-0.39,2.04-0.57
		c-0.52-0.38-1.05-0.76-1.56-1.16c-0.04,0.51-0.15,1.02-0.33,1.52C162.93,87.3,162.88,87.37,162.82,87.42z"/>
</g>
<g>
	<path class="st0" d="M187.29,179.73c-3.86-0.22-7.63-0.34-11.43,0.44c-0.61,0.12-1.03-0.56-0.6-1.03c1.72-1.89,3.05-4.08,4.06-6.41
		c0.23-0.52,1.13-0.14,0.92,0.39c-0.81,1.98-1.85,3.81-3.08,5.53c2-0.34,4.04-0.42,6.08-0.4c-0.25-0.12-0.41-0.4-0.19-0.68
		c0.41-0.53,0.76-1.11,1.03-1.72c-0.26-0.37-0.51-0.75-0.76-1.12c-0.35,0.63-0.66,1.27-0.99,1.91c-0.28,0.54-1.02,0.06-0.79-0.46
		c0.34-0.79,0.79-1.54,1.27-2.26c-0.07-0.11-0.14-0.23-0.21-0.34c-0.37,0.43-0.77,0.83-1.21,1.2c-0.43,0.36-1.05-0.27-0.61-0.61
		c0.51-0.4,0.97-0.84,1.38-1.32c-0.62-1.05-1.2-2.12-1.71-3.2c-0.43-0.91,0.79-1.64,1.36-0.79c1.07,1.61,2,3.31,3.01,4.95
		c1.01,1.64,2.06,3.26,3.07,4.9C188.15,179.13,187.81,179.76,187.29,179.73z M183.76,178.26c0.71,0.01,1.41,0.03,2.11,0.06
		c-0.39-0.51-0.77-1.04-1.15-1.57c-0.19,0.48-0.44,0.93-0.76,1.35C183.9,178.17,183.83,178.22,183.76,178.26z"/>
	<path class="st0" d="M200.81,155.63c3.07,2.35,6.12,4.57,9.7,6.06c0.57,0.24,0.53,1.04-0.08,1.19c-2.48,0.6-4.81,1.66-6.97,3.02
		c-0.48,0.3-1.01-0.52-0.54-0.83c1.78-1.19,3.67-2.11,5.66-2.84c-1.84-0.85-3.58-1.93-5.26-3.09c0.14,0.24,0.11,0.56-0.22,0.67
		c-0.64,0.21-1.25,0.49-1.82,0.84c0,0.45,0,0.9-0.01,1.35c0.64-0.32,1.26-0.67,1.9-1.02c0.53-0.29,0.88,0.52,0.4,0.83
		c-0.73,0.46-1.52,0.83-2.32,1.16c0,0.13-0.01,0.27-0.02,0.4c0.55-0.15,1.11-0.26,1.68-0.31c0.56-0.06,0.71,0.82,0.16,0.85
		c-0.64,0.04-1.27,0.15-1.89,0.31c-0.08,1.22-0.2,2.42-0.39,3.6c-0.16,0.99-1.58,0.91-1.57-0.11c0.02-1.93,0.21-3.86,0.3-5.78
		c0.09-1.93,0.13-3.85,0.22-5.78C199.76,155.65,200.39,155.31,200.81,155.63z M202.9,158.84c-0.58-0.41-1.15-0.82-1.72-1.23
		c0.03,0.64,0.06,1.29,0.07,1.94c0.42-0.29,0.89-0.52,1.39-0.69C202.74,158.83,202.82,158.83,202.9,158.84z"/>
	<path class="st0" d="M170.69,200.02c3.86,0.16,7.63,0.22,11.42-0.62c0.6-0.13,1.03,0.55,0.62,1.02c-1.69,1.91-2.99,4.12-3.97,6.47
		c-0.22,0.52-1.13,0.15-0.92-0.37c0.78-1.99,1.79-3.84,2.99-5.58c-1.99,0.37-4.04,0.48-6.08,0.49c0.25,0.12,0.41,0.39,0.2,0.68
		c-0.4,0.54-0.75,1.12-1.01,1.74c0.26,0.37,0.52,0.74,0.77,1.11c0.34-0.63,0.64-1.28,0.96-1.92c0.27-0.54,1.02-0.08,0.8,0.45
		c-0.33,0.79-0.77,1.55-1.23,2.28c0.07,0.11,0.15,0.23,0.22,0.34c0.36-0.44,0.76-0.85,1.19-1.22c0.42-0.37,1.05,0.26,0.62,0.61
		c-0.5,0.41-0.96,0.85-1.36,1.34c0.64,1.04,1.23,2.1,1.76,3.17c0.44,0.9-0.77,1.65-1.34,0.81c-1.09-1.59-2.04-3.28-3.08-4.9
		c-1.03-1.63-2.11-3.23-3.15-4.85C169.85,200.64,170.17,200,170.69,200.02z M174.25,201.44c-0.71,0-1.41-0.01-2.11-0.02
		c0.4,0.51,0.79,1.02,1.18,1.55c0.18-0.48,0.43-0.93,0.74-1.36C174.11,201.53,174.18,201.48,174.25,201.44z"/>
	<path class="st1" d="M197.74,205.6c-0.17-3.86-0.43-7.62-1.58-11.33c-0.18-0.59,0.46-1.08,0.97-0.7c2.05,1.52,4.36,2.63,6.79,3.4
		c0.54,0.17,0.25,1.11-0.29,0.95c-2.05-0.61-3.97-1.46-5.81-2.51c0.53,1.95,0.82,3.98,1,6.01c0.09-0.26,0.35-0.45,0.66-0.26
		c0.57,0.35,1.18,0.65,1.82,0.86c0.34-0.29,0.69-0.58,1.04-0.86c-0.66-0.28-1.33-0.53-2-0.8c-0.56-0.22-0.17-1.01,0.38-0.84
		c0.82,0.26,1.61,0.63,2.37,1.03c0.11-0.08,0.21-0.17,0.32-0.25c-0.47-0.32-0.91-0.69-1.32-1.09c-0.4-0.39,0.17-1.07,0.55-0.67
		c0.45,0.46,0.93,0.88,1.45,1.25c0.98-0.72,1.99-1.4,3.01-2.02c0.86-0.52,1.71,0.62,0.92,1.27c-1.49,1.22-3.09,2.32-4.63,3.48
		c-1.53,1.17-3.04,2.38-4.57,3.55C198.42,206.39,197.76,206.12,197.74,205.6z M198.85,201.93c0.06,0.7,0.11,1.41,0.16,2.11
		c0.47-0.44,0.95-0.87,1.44-1.3c-0.49-0.14-0.97-0.35-1.42-0.63C198.95,202.07,198.89,202,198.85,201.93z"/>
	<path class="st2" d="M158.49,191.17c-2.82-2.64-5.63-5.15-9.05-6.99c-0.54-0.29-0.42-1.09,0.2-1.18c2.53-0.35,4.95-1.17,7.23-2.31
		c0.51-0.25,0.95,0.62,0.46,0.88c-1.89,1-3.86,1.74-5.91,2.27c1.75,1.02,3.37,2.28,4.92,3.6c-0.12-0.25-0.06-0.57,0.29-0.64
		c0.65-0.15,1.3-0.36,1.9-0.66c0.04-0.45,0.09-0.9,0.14-1.35c-0.67,0.26-1.32,0.55-1.99,0.83c-0.56,0.23-0.83-0.61-0.31-0.87
		c0.77-0.38,1.59-0.67,2.42-0.92c0.02-0.13,0.04-0.27,0.06-0.4c-0.56,0.09-1.13,0.14-1.7,0.15c-0.56,0-0.63-0.88-0.08-0.87
		c0.64,0.02,1.28-0.02,1.91-0.12c0.2-1.2,0.44-2.39,0.74-3.55c0.25-0.97,1.66-0.75,1.55,0.26c-0.21,1.92-0.59,3.82-0.87,5.73
		c-0.28,1.91-0.51,3.82-0.79,5.73C159.53,191.25,158.87,191.52,158.49,191.17z M156.72,187.77c0.54,0.46,1.06,0.93,1.59,1.4
		c0.03-0.64,0.07-1.29,0.12-1.94c-0.45,0.24-0.93,0.43-1.45,0.55C156.88,187.79,156.8,187.79,156.72,187.77z"/>
	<path class="st1" d="M166.63,157.78c-3.75,0.94-7.38,1.94-10.79,3.81c-0.54,0.3-1.15-0.24-0.88-0.81c1.08-2.31,1.7-4.8,1.98-7.33
		c0.06-0.56,1.04-0.46,0.99,0.1c-0.18,2.13-0.64,4.19-1.3,6.2c1.81-0.91,3.74-1.59,5.69-2.18c-0.28-0.04-0.51-0.26-0.38-0.59
		c0.23-0.63,0.4-1.28,0.48-1.95c-0.35-0.28-0.71-0.56-1.05-0.85c-0.14,0.7-0.26,1.41-0.38,2.12c-0.1,0.59-0.96,0.37-0.9-0.21
		c0.09-0.85,0.3-1.7,0.54-2.53c-0.1-0.09-0.2-0.18-0.31-0.26c-0.22,0.52-0.49,1.03-0.8,1.51c-0.3,0.47-1.08,0.05-0.77-0.4
		c0.36-0.53,0.68-1.09,0.93-1.67c-0.9-0.82-1.77-1.67-2.58-2.55c-0.68-0.74,0.27-1.8,1.06-1.16c1.49,1.22,2.89,2.57,4.34,3.84
		c1.45,1.27,2.93,2.5,4.39,3.77C167.27,156.95,167.14,157.66,166.63,157.78z M162.82,157.42c0.68-0.2,1.36-0.39,2.04-0.57
		c-0.52-0.38-1.05-0.76-1.56-1.16c-0.04,0.51-0.15,1.02-0.33,1.52C162.93,157.3,162.88,157.37,162.82,157.42z"/>
</g>
<g>
	<path class="st0" d="M187.29,249.73c-3.86-0.22-7.63-0.34-11.43,0.44c-0.61,0.12-1.03-0.56-0.6-1.03c1.72-1.89,3.05-4.08,4.06-6.41
		c0.23-0.52,1.13-0.14,0.92,0.39c-0.81,1.98-1.85,3.81-3.08,5.53c2-0.34,4.04-0.42,6.08-0.4c-0.25-0.12-0.41-0.4-0.19-0.68
		c0.41-0.53,0.76-1.11,1.03-1.72c-0.26-0.37-0.51-0.75-0.76-1.12c-0.35,0.63-0.66,1.27-0.99,1.91c-0.28,0.54-1.02,0.06-0.79-0.46
		c0.34-0.79,0.79-1.54,1.27-2.26c-0.07-0.11-0.14-0.23-0.21-0.34c-0.37,0.43-0.77,0.83-1.21,1.2c-0.43,0.36-1.05-0.27-0.61-0.61
		c0.51-0.4,0.97-0.84,1.38-1.32c-0.62-1.05-1.2-2.12-1.71-3.2c-0.43-0.91,0.79-1.64,1.36-0.79c1.07,1.61,2,3.31,3.01,4.95
		c1.01,1.64,2.06,3.26,3.07,4.9C188.15,249.13,187.81,249.76,187.29,249.73z M183.76,248.26c0.71,0.01,1.41,0.03,2.11,0.06
		c-0.39-0.51-0.77-1.04-1.15-1.57c-0.19,0.48-0.44,0.93-0.76,1.35C183.9,248.17,183.83,248.22,183.76,248.26z"/>
	<path class="st0" d="M200.81,225.63c3.07,2.35,6.12,4.57,9.7,6.06c0.57,0.24,0.53,1.04-0.08,1.19c-2.48,0.6-4.81,1.66-6.97,3.02
		c-0.48,0.3-1.01-0.52-0.54-0.83c1.78-1.19,3.67-2.11,5.66-2.84c-1.84-0.85-3.58-1.93-5.26-3.09c0.14,0.24,0.11,0.56-0.22,0.67
		c-0.64,0.21-1.25,0.49-1.82,0.84c0,0.45,0,0.9-0.01,1.35c0.64-0.32,1.26-0.67,1.9-1.02c0.53-0.29,0.88,0.52,0.4,0.83
		c-0.73,0.46-1.52,0.83-2.32,1.16c0,0.13-0.01,0.27-0.02,0.4c0.55-0.15,1.11-0.26,1.68-0.31c0.56-0.06,0.71,0.82,0.16,0.85
		c-0.64,0.04-1.27,0.15-1.89,0.31c-0.08,1.22-0.2,2.42-0.39,3.6c-0.16,0.99-1.58,0.91-1.57-0.11c0.02-1.93,0.21-3.86,0.3-5.78
		c0.09-1.93,0.13-3.85,0.22-5.78C199.76,225.65,200.39,225.31,200.81,225.63z M202.9,228.84c-0.58-0.41-1.15-0.82-1.72-1.23
		c0.03,0.64,0.06,1.29,0.07,1.94c0.42-0.29,0.89-0.52,1.39-0.69C202.74,228.83,202.82,228.83,202.9,228.84z"/>
	<path class="st0" d="M170.69,270.02c3.86,0.16,7.63,0.22,11.42-0.62c0.6-0.13,1.03,0.55,0.62,1.02c-1.69,1.91-2.99,4.12-3.97,6.47
		c-0.22,0.52-1.13,0.15-0.92-0.37c0.78-1.99,1.79-3.84,2.99-5.58c-1.99,0.37-4.04,0.48-6.08,0.49c0.25,0.12,0.41,0.39,0.2,0.68
		c-0.4,0.54-0.75,1.12-1.01,1.74c0.26,0.37,0.52,0.74,0.77,1.11c0.34-0.63,0.64-1.28,0.96-1.92c0.27-0.54,1.02-0.08,0.8,0.45
		c-0.33,0.79-0.77,1.55-1.23,2.28c0.07,0.11,0.15,0.23,0.22,0.34c0.36-0.44,0.76-0.85,1.19-1.22c0.42-0.37,1.05,0.26,0.62,0.61
		c-0.5,0.41-0.96,0.85-1.36,1.34c0.64,1.04,1.23,2.1,1.76,3.17c0.44,0.9-0.77,1.65-1.34,0.81c-1.09-1.59-2.04-3.28-3.08-4.9
		c-1.03-1.63-2.11-3.23-3.15-4.85C169.85,270.64,170.17,270,170.69,270.02z M174.25,271.44c-0.71,0-1.41-0.01-2.11-0.02
		c0.4,0.51,0.79,1.02,1.18,1.55c0.18-0.48,0.43-0.93,0.74-1.36C174.11,271.53,174.18,271.48,174.25,271.44z"/>
	<path class="st1" d="M197.74,275.6c-0.17-3.86-0.43-7.62-1.58-11.33c-0.18-0.59,0.46-1.08,0.97-0.7c2.05,1.52,4.36,2.63,6.79,3.4
		c0.54,0.17,0.25,1.11-0.29,0.95c-2.05-0.61-3.97-1.46-5.81-2.51c0.53,1.95,0.82,3.98,1,6.01c0.09-0.26,0.35-0.45,0.66-0.26
		c0.57,0.35,1.18,0.65,1.82,0.86c0.34-0.29,0.69-0.58,1.04-0.86c-0.66-0.28-1.33-0.53-2-0.8c-0.56-0.22-0.17-1.01,0.38-0.84
		c0.82,0.26,1.61,0.63,2.37,1.03c0.11-0.08,0.21-0.17,0.32-0.25c-0.47-0.32-0.91-0.69-1.32-1.09c-0.4-0.39,0.17-1.07,0.55-0.67
		c0.45,0.46,0.93,0.88,1.45,1.25c0.98-0.72,1.99-1.4,3.01-2.02c0.86-0.52,1.71,0.62,0.92,1.27c-1.49,1.22-3.09,2.32-4.63,3.48
		c-1.53,1.17-3.04,2.38-4.57,3.55C198.42,276.39,197.76,276.12,197.74,275.6z M198.85,271.93c0.06,0.7,0.11,1.41,0.16,2.11
		c0.47-0.44,0.95-0.87,1.44-1.3c-0.49-0.14-0.97-0.35-1.42-0.63C198.95,272.07,198.89,272,198.85,271.93z"/>
	<path class="st2" d="M158.49,261.17c-2.82-2.64-5.63-5.15-9.05-6.99c-0.54-0.29-0.42-1.09,0.2-1.18c2.53-0.35,4.95-1.17,7.23-2.31
		c0.51-0.25,0.95,0.62,0.46,0.88c-1.89,1-3.86,1.74-5.91,2.27c1.75,1.02,3.37,2.28,4.92,3.6c-0.12-0.25-0.06-0.57,0.29-0.64
		c0.65-0.15,1.3-0.36,1.9-0.66c0.04-0.45,0.09-0.9,0.14-1.35c-0.67,0.26-1.32,0.55-1.99,0.83c-0.56,0.23-0.83-0.61-0.31-0.87
		c0.77-0.38,1.59-0.67,2.42-0.92c0.02-0.13,0.04-0.27,0.06-0.4c-0.56,0.09-1.13,0.14-1.7,0.15c-0.56,0-0.63-0.88-0.08-0.87
		c0.64,0.02,1.28-0.02,1.91-0.12c0.2-1.2,0.44-2.39,0.74-3.55c0.25-0.97,1.66-0.75,1.55,0.26c-0.21,1.92-0.59,3.82-0.87,5.73
		c-0.28,1.91-0.51,3.82-0.79,5.73C159.53,261.25,158.87,261.52,158.49,261.17z M156.72,257.77c0.54,0.46,1.06,0.93,1.59,1.4
		c0.03-0.64,0.07-1.29,0.12-1.94c-0.45,0.24-0.93,0.43-1.45,0.55C156.88,257.79,156.8,257.79,156.72,257.77z"/>
	<path class="st1" d="M166.63,227.78c-3.75,0.94-7.38,1.94-10.79,3.81c-0.54,0.3-1.15-0.24-0.88-0.81c1.08-2.31,1.7-4.8,1.98-7.33
		c0.06-0.56,1.04-0.46,0.99,0.1c-0.18,2.13-0.64,4.19-1.3,6.2c1.81-0.91,3.74-1.59,5.69-2.18c-0.28-0.04-0.51-0.26-0.38-0.59
		c0.23-0.63,0.4-1.28,0.48-1.95c-0.35-0.28-0.71-0.56-1.05-0.85c-0.14,0.7-0.26,1.41-0.38,2.12c-0.1,0.59-0.96,0.37-0.9-0.21
		c0.09-0.85,0.3-1.7,0.54-2.53c-0.1-0.09-0.2-0.18-0.31-0.26c-0.22,0.52-0.49,1.03-0.8,1.51c-0.3,0.47-1.08,0.05-0.77-0.4
		c0.36-0.53,0.68-1.09,0.93-1.67c-0.9-0.82-1.77-1.67-2.58-2.55c-0.68-0.74,0.27-1.8,1.06-1.16c1.49,1.22,2.89,2.57,4.34,3.84
		c1.45,1.27,2.93,2.5,4.39,3.77C167.27,226.95,167.14,227.66,166.63,227.78z M162.82,227.42c0.68-0.2,1.36-0.39,2.04-0.57
		c-0.52-0.38-1.05-0.76-1.56-1.16c-0.04,0.51-0.15,1.02-0.33,1.52C162.93,227.3,162.88,227.37,162.82,227.42z"/>
</g>
<g>
	<path class="st0" d="M187.29,319.73c-3.86-0.22-7.63-0.34-11.43,0.44c-0.61,0.12-1.03-0.56-0.6-1.03c1.72-1.89,3.05-4.08,4.06-6.41
		c0.23-0.52,1.13-0.14,0.92,0.39c-0.81,1.98-1.85,3.81-3.08,5.53c2-0.34,4.04-0.42,6.08-0.4c-0.25-0.12-0.41-0.4-0.19-0.68
		c0.41-0.53,0.76-1.11,1.03-1.72c-0.26-0.37-0.51-0.75-0.76-1.12c-0.35,0.63-0.66,1.27-0.99,1.91c-0.28,0.54-1.02,0.06-0.79-0.46
		c0.34-0.79,0.79-1.54,1.27-2.26c-0.07-0.11-0.14-0.23-0.21-0.34c-0.37,0.43-0.77,0.83-1.21,1.2c-0.43,0.36-1.05-0.27-0.61-0.61
		c0.51-0.4,0.97-0.84,1.38-1.32c-0.62-1.05-1.2-2.12-1.71-3.2c-0.43-0.91,0.79-1.64,1.36-0.79c1.07,1.61,2,3.31,3.01,4.95
		c1.01,1.64,2.06,3.26,3.07,4.9C188.15,319.13,187.81,319.76,187.29,319.73z M183.76,318.26c0.71,0.01,1.41,0.03,2.11,0.06
		c-0.39-0.51-0.77-1.04-1.15-1.57c-0.19,0.48-0.44,0.93-0.76,1.35C183.9,318.17,183.83,318.22,183.76,318.26z"/>
	<path class="st0" d="M200.81,295.63c3.07,2.35,6.12,4.57,9.7,6.06c0.57,0.24,0.53,1.04-0.08,1.19c-2.48,0.6-4.81,1.66-6.97,3.02
		c-0.48,0.3-1.01-0.52-0.54-0.83c1.78-1.19,3.67-2.11,5.66-2.84c-1.84-0.85-3.58-1.93-5.26-3.09c0.14,0.24,0.11,0.56-0.22,0.67
		c-0.64,0.21-1.25,0.49-1.82,0.84c0,0.45,0,0.9-0.01,1.35c0.64-0.32,1.26-0.67,1.9-1.02c0.53-0.29,0.88,0.52,0.4,0.83
		c-0.73,0.46-1.52,0.83-2.32,1.16c0,0.13-0.01,0.27-0.02,0.4c0.55-0.15,1.11-0.26,1.68-0.31c0.56-0.06,0.71,0.82,0.16,0.85
		c-0.64,0.04-1.27,0.15-1.89,0.31c-0.08,1.22-0.2,2.42-0.39,3.6c-0.16,0.99-1.58,0.91-1.57-0.11c0.02-1.93,0.21-3.86,0.3-5.78
		c0.09-1.93,0.13-3.85,0.22-5.78C199.76,295.65,200.39,295.31,200.81,295.63z M202.9,298.84c-0.58-0.41-1.15-0.82-1.72-1.23
		c0.03,0.64,0.06,1.29,0.07,1.94c0.42-0.29,0.89-0.52,1.39-0.69C202.74,298.83,202.82,298.83,202.9,298.84z"/>
	<path class="st0" d="M170.69,340.02c3.86,0.16,7.63,0.22,11.42-0.62c0.6-0.13,1.03,0.55,0.62,1.02c-1.69,1.91-2.99,4.12-3.97,6.47
		c-0.22,0.52-1.13,0.15-0.92-0.37c0.78-1.99,1.79-3.84,2.99-5.58c-1.99,0.37-4.04,0.48-6.08,0.49c0.25,0.12,0.41,0.39,0.2,0.68
		c-0.4,0.54-0.75,1.12-1.01,1.74c0.26,0.37,0.52,0.74,0.77,1.11c0.34-0.63,0.64-1.28,0.96-1.92c0.27-0.54,1.02-0.08,0.8,0.45
		c-0.33,0.79-0.77,1.55-1.23,2.28c0.07,0.11,0.15,0.23,0.22,0.34c0.36-0.44,0.76-0.85,1.19-1.22c0.42-0.37,1.05,0.26,0.62,0.61
		c-0.5,0.41-0.96,0.85-1.36,1.34c0.64,1.04,1.23,2.1,1.76,3.17c0.44,0.9-0.77,1.65-1.34,0.81c-1.09-1.59-2.04-3.28-3.08-4.9
		c-1.03-1.63-2.11-3.23-3.15-4.85C169.85,340.64,170.17,340,170.69,340.02z M174.25,341.44c-0.71,0-1.41-0.01-2.11-0.02
		c0.4,0.51,0.79,1.02,1.18,1.55c0.18-0.48,0.43-0.93,0.74-1.36C174.11,341.53,174.18,341.48,174.25,341.44z"/>
	<path class="st1" d="M197.74,345.6c-0.17-3.86-0.43-7.62-1.58-11.33c-0.18-0.59,0.46-1.08,0.97-0.7c2.05,1.52,4.36,2.63,6.79,3.4
		c0.54,0.17,0.25,1.11-0.29,0.95c-2.05-0.61-3.97-1.46-5.81-2.51c0.53,1.95,0.82,3.98,1,6.01c0.09-0.26,0.35-0.45,0.66-0.26
		c0.57,0.35,1.18,0.65,1.82,0.86c0.34-0.29,0.69-0.58,1.04-0.86c-0.66-0.28-1.33-0.53-2-0.8c-0.56-0.22-0.17-1.01,0.38-0.84
		c0.82,0.26,1.61,0.63,2.37,1.03c0.11-0.08,0.21-0.17,0.32-0.25c-0.47-0.32-0.91-0.69-1.32-1.09c-0.4-0.39,0.17-1.07,0.55-0.67
		c0.45,0.46,0.93,0.88,1.45,1.25c0.98-0.72,1.99-1.4,3.01-2.02c0.86-0.52,1.71,0.62,0.92,1.27c-1.49,1.22-3.09,2.32-4.63,3.48
		c-1.53,1.17-3.04,2.38-4.57,3.55C198.42,346.39,197.76,346.12,197.74,345.6z M198.85,341.93c0.06,0.7,0.11,1.41,0.16,2.11
		c0.47-0.44,0.95-0.87,1.44-1.3c-0.49-0.14-0.97-0.35-1.42-0.63C198.95,342.07,198.89,342,198.85,341.93z"/>
	<path class="st2" d="M158.49,331.17c-2.82-2.64-5.63-5.15-9.05-6.99c-0.54-0.29-0.42-1.09,0.2-1.18c2.53-0.35,4.95-1.17,7.23-2.31
		c0.51-0.25,0.95,0.62,0.46,0.88c-1.89,1-3.86,1.74-5.91,2.27c1.75,1.02,3.37,2.28,4.92,3.6c-0.12-0.25-0.06-0.57,0.29-0.64
		c0.65-0.15,1.3-0.36,1.9-0.66c0.04-0.45,0.09-0.9,0.14-1.35c-0.67,0.26-1.32,0.55-1.99,0.83c-0.56,0.23-0.83-0.61-0.31-0.87
		c0.77-0.38,1.59-0.67,2.42-0.92c0.02-0.13,0.04-0.27,0.06-0.4c-0.56,0.09-1.13,0.14-1.7,0.15c-0.56,0-0.63-0.88-0.08-0.87
		c0.64,0.02,1.28-0.02,1.91-0.12c0.2-1.2,0.44-2.39,0.74-3.55c0.25-0.97,1.66-0.75,1.55,0.26c-0.21,1.92-0.59,3.82-0.87,5.73
		c-0.28,1.91-0.51,3.82-0.79,5.73C159.53,331.25,158.87,331.52,158.49,331.17z M156.72,327.77c0.54,0.46,1.06,0.93,1.59,1.4
		c0.03-0.64,0.07-1.29,0.12-1.94c-0.45,0.24-0.93,0.43-1.45,0.55C156.88,327.79,156.8,327.79,156.72,327.77z"/>
	<path class="st1" d="M166.63,297.78c-3.75,0.94-7.38,1.94-10.79,3.81c-0.54,0.3-1.15-0.24-0.88-0.81c1.08-2.31,1.7-4.8,1.98-7.33
		c0.06-0.56,1.04-0.46,0.99,0.1c-0.18,2.13-0.64,4.19-1.3,6.2c1.81-0.91,3.74-1.59,5.69-2.18c-0.28-0.04-0.51-0.26-0.38-0.59
		c0.23-0.63,0.4-1.28,0.48-1.95c-0.35-0.28-0.71-0.56-1.05-0.85c-0.14,0.7-0.26,1.41-0.38,2.12c-0.1,0.59-0.96,0.37-0.9-0.21
		c0.09-0.85,0.3-1.7,0.54-2.53c-0.1-0.09-0.2-0.18-0.31-0.26c-0.22,0.52-0.49,1.03-0.8,1.51c-0.3,0.47-1.08,0.05-0.77-0.4
		c0.36-0.53,0.68-1.09,0.93-1.67c-0.9-0.82-1.77-1.67-2.58-2.55c-0.68-0.74,0.27-1.8,1.06-1.16c1.49,1.22,2.89,2.57,4.34,3.84
		c1.45,1.27,2.93,2.5,4.39,3.77C167.27,296.95,167.14,297.66,166.63,297.78z M162.82,297.42c0.68-0.2,1.36-0.39,2.04-0.57
		c-0.52-0.38-1.05-0.76-1.56-1.16c-0.04,0.51-0.15,1.02-0.33,1.52C162.93,297.3,162.88,297.37,162.82,297.42z"/>
</g>
<g>
	<path class="st0" d="M117.29,39.73c-3.86-0.22-7.63-0.34-11.43,0.44c-0.61,0.12-1.03-0.56-0.6-1.03c1.72-1.89,3.05-4.08,4.06-6.41
		c0.23-0.52,1.13-0.14,0.92,0.39c-0.81,1.98-1.85,3.81-3.08,5.53c2-0.34,4.04-0.42,6.08-0.4c-0.25-0.12-0.41-0.4-0.19-0.68
		c0.41-0.53,0.76-1.11,1.03-1.72c-0.26-0.37-0.51-0.75-0.76-1.12c-0.35,0.63-0.66,1.27-0.99,1.91c-0.28,0.54-1.02,0.06-0.79-0.46
		c0.34-0.79,0.79-1.54,1.27-2.26c-0.07-0.11-0.14-0.23-0.21-0.34c-0.37,0.43-0.77,0.83-1.21,1.2c-0.43,0.36-1.05-0.27-0.61-0.61
		c0.51-0.4,0.97-0.84,1.38-1.32c-0.62-1.05-1.2-2.12-1.71-3.2c-0.43-0.91,0.79-1.64,1.36-0.79c1.07,1.61,2,3.31,3.01,4.95
		c1.01,1.64,2.06,3.26,3.07,4.9C118.15,39.13,117.81,39.76,117.29,39.73z M113.76,38.26c0.71,0.01,1.41,0.03,2.11,0.06
		c-0.39-0.51-0.77-1.04-1.15-1.57c-0.19,0.48-0.44,0.93-0.76,1.35C113.9,38.17,113.83,38.22,113.76,38.26z"/>
	<path class="st0" d="M130.81,15.63c3.07,2.35,6.12,4.57,9.7,6.06c0.57,0.24,0.53,1.04-0.08,1.19c-2.48,0.6-4.81,1.66-6.97,3.02
		c-0.48,0.3-1.01-0.52-0.54-0.83c1.78-1.19,3.67-2.11,5.66-2.84c-1.84-0.85-3.58-1.93-5.26-3.09c0.14,0.24,0.11,0.56-0.22,0.67
		c-0.64,0.21-1.25,0.49-1.82,0.84c0,0.45,0,0.9-0.01,1.35c0.64-0.32,1.26-0.67,1.9-1.02c0.53-0.29,0.88,0.52,0.4,0.83
		c-0.73,0.46-1.52,0.83-2.32,1.16c0,0.13-0.01,0.27-0.02,0.4c0.55-0.15,1.11-0.26,1.68-0.31c0.56-0.06,0.71,0.82,0.16,0.85
		c-0.64,0.04-1.27,0.15-1.89,0.31c-0.08,1.22-0.2,2.42-0.39,3.6c-0.16,1-1.58,0.91-1.57-0.11c0.02-1.93,0.21-3.86,0.3-5.78
		c0.09-1.93,0.13-3.85,0.22-5.78C129.76,15.65,130.39,15.31,130.81,15.63z M132.9,18.84c-0.58-0.41-1.15-0.82-1.72-1.23
		c0.03,0.64,0.06,1.29,0.07,1.94c0.42-0.29,0.89-0.52,1.39-0.69C132.74,18.83,132.82,18.83,132.9,18.84z"/>
	<path class="st0" d="M100.69,60.02c3.86,0.16,7.63,0.22,11.42-0.62c0.6-0.13,1.03,0.55,0.62,1.02c-1.69,1.91-2.99,4.12-3.96,6.47
		c-0.22,0.52-1.13,0.15-0.92-0.37c0.78-1.99,1.79-3.84,2.99-5.58c-1.99,0.37-4.04,0.48-6.08,0.49c0.25,0.12,0.41,0.39,0.2,0.68
		c-0.4,0.54-0.75,1.12-1.01,1.74c0.26,0.37,0.52,0.74,0.77,1.11c0.34-0.63,0.64-1.28,0.96-1.92c0.27-0.54,1.02-0.08,0.8,0.45
		c-0.33,0.79-0.77,1.55-1.23,2.28c0.07,0.11,0.15,0.23,0.22,0.34c0.36-0.44,0.76-0.85,1.19-1.22c0.42-0.37,1.05,0.26,0.62,0.61
		c-0.5,0.41-0.96,0.85-1.36,1.34c0.64,1.04,1.23,2.1,1.76,3.17c0.44,0.9-0.77,1.65-1.34,0.81c-1.09-1.59-2.04-3.28-3.08-4.9
		c-1.03-1.63-2.11-3.23-3.15-4.85C99.85,60.64,100.17,60,100.69,60.02z M104.25,61.44c-0.71,0-1.41-0.01-2.11-0.02
		c0.4,0.51,0.79,1.02,1.18,1.55c0.18-0.48,0.43-0.93,0.74-1.36C104.11,61.53,104.18,61.48,104.25,61.44z"/>
	<path class="st1" d="M127.74,65.6c-0.17-3.86-0.43-7.62-1.58-11.33c-0.18-0.59,0.46-1.08,0.97-0.7c2.05,1.52,4.36,2.63,6.79,3.4
		c0.54,0.17,0.25,1.11-0.29,0.95c-2.05-0.61-3.97-1.46-5.81-2.51c0.53,1.95,0.82,3.98,1,6.01c0.09-0.26,0.35-0.45,0.66-0.26
		c0.57,0.35,1.18,0.65,1.82,0.86c0.34-0.29,0.69-0.58,1.04-0.86c-0.66-0.28-1.33-0.53-2-0.8c-0.56-0.22-0.17-1.01,0.38-0.84
		c0.82,0.26,1.61,0.63,2.37,1.03c0.11-0.08,0.21-0.17,0.32-0.25c-0.47-0.32-0.91-0.69-1.32-1.09c-0.4-0.39,0.17-1.07,0.55-0.67
		c0.45,0.46,0.93,0.88,1.45,1.25c0.98-0.72,1.99-1.4,3.01-2.02c0.86-0.52,1.71,0.62,0.92,1.27c-1.49,1.22-3.09,2.32-4.63,3.48
		c-1.53,1.17-3.04,2.38-4.57,3.55C128.42,66.39,127.76,66.12,127.74,65.6z M128.85,61.93c0.06,0.7,0.11,1.41,0.16,2.11
		c0.47-0.44,0.95-0.87,1.44-1.3c-0.49-0.14-0.97-0.35-1.42-0.63C128.95,62.07,128.89,62,128.85,61.93z"/>
	<path class="st2" d="M88.49,51.17c-2.82-2.64-5.63-5.15-9.05-6.99c-0.54-0.29-0.42-1.09,0.2-1.18c2.53-0.35,4.95-1.17,7.23-2.31
		c0.51-0.25,0.95,0.62,0.46,0.88c-1.89,1-3.86,1.74-5.91,2.27c1.75,1.02,3.37,2.28,4.92,3.6c-0.12-0.25-0.06-0.57,0.29-0.64
		c0.65-0.15,1.3-0.36,1.9-0.66c0.04-0.45,0.09-0.9,0.14-1.35c-0.67,0.26-1.32,0.55-1.99,0.83c-0.56,0.23-0.83-0.61-0.31-0.87
		c0.77-0.38,1.59-0.67,2.42-0.92c0.02-0.13,0.04-0.27,0.06-0.4c-0.56,0.09-1.13,0.14-1.7,0.15c-0.56,0-0.63-0.88-0.08-0.87
		c0.64,0.02,1.28-0.02,1.91-0.12c0.2-1.2,0.44-2.39,0.74-3.55c0.25-0.97,1.66-0.75,1.55,0.26c-0.21,1.92-0.59,3.82-0.87,5.73
		c-0.28,1.91-0.51,3.82-0.79,5.73C89.53,51.25,88.87,51.52,88.49,51.17z M86.72,47.77c0.54,0.46,1.06,0.93,1.59,1.4
		c0.03-0.64,0.07-1.29,0.12-1.94c-0.45,0.24-0.93,0.43-1.45,0.55C86.88,47.79,86.8,47.79,86.72,47.77z"/>
	<path class="st1" d="M96.63,17.78c-3.75,0.94-7.38,1.94-10.79,3.81c-0.54,0.3-1.15-0.24-0.88-0.81c1.08-2.31,1.7-4.8,1.98-7.33
		c0.06-0.56,1.04-0.46,0.99,0.1c-0.18,2.13-0.64,4.19-1.3,6.2c1.81-0.91,3.74-1.59,5.69-2.18c-0.28-0.04-0.51-0.26-0.38-0.59
		c0.23-0.63,0.4-1.28,0.48-1.95c-0.35-0.28-0.71-0.56-1.05-0.85c-0.14,0.7-0.26,1.41-0.38,2.12c-0.1,0.59-0.96,0.37-0.9-0.21
		c0.09-0.85,0.3-1.7,0.54-2.53c-0.1-0.09-0.2-0.18-0.31-0.26c-0.22,0.52-0.49,1.03-0.8,1.51c-0.3,0.47-1.08,0.05-0.77-0.4
		c0.36-0.53,0.68-1.09,0.93-1.67c-0.9-0.82-1.77-1.67-2.58-2.55c-0.68-0.74,0.27-1.8,1.06-1.16c1.49,1.22,2.89,2.57,4.34,3.84
		c1.45,1.27,2.93,2.5,4.39,3.77C97.27,16.95,97.14,17.66,96.63,17.78z M92.82,17.42c0.68-0.2,1.36-0.39,2.04-0.57
		c-0.52-0.38-1.05-0.76-1.56-1.16c-0.04,0.51-0.15,1.02-0.33,1.52C92.93,17.3,92.88,17.37,92.82,17.42z"/>
</g>
<g>
	<path class="st0" d="M117.29,109.73c-3.86-0.22-7.63-0.34-11.43,0.44c-0.61,0.12-1.03-0.56-0.6-1.03c1.72-1.89,3.05-4.08,4.06-6.41
		c0.23-0.52,1.13-0.14,0.92,0.39c-0.81,1.98-1.85,3.81-3.08,5.53c2-0.34,4.04-0.42,6.08-0.4c-0.25-0.12-0.41-0.4-0.19-0.68
		c0.41-0.53,0.76-1.11,1.03-1.72c-0.26-0.37-0.51-0.75-0.76-1.12c-0.35,0.63-0.66,1.27-0.99,1.91c-0.28,0.54-1.02,0.06-0.79-0.46
		c0.34-0.79,0.79-1.54,1.27-2.26c-0.07-0.11-0.14-0.23-0.21-0.34c-0.37,0.43-0.77,0.83-1.21,1.2c-0.43,0.36-1.05-0.27-0.61-0.61
		c0.51-0.4,0.97-0.84,1.38-1.32c-0.62-1.05-1.2-2.12-1.71-3.2c-0.43-0.91,0.79-1.64,1.36-0.79c1.07,1.61,2,3.31,3.01,4.95
		c1.01,1.64,2.06,3.26,3.07,4.9C118.15,109.13,117.81,109.76,117.29,109.73z M113.76,108.26c0.71,0.01,1.41,0.03,2.11,0.06
		c-0.39-0.51-0.77-1.04-1.15-1.57c-0.19,0.48-0.44,0.93-0.76,1.35C113.9,108.17,113.83,108.22,113.76,108.26z"/>
	<path class="st0" d="M130.81,85.63c3.07,2.35,6.12,4.57,9.7,6.06c0.57,0.24,0.53,1.04-0.08,1.19c-2.48,0.6-4.81,1.66-6.97,3.02
		c-0.48,0.3-1.01-0.52-0.54-0.83c1.78-1.19,3.67-2.11,5.66-2.84c-1.84-0.85-3.58-1.93-5.26-3.09c0.14,0.24,0.11,0.56-0.22,0.67
		c-0.64,0.21-1.25,0.49-1.82,0.84c0,0.45,0,0.9-0.01,1.35c0.64-0.32,1.26-0.67,1.9-1.02c0.53-0.29,0.88,0.52,0.4,0.83
		c-0.73,0.46-1.52,0.83-2.32,1.16c0,0.13-0.01,0.27-0.02,0.4c0.55-0.15,1.11-0.26,1.68-0.31c0.56-0.06,0.71,0.82,0.16,0.85
		c-0.64,0.04-1.27,0.15-1.89,0.31c-0.08,1.22-0.2,2.42-0.39,3.6c-0.16,1-1.58,0.91-1.57-0.11c0.02-1.93,0.21-3.86,0.3-5.78
		c0.09-1.93,0.13-3.85,0.22-5.78C129.76,85.65,130.39,85.31,130.81,85.63z M132.9,88.84c-0.58-0.41-1.15-0.82-1.72-1.23
		c0.03,0.64,0.06,1.29,0.07,1.94c0.42-0.29,0.89-0.52,1.39-0.69C132.74,88.83,132.82,88.83,132.9,88.84z"/>
	<path class="st0" d="M100.69,130.02c3.86,0.16,7.63,0.22,11.42-0.62c0.6-0.13,1.03,0.55,0.62,1.02c-1.69,1.91-2.99,4.12-3.96,6.47
		c-0.22,0.52-1.13,0.15-0.92-0.37c0.78-1.99,1.79-3.84,2.99-5.58c-1.99,0.37-4.04,0.48-6.08,0.49c0.25,0.12,0.41,0.39,0.2,0.68
		c-0.4,0.54-0.75,1.12-1.01,1.74c0.26,0.37,0.52,0.74,0.77,1.11c0.34-0.63,0.64-1.28,0.96-1.92c0.27-0.54,1.02-0.08,0.8,0.45
		c-0.33,0.79-0.77,1.55-1.23,2.28c0.07,0.11,0.15,0.23,0.22,0.34c0.36-0.44,0.76-0.85,1.19-1.22c0.42-0.37,1.05,0.26,0.62,0.61
		c-0.5,0.41-0.96,0.85-1.36,1.34c0.64,1.04,1.23,2.1,1.76,3.17c0.44,0.9-0.77,1.65-1.34,0.81c-1.09-1.59-2.04-3.28-3.08-4.9
		c-1.03-1.63-2.11-3.23-3.15-4.85C99.85,130.64,100.17,130,100.69,130.02z M104.25,131.44c-0.71,0-1.41-0.01-2.11-0.02
		c0.4,0.51,0.79,1.02,1.18,1.55c0.18-0.48,0.43-0.93,0.74-1.36C104.11,131.53,104.18,131.48,104.25,131.44z"/>
	<path class="st1" d="M127.74,135.6c-0.17-3.86-0.43-7.62-1.58-11.33c-0.18-0.59,0.46-1.08,0.97-0.7c2.05,1.52,4.36,2.63,6.79,3.4
		c0.54,0.17,0.25,1.11-0.29,0.95c-2.05-0.61-3.97-1.46-5.81-2.51c0.53,1.95,0.82,3.98,1,6.01c0.09-0.26,0.35-0.45,0.66-0.26
		c0.57,0.35,1.18,0.65,1.82,0.86c0.34-0.29,0.69-0.58,1.04-0.86c-0.66-0.28-1.33-0.53-2-0.8c-0.56-0.22-0.17-1.01,0.38-0.84
		c0.82,0.26,1.61,0.63,2.37,1.03c0.11-0.08,0.21-0.17,0.32-0.25c-0.47-0.32-0.91-0.69-1.32-1.09c-0.4-0.39,0.17-1.07,0.55-0.67
		c0.45,0.46,0.93,0.88,1.45,1.25c0.98-0.72,1.99-1.4,3.01-2.02c0.86-0.52,1.71,0.62,0.92,1.27c-1.49,1.22-3.09,2.32-4.63,3.48
		c-1.53,1.17-3.04,2.38-4.57,3.55C128.42,136.39,127.76,136.12,127.74,135.6z M128.85,131.93c0.06,0.7,0.11,1.41,0.16,2.11
		c0.47-0.44,0.95-0.87,1.44-1.3c-0.49-0.14-0.97-0.35-1.42-0.63C128.95,132.07,128.89,132,128.85,131.93z"/>
	<path class="st2" d="M88.49,121.17c-2.82-2.64-5.63-5.15-9.05-6.99c-0.54-0.29-0.42-1.09,0.2-1.18c2.53-0.35,4.95-1.17,7.23-2.31
		c0.51-0.25,0.95,0.62,0.46,0.88c-1.89,1-3.86,1.74-5.91,2.27c1.75,1.02,3.37,2.28,4.92,3.6c-0.12-0.25-0.06-0.57,0.29-0.64
		c0.65-0.15,1.3-0.36,1.9-0.66c0.04-0.45,0.09-0.9,0.14-1.35c-0.67,0.26-1.32,0.55-1.99,0.83c-0.56,0.23-0.83-0.61-0.31-0.87
		c0.77-0.38,1.59-0.67,2.42-0.92c0.02-0.13,0.04-0.27,0.06-0.4c-0.56,0.09-1.13,0.14-1.7,0.15c-0.56,0-0.63-0.88-0.08-0.87
		c0.64,0.02,1.28-0.02,1.91-0.12c0.2-1.2,0.44-2.39,0.74-3.55c0.25-0.97,1.66-0.75,1.55,0.26c-0.21,1.92-0.59,3.82-0.87,5.73
		c-0.28,1.91-0.51,3.82-0.79,5.73C89.53,121.25,88.87,121.52,88.49,121.17z M86.72,117.77c0.54,0.46,1.06,0.93,1.59,1.4
		c0.03-0.64,0.07-1.29,0.12-1.94c-0.45,0.24-0.93,0.43-1.45,0.55C86.88,117.79,86.8,117.79,86.72,117.77z"/>
	<path class="st1" d="M96.63,87.78c-3.75,0.94-7.38,1.94-10.79,3.81c-0.54,0.3-1.15-0.24-0.88-0.81c1.08-2.31,1.7-4.8,1.98-7.33
		c0.06-0.56,1.04-0.46,0.99,0.1c-0.18,2.13-0.64,4.19-1.3,6.2c1.81-0.91,3.74-1.59,5.69-2.18c-0.28-0.04-0.51-0.26-0.38-0.59
		c0.23-0.63,0.4-1.28,0.48-1.95c-0.35-0.28-0.71-0.56-1.05-0.85c-0.14,0.7-0.26,1.41-0.38,2.12c-0.1,0.59-0.96,0.37-0.9-0.21
		c0.09-0.85,0.3-1.7,0.54-2.53c-0.1-0.09-0.2-0.18-0.31-0.26c-0.22,0.52-0.49,1.03-0.8,1.51c-0.3,0.47-1.08,0.05-0.77-0.4
		c0.36-0.53,0.68-1.09,0.93-1.67c-0.9-0.82-1.77-1.67-2.58-2.55c-0.68-0.74,0.27-1.8,1.06-1.16c1.49,1.22,2.89,2.57,4.34,3.84
		c1.45,1.27,2.93,2.5,4.39,3.77C97.27,86.95,97.14,87.66,96.63,87.78z M92.82,87.42c0.68-0.2,1.36-0.39,2.04-0.57
		c-0.52-0.38-1.05-0.76-1.56-1.16c-0.04,0.51-0.15,1.02-0.33,1.52C92.93,87.3,92.88,87.37,92.82,87.42z"/>
</g>
<g>
	<path class="st0" d="M117.29,179.73c-3.86-0.22-7.63-0.34-11.43,0.44c-0.61,0.12-1.03-0.56-0.6-1.03c1.72-1.89,3.05-4.08,4.06-6.41
		c0.23-0.52,1.13-0.14,0.92,0.39c-0.81,1.98-1.85,3.81-3.08,5.53c2-0.34,4.04-0.42,6.08-0.4c-0.25-0.12-0.41-0.4-0.19-0.68
		c0.41-0.53,0.76-1.11,1.03-1.72c-0.26-0.37-0.51-0.75-0.76-1.12c-0.35,0.63-0.66,1.27-0.99,1.91c-0.28,0.54-1.02,0.06-0.79-0.46
		c0.34-0.79,0.79-1.54,1.27-2.26c-0.07-0.11-0.14-0.23-0.21-0.34c-0.37,0.43-0.77,0.83-1.21,1.2c-0.43,0.36-1.05-0.27-0.61-0.61
		c0.51-0.4,0.97-0.84,1.38-1.32c-0.62-1.05-1.2-2.12-1.71-3.2c-0.43-0.91,0.79-1.64,1.36-0.79c1.07,1.61,2,3.31,3.01,4.95
		c1.01,1.64,2.06,3.26,3.07,4.9C118.15,179.13,117.81,179.76,117.29,179.73z M113.76,178.26c0.71,0.01,1.41,0.03,2.11,0.06
		c-0.39-0.51-0.77-1.04-1.15-1.57c-0.19,0.48-0.44,0.93-0.76,1.35C113.9,178.17,113.83,178.22,113.76,178.26z"/>
	<path class="st0" d="M130.81,155.63c3.07,2.35,6.12,4.57,9.7,6.06c0.57,0.24,0.53,1.04-0.08,1.19c-2.48,0.6-4.81,1.66-6.97,3.02
		c-0.48,0.3-1.01-0.52-0.54-0.83c1.78-1.19,3.67-2.11,5.66-2.84c-1.84-0.85-3.58-1.93-5.26-3.09c0.14,0.24,0.11,0.56-0.22,0.67
		c-0.64,0.21-1.25,0.49-1.82,0.84c0,0.45,0,0.9-0.01,1.35c0.64-0.32,1.26-0.67,1.9-1.02c0.53-0.29,0.88,0.52,0.4,0.83
		c-0.73,0.46-1.52,0.83-2.32,1.16c0,0.13-0.01,0.27-0.02,0.4c0.55-0.15,1.11-0.26,1.68-0.31c0.56-0.06,0.71,0.82,0.16,0.85
		c-0.64,0.04-1.27,0.15-1.89,0.31c-0.08,1.22-0.2,2.42-0.39,3.6c-0.16,0.99-1.58,0.91-1.57-0.11c0.02-1.93,0.21-3.86,0.3-5.78
		c0.09-1.93,0.13-3.85,0.22-5.78C129.76,155.65,130.39,155.31,130.81,155.63z M132.9,158.84c-0.58-0.41-1.15-0.82-1.72-1.23
		c0.03,0.64,0.06,1.29,0.07,1.94c0.42-0.29,0.89-0.52,1.39-0.69C132.74,158.83,132.82,158.83,132.9,158.84z"/>
	<path class="st0" d="M100.69,200.02c3.86,0.16,7.63,0.22,11.42-0.62c0.6-0.13,1.03,0.55,0.62,1.02c-1.69,1.91-2.99,4.12-3.96,6.47
		c-0.22,0.52-1.13,0.15-0.92-0.37c0.78-1.99,1.79-3.84,2.99-5.58c-1.99,0.37-4.04,0.48-6.08,0.49c0.25,0.12,0.41,0.39,0.2,0.68
		c-0.4,0.54-0.75,1.12-1.01,1.74c0.26,0.37,0.52,0.74,0.77,1.11c0.34-0.63,0.64-1.28,0.96-1.92c0.27-0.54,1.02-0.08,0.8,0.45
		c-0.33,0.79-0.77,1.55-1.23,2.28c0.07,0.11,0.15,0.23,0.22,0.34c0.36-0.44,0.76-0.85,1.19-1.22c0.42-0.37,1.05,0.26,0.62,0.61
		c-0.5,0.41-0.96,0.85-1.36,1.34c0.64,1.04,1.23,2.1,1.76,3.17c0.44,0.9-0.77,1.65-1.34,0.81c-1.09-1.59-2.04-3.28-3.08-4.9
		c-1.03-1.63-2.11-3.23-3.15-4.85C99.85,200.64,100.17,200,100.69,200.02z M104.25,201.44c-0.71,0-1.41-0.01-2.11-0.02
		c0.4,0.51,0.79,1.02,1.18,1.55c0.18-0.48,0.43-0.93,0.74-1.36C104.11,201.53,104.18,201.48,104.25,201.44z"/>
	<path class="st1" d="M127.74,205.6c-0.17-3.86-0.43-7.62-1.58-11.33c-0.18-0.59,0.46-1.08,0.97-0.7c2.05,1.52,4.36,2.63,6.79,3.4
		c0.54,0.17,0.25,1.11-0.29,0.95c-2.05-0.61-3.97-1.46-5.81-2.51c0.53,1.95,0.82,3.98,1,6.01c0.09-0.26,0.35-0.45,0.66-0.26
		c0.57,0.35,1.18,0.65,1.82,0.86c0.34-0.29,0.69-0.58,1.04-0.86c-0.66-0.28-1.33-0.53-2-0.8c-0.56-0.22-0.17-1.01,0.38-0.84
		c0.82,0.26,1.61,0.63,2.37,1.03c0.11-0.08,0.21-0.17,0.32-0.25c-0.47-0.32-0.91-0.69-1.32-1.09c-0.4-0.39,0.17-1.07,0.55-0.67
		c0.45,0.46,0.93,0.88,1.45,1.25c0.98-0.72,1.99-1.4,3.01-2.02c0.86-0.52,1.71,0.62,0.92,1.27c-1.49,1.22-3.09,2.32-4.63,3.48
		c-1.53,1.17-3.04,2.38-4.57,3.55C128.42,206.39,127.76,206.12,127.74,205.6z M128.85,201.93c0.06,0.7,0.11,1.41,0.16,2.11
		c0.47-0.44,0.95-0.87,1.44-1.3c-0.49-0.14-0.97-0.35-1.42-0.63C128.95,202.07,128.89,202,128.85,201.93z"/>
	<path class="st2" d="M88.49,191.17c-2.82-2.64-5.63-5.15-9.05-6.99c-0.54-0.29-0.42-1.09,0.2-1.18c2.53-0.35,4.95-1.17,7.23-2.31
		c0.51-0.25,0.95,0.62,0.46,0.88c-1.89,1-3.86,1.74-5.91,2.27c1.75,1.02,3.37,2.28,4.92,3.6c-0.12-0.25-0.06-0.57,0.29-0.64
		c0.65-0.15,1.3-0.36,1.9-0.66c0.04-0.45,0.09-0.9,0.14-1.35c-0.67,0.26-1.32,0.55-1.99,0.83c-0.56,0.23-0.83-0.61-0.31-0.87
		c0.77-0.38,1.59-0.67,2.42-0.92c0.02-0.13,0.04-0.27,0.06-0.4c-0.56,0.09-1.13,0.14-1.7,0.15c-0.56,0-0.63-0.88-0.08-0.87
		c0.64,0.02,1.28-0.02,1.91-0.12c0.2-1.2,0.44-2.39,0.74-3.55c0.25-0.97,1.66-0.75,1.55,0.26c-0.21,1.92-0.59,3.82-0.87,5.73
		c-0.28,1.91-0.51,3.82-0.79,5.73C89.53,191.25,88.87,191.52,88.49,191.17z M86.72,187.77c0.54,0.46,1.06,0.93,1.59,1.4
		c0.03-0.64,0.07-1.29,0.12-1.94c-0.45,0.24-0.93,0.43-1.45,0.55C86.88,187.79,86.8,187.79,86.72,187.77z"/>
	<path class="st1" d="M96.63,157.78c-3.75,0.94-7.38,1.94-10.79,3.81c-0.54,0.3-1.15-0.24-0.88-0.81c1.08-2.31,1.7-4.8,1.98-7.33
		c0.06-0.56,1.04-0.46,0.99,0.1c-0.18,2.13-0.64,4.19-1.3,6.2c1.81-0.91,3.74-1.59,5.69-2.18c-0.28-0.04-0.51-0.26-0.38-0.59
		c0.23-0.63,0.4-1.28,0.48-1.95c-0.35-0.28-0.71-0.56-1.05-0.85c-0.14,0.7-0.26,1.41-0.38,2.12c-0.1,0.59-0.96,0.37-0.9-0.21
		c0.09-0.85,0.3-1.7,0.54-2.53c-0.1-0.09-0.2-0.18-0.31-0.26c-0.22,0.52-0.49,1.03-0.8,1.51c-0.3,0.47-1.08,0.05-0.77-0.4
		c0.36-0.53,0.68-1.09,0.93-1.67c-0.9-0.82-1.77-1.67-2.58-2.55c-0.68-0.74,0.27-1.8,1.06-1.16c1.49,1.22,2.89,2.57,4.34,3.84
		c1.45,1.27,2.93,2.5,4.39,3.77C97.27,156.95,97.14,157.66,96.63,157.78z M92.82,157.42c0.68-0.2,1.36-0.39,2.04-0.57
		c-0.52-0.38-1.05-0.76-1.56-1.16c-0.04,0.51-0.15,1.02-0.33,1.52C92.93,157.3,92.88,157.37,92.82,157.42z"/>
</g>
<g>
	<path class="st0" d="M117.29,249.73c-3.86-0.22-7.63-0.34-11.43,0.44c-0.61,0.12-1.03-0.56-0.6-1.03c1.72-1.89,3.05-4.08,4.06-6.41
		c0.23-0.52,1.13-0.14,0.92,0.39c-0.81,1.98-1.85,3.81-3.08,5.53c2-0.34,4.04-0.42,6.08-0.4c-0.25-0.12-0.41-0.4-0.19-0.68
		c0.41-0.53,0.76-1.11,1.03-1.72c-0.26-0.37-0.51-0.75-0.76-1.12c-0.35,0.63-0.66,1.27-0.99,1.91c-0.28,0.54-1.02,0.06-0.79-0.46
		c0.34-0.79,0.79-1.54,1.27-2.26c-0.07-0.11-0.14-0.23-0.21-0.34c-0.37,0.43-0.77,0.83-1.21,1.2c-0.43,0.36-1.05-0.27-0.61-0.61
		c0.51-0.4,0.97-0.84,1.38-1.32c-0.62-1.05-1.2-2.12-1.71-3.2c-0.43-0.91,0.79-1.64,1.36-0.79c1.07,1.61,2,3.31,3.01,4.95
		c1.01,1.64,2.06,3.26,3.07,4.9C118.15,249.13,117.81,249.76,117.29,249.73z M113.76,248.26c0.71,0.01,1.41,0.03,2.11,0.06
		c-0.39-0.51-0.77-1.04-1.15-1.57c-0.19,0.48-0.44,0.93-0.76,1.35C113.9,248.17,113.83,248.22,113.76,248.26z"/>
	<path class="st0" d="M130.81,225.63c3.07,2.35,6.12,4.57,9.7,6.06c0.57,0.24,0.53,1.04-0.08,1.19c-2.48,0.6-4.81,1.66-6.97,3.02
		c-0.48,0.3-1.01-0.52-0.54-0.83c1.78-1.19,3.67-2.11,5.66-2.84c-1.84-0.85-3.58-1.93-5.26-3.09c0.14,0.24,0.11,0.56-0.22,0.67
		c-0.64,0.21-1.25,0.49-1.82,0.84c0,0.45,0,0.9-0.01,1.35c0.64-0.32,1.26-0.67,1.9-1.02c0.53-0.29,0.88,0.52,0.4,0.83
		c-0.73,0.46-1.52,0.83-2.32,1.16c0,0.13-0.01,0.27-0.02,0.4c0.55-0.15,1.11-0.26,1.68-0.31c0.56-0.06,0.71,0.82,0.16,0.85
		c-0.64,0.04-1.27,0.15-1.89,0.31c-0.08,1.22-0.2,2.42-0.39,3.6c-0.16,0.99-1.58,0.91-1.57-0.11c0.02-1.93,0.21-3.86,0.3-5.78
		c0.09-1.93,0.13-3.85,0.22-5.78C129.76,225.65,130.39,225.31,130.81,225.63z M132.9,228.84c-0.58-0.41-1.15-0.82-1.72-1.23
		c0.03,0.64,0.06,1.29,0.07,1.94c0.42-0.29,0.89-0.52,1.39-0.69C132.74,228.83,132.82,228.83,132.9,228.84z"/>
	<path class="st0" d="M100.69,270.02c3.86,0.16,7.63,0.22,11.42-0.62c0.6-0.13,1.03,0.55,0.62,1.02c-1.69,1.91-2.99,4.12-3.96,6.47
		c-0.22,0.52-1.13,0.15-0.92-0.37c0.78-1.99,1.79-3.84,2.99-5.58c-1.99,0.37-4.04,0.48-6.08,0.49c0.25,0.12,0.41,0.39,0.2,0.68
		c-0.4,0.54-0.75,1.12-1.01,1.74c0.26,0.37,0.52,0.74,0.77,1.11c0.34-0.63,0.64-1.28,0.96-1.92c0.27-0.54,1.02-0.08,0.8,0.45
		c-0.33,0.79-0.77,1.55-1.23,2.28c0.07,0.11,0.15,0.23,0.22,0.34c0.36-0.44,0.76-0.85,1.19-1.22c0.42-0.37,1.05,0.26,0.62,0.61
		c-0.5,0.41-0.96,0.85-1.36,1.34c0.64,1.04,1.23,2.1,1.76,3.17c0.44,0.9-0.77,1.65-1.34,0.81c-1.09-1.59-2.04-3.28-3.08-4.9
		c-1.03-1.63-2.11-3.23-3.15-4.85C99.85,270.64,100.17,270,100.69,270.02z M104.25,271.44c-0.71,0-1.41-0.01-2.11-0.02
		c0.4,0.51,0.79,1.02,1.18,1.55c0.18-0.48,0.43-0.93,0.74-1.36C104.11,271.53,104.18,271.48,104.25,271.44z"/>
	<path class="st1" d="M127.74,275.6c-0.17-3.86-0.43-7.62-1.58-11.33c-0.18-0.59,0.46-1.08,0.97-0.7c2.05,1.52,4.36,2.63,6.79,3.4
		c0.54,0.17,0.25,1.11-0.29,0.95c-2.05-0.61-3.97-1.46-5.81-2.51c0.53,1.95,0.82,3.98,1,6.01c0.09-0.26,0.35-0.45,0.66-0.26
		c0.57,0.35,1.18,0.65,1.82,0.86c0.34-0.29,0.69-0.58,1.04-0.86c-0.66-0.28-1.33-0.53-2-0.8c-0.56-0.22-0.17-1.01,0.38-0.84
		c0.82,0.26,1.61,0.63,2.37,1.03c0.11-0.08,0.21-0.17,0.32-0.25c-0.47-0.32-0.91-0.69-1.32-1.09c-0.4-0.39,0.17-1.07,0.55-0.67
		c0.45,0.46,0.93,0.88,1.45,1.25c0.98-0.72,1.99-1.4,3.01-2.02c0.86-0.52,1.71,0.62,0.92,1.27c-1.49,1.22-3.09,2.32-4.63,3.48
		c-1.53,1.17-3.04,2.38-4.57,3.55C128.42,276.39,127.76,276.12,127.74,275.6z M128.85,271.93c0.06,0.7,0.11,1.41,0.16,2.11
		c0.47-0.44,0.95-0.87,1.44-1.3c-0.49-0.14-0.97-0.35-1.42-0.63C128.95,272.07,128.89,272,128.85,271.93z"/>
	<path class="st2" d="M88.49,261.17c-2.82-2.64-5.63-5.15-9.05-6.99c-0.54-0.29-0.42-1.09,0.2-1.18c2.53-0.35,4.95-1.17,7.23-2.31
		c0.51-0.25,0.95,0.62,0.46,0.88c-1.89,1-3.86,1.74-5.91,2.27c1.75,1.02,3.37,2.28,4.92,3.6c-0.12-0.25-0.06-0.57,0.29-0.64
		c0.65-0.15,1.3-0.36,1.9-0.66c0.04-0.45,0.09-0.9,0.14-1.35c-0.67,0.26-1.32,0.55-1.99,0.83c-0.56,0.23-0.83-0.61-0.31-0.87
		c0.77-0.38,1.59-0.67,2.42-0.92c0.02-0.13,0.04-0.27,0.06-0.4c-0.56,0.09-1.13,0.14-1.7,0.15c-0.56,0-0.63-0.88-0.08-0.87
		c0.64,0.02,1.28-0.02,1.91-0.12c0.2-1.2,0.44-2.39,0.74-3.55c0.25-0.97,1.66-0.75,1.55,0.26c-0.21,1.92-0.59,3.82-0.87,5.73
		c-0.28,1.91-0.51,3.82-0.79,5.73C89.53,261.25,88.87,261.52,88.49,261.17z M86.72,257.77c0.54,0.46,1.06,0.93,1.59,1.4
		c0.03-0.64,0.07-1.29,0.12-1.94c-0.45,0.24-0.93,0.43-1.45,0.55C86.88,257.79,86.8,257.79,86.72,257.77z"/>
	<path class="st1" d="M96.63,227.78c-3.75,0.94-7.38,1.94-10.79,3.81c-0.54,0.3-1.15-0.24-0.88-0.81c1.08-2.31,1.7-4.8,1.98-7.33
		c0.06-0.56,1.04-0.46,0.99,0.1c-0.18,2.13-0.64,4.19-1.3,6.2c1.81-0.91,3.74-1.59,5.69-2.18c-0.28-0.04-0.51-0.26-0.38-0.59
		c0.23-0.63,0.4-1.28,0.48-1.95c-0.35-0.28-0.71-0.56-1.05-0.85c-0.14,0.7-0.26,1.41-0.38,2.12c-0.1,0.59-0.96,0.37-0.9-0.21
		c0.09-0.85,0.3-1.7,0.54-2.53c-0.1-0.09-0.2-0.18-0.31-0.26c-0.22,0.52-0.49,1.03-0.8,1.51c-0.3,0.47-1.08,0.05-0.77-0.4
		c0.36-0.53,0.68-1.09,0.93-1.67c-0.9-0.82-1.77-1.67-2.58-2.55c-0.68-0.74,0.27-1.8,1.06-1.16c1.49,1.22,2.89,2.57,4.34,3.84
		c1.45,1.27,2.93,2.5,4.39,3.77C97.27,226.95,97.14,227.66,96.63,227.78z M92.82,227.42c0.68-0.2,1.36-0.39,2.04-0.57
		c-0.52-0.38-1.05-0.76-1.56-1.16c-0.04,0.51-0.15,1.02-0.33,1.52C92.93,227.3,92.88,227.37,92.82,227.42z"/>
</g>
<g>
	<path class="st0" d="M117.29,319.73c-3.86-0.22-7.63-0.34-11.43,0.44c-0.61,0.12-1.03-0.56-0.6-1.03c1.72-1.89,3.05-4.08,4.06-6.41
		c0.23-0.52,1.13-0.14,0.92,0.39c-0.81,1.98-1.85,3.81-3.08,5.53c2-0.34,4.04-0.42,6.08-0.4c-0.25-0.12-0.41-0.4-0.19-0.68
		c0.41-0.53,0.76-1.11,1.03-1.72c-0.26-0.37-0.51-0.75-0.76-1.12c-0.35,0.63-0.66,1.27-0.99,1.91c-0.28,0.54-1.02,0.06-0.79-0.46
		c0.34-0.79,0.79-1.54,1.27-2.26c-0.07-0.11-0.14-0.23-0.21-0.34c-0.37,0.43-0.77,0.83-1.21,1.2c-0.43,0.36-1.05-0.27-0.61-0.61
		c0.51-0.4,0.97-0.84,1.38-1.32c-0.62-1.05-1.2-2.12-1.71-3.2c-0.43-0.91,0.79-1.64,1.36-0.79c1.07,1.61,2,3.31,3.01,4.95
		c1.01,1.64,2.06,3.26,3.07,4.9C118.15,319.13,117.81,319.76,117.29,319.73z M113.76,318.26c0.71,0.01,1.41,0.03,2.11,0.06
		c-0.39-0.51-0.77-1.04-1.15-1.57c-0.19,0.48-0.44,0.93-0.76,1.35C113.9,318.17,113.83,318.22,113.76,318.26z"/>
	<path class="st0" d="M130.81,295.63c3.07,2.35,6.12,4.57,9.7,6.06c0.57,0.24,0.53,1.04-0.08,1.19c-2.48,0.6-4.81,1.66-6.97,3.02
		c-0.48,0.3-1.01-0.52-0.54-0.83c1.78-1.19,3.67-2.11,5.66-2.84c-1.84-0.85-3.58-1.93-5.26-3.09c0.14,0.24,0.11,0.56-0.22,0.67
		c-0.64,0.21-1.25,0.49-1.82,0.84c0,0.45,0,0.9-0.01,1.35c0.64-0.32,1.26-0.67,1.9-1.02c0.53-0.29,0.88,0.52,0.4,0.83
		c-0.73,0.46-1.52,0.83-2.32,1.16c0,0.13-0.01,0.27-0.02,0.4c0.55-0.15,1.11-0.26,1.68-0.31c0.56-0.06,0.71,0.82,0.16,0.85
		c-0.64,0.04-1.27,0.15-1.89,0.31c-0.08,1.22-0.2,2.42-0.39,3.6c-0.16,0.99-1.58,0.91-1.57-0.11c0.02-1.93,0.21-3.86,0.3-5.78
		c0.09-1.93,0.13-3.85,0.22-5.78C129.76,295.65,130.39,295.31,130.81,295.63z M132.9,298.84c-0.58-0.41-1.15-0.82-1.72-1.23
		c0.03,0.64,0.06,1.29,0.07,1.94c0.42-0.29,0.89-0.52,1.39-0.69C132.74,298.83,132.82,298.83,132.9,298.84z"/>
	<path class="st0" d="M100.69,340.02c3.86,0.16,7.63,0.22,11.42-0.62c0.6-0.13,1.03,0.55,0.62,1.02c-1.69,1.91-2.99,4.12-3.96,6.47
		c-0.22,0.52-1.13,0.15-0.92-0.37c0.78-1.99,1.79-3.84,2.99-5.58c-1.99,0.37-4.04,0.48-6.08,0.49c0.25,0.12,0.41,0.39,0.2,0.68
		c-0.4,0.54-0.75,1.12-1.01,1.74c0.26,0.37,0.52,0.74,0.77,1.11c0.34-0.63,0.64-1.28,0.96-1.92c0.27-0.54,1.02-0.08,0.8,0.45
		c-0.33,0.79-0.77,1.55-1.23,2.28c0.07,0.11,0.15,0.23,0.22,0.34c0.36-0.44,0.76-0.85,1.19-1.22c0.42-0.37,1.05,0.26,0.62,0.61
		c-0.5,0.41-0.96,0.85-1.36,1.34c0.64,1.04,1.23,2.1,1.76,3.17c0.44,0.9-0.77,1.65-1.34,0.81c-1.09-1.59-2.04-3.28-3.08-4.9
		c-1.03-1.63-2.11-3.23-3.15-4.85C99.85,340.64,100.17,340,100.69,340.02z M104.25,341.44c-0.71,0-1.41-0.01-2.11-0.02
		c0.4,0.51,0.79,1.02,1.18,1.55c0.18-0.48,0.43-0.93,0.74-1.36C104.11,341.53,104.18,341.48,104.25,341.44z"/>
	<path class="st1" d="M127.74,345.6c-0.17-3.86-0.43-7.62-1.58-11.33c-0.18-0.59,0.46-1.08,0.97-0.7c2.05,1.52,4.36,2.63,6.79,3.4
		c0.54,0.17,0.25,1.11-0.29,0.95c-2.05-0.61-3.97-1.46-5.81-2.51c0.53,1.95,0.82,3.98,1,6.01c0.09-0.26,0.35-0.45,0.66-0.26
		c0.57,0.35,1.18,0.65,1.82,0.86c0.34-0.29,0.69-0.58,1.04-0.86c-0.66-0.28-1.33-0.53-2-0.8c-0.56-0.22-0.17-1.01,0.38-0.84
		c0.82,0.26,1.61,0.63,2.37,1.03c0.11-0.08,0.21-0.17,0.32-0.25c-0.47-0.32-0.91-0.69-1.32-1.09c-0.4-0.39,0.17-1.07,0.55-0.67
		c0.45,0.46,0.93,0.88,1.45,1.25c0.98-0.72,1.99-1.4,3.01-2.02c0.86-0.52,1.71,0.62,0.92,1.27c-1.49,1.22-3.09,2.32-4.63,3.48
		c-1.53,1.17-3.04,2.38-4.57,3.55C128.42,346.39,127.76,346.12,127.74,345.6z M128.85,341.93c0.06,0.7,0.11,1.41,0.16,2.11
		c0.47-0.44,0.95-0.87,1.44-1.3c-0.49-0.14-0.97-0.35-1.42-0.63C128.95,342.07,128.89,342,128.85,341.93z"/>
	<path class="st2" d="M88.49,331.17c-2.82-2.64-5.63-5.15-9.05-6.99c-0.54-0.29-0.42-1.09,0.2-1.18c2.53-0.35,4.95-1.17,7.23-2.31
		c0.51-0.25,0.95,0.62,0.46,0.88c-1.89,1-3.86,1.74-5.91,2.27c1.75,1.02,3.37,2.28,4.92,3.6c-0.12-0.25-0.06-0.57,0.29-0.64
		c0.65-0.15,1.3-0.36,1.9-0.66c0.04-0.45,0.09-0.9,0.14-1.35c-0.67,0.26-1.32,0.55-1.99,0.83c-0.56,0.23-0.83-0.61-0.31-0.87
		c0.77-0.38,1.59-0.67,2.42-0.92c0.02-0.13,0.04-0.27,0.06-0.4c-0.56,0.09-1.13,0.14-1.7,0.15c-0.56,0-0.63-0.88-0.08-0.87
		c0.64,0.02,1.28-0.02,1.91-0.12c0.2-1.2,0.44-2.39,0.74-3.55c0.25-0.97,1.66-0.75,1.55,0.26c-0.21,1.92-0.59,3.82-0.87,5.73
		c-0.28,1.91-0.51,3.82-0.79,5.73C89.53,331.25,88.87,331.52,88.49,331.17z M86.72,327.77c0.54,0.46,1.06,0.93,1.59,1.4
		c0.03-0.64,0.07-1.29,0.12-1.94c-0.45,0.24-0.93,0.43-1.45,0.55C86.88,327.79,86.8,327.79,86.72,327.77z"/>
	<path class="st1" d="M96.63,297.78c-3.75,0.94-7.38,1.94-10.79,3.81c-0.54,0.3-1.15-0.24-0.88-0.81c1.08-2.31,1.7-4.8,1.98-7.33
		c0.06-0.56,1.04-0.46,0.99,0.1c-0.18,2.13-0.64,4.19-1.3,6.2c1.81-0.91,3.74-1.59,5.69-2.18c-0.28-0.04-0.51-0.26-0.38-0.59
		c0.23-0.63,0.4-1.28,0.48-1.95c-0.35-0.28-0.71-0.56-1.05-0.85c-0.14,0.7-0.26,1.41-0.38,2.12c-0.1,0.59-0.96,0.37-0.9-0.21
		c0.09-0.85,0.3-1.7,0.54-2.53c-0.1-0.09-0.2-0.18-0.31-0.26c-0.22,0.52-0.49,1.03-0.8,1.51c-0.3,0.47-1.08,0.05-0.77-0.4
		c0.36-0.53,0.68-1.09,0.93-1.67c-0.9-0.82-1.77-1.67-2.58-2.55c-0.68-0.74,0.27-1.8,1.06-1.16c1.49,1.22,2.89,2.57,4.34,3.84
		c1.45,1.27,2.93,2.5,4.39,3.77C97.27,296.95,97.14,297.66,96.63,297.78z M92.82,297.42c0.68-0.2,1.36-0.39,2.04-0.57
		c-0.52-0.38-1.05-0.76-1.56-1.16c-0.04,0.51-0.15,1.02-0.33,1.52C92.93,297.3,92.88,297.37,92.82,297.42z"/>
</g>
<g>
	<path class="st0" d="M47.29,39.73c-3.86-0.22-7.63-0.34-11.43,0.44c-0.61,0.12-1.03-0.56-0.6-1.03c1.72-1.89,3.05-4.08,4.06-6.41
		c0.23-0.52,1.13-0.14,0.92,0.39c-0.81,1.98-1.85,3.81-3.08,5.53c2-0.34,4.04-0.42,6.08-0.4c-0.25-0.12-0.41-0.4-0.19-0.68
		c0.41-0.53,0.76-1.11,1.03-1.72c-0.26-0.37-0.51-0.75-0.76-1.12c-0.35,0.63-0.66,1.27-0.99,1.91c-0.28,0.54-1.02,0.06-0.79-0.46
		c0.34-0.79,0.79-1.54,1.27-2.26c-0.07-0.11-0.14-0.23-0.21-0.34c-0.37,0.43-0.77,0.83-1.21,1.2c-0.43,0.36-1.05-0.27-0.61-0.61
		c0.51-0.4,0.97-0.84,1.38-1.32c-0.62-1.05-1.2-2.12-1.71-3.2c-0.43-0.91,0.79-1.64,1.36-0.79c1.07,1.61,2,3.31,3.01,4.95
		c1.01,1.64,2.06,3.26,3.07,4.9C48.15,39.13,47.81,39.76,47.29,39.73z M43.76,38.26c0.71,0.01,1.41,0.03,2.11,0.06
		c-0.39-0.51-0.77-1.04-1.15-1.57c-0.19,0.48-0.44,0.93-0.76,1.35C43.9,38.17,43.83,38.22,43.76,38.26z"/>
	<path class="st0" d="M60.81,15.63c3.07,2.35,6.12,4.57,9.7,6.06c0.57,0.24,0.53,1.04-0.08,1.19c-2.48,0.6-4.81,1.66-6.97,3.02
		c-0.48,0.3-1.01-0.52-0.54-0.83c1.78-1.19,3.67-2.11,5.66-2.84c-1.84-0.85-3.58-1.93-5.26-3.09c0.14,0.24,0.11,0.56-0.22,0.67
		c-0.64,0.21-1.25,0.49-1.82,0.84c0,0.45,0,0.9-0.01,1.35c0.64-0.32,1.26-0.67,1.9-1.02c0.53-0.29,0.88,0.52,0.4,0.83
		c-0.73,0.46-1.52,0.83-2.32,1.16c0,0.13-0.01,0.27-0.02,0.4c0.55-0.15,1.11-0.26,1.68-0.31c0.56-0.06,0.71,0.82,0.16,0.85
		c-0.64,0.04-1.27,0.15-1.89,0.31c-0.08,1.22-0.2,2.42-0.39,3.6c-0.16,1-1.58,0.91-1.57-0.11c0.02-1.93,0.21-3.86,0.3-5.78
		c0.09-1.93,0.13-3.85,0.22-5.78C59.76,15.65,60.39,15.31,60.81,15.63z M62.9,18.84c-0.58-0.41-1.15-0.82-1.72-1.23
		c0.03,0.64,0.06,1.29,0.07,1.94c0.42-0.29,0.89-0.52,1.39-0.69C62.74,18.83,62.82,18.83,62.9,18.84z"/>
	<path class="st0" d="M30.69,60.02c3.86,0.16,7.63,0.22,11.42-0.62c0.6-0.13,1.03,0.55,0.62,1.02c-1.69,1.91-2.99,4.12-3.97,6.47
		c-0.22,0.52-1.13,0.15-0.92-0.37c0.78-1.99,1.79-3.84,2.99-5.58c-1.99,0.37-4.04,0.48-6.08,0.49c0.25,0.12,0.41,0.39,0.2,0.68
		c-0.4,0.54-0.75,1.12-1.01,1.74c0.26,0.37,0.52,0.74,0.77,1.11c0.34-0.63,0.64-1.28,0.96-1.92c0.27-0.54,1.02-0.08,0.8,0.45
		c-0.33,0.79-0.77,1.55-1.23,2.28c0.07,0.11,0.15,0.23,0.22,0.34c0.36-0.44,0.76-0.85,1.19-1.22c0.42-0.37,1.05,0.26,0.62,0.61
		c-0.5,0.41-0.96,0.85-1.36,1.34c0.64,1.04,1.23,2.1,1.76,3.17c0.44,0.9-0.77,1.65-1.34,0.81c-1.09-1.59-2.04-3.28-3.08-4.9
		c-1.03-1.63-2.11-3.23-3.15-4.85C29.85,60.64,30.17,60,30.69,60.02z M34.25,61.44c-0.71,0-1.41-0.01-2.11-0.02
		c0.4,0.51,0.79,1.02,1.18,1.55c0.18-0.48,0.43-0.93,0.74-1.36C34.11,61.53,34.18,61.48,34.25,61.44z"/>
	<path class="st1" d="M57.74,65.6c-0.17-3.86-0.43-7.62-1.58-11.33c-0.18-0.59,0.46-1.08,0.97-0.7c2.05,1.52,4.36,2.63,6.79,3.4
		c0.54,0.17,0.25,1.11-0.29,0.95c-2.05-0.61-3.97-1.46-5.81-2.51c0.53,1.95,0.82,3.98,1,6.01c0.09-0.26,0.35-0.45,0.66-0.26
		c0.57,0.35,1.18,0.65,1.82,0.86c0.34-0.29,0.69-0.58,1.04-0.86c-0.66-0.28-1.33-0.53-2-0.8c-0.56-0.22-0.17-1.01,0.38-0.84
		c0.82,0.26,1.61,0.63,2.37,1.03c0.11-0.08,0.21-0.17,0.32-0.25c-0.47-0.32-0.91-0.69-1.32-1.09c-0.4-0.39,0.17-1.07,0.55-0.67
		c0.45,0.46,0.93,0.88,1.45,1.25c0.98-0.72,1.99-1.4,3.01-2.02c0.86-0.52,1.71,0.62,0.92,1.27c-1.49,1.22-3.09,2.32-4.63,3.48
		c-1.53,1.17-3.04,2.38-4.57,3.55C58.42,66.39,57.76,66.12,57.74,65.6z M58.85,61.93c0.06,0.7,0.11,1.41,0.16,2.11
		c0.47-0.44,0.95-0.87,1.44-1.3c-0.49-0.14-0.97-0.35-1.42-0.63C58.95,62.07,58.89,62,58.85,61.93z"/>
	<path class="st2" d="M18.49,51.17c-2.82-2.64-5.63-5.15-9.05-6.99c-0.54-0.29-0.42-1.09,0.2-1.18c2.53-0.35,4.95-1.17,7.23-2.31
		c0.51-0.25,0.95,0.62,0.45,0.88c-1.89,1-3.86,1.74-5.91,2.27c1.75,1.02,3.37,2.28,4.92,3.6c-0.12-0.25-0.06-0.57,0.29-0.64
		c0.65-0.15,1.3-0.36,1.9-0.66c0.04-0.45,0.09-0.9,0.14-1.35c-0.67,0.26-1.32,0.55-1.99,0.83c-0.56,0.23-0.83-0.61-0.31-0.87
		c0.77-0.38,1.59-0.67,2.42-0.92c0.02-0.13,0.04-0.27,0.06-0.4c-0.56,0.09-1.13,0.14-1.7,0.15c-0.56,0-0.63-0.88-0.08-0.87
		c0.64,0.02,1.28-0.02,1.91-0.12c0.2-1.2,0.44-2.39,0.74-3.55c0.25-0.97,1.66-0.75,1.55,0.26c-0.21,1.92-0.59,3.82-0.87,5.73
		c-0.28,1.91-0.51,3.82-0.79,5.73C19.53,51.25,18.87,51.52,18.49,51.17z M16.72,47.77c0.54,0.46,1.06,0.93,1.59,1.4
		c0.03-0.64,0.07-1.29,0.12-1.94c-0.45,0.24-0.93,0.43-1.45,0.55C16.88,47.79,16.8,47.79,16.72,47.77z"/>
	<path class="st1" d="M26.63,17.78c-3.75,0.94-7.38,1.94-10.79,3.81c-0.54,0.3-1.15-0.24-0.88-0.81c1.08-2.31,1.7-4.8,1.98-7.33
		c0.06-0.56,1.04-0.46,0.99,0.1c-0.18,2.13-0.64,4.19-1.3,6.2c1.81-0.91,3.74-1.59,5.69-2.18c-0.28-0.04-0.51-0.26-0.38-0.59
		c0.23-0.63,0.4-1.28,0.48-1.95c-0.35-0.28-0.71-0.56-1.05-0.85c-0.14,0.7-0.26,1.41-0.38,2.12c-0.1,0.59-0.96,0.37-0.9-0.21
		c0.09-0.85,0.3-1.7,0.54-2.53c-0.1-0.09-0.2-0.18-0.31-0.26c-0.22,0.52-0.49,1.03-0.8,1.51c-0.3,0.47-1.08,0.05-0.77-0.4
		c0.36-0.53,0.68-1.09,0.93-1.67c-0.9-0.82-1.77-1.67-2.58-2.55c-0.68-0.74,0.27-1.8,1.06-1.16c1.49,1.22,2.89,2.57,4.34,3.84
		c1.45,1.27,2.93,2.5,4.39,3.77C27.27,16.95,27.14,17.66,26.63,17.78z M22.82,17.42c0.68-0.2,1.36-0.39,2.04-0.57
		c-0.52-0.38-1.05-0.76-1.56-1.16c-0.04,0.51-0.15,1.02-0.33,1.52C22.93,17.3,22.88,17.37,22.82,17.42z"/>
</g>
<g>
	<path class="st0" d="M47.29,109.73c-3.86-0.22-7.63-0.34-11.43,0.44c-0.61,0.12-1.03-0.56-0.6-1.03c1.72-1.89,3.05-4.08,4.06-6.41
		c0.23-0.52,1.13-0.14,0.92,0.39c-0.81,1.98-1.85,3.81-3.08,5.53c2-0.34,4.04-0.42,6.08-0.4c-0.25-0.12-0.41-0.4-0.19-0.68
		c0.41-0.53,0.76-1.11,1.03-1.72c-0.26-0.37-0.51-0.75-0.76-1.12c-0.35,0.63-0.66,1.27-0.99,1.91c-0.28,0.54-1.02,0.06-0.79-0.46
		c0.34-0.79,0.79-1.54,1.27-2.26c-0.07-0.11-0.14-0.23-0.21-0.34c-0.37,0.43-0.77,0.83-1.21,1.2c-0.43,0.36-1.05-0.27-0.61-0.61
		c0.51-0.4,0.97-0.84,1.38-1.32c-0.62-1.05-1.2-2.12-1.71-3.2c-0.43-0.91,0.79-1.64,1.36-0.79c1.07,1.61,2,3.31,3.01,4.95
		c1.01,1.64,2.06,3.26,3.07,4.9C48.15,109.13,47.81,109.76,47.29,109.73z M43.76,108.26c0.71,0.01,1.41,0.03,2.11,0.06
		c-0.39-0.51-0.77-1.04-1.15-1.57c-0.19,0.48-0.44,0.93-0.76,1.35C43.9,108.17,43.83,108.22,43.76,108.26z"/>
	<path class="st0" d="M60.81,85.63c3.07,2.35,6.12,4.57,9.7,6.06c0.57,0.24,0.53,1.04-0.08,1.19c-2.48,0.6-4.81,1.66-6.97,3.02
		c-0.48,0.3-1.01-0.52-0.54-0.83c1.78-1.19,3.67-2.11,5.66-2.84c-1.84-0.85-3.58-1.93-5.26-3.09c0.14,0.24,0.11,0.56-0.22,0.67
		c-0.64,0.21-1.25,0.49-1.82,0.84c0,0.45,0,0.9-0.01,1.35c0.64-0.32,1.26-0.67,1.9-1.02c0.53-0.29,0.88,0.52,0.4,0.83
		c-0.73,0.46-1.52,0.83-2.32,1.16c0,0.13-0.01,0.27-0.02,0.4c0.55-0.15,1.11-0.26,1.68-0.31c0.56-0.06,0.71,0.82,0.16,0.85
		c-0.64,0.04-1.27,0.15-1.89,0.31c-0.08,1.22-0.2,2.42-0.39,3.6c-0.16,1-1.58,0.91-1.57-0.11c0.02-1.93,0.21-3.86,0.3-5.78
		c0.09-1.93,0.13-3.85,0.22-5.78C59.76,85.65,60.39,85.31,60.81,85.63z M62.9,88.84c-0.58-0.41-1.15-0.82-1.72-1.23
		c0.03,0.64,0.06,1.29,0.07,1.94c0.42-0.29,0.89-0.52,1.39-0.69C62.74,88.83,62.82,88.83,62.9,88.84z"/>
	<path class="st0" d="M30.69,130.02c3.86,0.16,7.63,0.22,11.42-0.62c0.6-0.13,1.03,0.55,0.62,1.02c-1.69,1.91-2.99,4.12-3.97,6.47
		c-0.22,0.52-1.13,0.15-0.92-0.37c0.78-1.99,1.79-3.84,2.99-5.58c-1.99,0.37-4.04,0.48-6.08,0.49c0.25,0.12,0.41,0.39,0.2,0.68
		c-0.4,0.54-0.75,1.12-1.01,1.74c0.26,0.37,0.52,0.74,0.77,1.11c0.34-0.63,0.64-1.28,0.96-1.92c0.27-0.54,1.02-0.08,0.8,0.45
		c-0.33,0.79-0.77,1.55-1.23,2.28c0.07,0.11,0.15,0.23,0.22,0.34c0.36-0.44,0.76-0.85,1.19-1.22c0.42-0.37,1.05,0.26,0.62,0.61
		c-0.5,0.41-0.96,0.85-1.36,1.34c0.64,1.04,1.23,2.1,1.76,3.17c0.44,0.9-0.77,1.65-1.34,0.81c-1.09-1.59-2.04-3.28-3.08-4.9
		c-1.03-1.63-2.11-3.23-3.15-4.85C29.85,130.64,30.17,130,30.69,130.02z M34.25,131.44c-0.71,0-1.41-0.01-2.11-0.02
		c0.4,0.51,0.79,1.02,1.18,1.55c0.18-0.48,0.43-0.93,0.74-1.36C34.11,131.53,34.18,131.48,34.25,131.44z"/>
	<path class="st1" d="M57.74,135.6c-0.17-3.86-0.43-7.62-1.58-11.33c-0.18-0.59,0.46-1.08,0.97-0.7c2.05,1.52,4.36,2.63,6.79,3.4
		c0.54,0.17,0.25,1.11-0.29,0.95c-2.05-0.61-3.97-1.46-5.81-2.51c0.53,1.95,0.82,3.98,1,6.01c0.09-0.26,0.35-0.45,0.66-0.26
		c0.57,0.35,1.18,0.65,1.82,0.86c0.34-0.29,0.69-0.58,1.04-0.86c-0.66-0.28-1.33-0.53-2-0.8c-0.56-0.22-0.17-1.01,0.38-0.84
		c0.82,0.26,1.61,0.63,2.37,1.03c0.11-0.08,0.21-0.17,0.32-0.25c-0.47-0.32-0.91-0.69-1.32-1.09c-0.4-0.39,0.17-1.07,0.55-0.67
		c0.45,0.46,0.93,0.88,1.45,1.25c0.98-0.72,1.99-1.4,3.01-2.02c0.86-0.52,1.71,0.62,0.92,1.27c-1.49,1.22-3.09,2.32-4.63,3.48
		c-1.53,1.17-3.04,2.38-4.57,3.55C58.42,136.39,57.76,136.12,57.74,135.6z M58.85,131.93c0.06,0.7,0.11,1.41,0.16,2.11
		c0.47-0.44,0.95-0.87,1.44-1.3c-0.49-0.14-0.97-0.35-1.42-0.63C58.95,132.07,58.89,132,58.85,131.93z"/>
	<path class="st2" d="M18.49,121.17c-2.82-2.64-5.63-5.15-9.05-6.99c-0.54-0.29-0.42-1.09,0.2-1.18c2.53-0.35,4.95-1.17,7.23-2.31
		c0.51-0.25,0.95,0.62,0.45,0.88c-1.89,1-3.86,1.74-5.91,2.27c1.75,1.02,3.37,2.28,4.92,3.6c-0.12-0.25-0.06-0.57,0.29-0.64
		c0.65-0.15,1.3-0.36,1.9-0.66c0.04-0.45,0.09-0.9,0.14-1.35c-0.67,0.26-1.32,0.55-1.99,0.83c-0.56,0.23-0.83-0.61-0.31-0.87
		c0.77-0.38,1.59-0.67,2.42-0.92c0.02-0.13,0.04-0.27,0.06-0.4c-0.56,0.09-1.13,0.14-1.7,0.15c-0.56,0-0.63-0.88-0.08-0.87
		c0.64,0.02,1.28-0.02,1.91-0.12c0.2-1.2,0.44-2.39,0.74-3.55c0.25-0.97,1.66-0.75,1.55,0.26c-0.21,1.92-0.59,3.82-0.87,5.73
		c-0.28,1.91-0.51,3.82-0.79,5.73C19.53,121.25,18.87,121.52,18.49,121.17z M16.72,117.77c0.54,0.46,1.06,0.93,1.59,1.4
		c0.03-0.64,0.07-1.29,0.12-1.94c-0.45,0.24-0.93,0.43-1.45,0.55C16.88,117.79,16.8,117.79,16.72,117.77z"/>
	<path class="st1" d="M26.63,87.78c-3.75,0.94-7.38,1.94-10.79,3.81c-0.54,0.3-1.15-0.24-0.88-0.81c1.08-2.31,1.7-4.8,1.98-7.33
		c0.06-0.56,1.04-0.46,0.99,0.1c-0.18,2.13-0.64,4.19-1.3,6.2c1.81-0.91,3.74-1.59,5.69-2.18c-0.28-0.04-0.51-0.26-0.38-0.59
		c0.23-0.63,0.4-1.28,0.48-1.95c-0.35-0.28-0.71-0.56-1.05-0.85c-0.14,0.7-0.26,1.41-0.38,2.12c-0.1,0.59-0.96,0.37-0.9-0.21
		c0.09-0.85,0.3-1.7,0.54-2.53c-0.1-0.09-0.2-0.18-0.31-0.26c-0.22,0.52-0.49,1.03-0.8,1.51c-0.3,0.47-1.08,0.05-0.77-0.4
		c0.36-0.53,0.68-1.09,0.93-1.67c-0.9-0.82-1.77-1.67-2.58-2.55c-0.68-0.74,0.27-1.8,1.06-1.16c1.49,1.22,2.89,2.57,4.34,3.84
		c1.45,1.27,2.93,2.5,4.39,3.77C27.27,86.95,27.14,87.66,26.63,87.78z M22.82,87.42c0.68-0.2,1.36-0.39,2.04-0.57
		c-0.52-0.38-1.05-0.76-1.56-1.16c-0.04,0.51-0.15,1.02-0.33,1.52C22.93,87.3,22.88,87.37,22.82,87.42z"/>
</g>
<g>
	<path class="st0" d="M47.29,179.73c-3.86-0.22-7.63-0.34-11.43,0.44c-0.61,0.12-1.03-0.56-0.6-1.03c1.72-1.89,3.05-4.08,4.06-6.41
		c0.23-0.52,1.13-0.14,0.92,0.39c-0.81,1.98-1.85,3.81-3.08,5.53c2-0.34,4.04-0.42,6.08-0.4c-0.25-0.12-0.41-0.4-0.19-0.68
		c0.41-0.53,0.76-1.11,1.03-1.72c-0.26-0.37-0.51-0.75-0.76-1.12c-0.35,0.63-0.66,1.27-0.99,1.91c-0.28,0.54-1.02,0.06-0.79-0.46
		c0.34-0.79,0.79-1.54,1.27-2.26c-0.07-0.11-0.14-0.23-0.21-0.34c-0.37,0.43-0.77,0.83-1.21,1.2c-0.43,0.36-1.05-0.27-0.61-0.61
		c0.51-0.4,0.97-0.84,1.38-1.32c-0.62-1.05-1.2-2.12-1.71-3.2c-0.43-0.91,0.79-1.64,1.36-0.79c1.07,1.61,2,3.31,3.01,4.95
		c1.01,1.64,2.06,3.26,3.07,4.9C48.15,179.13,47.81,179.76,47.29,179.73z M43.76,178.26c0.71,0.01,1.41,0.03,2.11,0.06
		c-0.39-0.51-0.77-1.04-1.15-1.57c-0.19,0.48-0.44,0.93-0.76,1.35C43.9,178.17,43.83,178.22,43.76,178.26z"/>
	<path class="st0" d="M60.81,155.63c3.07,2.35,6.12,4.57,9.7,6.06c0.57,0.24,0.53,1.04-0.08,1.19c-2.48,0.6-4.81,1.66-6.97,3.02
		c-0.48,0.3-1.01-0.52-0.54-0.83c1.78-1.19,3.67-2.11,5.66-2.84c-1.84-0.85-3.58-1.93-5.26-3.09c0.14,0.24,0.11,0.56-0.22,0.67
		c-0.64,0.21-1.25,0.49-1.82,0.84c0,0.45,0,0.9-0.01,1.35c0.64-0.32,1.26-0.67,1.9-1.02c0.53-0.29,0.88,0.52,0.4,0.83
		c-0.73,0.46-1.52,0.83-2.32,1.16c0,0.13-0.01,0.27-0.02,0.4c0.55-0.15,1.11-0.26,1.68-0.31c0.56-0.06,0.71,0.82,0.16,0.85
		c-0.64,0.04-1.27,0.15-1.89,0.31c-0.08,1.22-0.2,2.42-0.39,3.6c-0.16,0.99-1.58,0.91-1.57-0.11c0.02-1.93,0.21-3.86,0.3-5.78
		c0.09-1.93,0.13-3.85,0.22-5.78C59.76,155.65,60.39,155.31,60.81,155.63z M62.9,158.84c-0.58-0.41-1.15-0.82-1.72-1.23
		c0.03,0.64,0.06,1.29,0.07,1.94c0.42-0.29,0.89-0.52,1.39-0.69C62.74,158.83,62.82,158.83,62.9,158.84z"/>
	<path class="st0" d="M30.69,200.02c3.86,0.16,7.63,0.22,11.42-0.62c0.6-0.13,1.03,0.55,0.62,1.02c-1.69,1.91-2.99,4.12-3.97,6.47
		c-0.22,0.52-1.13,0.15-0.92-0.37c0.78-1.99,1.79-3.84,2.99-5.58c-1.99,0.37-4.04,0.48-6.08,0.49c0.25,0.12,0.41,0.39,0.2,0.68
		c-0.4,0.54-0.75,1.12-1.01,1.74c0.26,0.37,0.52,0.74,0.77,1.11c0.34-0.63,0.64-1.28,0.96-1.92c0.27-0.54,1.02-0.08,0.8,0.45
		c-0.33,0.79-0.77,1.55-1.23,2.28c0.07,0.11,0.15,0.23,0.22,0.34c0.36-0.44,0.76-0.85,1.19-1.22c0.42-0.37,1.05,0.26,0.62,0.61
		c-0.5,0.41-0.96,0.85-1.36,1.34c0.64,1.04,1.23,2.1,1.76,3.17c0.44,0.9-0.77,1.65-1.34,0.81c-1.09-1.59-2.04-3.28-3.08-4.9
		c-1.03-1.63-2.11-3.23-3.15-4.85C29.85,200.64,30.17,200,30.69,200.02z M34.25,201.44c-0.71,0-1.41-0.01-2.11-0.02
		c0.4,0.51,0.79,1.02,1.18,1.55c0.18-0.48,0.43-0.93,0.74-1.36C34.11,201.53,34.18,201.48,34.25,201.44z"/>
	<path class="st1" d="M57.74,205.6c-0.17-3.86-0.43-7.62-1.58-11.33c-0.18-0.59,0.46-1.08,0.97-0.7c2.05,1.52,4.36,2.63,6.79,3.4
		c0.54,0.17,0.25,1.11-0.29,0.95c-2.05-0.61-3.97-1.46-5.81-2.51c0.53,1.95,0.82,3.98,1,6.01c0.09-0.26,0.35-0.45,0.66-0.26
		c0.57,0.35,1.18,0.65,1.82,0.86c0.34-0.29,0.69-0.58,1.04-0.86c-0.66-0.28-1.33-0.53-2-0.8c-0.56-0.22-0.17-1.01,0.38-0.84
		c0.82,0.26,1.61,0.63,2.37,1.03c0.11-0.08,0.21-0.17,0.32-0.25c-0.47-0.32-0.91-0.69-1.32-1.09c-0.4-0.39,0.17-1.07,0.55-0.67
		c0.45,0.46,0.93,0.88,1.45,1.25c0.98-0.72,1.99-1.4,3.01-2.02c0.86-0.52,1.71,0.62,0.92,1.27c-1.49,1.22-3.09,2.32-4.63,3.48
		c-1.53,1.17-3.04,2.38-4.57,3.55C58.42,206.39,57.76,206.12,57.74,205.6z M58.85,201.93c0.06,0.7,0.11,1.41,0.16,2.11
		c0.47-0.44,0.95-0.87,1.44-1.3c-0.49-0.14-0.97-0.35-1.42-0.63C58.95,202.07,58.89,202,58.85,201.93z"/>
	<path class="st2" d="M18.49,191.17c-2.82-2.64-5.63-5.15-9.05-6.99c-0.54-0.29-0.42-1.09,0.2-1.18c2.53-0.35,4.95-1.17,7.23-2.31
		c0.51-0.25,0.95,0.62,0.45,0.88c-1.89,1-3.86,1.74-5.91,2.27c1.75,1.02,3.37,2.28,4.92,3.6c-0.12-0.25-0.06-0.57,0.29-0.64
		c0.65-0.15,1.3-0.36,1.9-0.66c0.04-0.45,0.09-0.9,0.14-1.35c-0.67,0.26-1.32,0.55-1.99,0.83c-0.56,0.23-0.83-0.61-0.31-0.87
		c0.77-0.38,1.59-0.67,2.42-0.92c0.02-0.13,0.04-0.27,0.06-0.4c-0.56,0.09-1.13,0.14-1.7,0.15c-0.56,0-0.63-0.88-0.08-0.87
		c0.64,0.02,1.28-0.02,1.91-0.12c0.2-1.2,0.44-2.39,0.74-3.55c0.25-0.97,1.66-0.75,1.55,0.26c-0.21,1.92-0.59,3.82-0.87,5.73
		c-0.28,1.91-0.51,3.82-0.79,5.73C19.53,191.25,18.87,191.52,18.49,191.17z M16.72,187.77c0.54,0.46,1.06,0.93,1.59,1.4
		c0.03-0.64,0.07-1.29,0.12-1.94c-0.45,0.24-0.93,0.43-1.45,0.55C16.88,187.79,16.8,187.79,16.72,187.77z"/>
	<path class="st1" d="M26.63,157.78c-3.75,0.94-7.38,1.94-10.79,3.81c-0.54,0.3-1.15-0.24-0.88-0.81c1.08-2.31,1.7-4.8,1.98-7.33
		c0.06-0.56,1.04-0.46,0.99,0.1c-0.18,2.13-0.64,4.19-1.3,6.2c1.81-0.91,3.74-1.59,5.69-2.18c-0.28-0.04-0.51-0.26-0.38-0.59
		c0.23-0.63,0.4-1.28,0.48-1.95c-0.35-0.28-0.71-0.56-1.05-0.85c-0.14,0.7-0.26,1.41-0.38,2.12c-0.1,0.59-0.96,0.37-0.9-0.21
		c0.09-0.85,0.3-1.7,0.54-2.53c-0.1-0.09-0.2-0.18-0.31-0.26c-0.22,0.52-0.49,1.03-0.8,1.51c-0.3,0.47-1.08,0.05-0.77-0.4
		c0.36-0.53,0.68-1.09,0.93-1.67c-0.9-0.82-1.77-1.67-2.58-2.55c-0.68-0.74,0.27-1.8,1.06-1.16c1.49,1.22,2.89,2.57,4.34,3.84
		c1.45,1.27,2.93,2.5,4.39,3.77C27.27,156.95,27.14,157.66,26.63,157.78z M22.82,157.42c0.68-0.2,1.36-0.39,2.04-0.57
		c-0.52-0.38-1.05-0.76-1.56-1.16c-0.04,0.51-0.15,1.02-0.33,1.52C22.93,157.3,22.88,157.37,22.82,157.42z"/>
</g>
<g>
	<path class="st0" d="M47.29,249.73c-3.86-0.22-7.63-0.34-11.43,0.44c-0.61,0.12-1.03-0.56-0.6-1.03c1.72-1.89,3.05-4.08,4.06-6.41
		c0.23-0.52,1.13-0.14,0.92,0.39c-0.81,1.98-1.85,3.81-3.08,5.53c2-0.34,4.04-0.42,6.08-0.4c-0.25-0.12-0.41-0.4-0.19-0.68
		c0.41-0.53,0.76-1.11,1.03-1.72c-0.26-0.37-0.51-0.75-0.76-1.12c-0.35,0.63-0.66,1.27-0.99,1.91c-0.28,0.54-1.02,0.06-0.79-0.46
		c0.34-0.79,0.79-1.54,1.27-2.26c-0.07-0.11-0.14-0.23-0.21-0.34c-0.37,0.43-0.77,0.83-1.21,1.2c-0.43,0.36-1.05-0.27-0.61-0.61
		c0.51-0.4,0.97-0.84,1.38-1.32c-0.62-1.05-1.2-2.12-1.71-3.2c-0.43-0.91,0.79-1.64,1.36-0.79c1.07,1.61,2,3.31,3.01,4.95
		c1.01,1.64,2.06,3.26,3.07,4.9C48.15,249.13,47.81,249.76,47.29,249.73z M43.76,248.26c0.71,0.01,1.41,0.03,2.11,0.06
		c-0.39-0.51-0.77-1.04-1.15-1.57c-0.19,0.48-0.44,0.93-0.76,1.35C43.9,248.17,43.83,248.22,43.76,248.26z"/>
	<path class="st0" d="M60.81,225.63c3.07,2.35,6.12,4.57,9.7,6.06c0.57,0.24,0.53,1.04-0.08,1.19c-2.48,0.6-4.81,1.66-6.97,3.02
		c-0.48,0.3-1.01-0.52-0.54-0.83c1.78-1.19,3.67-2.11,5.66-2.84c-1.84-0.85-3.58-1.93-5.26-3.09c0.14,0.24,0.11,0.56-0.22,0.67
		c-0.64,0.21-1.25,0.49-1.82,0.84c0,0.45,0,0.9-0.01,1.35c0.64-0.32,1.26-0.67,1.9-1.02c0.53-0.29,0.88,0.52,0.4,0.83
		c-0.73,0.46-1.52,0.83-2.32,1.16c0,0.13-0.01,0.27-0.02,0.4c0.55-0.15,1.11-0.26,1.68-0.31c0.56-0.06,0.71,0.82,0.16,0.85
		c-0.64,0.04-1.27,0.15-1.89,0.31c-0.08,1.22-0.2,2.42-0.39,3.6c-0.16,0.99-1.58,0.91-1.57-0.11c0.02-1.93,0.21-3.86,0.3-5.78
		c0.09-1.93,0.13-3.85,0.22-5.78C59.76,225.65,60.39,225.31,60.81,225.63z M62.9,228.84c-0.58-0.41-1.15-0.82-1.72-1.23
		c0.03,0.64,0.06,1.29,0.07,1.94c0.42-0.29,0.89-0.52,1.39-0.69C62.74,228.83,62.82,228.83,62.9,228.84z"/>
	<path class="st0" d="M30.69,270.02c3.86,0.16,7.63,0.22,11.42-0.62c0.6-0.13,1.03,0.55,0.62,1.02c-1.69,1.91-2.99,4.12-3.97,6.47
		c-0.22,0.52-1.13,0.15-0.92-0.37c0.78-1.99,1.79-3.84,2.99-5.58c-1.99,0.37-4.04,0.48-6.08,0.49c0.25,0.12,0.41,0.39,0.2,0.68
		c-0.4,0.54-0.75,1.12-1.01,1.74c0.26,0.37,0.52,0.74,0.77,1.11c0.34-0.63,0.64-1.28,0.96-1.92c0.27-0.54,1.02-0.08,0.8,0.45
		c-0.33,0.79-0.77,1.55-1.23,2.28c0.07,0.11,0.15,0.23,0.22,0.34c0.36-0.44,0.76-0.85,1.19-1.22c0.42-0.37,1.05,0.26,0.62,0.61
		c-0.5,0.41-0.96,0.85-1.36,1.34c0.64,1.04,1.23,2.1,1.76,3.17c0.44,0.9-0.77,1.65-1.34,0.81c-1.09-1.59-2.04-3.28-3.08-4.9
		c-1.03-1.63-2.11-3.23-3.15-4.85C29.85,270.64,30.17,270,30.69,270.02z M34.25,271.44c-0.71,0-1.41-0.01-2.11-0.02
		c0.4,0.51,0.79,1.02,1.18,1.55c0.18-0.48,0.43-0.93,0.74-1.36C34.11,271.53,34.18,271.48,34.25,271.44z"/>
	<path class="st1" d="M57.74,275.6c-0.17-3.86-0.43-7.62-1.58-11.33c-0.18-0.59,0.46-1.08,0.97-0.7c2.05,1.52,4.36,2.63,6.79,3.4
		c0.54,0.17,0.25,1.11-0.29,0.95c-2.05-0.61-3.97-1.46-5.81-2.51c0.53,1.95,0.82,3.98,1,6.01c0.09-0.26,0.35-0.45,0.66-0.26
		c0.57,0.35,1.18,0.65,1.82,0.86c0.34-0.29,0.69-0.58,1.04-0.86c-0.66-0.28-1.33-0.53-2-0.8c-0.56-0.22-0.17-1.01,0.38-0.84
		c0.82,0.26,1.61,0.63,2.37,1.03c0.11-0.08,0.21-0.17,0.32-0.25c-0.47-0.32-0.91-0.69-1.32-1.09c-0.4-0.39,0.17-1.07,0.55-0.67
		c0.45,0.46,0.93,0.88,1.45,1.25c0.98-0.72,1.99-1.4,3.01-2.02c0.86-0.52,1.71,0.62,0.92,1.27c-1.49,1.22-3.09,2.32-4.63,3.48
		c-1.53,1.17-3.04,2.38-4.57,3.55C58.42,276.39,57.76,276.12,57.74,275.6z M58.85,271.93c0.06,0.7,0.11,1.41,0.16,2.11
		c0.47-0.44,0.95-0.87,1.44-1.3c-0.49-0.14-0.97-0.35-1.42-0.63C58.95,272.07,58.89,272,58.85,271.93z"/>
	<path class="st2" d="M18.49,261.17c-2.82-2.64-5.63-5.15-9.05-6.99c-0.54-0.29-0.42-1.09,0.2-1.18c2.53-0.35,4.95-1.17,7.23-2.31
		c0.51-0.25,0.95,0.62,0.45,0.88c-1.89,1-3.86,1.74-5.91,2.27c1.75,1.02,3.37,2.28,4.92,3.6c-0.12-0.25-0.06-0.57,0.29-0.64
		c0.65-0.15,1.3-0.36,1.9-0.66c0.04-0.45,0.09-0.9,0.14-1.35c-0.67,0.26-1.32,0.55-1.99,0.83c-0.56,0.23-0.83-0.61-0.31-0.87
		c0.77-0.38,1.59-0.67,2.42-0.92c0.02-0.13,0.04-0.27,0.06-0.4c-0.56,0.09-1.13,0.14-1.7,0.15c-0.56,0-0.63-0.88-0.08-0.87
		c0.64,0.02,1.28-0.02,1.91-0.12c0.2-1.2,0.44-2.39,0.74-3.55c0.25-0.97,1.66-0.75,1.55,0.26c-0.21,1.92-0.59,3.82-0.87,5.73
		c-0.28,1.91-0.51,3.82-0.79,5.73C19.53,261.25,18.87,261.52,18.49,261.17z M16.72,257.77c0.54,0.46,1.06,0.93,1.59,1.4
		c0.03-0.64,0.07-1.29,0.12-1.94c-0.45,0.24-0.93,0.43-1.45,0.55C16.88,257.79,16.8,257.79,16.72,257.77z"/>
	<path class="st1" d="M26.63,227.78c-3.75,0.94-7.38,1.94-10.79,3.81c-0.54,0.3-1.15-0.24-0.88-0.81c1.08-2.31,1.7-4.8,1.98-7.33
		c0.06-0.56,1.04-0.46,0.99,0.1c-0.18,2.13-0.64,4.19-1.3,6.2c1.81-0.91,3.74-1.59,5.69-2.18c-0.28-0.04-0.51-0.26-0.38-0.59
		c0.23-0.63,0.4-1.28,0.48-1.95c-0.35-0.28-0.71-0.56-1.05-0.85c-0.14,0.7-0.26,1.41-0.38,2.12c-0.1,0.59-0.96,0.37-0.9-0.21
		c0.09-0.85,0.3-1.7,0.54-2.53c-0.1-0.09-0.2-0.18-0.31-0.26c-0.22,0.52-0.49,1.03-0.8,1.51c-0.3,0.47-1.08,0.05-0.77-0.4
		c0.36-0.53,0.68-1.09,0.93-1.67c-0.9-0.82-1.77-1.67-2.58-2.55c-0.68-0.74,0.27-1.8,1.06-1.16c1.49,1.22,2.89,2.57,4.34,3.84
		c1.45,1.27,2.93,2.5,4.39,3.77C27.27,226.95,27.14,227.66,26.63,227.78z M22.82,227.42c0.68-0.2,1.36-0.39,2.04-0.57
		c-0.52-0.38-1.05-0.76-1.56-1.16c-0.04,0.51-0.15,1.02-0.33,1.52C22.93,227.3,22.88,227.37,22.82,227.42z"/>
</g>
<g>
	<path class="st0" d="M47.29,319.73c-3.86-0.22-7.63-0.34-11.43,0.44c-0.61,0.12-1.03-0.56-0.6-1.03c1.72-1.89,3.05-4.08,4.06-6.41
		c0.23-0.52,1.13-0.14,0.92,0.39c-0.81,1.98-1.85,3.81-3.08,5.53c2-0.34,4.04-0.42,6.08-0.4c-0.25-0.12-0.41-0.4-0.19-0.68
		c0.41-0.53,0.76-1.11,1.03-1.72c-0.26-0.37-0.51-0.75-0.76-1.12c-0.35,0.63-0.66,1.27-0.99,1.91c-0.28,0.54-1.02,0.06-0.79-0.46
		c0.34-0.79,0.79-1.54,1.27-2.26c-0.07-0.11-0.14-0.23-0.21-0.34c-0.37,0.43-0.77,0.83-1.21,1.2c-0.43,0.36-1.05-0.27-0.61-0.61
		c0.51-0.4,0.97-0.84,1.38-1.32c-0.62-1.05-1.2-2.12-1.71-3.2c-0.43-0.91,0.79-1.64,1.36-0.79c1.07,1.61,2,3.31,3.01,4.95
		c1.01,1.64,2.06,3.26,3.07,4.9C48.15,319.13,47.81,319.76,47.29,319.73z M43.76,318.26c0.71,0.01,1.41,0.03,2.11,0.06
		c-0.39-0.51-0.77-1.04-1.15-1.57c-0.19,0.48-0.44,0.93-0.76,1.35C43.9,318.17,43.83,318.22,43.76,318.26z"/>
	<path class="st0" d="M60.81,295.63c3.07,2.35,6.12,4.57,9.7,6.06c0.57,0.24,0.53,1.04-0.08,1.19c-2.48,0.6-4.81,1.66-6.97,3.02
		c-0.48,0.3-1.01-0.52-0.54-0.83c1.78-1.19,3.67-2.11,5.66-2.84c-1.84-0.85-3.58-1.93-5.26-3.09c0.14,0.24,0.11,0.56-0.22,0.67
		c-0.64,0.21-1.25,0.49-1.82,0.84c0,0.45,0,0.9-0.01,1.35c0.64-0.32,1.26-0.67,1.9-1.02c0.53-0.29,0.88,0.52,0.4,0.83
		c-0.73,0.46-1.52,0.83-2.32,1.16c0,0.13-0.01,0.27-0.02,0.4c0.55-0.15,1.11-0.26,1.68-0.31c0.56-0.06,0.71,0.82,0.16,0.85
		c-0.64,0.04-1.27,0.15-1.89,0.31c-0.08,1.22-0.2,2.42-0.39,3.6c-0.16,0.99-1.58,0.91-1.57-0.11c0.02-1.93,0.21-3.86,0.3-5.78
		c0.09-1.93,0.13-3.85,0.22-5.78C59.76,295.65,60.39,295.31,60.81,295.63z M62.9,298.84c-0.58-0.41-1.15-0.82-1.72-1.23
		c0.03,0.64,0.06,1.29,0.07,1.94c0.42-0.29,0.89-0.52,1.39-0.69C62.74,298.83,62.82,298.83,62.9,298.84z"/>
	<path class="st0" d="M30.69,340.02c3.86,0.16,7.63,0.22,11.42-0.62c0.6-0.13,1.03,0.55,0.62,1.02c-1.69,1.91-2.99,4.12-3.97,6.47
		c-0.22,0.52-1.13,0.15-0.92-0.37c0.78-1.99,1.79-3.84,2.99-5.58c-1.99,0.37-4.04,0.48-6.08,0.49c0.25,0.12,0.41,0.39,0.2,0.68
		c-0.4,0.54-0.75,1.12-1.01,1.74c0.26,0.37,0.52,0.74,0.77,1.11c0.34-0.63,0.64-1.28,0.96-1.92c0.27-0.54,1.02-0.08,0.8,0.45
		c-0.33,0.79-0.77,1.55-1.23,2.28c0.07,0.11,0.15,0.23,0.22,0.34c0.36-0.44,0.76-0.85,1.19-1.22c0.42-0.37,1.05,0.26,0.62,0.61
		c-0.5,0.41-0.96,0.85-1.36,1.34c0.64,1.04,1.23,2.1,1.76,3.17c0.44,0.9-0.77,1.65-1.34,0.81c-1.09-1.59-2.04-3.28-3.08-4.9
		c-1.03-1.63-2.11-3.23-3.15-4.85C29.85,340.64,30.17,340,30.69,340.02z M34.25,341.44c-0.71,0-1.41-0.01-2.11-0.02
		c0.4,0.51,0.79,1.02,1.18,1.55c0.18-0.48,0.43-0.93,0.74-1.36C34.11,341.53,34.18,341.48,34.25,341.44z"/>
	<path class="st1" d="M57.74,345.6c-0.17-3.86-0.43-7.62-1.58-11.33c-0.18-0.59,0.46-1.08,0.97-0.7c2.05,1.52,4.36,2.63,6.79,3.4
		c0.54,0.17,0.25,1.11-0.29,0.95c-2.05-0.61-3.97-1.46-5.81-2.51c0.53,1.95,0.82,3.98,1,6.01c0.09-0.26,0.35-0.45,0.66-0.26
		c0.57,0.35,1.18,0.65,1.82,0.86c0.34-0.29,0.69-0.58,1.04-0.86c-0.66-0.28-1.33-0.53-2-0.8c-0.56-0.22-0.17-1.01,0.38-0.84
		c0.82,0.26,1.61,0.63,2.37,1.03c0.11-0.08,0.21-0.17,0.32-0.25c-0.47-0.32-0.91-0.69-1.32-1.09c-0.4-0.39,0.17-1.07,0.55-0.67
		c0.45,0.46,0.93,0.88,1.45,1.25c0.98-0.72,1.99-1.4,3.01-2.02c0.86-0.52,1.71,0.62,0.92,1.27c-1.49,1.22-3.09,2.32-4.63,3.48
		c-1.53,1.17-3.04,2.38-4.57,3.55C58.42,346.39,57.76,346.12,57.74,345.6z M58.85,341.93c0.06,0.7,0.11,1.41,0.16,2.11
		c0.47-0.44,0.95-0.87,1.44-1.3c-0.49-0.14-0.97-0.35-1.42-0.63C58.95,342.07,58.89,342,58.85,341.93z"/>
	<path class="st2" d="M18.49,331.17c-2.82-2.64-5.63-5.15-9.05-6.99c-0.54-0.29-0.42-1.09,0.2-1.18c2.53-0.35,4.95-1.17,7.23-2.31
		c0.51-0.25,0.95,0.62,0.45,0.88c-1.89,1-3.86,1.74-5.91,2.27c1.75,1.02,3.37,2.28,4.92,3.6c-0.12-0.25-0.06-0.57,0.29-0.64
		c0.65-0.15,1.3-0.36,1.9-0.66c0.04-0.45,0.09-0.9,0.14-1.35c-0.67,0.26-1.32,0.55-1.99,0.83c-0.56,0.23-0.83-0.61-0.31-0.87
		c0.77-0.38,1.59-0.67,2.42-0.92c0.02-0.13,0.04-0.27,0.06-0.4c-0.56,0.09-1.13,0.14-1.7,0.15c-0.56,0-0.63-0.88-0.08-0.87
		c0.64,0.02,1.28-0.02,1.91-0.12c0.2-1.2,0.44-2.39,0.74-3.55c0.25-0.97,1.66-0.75,1.55,0.26c-0.21,1.92-0.59,3.82-0.87,5.73
		c-0.28,1.91-0.51,3.82-0.79,5.73C19.53,331.25,18.87,331.52,18.49,331.17z M16.72,327.77c0.54,0.46,1.06,0.93,1.59,1.4
		c0.03-0.64,0.07-1.29,0.12-1.94c-0.45,0.24-0.93,0.43-1.45,0.55C16.88,327.79,16.8,327.79,16.72,327.77z"/>
	<path class="st1" d="M26.63,297.78c-3.75,0.94-7.38,1.94-10.79,3.81c-0.54,0.3-1.15-0.24-0.88-0.81c1.08-2.31,1.7-4.8,1.98-7.33
		c0.06-0.56,1.04-0.46,0.99,0.1c-0.18,2.13-0.64,4.19-1.3,6.2c1.81-0.91,3.74-1.59,5.69-2.18c-0.28-0.04-0.51-0.26-0.38-0.59
		c0.23-0.63,0.4-1.28,0.48-1.95c-0.35-0.28-0.71-0.56-1.05-0.85c-0.14,0.7-0.26,1.41-0.38,2.12c-0.1,0.59-0.96,0.37-0.9-0.21
		c0.09-0.85,0.3-1.7,0.54-2.53c-0.1-0.09-0.2-0.18-0.31-0.26c-0.22,0.52-0.49,1.03-0.8,1.51c-0.3,0.47-1.08,0.05-0.77-0.4
		c0.36-0.53,0.68-1.09,0.93-1.67c-0.9-0.82-1.77-1.67-2.58-2.55c-0.68-0.74,0.27-1.8,1.06-1.16c1.49,1.22,2.89,2.57,4.34,3.84
		c1.45,1.27,2.93,2.5,4.39,3.77C27.27,296.95,27.14,297.66,26.63,297.78z M22.82,297.42c0.68-0.2,1.36-0.39,2.04-0.57
		c-0.52-0.38-1.05-0.76-1.56-1.16c-0.04,0.51-0.15,1.02-0.33,1.52C22.93,297.3,22.88,297.37,22.82,297.42z"/>
</g>
</svg>
