<?xml version="1.0" encoding="utf-8"?>
<!-- Generator: Adobe Illustrator 19.0.1, SVG Export Plug-In . SVG Version: 6.00 Build 0)  -->
<svg version="1.1" id="Слой_1" xmlns="http://www.w3.org/2000/svg" xmlns:xlink="http://www.w3.org/1999/xlink" x="0px" y="0px"
	 viewBox="-57 180.9 480 480" style="enable-background:new -57 180.9 480 480;" xml:space="preserve">
<style type="text/css">
	.st0{fill:#00CCFF;}
</style>
<path class="st0" d="M415,340.9h-32c-4.4,0-8,3.6-8,8v8H263v-8c0-4.4-3.6-8-8-8h-32c-4.4,0-8,3.6-8,8v8H103v-8c0-4.4-3.6-8-8-8H63
	c-4.4,0-8,3.6-8,8v56H31c-39.7,0-72,32.3-72,72v104h-8c-4.4,0-8,3.6-8,8v64c0,4.4,3.6,8,8,8h464c4.4,0,8-3.6,8-8v-64
	c0-4.4-3.6-8-8-8h-64v-96h24v8c0,4.4,3.6,8,8,8h32c4.4,0,8-3.6,8-8v-144C423,344.5,419.4,340.9,415,340.9z M287,580.9h-96v-96h24v8
	c0,4.4,3.6,8,8,8h32c4.4,0,8-3.6,8-8v-8h24V580.9z M39,580.9v-88c0-4.4,3.6-8,8-8h8v8c0,4.4,3.6,8,8,8h32c4.4,0,8-3.6,8-8v-8h24v96
	H39z M175,500.9h-32v-16h32V500.9z M143,516.9h32v64h-32V516.9z M231,356.9h16v128h-16V356.9z M215,372.9v16h-32v16h32v64h-24v-24
	h-16v24h-72v-96H215z M71,356.9h16v128H71V356.9z M-25,476.9c0-30.9,25.1-56,56-56h24v48h-8c-13.3,0-24,10.7-24,24v88H7v-16H-9v16
	h-16V476.9z M-41,596.9H68.8l-12,48H-41V596.9z M407,644.9H73.2l12-48H407V644.9z M303,580.9v-64h32v64H303z M335,500.9h-32v-16h32
	V500.9z M351,468.9v-24h-16v24h-72v-64h64v-16h-64v-16h112v96H351z M407,484.9h-16v-128h16V484.9z"/>
<path class="st0" d="M103,612.9h16v16h-16V612.9z"/>
<path class="st0" d="M295,612.9h48v16h-48V612.9z"/>
<path class="st0" d="M167,612.9h32v16h-32V612.9z"/>
<path class="st0" d="M239,612.9h16v16h-16V612.9z"/>
<path class="st0" d="M-9,508.9H7v32H-9V508.9z"/>
<path class="st0" d="M7,476.9c0-13.3,10.7-24,24-24h8v-16h-8c-22.1,0-40,17.9-40,40v16H7V476.9z"/>
<path class="st0" d="M-25,612.9h16v16h-16V612.9z"/>
<path class="st0" d="M7,612.9h16v16H7V612.9z"/>
<path class="st0" d="M151,388.9h16v16h-16V388.9z"/>
<path class="st0" d="M199,252.9h144c4.4,0,8-3.6,8-8v-8c0.6-8.7-2.6-17.2-8.7-23.3c-6.1-6.1-14.6-9.3-23.3-8.7h-2.5
	c-7.3-16.1-22.2-24-45.5-24c-21.8,0-39,9.2-45.7,24H223c-8.5-0.2-16.8,3.1-22.8,9.2s-9.4,14.3-9.2,22.8v8
	C191,249.3,194.6,252.9,199,252.9z M223,220.9h8c3.7,0,6.9-2.6,7.8-6.2c3.1-13.2,19.3-17.8,32.2-17.8c23.4,0,29.4,8.8,32.4,18.4
	c1.1,3.3,4.1,5.6,7.6,5.6h8c4.4-0.5,8.8,1,11.9,4.1c3.1,3.1,4.6,7.5,4.1,11.9H207c-0.2-4.3,1.4-8.5,4.5-11.5
	C214.5,222.3,218.7,220.7,223,220.9z"/>
<path class="st0" d="M140.5,252.9c-7.3-16.1-22.2-24-45.5-24c-21.8,0-39,9.2-45.7,24H47c-8.5-0.2-16.8,3.1-22.8,9.2
	s-9.4,14.3-9.2,22.8v8c0,4.4,3.6,8,8,8h144c4.4,0,8-3.6,8-8v-8c0.6-8.7-2.6-17.2-8.7-23.3c-6.1-6.1-14.6-9.3-23.3-8.7H140.5z
	 M159,284.9H31c-0.2-4.3,1.4-8.5,4.5-11.5c3-3,7.2-4.7,11.5-4.5h8c3.7,0,6.9-2.6,7.8-6.2c3.1-13.2,19.3-17.8,32.2-17.8
	c23.4,0,29.4,8.8,32.4,18.4c1.1,3.3,4.1,5.6,7.6,5.6h8c4.4-0.5,8.8,1,11.9,4.1C158,276.1,159.5,280.5,159,284.9z"/>
</svg>
