<?xml version="1.0" encoding="utf-8"?>
<!-- Generator: Adobe Illustrator 19.0.1, SVG Export Plug-In . SVG Version: 6.00 Build 0)  -->
<svg version="1.1" id="Layer_1" xmlns="http://www.w3.org/2000/svg" xmlns:xlink="http://www.w3.org/1999/xlink" x="0px" y="0px"
	 viewBox="-41 164.9 512 512" style="enable-background:new -41 164.9 512 512;" xml:space="preserve">
<style type="text/css">
	.st0{fill:#2D527C;}
	.st1{fill:#CEE8FA;}
</style>
<g>
	<path class="st0" d="M391.5,676.9h-37.8c-8,0-14.5-6.5-14.5-14.5s6.5-14.5,14.5-14.5h37.8c27.8,0,50.5-22.7,50.5-50.5V244.4
		c0-27.8-22.6-50.5-50.5-50.5H173.4c-8,0-14.5-6.5-14.5-14.5s6.5-14.5,14.5-14.5h218.1c43.9,0,79.5,35.7,79.5,79.5v352.9
		C471,641.2,435.3,676.9,391.5,676.9z"/>
	<path class="st0" d="M248.7,676.9H38.5c-43.9,0-79.5-35.7-79.5-79.5V244.4c0-43.9,35.7-79.5,79.5-79.5h32.7c8,0,14.5,6.5,14.5,14.5
		s-6.5,14.5-14.5,14.5H38.5c-27.8,0-50.5,22.7-50.5,50.5v352.9c0,27.8,22.6,50.5,50.5,50.5h210.2c8,0,14.5,6.5,14.5,14.5
		S256.7,676.9,248.7,676.9z"/>
</g>
<path class="st1" d="M368.6,521.4c-11.8,0-26.2-0.3-32.4-0.5c-1.9,0-3.1-0.1-3.4-0.1c-9.9,0-18.4-3.4-25.3-10.1
	c-5.6-5.4-11-11.3-16.2-17c-3-3.2-6-6.5-9.1-9.8c-3.1-3.3-6-5.9-9-8.1c-3.8-2.9-7.8-4.4-11.7-4.4c-6.4,0-11.6,4-14.4,11
	c-3.2,8-5.6,27.6-5.7,28.9c-0.4,5.5-3.5,8.3-9.6,8.7c-4,0.2-7.9,0.3-11.6,0.3c-24,0-44.3-4.6-62.1-14.1c-17.9-9.6-34-23.6-49.1-43
	c-19.1-24.4-36.3-52.7-55.8-91.7c-0.9-1.9-15.9-33.8-17.3-37.3c-0.4-1.7-0.6-4.4,0.8-5.3c1.1-0.1,4.4-0.3,14.2-0.3
	c16.3,0,40.4,0.5,41.7,0.5c6.7,0.4,10.4,3,13,9.5c11.4,28.2,25,51.9,41.5,72.6c2.5,3.2,5.8,6.2,9.5,8.7c2.6,1.8,5.4,2.7,8,2.7h0
	c5.1,0,9.2-3.2,11.2-8.7c2.2-6.2,4-17.5,4.1-23.6c0.3-14.8,0-24.4-0.8-39.2c-0.7-13.7-7.3-21.9-19.9-24.9c3.8-4.2,9.1-5.2,17.1-5.6
	c4.5-0.2,9.4-0.4,15-0.4c5.2,0,10.5,0.1,15.7,0.2c3.6,0.1,7.2,0.1,10.8,0.2c6,0.1,11.1,0.6,15.8,1.6c2.8,0.6,6.7,2.2,7.9,9.1
	c0.6,3.5,0.9,6.9,0.8,10.1c-0.1,6.5-0.4,13.2-0.6,19.6c-0.3,9.3-0.6,18.8-0.7,28.3c-0.1,7.3,0.5,14.1,1.9,20.1
	c1.7,7.9,6.5,12.6,12.6,12.6c2.6,0,6.6-0.9,10.8-5.3c6.7-6.9,13.1-15,20.9-26.2c10.2-14.6,18.9-31.6,27.6-53.5
	c2.9-7.3,3.7-7.9,11.4-7.9c10.2,0,20.4,0,30.6,0c8.9,0,17.9,0,26.8,0c3.4,0,6.2,0.4,8.4,1.1c1.5,0.5,2.9,1.2,2.1,4.5
	c-2.7,12.1-9.7,22.6-16,31.6c-7.7,10.9-15.8,21.7-23.6,32.3c-4.1,5.5-8.2,11.1-12.3,16.7c-1.5,2-2.9,4.3-4.5,7.2
	c-5.8,10.5-4.9,17.8,3.3,26.3c4.3,4.5,8.8,8.9,13.2,13.1c6.1,6,12.5,12.2,18.3,18.6c7.4,8.1,13.9,16.5,19.3,25.1
	c2.5,4,3.2,7.8,2,10.5c-1.2,2.6-4.3,4.4-8.8,5.1C383.7,521.1,379.8,521.4,368.6,521.4z"/>
<path class="st0" d="M368.6,536c-11.9,0-26.4-0.3-32.6-0.5c-1.8,0-2.9-0.1-3.2-0.1c-13.5-0.1-25.7-4.9-35.2-14.1
	c-5.9-5.7-11.5-11.7-16.9-17.6l-0.2-0.2c-2.9-3.1-5.8-6.3-8.7-9.4c-2.6-2.7-4.9-4.9-7.3-6.6c-1.3-1-2.3-1.4-2.7-1.4
	c-0.2,0.2-0.6,0.7-1,1.8c-2,5-4.3,20.2-4.7,24.7c-1,12.8-9.9,21.2-23.3,22c-4.3,0.2-8.4,0.3-12.4,0.3c-26.5,0-49-5.2-68.9-15.8
	c-19.7-10.6-37.3-25.9-53.7-46.8c-19.7-25.2-37.4-54.2-57.4-94.2c-0.8-1.7-16.1-34.2-17.8-38.5c-0.3-0.6-0.5-1.3-0.6-1.9
	c-2.1-8.7,0.5-16.8,7-20.9c2-1.3,4.2-2.1,6.5-2.3c0.9-0.1,3.6-0.3,15.5-0.3c16.7,0,40.8,0.5,42.3,0.6c0.1,0,0.2,0,0.3,0
	c12.3,0.7,21,6.9,25.7,18.5c10.9,26.9,23.8,49.5,39.4,69c1.2,1.5,2.7,3,4.4,4.3c1.3-5,2.4-12.5,2.5-16.4c0.3-14.4,0-23.8-0.8-38.2
	c-0.4-8.1-3.2-10.2-8.8-11.6c-5-1.2-9-5-10.5-9.9c-1.5-4.9-0.3-10.3,3.2-14.1c7.6-8.2,17.4-9.8,26.9-10.3c4.7-0.3,9.9-0.4,15.7-0.4
	c5.4,0,10.7,0.1,15.9,0.2c3.6,0.1,7.1,0.1,10.7,0.2c6.9,0.1,13.1,0.7,18.7,1.9c10.3,2.2,17.3,9.9,19.1,20.9c0.7,4.4,1.1,8.7,1,12.8
	c-0.1,6.5-0.4,13.1-0.6,19.5l0,0.3c-0.3,9.3-0.6,18.7-0.7,28c-0.1,5.9,0.4,11.3,1.4,16c5.8-6.1,11.5-13.4,18.4-23.3
	c9.5-13.6,17.8-29.7,26-50.6c5.1-12.9,11.2-17,24.9-17.1c19.1,0,38.3-0.1,57.5,0c4.9,0,9.1,0.6,12.8,1.8c9.4,3,14.1,11.6,11.9,21.5
	c-3.3,14.7-11.2,26.7-18.3,36.7c-7.8,11-15.9,21.9-23.7,32.4c-4.2,5.6-8.3,11.1-12.3,16.7c-1.1,1.5-2.3,3.3-3.5,5.6
	c-2.8,5.1-2.5,5.5,1,9.1c4.2,4.3,8.6,8.6,12.9,12.8c6.3,6.2,12.8,12.5,18.9,19.2c8,8.7,15,17.8,20.8,27.1c5.2,8.2,6.3,17.1,2.9,24.4
	c-1.9,4.2-7.1,11.5-19.9,13.4C385,535.6,381.1,536,368.6,536z M261.6,457c7.1,0,14.1,2.6,20.5,7.4c3.5,2.7,7,5.8,10.7,9.7
	c3.1,3.3,6.2,6.6,9.1,9.8l0.2,0.2c5.1,5.5,10.3,11.2,15.6,16.3c4.2,4,9.2,6,15.2,6c0.4,0,1.7,0,3.7,0.1c6.2,0.1,20.5,0.5,32,0.5
	c2.7,0,4.9,0,6.7,0c-4-5.7-8.6-11.3-13.6-16.8c-5.5-6-11.7-12.1-17.7-17.9c-4.5-4.4-9-8.8-13.5-13.4c-12.7-13.1-14.5-27.3-5.6-43.4
	c1.9-3.4,3.7-6.2,5.5-8.7c4.1-5.6,8.2-11.2,12.4-16.7c7.8-10.5,15.8-21.3,23.4-32c3.1-4.4,6.4-9.2,9-14.2c-15.8,0-31.7,0-47.5,0
	c-8.9,22.4-18.1,40-28.7,55.2c-8.3,11.8-15.2,20.5-22.4,28c-7.8,8.1-15.8,9.7-21.3,9.7c-13.1,0-23.6-9.4-26.8-24
	c-1.6-7.1-2.3-15-2.2-23.4c0.1-9.6,0.4-19.2,0.7-28.5l0-0.4c0.2-6.3,0.4-12.8,0.6-19.2c0-1.6-0.1-3.4-0.3-5.2
	c-2.9-0.4-6.2-0.7-9.8-0.7c-3.7,0-7.3-0.1-11-0.2c-5.4-0.1-11-0.2-16.4-0.2c1.9,4.6,3,9.9,3.3,15.6c0.8,15.2,1.2,25.1,0.9,40.3
	c-0.1,7.3-2.2,20.4-4.9,28.2c-4,11.3-13.5,18.3-24.8,18.3c-5.6,0-11.2-1.8-16.2-5.3c-4.9-3.3-9.2-7.3-12.6-11.6
	c-17.4-21.8-31.7-46.7-43.6-76.2c-0.1-0.1-0.1-0.3-0.2-0.4c0,0,0,0,0,0c-2.2-0.1-21-0.4-36-0.5c4.4,9.5,9.6,20.5,10.3,21.9
	c19,38.1,35.7,65.6,54.2,89.2c13.9,17.7,28.4,30.5,44.5,39.1c15.6,8.3,33.6,12.4,55.2,12.4c2.4,0,4.8,0,7.4-0.1
	c1-7.1,3.1-20.8,6.1-28.5C238.7,464.6,249.1,457,261.6,457z"/>
</svg>
