<svg id="Режим_изоляции" xmlns="http://www.w3.org/2000/svg" viewBox="0 0 220 360"><style>.st0{fill:#213148}.st1{fill:#e4be8d}.st2{fill:#d6dcdd}</style><path class="st0" d="M187.29 39.73c-3.86-.22-7.63-.34-11.43.44-.61.12-1.03-.56-.6-1.03 1.72-1.89 3.05-4.08 4.06-6.41.23-.52 1.13-.14.92.39a27.16 27.16 0 0 1-3.08 5.53c2-.34 4.04-.42 6.08-.4-.25-.12-.41-.4-.19-.68.41-.53.76-1.11 1.03-1.72-.26-.37-.51-.75-.76-1.12-.35.63-.66 1.27-.99 1.91-.28.54-1.02.06-.79-.46.34-.79.79-1.54 1.27-2.26-.07-.11-.14-.23-.21-.34-.37.43-.77.83-1.21 1.2-.43.36-1.05-.27-.61-.61.51-.4.97-.84 1.38-1.32-.62-1.05-1.2-2.12-1.71-3.2-.43-.91.79-1.64 1.36-.79 1.07 1.61 2 3.31 3.01 4.95 1.01 1.64 2.06 3.26 3.07 4.9.26.42-.08 1.05-.6 1.02zm-3.53-1.47c.71.01 1.41.03 2.11.06-.39-.51-.77-1.04-1.15-1.57-.19.48-.44.93-.76 1.35-.06.07-.13.12-.2.16zM200.81 15.63c3.07 2.35 6.12 4.57 9.7 6.06.57.24.53 1.04-.08 1.19-2.48.6-4.81 1.66-6.97 3.02-.48.3-1.01-.52-.54-.83 1.78-1.19 3.67-2.11 5.66-2.84-1.84-.85-3.58-1.93-5.26-3.09.14.24.11.56-.22.67-.64.21-1.25.49-1.82.84 0 .45 0 .9-.01 1.35.64-.32 1.26-.67 1.9-1.02.53-.29.88.52.4.83-.73.46-1.52.83-2.32 1.16 0 .13-.01.27-.02.4a9.56 9.56 0 0 1 1.68-.31c.56-.06.71.82.16.85-.64.04-1.27.15-1.89.31-.08 1.22-.2 2.42-.39 3.6-.16 1-1.58.91-1.57-.11.02-1.93.21-3.86.3-5.78.09-1.93.13-3.85.22-5.78.02-.5.65-.84 1.07-.52zm2.09 3.21c-.58-.41-1.15-.82-1.72-1.23.03.64.06 1.29.07 1.94.42-.29.89-.52 1.39-.69.1-.03.18-.03.26-.02zM170.69 60.02c3.86.16 7.63.22 11.42-.62.6-.13 1.03.55.62 1.02-1.69 1.91-2.99 4.12-3.97 6.47-.22.52-1.13.15-.92-.37a27.45 27.45 0 0 1 2.99-5.58c-1.99.37-4.04.48-6.08.49.25.12.41.39.2.68-.4.54-.75 1.12-1.01 1.74.26.37.52.74.77 1.11.34-.63.64-1.28.96-1.92.27-.54 1.02-.08.8.45-.33.79-.77 1.55-1.23 2.28l.22.34a9.8 9.8 0 0 1 1.19-1.22c.42-.37 1.05.26.62.61-.5.41-.96.85-1.36 1.34.64 1.04 1.23 2.1 1.76 3.17.44.9-.77 1.65-1.34.81-1.09-1.59-2.04-3.28-3.08-4.9-1.03-1.63-2.11-3.23-3.15-4.85-.25-.43.07-1.07.59-1.05zm3.56 1.42c-.71 0-1.41-.01-2.11-.02.4.51.79 1.02 1.18 1.55.18-.48.43-.93.74-1.36a.51.51 0 0 1 .19-.17z"/><path class="st1" d="M197.74 65.6c-.17-3.86-.43-7.62-1.58-11.33-.18-.59.46-1.08.97-.7 2.05 1.52 4.36 2.63 6.79 3.4.54.17.25 1.11-.29.95-2.05-.61-3.97-1.46-5.81-2.51.53 1.95.82 3.98 1 6.01.09-.26.35-.45.66-.26.57.35 1.18.65 1.82.86.34-.29.69-.58 1.04-.86-.66-.28-1.33-.53-2-.8-.56-.22-.17-1.01.38-.84.82.26 1.61.63 2.37 1.03.11-.08.21-.17.32-.25-.47-.32-.91-.69-1.32-1.09-.4-.39.17-1.07.55-.67.45.46.93.88 1.45 1.25.98-.72 1.99-1.4 3.01-2.02.86-.52 1.71.62.92 1.27-1.49 1.22-3.09 2.32-4.63 3.48-1.53 1.17-3.04 2.38-4.57 3.55-.4.32-1.06.05-1.08-.47zm1.11-3.67c.06.7.11 1.41.16 2.11.47-.44.95-.87 1.44-1.3-.49-.14-.97-.35-1.42-.63a.445.445 0 0 1-.18-.18z"/><path class="st2" d="M158.49 51.17c-2.82-2.64-5.63-5.15-9.05-6.99-.54-.29-.42-1.09.2-1.18 2.53-.35 4.95-1.17 7.23-2.31.51-.25.95.62.46.88-1.89 1-3.86 1.74-5.91 2.27 1.75 1.02 3.37 2.28 4.92 3.6-.12-.25-.06-.57.29-.64.65-.15 1.3-.36 1.9-.66.04-.45.09-.9.14-1.35-.67.26-1.32.55-1.99.83-.56.23-.83-.61-.31-.87.77-.38 1.59-.67 2.42-.92l.06-.4c-.56.09-1.13.14-1.7.15-.56 0-.63-.88-.08-.87.64.02 1.28-.02 1.91-.12.2-1.2.44-2.39.74-3.55.25-.97 1.66-.75 1.55.26-.21 1.92-.59 3.82-.87 5.73-.28 1.91-.51 3.82-.79 5.73-.08.49-.74.76-1.12.41zm-1.77-3.4c.54.46 1.06.93 1.59 1.4.03-.64.07-1.29.12-1.94-.45.24-.93.43-1.45.55-.1.01-.18.01-.26-.01z"/><path class="st1" d="M166.63 17.78c-3.75.94-7.38 1.94-10.79 3.81-.54.3-1.15-.24-.88-.81 1.08-2.31 1.7-4.8 1.98-7.33.06-.56 1.04-.46.99.1-.18 2.13-.64 4.19-1.3 6.2 1.81-.91 3.74-1.59 5.69-2.18-.28-.04-.51-.26-.38-.59.23-.63.4-1.28.48-1.95-.35-.28-.71-.56-1.05-.85-.14.7-.26 1.41-.38 2.12-.1.59-.96.37-.9-.21.09-.85.3-1.7.54-2.53-.1-.09-.2-.18-.31-.26-.22.52-.49 1.03-.8 1.51-.3.47-1.08.05-.77-.4.36-.53.68-1.09.93-1.67-.9-.82-1.77-1.67-2.58-2.55-.68-.74.27-1.8 1.06-1.16 1.49 1.22 2.89 2.57 4.34 3.84 1.45 1.27 2.93 2.5 4.39 3.77.38.31.25 1.02-.26 1.14zm-3.81-.36c.68-.2 1.36-.39 2.04-.57-.52-.38-1.05-.76-1.56-1.16a5.83 5.83 0 0 1-.33 1.52c-.04.09-.09.16-.15.21z"/><path class="st0" d="M187.29 109.73c-3.86-.22-7.63-.34-11.43.44-.61.12-1.03-.56-.6-1.03 1.72-1.89 3.05-4.08 4.06-6.41.23-.52 1.13-.14.92.39a27.16 27.16 0 0 1-3.08 5.53c2-.34 4.04-.42 6.08-.4-.25-.12-.41-.4-.19-.68.41-.53.76-1.11 1.03-1.72-.26-.37-.51-.75-.76-1.12-.35.63-.66 1.27-.99 1.91-.28.54-1.02.06-.79-.46.34-.79.79-1.54 1.27-2.26-.07-.11-.14-.23-.21-.34-.37.43-.77.83-1.21 1.2-.43.36-1.05-.27-.61-.61.51-.4.97-.84 1.38-1.32-.62-1.05-1.2-2.12-1.71-3.2-.43-.91.79-1.64 1.36-.79 1.07 1.61 2 3.31 3.01 4.95 1.01 1.64 2.06 3.26 3.07 4.9.26.42-.08 1.05-.6 1.02zm-3.53-1.47c.71.01 1.41.03 2.11.06-.39-.51-.77-1.04-1.15-1.57-.19.48-.44.93-.76 1.35-.06.07-.13.12-.2.16zM200.81 85.63c3.07 2.35 6.12 4.57 9.7 6.06.57.24.53 1.04-.08 1.19-2.48.6-4.81 1.66-6.97 3.02-.48.3-1.01-.52-.54-.83 1.78-1.19 3.67-2.11 5.66-2.84-1.84-.85-3.58-1.93-5.26-3.09.14.24.11.56-.22.67-.64.21-1.25.49-1.82.84 0 .45 0 .9-.01 1.35.64-.32 1.26-.67 1.9-1.02.53-.29.88.52.4.83-.73.46-1.52.83-2.32 1.16 0 .13-.01.27-.02.4a9.56 9.56 0 0 1 1.68-.31c.56-.06.71.82.16.85-.64.04-1.27.15-1.89.31-.08 1.22-.2 2.42-.39 3.6-.16 1-1.58.91-1.57-.11.02-1.93.21-3.86.3-5.78.09-1.93.13-3.85.22-5.78.02-.5.65-.84 1.07-.52zm2.09 3.21c-.58-.41-1.15-.82-1.72-1.23.03.64.06 1.29.07 1.94.42-.29.89-.52 1.39-.69.1-.03.18-.03.26-.02zM170.69 130.02c3.86.16 7.63.22 11.42-.62.6-.13 1.03.55.62 1.02-1.69 1.91-2.99 4.12-3.97 6.47-.22.52-1.13.15-.92-.37a27.45 27.45 0 0 1 2.99-5.58c-1.99.37-4.04.48-6.08.49.25.12.41.39.2.68-.4.54-.75 1.12-1.01 1.74.26.37.52.74.77 1.11.34-.63.64-1.28.96-1.92.27-.54 1.02-.08.8.45-.33.79-.77 1.55-1.23 2.28l.22.34a9.8 9.8 0 0 1 1.19-1.22c.42-.37 1.05.26.62.61-.5.41-.96.85-1.36 1.34.64 1.04 1.23 2.1 1.76 3.17.44.9-.77 1.65-1.34.81-1.09-1.59-2.04-3.28-3.08-4.9-1.03-1.63-2.11-3.23-3.15-4.85-.25-.43.07-1.07.59-1.05zm3.56 1.42c-.71 0-1.41-.01-2.11-.02.4.51.79 1.02 1.18 1.55.18-.48.43-.93.74-1.36a.51.51 0 0 1 .19-.17z"/><path class="st1" d="M197.74 135.6c-.17-3.86-.43-7.62-1.58-11.33-.18-.59.46-1.08.97-.7 2.05 1.52 4.36 2.63 6.79 3.4.54.17.25 1.11-.29.95-2.05-.61-3.97-1.46-5.81-2.51.53 1.95.82 3.98 1 6.01.09-.26.35-.45.66-.26.57.35 1.18.65 1.82.86.34-.29.69-.58 1.04-.86-.66-.28-1.33-.53-2-.8-.56-.22-.17-1.01.38-.84.82.26 1.61.63 2.37 1.03.11-.08.21-.17.32-.25-.47-.32-.91-.69-1.32-1.09-.4-.39.17-1.07.55-.67.45.46.93.88 1.45 1.25.98-.72 1.99-1.4 3.01-2.02.86-.52 1.71.62.92 1.27-1.49 1.22-3.09 2.32-4.63 3.48-1.53 1.17-3.04 2.38-4.57 3.55-.4.32-1.06.05-1.08-.47zm1.11-3.67c.06.7.11 1.41.16 2.11.47-.44.95-.87 1.44-1.3-.49-.14-.97-.35-1.42-.63a.445.445 0 0 1-.18-.18z"/><path class="st2" d="M158.49 121.17c-2.82-2.64-5.63-5.15-9.05-6.99-.54-.29-.42-1.09.2-1.18 2.53-.35 4.95-1.17 7.23-2.31.51-.25.95.62.46.88-1.89 1-3.86 1.74-5.91 2.27 1.75 1.02 3.37 2.28 4.92 3.6-.12-.25-.06-.57.29-.64.65-.15 1.3-.36 1.9-.66.04-.45.09-.9.14-1.35-.67.26-1.32.55-1.99.83-.56.23-.83-.61-.31-.87.77-.38 1.59-.67 2.42-.92l.06-.4c-.56.09-1.13.14-1.7.15-.56 0-.63-.88-.08-.87.64.02 1.28-.02 1.91-.12.2-1.2.44-2.39.74-3.55.25-.97 1.66-.75 1.55.26-.21 1.92-.59 3.82-.87 5.73-.28 1.91-.51 3.82-.79 5.73-.08.49-.74.76-1.12.41zm-1.77-3.4c.54.46 1.06.93 1.59 1.4.03-.64.07-1.29.12-1.94-.45.24-.93.43-1.45.55-.1.01-.18.01-.26-.01z"/><path class="st1" d="M166.63 87.78c-3.75.94-7.38 1.94-10.79 3.81-.54.3-1.15-.24-.88-.81 1.08-2.31 1.7-4.8 1.98-7.33.06-.56 1.04-.46.99.1-.18 2.13-.64 4.19-1.3 6.2 1.81-.91 3.74-1.59 5.69-2.18-.28-.04-.51-.26-.38-.59.23-.63.4-1.28.48-1.95-.35-.28-.71-.56-1.05-.85-.14.7-.26 1.41-.38 2.12-.1.59-.96.37-.9-.21.09-.85.3-1.7.54-2.53-.1-.09-.2-.18-.31-.26-.22.52-.49 1.03-.8 1.51-.3.47-1.08.05-.77-.4.36-.53.68-1.09.93-1.67-.9-.82-1.77-1.67-2.58-2.55-.68-.74.27-1.8 1.06-1.16 1.49 1.22 2.89 2.57 4.34 3.84 1.45 1.27 2.93 2.5 4.39 3.77.38.31.25 1.02-.26 1.14zm-3.81-.36c.68-.2 1.36-.39 2.04-.57-.52-.38-1.05-.76-1.56-1.16a5.83 5.83 0 0 1-.33 1.52c-.04.09-.09.16-.15.21z"/><path class="st0" d="M187.29 179.73c-3.86-.22-7.63-.34-11.43.44-.61.12-1.03-.56-.6-1.03 1.72-1.89 3.05-4.08 4.06-6.41.23-.52 1.13-.14.92.39a27.16 27.16 0 0 1-3.08 5.53c2-.34 4.04-.42 6.08-.4-.25-.12-.41-.4-.19-.68.41-.53.76-1.11 1.03-1.72-.26-.37-.51-.75-.76-1.12-.35.63-.66 1.27-.99 1.91-.28.54-1.02.06-.79-.46.34-.79.79-1.54 1.27-2.26-.07-.11-.14-.23-.21-.34-.37.43-.77.83-1.21 1.2-.43.36-1.05-.27-.61-.61.51-.4.97-.84 1.38-1.32-.62-1.05-1.2-2.12-1.71-3.2-.43-.91.79-1.64 1.36-.79 1.07 1.61 2 3.31 3.01 4.95 1.01 1.64 2.06 3.26 3.07 4.9.26.42-.08 1.05-.6 1.02zm-3.53-1.47c.71.01 1.41.03 2.11.06-.39-.51-.77-1.04-1.15-1.57-.19.48-.44.93-.76 1.35-.06.07-.13.12-.2.16zM200.81 155.63c3.07 2.35 6.12 4.57 9.7 6.06.57.24.53 1.04-.08 1.19-2.48.6-4.81 1.66-6.97 3.02-.48.3-1.01-.52-.54-.83 1.78-1.19 3.67-2.11 5.66-2.84-1.84-.85-3.58-1.93-5.26-3.09.14.24.11.56-.22.67-.64.21-1.25.49-1.82.84 0 .45 0 .9-.01 1.35.64-.32 1.26-.67 1.9-1.02.53-.29.88.52.4.83-.73.46-1.52.83-2.32 1.16 0 .13-.01.27-.02.4a9.56 9.56 0 0 1 1.68-.31c.56-.06.71.82.16.85-.64.04-1.27.15-1.89.31-.08 1.22-.2 2.42-.39 3.6-.16.99-1.58.91-1.57-.11.02-1.93.21-3.86.3-5.78.09-1.93.13-3.85.22-5.78.02-.5.65-.84 1.07-.52zm2.09 3.21c-.58-.41-1.15-.82-1.72-1.23.03.64.06 1.29.07 1.94.42-.29.89-.52 1.39-.69.1-.03.18-.03.26-.02zM170.69 200.02c3.86.16 7.63.22 11.42-.62.6-.13 1.03.55.62 1.02-1.69 1.91-2.99 4.12-3.97 6.47-.22.52-1.13.15-.92-.37a27.45 27.45 0 0 1 2.99-5.58c-1.99.37-4.04.48-6.08.49.25.12.41.39.2.68-.4.54-.75 1.12-1.01 1.74.26.37.52.74.77 1.11.34-.63.64-1.28.96-1.92.27-.54 1.02-.08.8.45-.33.79-.77 1.55-1.23 2.28l.22.34a9.8 9.8 0 0 1 1.19-1.22c.42-.37 1.05.26.62.61-.5.41-.96.85-1.36 1.34.64 1.04 1.23 2.1 1.76 3.17.44.9-.77 1.65-1.34.81-1.09-1.59-2.04-3.28-3.08-4.9-1.03-1.63-2.11-3.23-3.15-4.85-.25-.43.07-1.07.59-1.05zm3.56 1.42c-.71 0-1.41-.01-2.11-.02.4.51.79 1.02 1.18 1.55.18-.48.43-.93.74-1.36a.51.51 0 0 1 .19-.17z"/><path class="st1" d="M197.74 205.6c-.17-3.86-.43-7.62-1.58-11.33-.18-.59.46-1.08.97-.7 2.05 1.52 4.36 2.63 6.79 3.4.54.17.25 1.11-.29.95-2.05-.61-3.97-1.46-5.81-2.51.53 1.95.82 3.98 1 6.01.09-.26.35-.45.66-.26.57.35 1.18.65 1.82.86.34-.29.69-.58 1.04-.86-.66-.28-1.33-.53-2-.8-.56-.22-.17-1.01.38-.84.82.26 1.61.63 2.37 1.03.11-.08.21-.17.32-.25-.47-.32-.91-.69-1.32-1.09-.4-.39.17-1.07.55-.67.45.46.93.88 1.45 1.25.98-.72 1.99-1.4 3.01-2.02.86-.52 1.71.62.92 1.27-1.49 1.22-3.09 2.32-4.63 3.48-1.53 1.17-3.04 2.38-4.57 3.55-.4.32-1.06.05-1.08-.47zm1.11-3.67c.06.7.11 1.41.16 2.11.47-.44.95-.87 1.44-1.3-.49-.14-.97-.35-1.42-.63a.445.445 0 0 1-.18-.18z"/><path class="st2" d="M158.49 191.17c-2.82-2.64-5.63-5.15-9.05-6.99-.54-.29-.42-1.09.2-1.18 2.53-.35 4.95-1.17 7.23-2.31.51-.25.95.62.46.88-1.89 1-3.86 1.74-5.91 2.27 1.75 1.02 3.37 2.28 4.92 3.6-.12-.25-.06-.57.29-.64.65-.15 1.3-.36 1.9-.66.04-.45.09-.9.14-1.35-.67.26-1.32.55-1.99.83-.56.23-.83-.61-.31-.87.77-.38 1.59-.67 2.42-.92l.06-.4c-.56.09-1.13.14-1.7.15-.56 0-.63-.88-.08-.87.64.02 1.28-.02 1.91-.12.2-1.2.44-2.39.74-3.55.25-.97 1.66-.75 1.55.26-.21 1.92-.59 3.82-.87 5.73-.28 1.91-.51 3.82-.79 5.73-.08.49-.74.76-1.12.41zm-1.77-3.4c.54.46 1.06.93 1.59 1.4.03-.64.07-1.29.12-1.94-.45.24-.93.43-1.45.55-.1.01-.18.01-.26-.01z"/><path class="st1" d="M166.63 157.78c-3.75.94-7.38 1.94-10.79 3.81-.54.3-1.15-.24-.88-.81 1.08-2.31 1.7-4.8 1.98-7.33.06-.56 1.04-.46.99.1-.18 2.13-.64 4.19-1.3 6.2 1.81-.91 3.74-1.59 5.69-2.18-.28-.04-.51-.26-.38-.59.23-.63.4-1.28.48-1.95-.35-.28-.71-.56-1.05-.85-.14.7-.26 1.41-.38 2.12-.1.59-.96.37-.9-.21.09-.85.3-1.7.54-2.53-.1-.09-.2-.18-.31-.26-.22.52-.49 1.03-.8 1.51-.3.47-1.08.05-.77-.4.36-.53.68-1.09.93-1.67-.9-.82-1.77-1.67-2.58-2.55-.68-.74.27-1.8 1.06-1.16 1.49 1.22 2.89 2.57 4.34 3.84 1.45 1.27 2.93 2.5 4.39 3.77.38.31.25 1.02-.26 1.14zm-3.81-.36c.68-.2 1.36-.39 2.04-.57-.52-.38-1.05-.76-1.56-1.16a5.83 5.83 0 0 1-.33 1.52c-.04.09-.09.16-.15.21z"/><g><path class="st0" d="M187.29 249.73c-3.86-.22-7.63-.34-11.43.44-.61.12-1.03-.56-.6-1.03 1.72-1.89 3.05-4.08 4.06-6.41.23-.52 1.13-.14.92.39a27.16 27.16 0 0 1-3.08 5.53c2-.34 4.04-.42 6.08-.4-.25-.12-.41-.4-.19-.68.41-.53.76-1.11 1.03-1.72-.26-.37-.51-.75-.76-1.12-.35.63-.66 1.27-.99 1.91-.28.54-1.02.06-.79-.46.34-.79.79-1.54 1.27-2.26-.07-.11-.14-.23-.21-.34-.37.43-.77.83-1.21 1.2-.43.36-1.05-.27-.61-.61.51-.4.97-.84 1.38-1.32-.62-1.05-1.2-2.12-1.71-3.2-.43-.91.79-1.64 1.36-.79 1.07 1.61 2 3.31 3.01 4.95 1.01 1.64 2.06 3.26 3.07 4.9.26.42-.08 1.05-.6 1.02zm-3.53-1.47c.71.01 1.41.03 2.11.06-.39-.51-.77-1.04-1.15-1.57-.19.48-.44.93-.76 1.35-.06.07-.13.12-.2.16zM200.81 225.63c3.07 2.35 6.12 4.57 9.7 6.06.57.24.53 1.04-.08 1.19-2.48.6-4.81 1.66-6.97 3.02-.48.3-1.01-.52-.54-.83 1.78-1.19 3.67-2.11 5.66-2.84-1.84-.85-3.58-1.93-5.26-3.09.14.24.11.56-.22.67-.64.21-1.25.49-1.82.84 0 .45 0 .9-.01 1.35.64-.32 1.26-.67 1.9-1.02.53-.29.88.52.4.83-.73.46-1.52.83-2.32 1.16 0 .13-.01.27-.02.4a9.56 9.56 0 0 1 1.68-.31c.56-.06.71.82.16.85-.64.04-1.27.15-1.89.31-.08 1.22-.2 2.42-.39 3.6-.16.99-1.58.91-1.57-.11.02-1.93.21-3.86.3-5.78.09-1.93.13-3.85.22-5.78.02-.5.65-.84 1.07-.52zm2.09 3.21c-.58-.41-1.15-.82-1.72-1.23.03.64.06 1.29.07 1.94.42-.29.89-.52 1.39-.69.1-.03.18-.03.26-.02zM170.69 270.02c3.86.16 7.63.22 11.42-.62.6-.13 1.03.55.62 1.02-1.69 1.91-2.99 4.12-3.97 6.47-.22.52-1.13.15-.92-.37a27.45 27.45 0 0 1 2.99-5.58c-1.99.37-4.04.48-6.08.49.25.12.41.39.2.68-.4.54-.75 1.12-1.01 1.74.26.37.52.74.77 1.11.34-.63.64-1.28.96-1.92.27-.54 1.02-.08.8.45-.33.79-.77 1.55-1.23 2.28l.22.34a9.8 9.8 0 0 1 1.19-1.22c.42-.37 1.05.26.62.61-.5.41-.96.85-1.36 1.34.64 1.04 1.23 2.1 1.76 3.17.44.9-.77 1.65-1.34.81-1.09-1.59-2.04-3.28-3.08-4.9-1.03-1.63-2.11-3.23-3.15-4.85-.25-.43.07-1.07.59-1.05zm3.56 1.42c-.71 0-1.41-.01-2.11-.02.4.51.79 1.02 1.18 1.55.18-.48.43-.93.74-1.36a.51.51 0 0 1 .19-.17z"/><path class="st1" d="M197.74 275.6c-.17-3.86-.43-7.62-1.58-11.33-.18-.59.46-1.08.97-.7 2.05 1.52 4.36 2.63 6.79 3.4.54.17.25 1.11-.29.95-2.05-.61-3.97-1.46-5.81-2.51.53 1.95.82 3.98 1 6.01.09-.26.35-.45.66-.26.57.35 1.18.65 1.82.86.34-.29.69-.58 1.04-.86-.66-.28-1.33-.53-2-.8-.56-.22-.17-1.01.38-.84.82.26 1.61.63 2.37 1.03.11-.08.21-.17.32-.25-.47-.32-.91-.69-1.32-1.09-.4-.39.17-1.07.55-.67.45.46.93.88 1.45 1.25.98-.72 1.99-1.4 3.01-2.02.86-.52 1.71.62.92 1.27-1.49 1.22-3.09 2.32-4.63 3.48-1.53 1.17-3.04 2.38-4.57 3.55-.4.32-1.06.05-1.08-.47zm1.11-3.67c.06.7.11 1.41.16 2.11.47-.44.95-.87 1.44-1.3-.49-.14-.97-.35-1.42-.63a.445.445 0 0 1-.18-.18z"/><path class="st2" d="M158.49 261.17c-2.82-2.64-5.63-5.15-9.05-6.99-.54-.29-.42-1.09.2-1.18 2.53-.35 4.95-1.17 7.23-2.31.51-.25.95.62.46.88-1.89 1-3.86 1.74-5.91 2.27 1.75 1.02 3.37 2.28 4.92 3.6-.12-.25-.06-.57.29-.64.65-.15 1.3-.36 1.9-.66.04-.45.09-.9.14-1.35-.67.26-1.32.55-1.99.83-.56.23-.83-.61-.31-.87.77-.38 1.59-.67 2.42-.92l.06-.4c-.56.09-1.13.14-1.7.15-.56 0-.63-.88-.08-.87.64.02 1.28-.02 1.91-.12.2-1.2.44-2.39.74-3.55.25-.97 1.66-.75 1.55.26-.21 1.92-.59 3.82-.87 5.73-.28 1.91-.51 3.82-.79 5.73-.08.49-.74.76-1.12.41zm-1.77-3.4c.54.46 1.06.93 1.59 1.4.03-.64.07-1.29.12-1.94-.45.24-.93.43-1.45.55-.1.01-.18.01-.26-.01z"/><path class="st1" d="M166.63 227.78c-3.75.94-7.38 1.94-10.79 3.81-.54.3-1.15-.24-.88-.81 1.08-2.31 1.7-4.8 1.98-7.33.06-.56 1.04-.46.99.1-.18 2.13-.64 4.19-1.3 6.2 1.81-.91 3.74-1.59 5.69-2.18-.28-.04-.51-.26-.38-.59.23-.63.4-1.28.48-1.95-.35-.28-.71-.56-1.05-.85-.14.7-.26 1.41-.38 2.12-.1.59-.96.37-.9-.21.09-.85.3-1.7.54-2.53-.1-.09-.2-.18-.31-.26-.22.52-.49 1.03-.8 1.51-.3.47-1.08.05-.77-.4.36-.53.68-1.09.93-1.67-.9-.82-1.77-1.67-2.58-2.55-.68-.74.27-1.8 1.06-1.16 1.49 1.22 2.89 2.57 4.34 3.84 1.45 1.27 2.93 2.5 4.39 3.77.38.31.25 1.02-.26 1.14zm-3.81-.36c.68-.2 1.36-.39 2.04-.57-.52-.38-1.05-.76-1.56-1.16a5.83 5.83 0 0 1-.33 1.52c-.04.09-.09.16-.15.21z"/></g><g><path class="st0" d="M187.29 319.73c-3.86-.22-7.63-.34-11.43.44-.61.12-1.03-.56-.6-1.03 1.72-1.89 3.05-4.08 4.06-6.41.23-.52 1.13-.14.92.39a27.16 27.16 0 0 1-3.08 5.53c2-.34 4.04-.42 6.08-.4-.25-.12-.41-.4-.19-.68.41-.53.76-1.11 1.03-1.72-.26-.37-.51-.75-.76-1.12-.35.63-.66 1.27-.99 1.91-.28.54-1.02.06-.79-.46.34-.79.79-1.54 1.27-2.26-.07-.11-.14-.23-.21-.34-.37.43-.77.83-1.21 1.2-.43.36-1.05-.27-.61-.61.51-.4.97-.84 1.38-1.32-.62-1.05-1.2-2.12-1.71-3.2-.43-.91.79-1.64 1.36-.79 1.07 1.61 2 3.31 3.01 4.95 1.01 1.64 2.06 3.26 3.07 4.9.26.42-.08 1.05-.6 1.02zm-3.53-1.47c.71.01 1.41.03 2.11.06-.39-.51-.77-1.04-1.15-1.57-.19.48-.44.93-.76 1.35-.06.07-.13.12-.2.16zM200.81 295.63c3.07 2.35 6.12 4.57 9.7 6.06.57.24.53 1.04-.08 1.19-2.48.6-4.81 1.66-6.97 3.02-.48.3-1.01-.52-.54-.83 1.78-1.19 3.67-2.11 5.66-2.84-1.84-.85-3.58-1.93-5.26-3.09.14.24.11.56-.22.67-.64.21-1.25.49-1.82.84 0 .45 0 .9-.01 1.35.64-.32 1.26-.67 1.9-1.02.53-.29.88.52.4.83-.73.46-1.52.83-2.32 1.16 0 .13-.01.27-.02.4a9.56 9.56 0 0 1 1.68-.31c.56-.06.71.82.16.85-.64.04-1.27.15-1.89.31-.08 1.22-.2 2.42-.39 3.6-.16.99-1.58.91-1.57-.11.02-1.93.21-3.86.3-5.78.09-1.93.13-3.85.22-5.78.02-.5.65-.84 1.07-.52zm2.09 3.21c-.58-.41-1.15-.82-1.72-1.23.03.64.06 1.29.07 1.94.42-.29.89-.52 1.39-.69.1-.03.18-.03.26-.02zM170.69 340.02c3.86.16 7.63.22 11.42-.62.6-.13 1.03.55.62 1.02-1.69 1.91-2.99 4.12-3.97 6.47-.22.52-1.13.15-.92-.37a27.45 27.45 0 0 1 2.99-5.58c-1.99.37-4.04.48-6.08.49.25.12.41.39.2.68-.4.54-.75 1.12-1.01 1.74.26.37.52.74.77 1.11.34-.63.64-1.28.96-1.92.27-.54 1.02-.08.8.45-.33.79-.77 1.55-1.23 2.28l.22.34a9.8 9.8 0 0 1 1.19-1.22c.42-.37 1.05.26.62.61-.5.41-.96.85-1.36 1.34.64 1.04 1.23 2.1 1.76 3.17.44.9-.77 1.65-1.34.81-1.09-1.59-2.04-3.28-3.08-4.9-1.03-1.63-2.11-3.23-3.15-4.85-.25-.43.07-1.07.59-1.05zm3.56 1.42c-.71 0-1.41-.01-2.11-.02.4.51.79 1.02 1.18 1.55.18-.48.43-.93.74-1.36a.51.51 0 0 1 .19-.17z"/><path class="st1" d="M197.74 345.6c-.17-3.86-.43-7.62-1.58-11.33-.18-.59.46-1.08.97-.7 2.05 1.52 4.36 2.63 6.79 3.4.54.17.25 1.11-.29.95-2.05-.61-3.97-1.46-5.81-2.51.53 1.95.82 3.98 1 6.01.09-.26.35-.45.66-.26.57.35 1.18.65 1.82.86.34-.29.69-.58 1.04-.86-.66-.28-1.33-.53-2-.8-.56-.22-.17-1.01.38-.84.82.26 1.61.63 2.37 1.03.11-.08.21-.17.32-.25-.47-.32-.91-.69-1.32-1.09-.4-.39.17-1.07.55-.67.45.46.93.88 1.45 1.25.98-.72 1.99-1.4 3.01-2.02.86-.52 1.71.62.92 1.27-1.49 1.22-3.09 2.32-4.63 3.48-1.53 1.17-3.04 2.38-4.57 3.55-.4.32-1.06.05-1.08-.47zm1.11-3.67c.06.7.11 1.41.16 2.11.47-.44.95-.87 1.44-1.3-.49-.14-.97-.35-1.42-.63a.445.445 0 0 1-.18-.18z"/><path class="st2" d="M158.49 331.17c-2.82-2.64-5.63-5.15-9.05-6.99-.54-.29-.42-1.09.2-1.18 2.53-.35 4.95-1.17 7.23-2.31.51-.25.95.62.46.88-1.89 1-3.86 1.74-5.91 2.27 1.75 1.02 3.37 2.28 4.92 3.6-.12-.25-.06-.57.29-.64.65-.15 1.3-.36 1.9-.66.04-.45.09-.9.14-1.35-.67.26-1.32.55-1.99.83-.56.23-.83-.61-.31-.87.77-.38 1.59-.67 2.42-.92l.06-.4c-.56.09-1.13.14-1.7.15-.56 0-.63-.88-.08-.87.64.02 1.28-.02 1.91-.12.2-1.2.44-2.39.74-3.55.25-.97 1.66-.75 1.55.26-.21 1.92-.59 3.82-.87 5.73-.28 1.91-.51 3.82-.79 5.73-.08.49-.74.76-1.12.41zm-1.77-3.4c.54.46 1.06.93 1.59 1.4.03-.64.07-1.29.12-1.94-.45.24-.93.43-1.45.55-.1.01-.18.01-.26-.01z"/><path class="st1" d="M166.63 297.78c-3.75.94-7.38 1.94-10.79 3.81-.54.3-1.15-.24-.88-.81 1.08-2.31 1.7-4.8 1.98-7.33.06-.56 1.04-.46.99.1-.18 2.13-.64 4.19-1.3 6.2 1.81-.91 3.74-1.59 5.69-2.18-.28-.04-.51-.26-.38-.59.23-.63.4-1.28.48-1.95-.35-.28-.71-.56-1.05-.85-.14.7-.26 1.41-.38 2.12-.1.59-.96.37-.9-.21.09-.85.3-1.7.54-2.53-.1-.09-.2-.18-.31-.26-.22.52-.49 1.03-.8 1.51-.3.47-1.08.05-.77-.4.36-.53.68-1.09.93-1.67-.9-.82-1.77-1.67-2.58-2.55-.68-.74.27-1.8 1.06-1.16 1.49 1.22 2.89 2.57 4.34 3.84 1.45 1.27 2.93 2.5 4.39 3.77.38.31.25 1.02-.26 1.14zm-3.81-.36c.68-.2 1.36-.39 2.04-.57-.52-.38-1.05-.76-1.56-1.16a5.83 5.83 0 0 1-.33 1.52c-.04.09-.09.16-.15.21z"/></g><g><path class="st0" d="M117.29 39.73c-3.86-.22-7.63-.34-11.43.44-.61.12-1.03-.56-.6-1.03 1.72-1.89 3.05-4.08 4.06-6.41.23-.52 1.13-.14.92.39a27.16 27.16 0 0 1-3.08 5.53c2-.34 4.04-.42 6.08-.4-.25-.12-.41-.4-.19-.68.41-.53.76-1.11 1.03-1.72-.26-.37-.51-.75-.76-1.12-.35.63-.66 1.27-.99 1.91-.28.54-1.02.06-.79-.46.34-.79.79-1.54 1.27-2.26-.07-.11-.14-.23-.21-.34-.37.43-.77.83-1.21 1.2-.43.36-1.05-.27-.61-.61.51-.4.97-.84 1.38-1.32-.62-1.05-1.2-2.12-1.71-3.2-.43-.91.79-1.64 1.36-.79 1.07 1.61 2 3.31 3.01 4.95 1.01 1.64 2.06 3.26 3.07 4.9.26.42-.08 1.05-.6 1.02zm-3.53-1.47c.71.01 1.41.03 2.11.06-.39-.51-.77-1.04-1.15-1.57-.19.48-.44.93-.76 1.35-.06.07-.13.12-.2.16zM130.81 15.63c3.07 2.35 6.12 4.57 9.7 6.06.57.24.53 1.04-.08 1.19-2.48.6-4.81 1.66-6.97 3.02-.48.3-1.01-.52-.54-.83 1.78-1.19 3.67-2.11 5.66-2.84-1.84-.85-3.58-1.93-5.26-3.09.14.24.11.56-.22.67-.64.21-1.25.49-1.82.84 0 .45 0 .9-.01 1.35.64-.32 1.26-.67 1.9-1.02.53-.29.88.52.4.83-.73.46-1.52.83-2.32 1.16 0 .13-.01.27-.02.4a9.56 9.56 0 0 1 1.68-.31c.56-.06.71.82.16.85-.64.04-1.27.15-1.89.31-.08 1.22-.2 2.42-.39 3.6-.16 1-1.58.91-1.57-.11.02-1.93.21-3.86.3-5.78.09-1.93.13-3.85.22-5.78.02-.5.65-.84 1.07-.52zm2.09 3.21c-.58-.41-1.15-.82-1.72-1.23.03.64.06 1.29.07 1.94.42-.29.89-.52 1.39-.69.1-.03.18-.03.26-.02zM100.69 60.02c3.86.16 7.63.22 11.42-.62.6-.13 1.03.55.62 1.02-1.69 1.91-2.99 4.12-3.96 6.47-.22.52-1.13.15-.92-.37a27.45 27.45 0 0 1 2.99-5.58c-1.99.37-4.04.48-6.08.49.25.12.41.39.2.68-.4.54-.75 1.12-1.01 1.74.26.37.52.74.77 1.11.34-.63.64-1.28.96-1.92.27-.54 1.02-.08.8.45-.33.79-.77 1.55-1.23 2.28l.22.34a9.8 9.8 0 0 1 1.19-1.22c.42-.37 1.05.26.62.61-.5.41-.96.85-1.36 1.34.64 1.04 1.23 2.1 1.76 3.17.44.9-.77 1.65-1.34.81-1.09-1.59-2.04-3.28-3.08-4.9-1.03-1.63-2.11-3.23-3.15-4.85-.26-.43.06-1.07.58-1.05zm3.56 1.42c-.71 0-1.41-.01-2.11-.02.4.51.79 1.02 1.18 1.55.18-.48.43-.93.74-1.36a.51.51 0 0 1 .19-.17z"/><path class="st1" d="M127.74 65.6c-.17-3.86-.43-7.62-1.58-11.33-.18-.59.46-1.08.97-.7 2.05 1.52 4.36 2.63 6.79 3.4.54.17.25 1.11-.29.95-2.05-.61-3.97-1.46-5.81-2.51.53 1.95.82 3.98 1 6.01.09-.26.35-.45.66-.26.57.35 1.18.65 1.82.86.34-.29.69-.58 1.04-.86-.66-.28-1.33-.53-2-.8-.56-.22-.17-1.01.38-.84.82.26 1.61.63 2.37 1.03.11-.08.21-.17.32-.25-.47-.32-.91-.69-1.32-1.09-.4-.39.17-1.07.55-.67.45.46.93.88 1.45 1.25.98-.72 1.99-1.4 3.01-2.02.86-.52 1.71.62.92 1.27-1.49 1.22-3.09 2.32-4.63 3.48-1.53 1.17-3.04 2.38-4.57 3.55-.4.32-1.06.05-1.08-.47zm1.11-3.67c.06.7.11 1.41.16 2.11.47-.44.95-.87 1.44-1.3-.49-.14-.97-.35-1.42-.63a.445.445 0 0 1-.18-.18z"/><path class="st2" d="M88.49 51.17c-2.82-2.64-5.63-5.15-9.05-6.99-.54-.29-.42-1.09.2-1.18 2.53-.35 4.95-1.17 7.23-2.31.51-.25.95.62.46.88-1.89 1-3.86 1.74-5.91 2.27 1.75 1.02 3.37 2.28 4.92 3.6-.12-.25-.06-.57.29-.64.65-.15 1.3-.36 1.9-.66.04-.45.09-.9.14-1.35-.67.26-1.32.55-1.99.83-.56.23-.83-.61-.31-.87.77-.38 1.59-.67 2.42-.92l.06-.4c-.56.09-1.13.14-1.7.15-.56 0-.63-.88-.08-.87.64.02 1.28-.02 1.91-.12.2-1.2.44-2.39.74-3.55.25-.97 1.66-.75 1.55.26-.21 1.92-.59 3.82-.87 5.73-.28 1.91-.51 3.82-.79 5.73-.08.49-.74.76-1.12.41zm-1.77-3.4c.54.46 1.06.93 1.59 1.4.03-.64.07-1.29.12-1.94-.45.24-.93.43-1.45.55-.1.01-.18.01-.26-.01z"/><path class="st1" d="M96.63 17.78c-3.75.94-7.38 1.94-10.79 3.81-.54.3-1.15-.24-.88-.81 1.08-2.31 1.7-4.8 1.98-7.33.06-.56 1.04-.46.99.1-.18 2.13-.64 4.19-1.3 6.2 1.81-.91 3.74-1.59 5.69-2.18-.28-.04-.51-.26-.38-.59.23-.63.4-1.28.48-1.95-.35-.28-.71-.56-1.05-.85-.14.7-.26 1.41-.38 2.12-.1.59-.96.37-.9-.21.09-.85.3-1.7.54-2.53-.1-.09-.2-.18-.31-.26-.22.52-.49 1.03-.8 1.51-.3.47-1.08.05-.77-.4.36-.53.68-1.09.93-1.67-.9-.82-1.77-1.67-2.58-2.55-.68-.74.27-1.8 1.06-1.16 1.49 1.22 2.89 2.57 4.34 3.84 1.45 1.27 2.93 2.5 4.39 3.77.38.31.25 1.02-.26 1.14zm-3.81-.36c.68-.2 1.36-.39 2.04-.57-.52-.38-1.05-.76-1.56-1.16a5.83 5.83 0 0 1-.33 1.52c-.04.09-.09.16-.15.21z"/></g><g><path class="st0" d="M117.29 109.73c-3.86-.22-7.63-.34-11.43.44-.61.12-1.03-.56-.6-1.03 1.72-1.89 3.05-4.08 4.06-6.41.23-.52 1.13-.14.92.39a27.16 27.16 0 0 1-3.08 5.53c2-.34 4.04-.42 6.08-.4-.25-.12-.41-.4-.19-.68.41-.53.76-1.11 1.03-1.72-.26-.37-.51-.75-.76-1.12-.35.63-.66 1.27-.99 1.91-.28.54-1.02.06-.79-.46.34-.79.79-1.54 1.27-2.26-.07-.11-.14-.23-.21-.34-.37.43-.77.83-1.21 1.2-.43.36-1.05-.27-.61-.61.51-.4.97-.84 1.38-1.32-.62-1.05-1.2-2.12-1.71-3.2-.43-.91.79-1.64 1.36-.79 1.07 1.61 2 3.31 3.01 4.95 1.01 1.64 2.06 3.26 3.07 4.9.26.42-.08 1.05-.6 1.02zm-3.53-1.47c.71.01 1.41.03 2.11.06-.39-.51-.77-1.04-1.15-1.57-.19.48-.44.93-.76 1.35-.06.07-.13.12-.2.16zM130.81 85.63c3.07 2.35 6.12 4.57 9.7 6.06.57.24.53 1.04-.08 1.19-2.48.6-4.81 1.66-6.97 3.02-.48.3-1.01-.52-.54-.83 1.78-1.19 3.67-2.11 5.66-2.84-1.84-.85-3.58-1.93-5.26-3.09.14.24.11.56-.22.67-.64.21-1.25.49-1.82.84 0 .45 0 .9-.01 1.35.64-.32 1.26-.67 1.9-1.02.53-.29.88.52.4.83-.73.46-1.52.83-2.32 1.16 0 .13-.01.27-.02.4a9.56 9.56 0 0 1 1.68-.31c.56-.06.71.82.16.85-.64.04-1.27.15-1.89.31-.08 1.22-.2 2.42-.39 3.6-.16 1-1.58.91-1.57-.11.02-1.93.21-3.86.3-5.78.09-1.93.13-3.85.22-5.78.02-.5.65-.84 1.07-.52zm2.09 3.21c-.58-.41-1.15-.82-1.72-1.23.03.64.06 1.29.07 1.94.42-.29.89-.52 1.39-.69.1-.03.18-.03.26-.02zM100.69 130.02c3.86.16 7.63.22 11.42-.62.6-.13 1.03.55.62 1.02-1.69 1.91-2.99 4.12-3.96 6.47-.22.52-1.13.15-.92-.37a27.45 27.45 0 0 1 2.99-5.58c-1.99.37-4.04.48-6.08.49.25.12.41.39.2.68-.4.54-.75 1.12-1.01 1.74.26.37.52.74.77 1.11.34-.63.64-1.28.96-1.92.27-.54 1.02-.08.8.45-.33.79-.77 1.55-1.23 2.28l.22.34a9.8 9.8 0 0 1 1.19-1.22c.42-.37 1.05.26.62.61-.5.41-.96.85-1.36 1.34.64 1.04 1.23 2.1 1.76 3.17.44.9-.77 1.65-1.34.81-1.09-1.59-2.04-3.28-3.08-4.9-1.03-1.63-2.11-3.23-3.15-4.85-.26-.43.06-1.07.58-1.05zm3.56 1.42c-.71 0-1.41-.01-2.11-.02.4.51.79 1.02 1.18 1.55.18-.48.43-.93.74-1.36a.51.51 0 0 1 .19-.17z"/><path class="st1" d="M127.74 135.6c-.17-3.86-.43-7.62-1.58-11.33-.18-.59.46-1.08.97-.7 2.05 1.52 4.36 2.63 6.79 3.4.54.17.25 1.11-.29.95-2.05-.61-3.97-1.46-5.81-2.51.53 1.95.82 3.98 1 6.01.09-.26.35-.45.66-.26.57.35 1.18.65 1.82.86.34-.29.69-.58 1.04-.86-.66-.28-1.33-.53-2-.8-.56-.22-.17-1.01.38-.84.82.26 1.61.63 2.37 1.03.11-.08.21-.17.32-.25-.47-.32-.91-.69-1.32-1.09-.4-.39.17-1.07.55-.67.45.46.93.88 1.45 1.25.98-.72 1.99-1.4 3.01-2.02.86-.52 1.71.62.92 1.27-1.49 1.22-3.09 2.32-4.63 3.48-1.53 1.17-3.04 2.38-4.57 3.55-.4.32-1.06.05-1.08-.47zm1.11-3.67c.06.7.11 1.41.16 2.11.47-.44.95-.87 1.44-1.3-.49-.14-.97-.35-1.42-.63a.445.445 0 0 1-.18-.18z"/><path class="st2" d="M88.49 121.17c-2.82-2.64-5.63-5.15-9.05-6.99-.54-.29-.42-1.09.2-1.18 2.53-.35 4.95-1.17 7.23-2.31.51-.25.95.62.46.88-1.89 1-3.86 1.74-5.91 2.27 1.75 1.02 3.37 2.28 4.92 3.6-.12-.25-.06-.57.29-.64.65-.15 1.3-.36 1.9-.66.04-.45.09-.9.14-1.35-.67.26-1.32.55-1.99.83-.56.23-.83-.61-.31-.87.77-.38 1.59-.67 2.42-.92l.06-.4c-.56.09-1.13.14-1.7.15-.56 0-.63-.88-.08-.87.64.02 1.28-.02 1.91-.12.2-1.2.44-2.39.74-3.55.25-.97 1.66-.75 1.55.26-.21 1.92-.59 3.82-.87 5.73-.28 1.91-.51 3.82-.79 5.73-.08.49-.74.76-1.12.41zm-1.77-3.4c.54.46 1.06.93 1.59 1.4.03-.64.07-1.29.12-1.94-.45.24-.93.43-1.45.55-.1.01-.18.01-.26-.01z"/><path class="st1" d="M96.63 87.78c-3.75.94-7.38 1.94-10.79 3.81-.54.3-1.15-.24-.88-.81 1.08-2.31 1.7-4.8 1.98-7.33.06-.56 1.04-.46.99.1-.18 2.13-.64 4.19-1.3 6.2 1.81-.91 3.74-1.59 5.69-2.18-.28-.04-.51-.26-.38-.59.23-.63.4-1.28.48-1.95-.35-.28-.71-.56-1.05-.85-.14.7-.26 1.41-.38 2.12-.1.59-.96.37-.9-.21.09-.85.3-1.7.54-2.53-.1-.09-.2-.18-.31-.26-.22.52-.49 1.03-.8 1.51-.3.47-1.08.05-.77-.4.36-.53.68-1.09.93-1.67-.9-.82-1.77-1.67-2.58-2.55-.68-.74.27-1.8 1.06-1.16 1.49 1.22 2.89 2.57 4.34 3.84 1.45 1.27 2.93 2.5 4.39 3.77.38.31.25 1.02-.26 1.14zm-3.81-.36c.68-.2 1.36-.39 2.04-.57-.52-.38-1.05-.76-1.56-1.16a5.83 5.83 0 0 1-.33 1.52c-.04.09-.09.16-.15.21z"/></g><g><path class="st0" d="M117.29 179.73c-3.86-.22-7.63-.34-11.43.44-.61.12-1.03-.56-.6-1.03 1.72-1.89 3.05-4.08 4.06-6.41.23-.52 1.13-.14.92.39a27.16 27.16 0 0 1-3.08 5.53c2-.34 4.04-.42 6.08-.4-.25-.12-.41-.4-.19-.68.41-.53.76-1.11 1.03-1.72-.26-.37-.51-.75-.76-1.12-.35.63-.66 1.27-.99 1.91-.28.54-1.02.06-.79-.46.34-.79.79-1.54 1.27-2.26-.07-.11-.14-.23-.21-.34-.37.43-.77.83-1.21 1.2-.43.36-1.05-.27-.61-.61.51-.4.97-.84 1.38-1.32-.62-1.05-1.2-2.12-1.71-3.2-.43-.91.79-1.64 1.36-.79 1.07 1.61 2 3.31 3.01 4.95 1.01 1.64 2.06 3.26 3.07 4.9.26.42-.08 1.05-.6 1.02zm-3.53-1.47c.71.01 1.41.03 2.11.06-.39-.51-.77-1.04-1.15-1.57-.19.48-.44.93-.76 1.35-.06.07-.13.12-.2.16zM130.81 155.63c3.07 2.35 6.12 4.57 9.7 6.06.57.24.53 1.04-.08 1.19-2.48.6-4.81 1.66-6.97 3.02-.48.3-1.01-.52-.54-.83 1.78-1.19 3.67-2.11 5.66-2.84-1.84-.85-3.58-1.93-5.26-3.09.14.24.11.56-.22.67-.64.21-1.25.49-1.82.84 0 .45 0 .9-.01 1.35.64-.32 1.26-.67 1.9-1.02.53-.29.88.52.4.83-.73.46-1.52.83-2.32 1.16 0 .13-.01.27-.02.4a9.56 9.56 0 0 1 1.68-.31c.56-.06.71.82.16.85-.64.04-1.27.15-1.89.31-.08 1.22-.2 2.42-.39 3.6-.16.99-1.58.91-1.57-.11.02-1.93.21-3.86.3-5.78.09-1.93.13-3.85.22-5.78.02-.5.65-.84 1.07-.52zm2.09 3.21c-.58-.41-1.15-.82-1.72-1.23.03.64.06 1.29.07 1.94.42-.29.89-.52 1.39-.69.1-.03.18-.03.26-.02zM100.69 200.02c3.86.16 7.63.22 11.42-.62.6-.13 1.03.55.62 1.02-1.69 1.91-2.99 4.12-3.96 6.47-.22.52-1.13.15-.92-.37a27.45 27.45 0 0 1 2.99-5.58c-1.99.37-4.04.48-6.08.49.25.12.41.39.2.68-.4.54-.75 1.12-1.01 1.74.26.37.52.74.77 1.11.34-.63.64-1.28.96-1.92.27-.54 1.02-.08.8.45-.33.79-.77 1.55-1.23 2.28l.22.34a9.8 9.8 0 0 1 1.19-1.22c.42-.37 1.05.26.62.61-.5.41-.96.85-1.36 1.34.64 1.04 1.23 2.1 1.76 3.17.44.9-.77 1.65-1.34.81-1.09-1.59-2.04-3.28-3.08-4.9-1.03-1.63-2.11-3.23-3.15-4.85-.26-.43.06-1.07.58-1.05zm3.56 1.42c-.71 0-1.41-.01-2.11-.02.4.51.79 1.02 1.18 1.55.18-.48.43-.93.74-1.36a.51.51 0 0 1 .19-.17z"/><path class="st1" d="M127.74 205.6c-.17-3.86-.43-7.62-1.58-11.33-.18-.59.46-1.08.97-.7 2.05 1.52 4.36 2.63 6.79 3.4.54.17.25 1.11-.29.95-2.05-.61-3.97-1.46-5.81-2.51.53 1.95.82 3.98 1 6.01.09-.26.35-.45.66-.26.57.35 1.18.65 1.82.86.34-.29.69-.58 1.04-.86-.66-.28-1.33-.53-2-.8-.56-.22-.17-1.01.38-.84.82.26 1.61.63 2.37 1.03.11-.08.21-.17.32-.25-.47-.32-.91-.69-1.32-1.09-.4-.39.17-1.07.55-.67.45.46.93.88 1.45 1.25.98-.72 1.99-1.4 3.01-2.02.86-.52 1.71.62.92 1.27-1.49 1.22-3.09 2.32-4.63 3.48-1.53 1.17-3.04 2.38-4.57 3.55-.4.32-1.06.05-1.08-.47zm1.11-3.67c.06.7.11 1.41.16 2.11.47-.44.95-.87 1.44-1.3-.49-.14-.97-.35-1.42-.63a.445.445 0 0 1-.18-.18z"/><path class="st2" d="M88.49 191.17c-2.82-2.64-5.63-5.15-9.05-6.99-.54-.29-.42-1.09.2-1.18 2.53-.35 4.95-1.17 7.23-2.31.51-.25.95.62.46.88-1.89 1-3.86 1.74-5.91 2.27 1.75 1.02 3.37 2.28 4.92 3.6-.12-.25-.06-.57.29-.64.65-.15 1.3-.36 1.9-.66.04-.45.09-.9.14-1.35-.67.26-1.32.55-1.99.83-.56.23-.83-.61-.31-.87.77-.38 1.59-.67 2.42-.92l.06-.4c-.56.09-1.13.14-1.7.15-.56 0-.63-.88-.08-.87.64.02 1.28-.02 1.91-.12.2-1.2.44-2.39.74-3.55.25-.97 1.66-.75 1.55.26-.21 1.92-.59 3.82-.87 5.73-.28 1.91-.51 3.82-.79 5.73-.08.49-.74.76-1.12.41zm-1.77-3.4c.54.46 1.06.93 1.59 1.4.03-.64.07-1.29.12-1.94-.45.24-.93.43-1.45.55-.1.01-.18.01-.26-.01z"/><path class="st1" d="M96.63 157.78c-3.75.94-7.38 1.94-10.79 3.81-.54.3-1.15-.24-.88-.81 1.08-2.31 1.7-4.8 1.98-7.33.06-.56 1.04-.46.99.1-.18 2.13-.64 4.19-1.3 6.2 1.81-.91 3.74-1.59 5.69-2.18-.28-.04-.51-.26-.38-.59.23-.63.4-1.28.48-1.95-.35-.28-.71-.56-1.05-.85-.14.7-.26 1.41-.38 2.12-.1.59-.96.37-.9-.21.09-.85.3-1.7.54-2.53-.1-.09-.2-.18-.31-.26-.22.52-.49 1.03-.8 1.51-.3.47-1.08.05-.77-.4.36-.53.68-1.09.93-1.67-.9-.82-1.77-1.67-2.58-2.55-.68-.74.27-1.8 1.06-1.16 1.49 1.22 2.89 2.57 4.34 3.84 1.45 1.27 2.93 2.5 4.39 3.77.38.31.25 1.02-.26 1.14zm-3.81-.36c.68-.2 1.36-.39 2.04-.57-.52-.38-1.05-.76-1.56-1.16a5.83 5.83 0 0 1-.33 1.52c-.04.09-.09.16-.15.21z"/></g><g><path class="st0" d="M117.29 249.73c-3.86-.22-7.63-.34-11.43.44-.61.12-1.03-.56-.6-1.03 1.72-1.89 3.05-4.08 4.06-6.41.23-.52 1.13-.14.92.39a27.16 27.16 0 0 1-3.08 5.53c2-.34 4.04-.42 6.08-.4-.25-.12-.41-.4-.19-.68.41-.53.76-1.11 1.03-1.72-.26-.37-.51-.75-.76-1.12-.35.63-.66 1.27-.99 1.91-.28.54-1.02.06-.79-.46.34-.79.79-1.54 1.27-2.26-.07-.11-.14-.23-.21-.34-.37.43-.77.83-1.21 1.2-.43.36-1.05-.27-.61-.61.51-.4.97-.84 1.38-1.32-.62-1.05-1.2-2.12-1.71-3.2-.43-.91.79-1.64 1.36-.79 1.07 1.61 2 3.31 3.01 4.95 1.01 1.64 2.06 3.26 3.07 4.9.26.42-.08 1.05-.6 1.02zm-3.53-1.47c.71.01 1.41.03 2.11.06-.39-.51-.77-1.04-1.15-1.57-.19.48-.44.93-.76 1.35-.06.07-.13.12-.2.16zM130.81 225.63c3.07 2.35 6.12 4.57 9.7 6.06.57.24.53 1.04-.08 1.19-2.48.6-4.81 1.66-6.97 3.02-.48.3-1.01-.52-.54-.83 1.78-1.19 3.67-2.11 5.66-2.84-1.84-.85-3.58-1.93-5.26-3.09.14.24.11.56-.22.67-.64.21-1.25.49-1.82.84 0 .45 0 .9-.01 1.35.64-.32 1.26-.67 1.9-1.02.53-.29.88.52.4.83-.73.46-1.52.83-2.32 1.16 0 .13-.01.27-.02.4a9.56 9.56 0 0 1 1.68-.31c.56-.06.71.82.16.85-.64.04-1.27.15-1.89.31-.08 1.22-.2 2.42-.39 3.6-.16.99-1.58.91-1.57-.11.02-1.93.21-3.86.3-5.78.09-1.93.13-3.85.22-5.78.02-.5.65-.84 1.07-.52zm2.09 3.21c-.58-.41-1.15-.82-1.72-1.23.03.64.06 1.29.07 1.94.42-.29.89-.52 1.39-.69.1-.03.18-.03.26-.02zM100.69 270.02c3.86.16 7.63.22 11.42-.62.6-.13 1.03.55.62 1.02-1.69 1.91-2.99 4.12-3.96 6.47-.22.52-1.13.15-.92-.37a27.45 27.45 0 0 1 2.99-5.58c-1.99.37-4.04.48-6.08.49.25.12.41.39.2.68-.4.54-.75 1.12-1.01 1.74.26.37.52.74.77 1.11.34-.63.64-1.28.96-1.92.27-.54 1.02-.08.8.45-.33.79-.77 1.55-1.23 2.28l.22.34a9.8 9.8 0 0 1 1.19-1.22c.42-.37 1.05.26.62.61-.5.41-.96.85-1.36 1.34.64 1.04 1.23 2.1 1.76 3.17.44.9-.77 1.65-1.34.81-1.09-1.59-2.04-3.28-3.08-4.9-1.03-1.63-2.11-3.23-3.15-4.85-.26-.43.06-1.07.58-1.05zm3.56 1.42c-.71 0-1.41-.01-2.11-.02.4.51.79 1.02 1.18 1.55.18-.48.43-.93.74-1.36a.51.51 0 0 1 .19-.17z"/><path class="st1" d="M127.74 275.6c-.17-3.86-.43-7.62-1.58-11.33-.18-.59.46-1.08.97-.7 2.05 1.52 4.36 2.63 6.79 3.4.54.17.25 1.11-.29.95-2.05-.61-3.97-1.46-5.81-2.51.53 1.95.82 3.98 1 6.01.09-.26.35-.45.66-.26.57.35 1.18.65 1.82.86.34-.29.69-.58 1.04-.86-.66-.28-1.33-.53-2-.8-.56-.22-.17-1.01.38-.84.82.26 1.61.63 2.37 1.03.11-.08.21-.17.32-.25-.47-.32-.91-.69-1.32-1.09-.4-.39.17-1.07.55-.67.45.46.93.88 1.45 1.25.98-.72 1.99-1.4 3.01-2.02.86-.52 1.71.62.92 1.27-1.49 1.22-3.09 2.32-4.63 3.48-1.53 1.17-3.04 2.38-4.57 3.55-.4.32-1.06.05-1.08-.47zm1.11-3.67c.06.7.11 1.41.16 2.11.47-.44.95-.87 1.44-1.3-.49-.14-.97-.35-1.42-.63a.445.445 0 0 1-.18-.18z"/><path class="st2" d="M88.49 261.17c-2.82-2.64-5.63-5.15-9.05-6.99-.54-.29-.42-1.09.2-1.18 2.53-.35 4.95-1.17 7.23-2.31.51-.25.95.62.46.88-1.89 1-3.86 1.74-5.91 2.27 1.75 1.02 3.37 2.28 4.92 3.6-.12-.25-.06-.57.29-.64.65-.15 1.3-.36 1.9-.66.04-.45.09-.9.14-1.35-.67.26-1.32.55-1.99.83-.56.23-.83-.61-.31-.87.77-.38 1.59-.67 2.42-.92l.06-.4c-.56.09-1.13.14-1.7.15-.56 0-.63-.88-.08-.87.64.02 1.28-.02 1.91-.12.2-1.2.44-2.39.74-3.55.25-.97 1.66-.75 1.55.26-.21 1.92-.59 3.82-.87 5.73-.28 1.91-.51 3.82-.79 5.73-.08.49-.74.76-1.12.41zm-1.77-3.4c.54.46 1.06.93 1.59 1.4.03-.64.07-1.29.12-1.94-.45.24-.93.43-1.45.55-.1.01-.18.01-.26-.01z"/><path class="st1" d="M96.63 227.78c-3.75.94-7.38 1.94-10.79 3.81-.54.3-1.15-.24-.88-.81 1.08-2.31 1.7-4.8 1.98-7.33.06-.56 1.04-.46.99.1-.18 2.13-.64 4.19-1.3 6.2 1.81-.91 3.74-1.59 5.69-2.18-.28-.04-.51-.26-.38-.59.23-.63.4-1.28.48-1.95-.35-.28-.71-.56-1.05-.85-.14.7-.26 1.41-.38 2.12-.1.59-.96.37-.9-.21.09-.85.3-1.7.54-2.53-.1-.09-.2-.18-.31-.26-.22.52-.49 1.03-.8 1.51-.3.47-1.08.05-.77-.4.36-.53.68-1.09.93-1.67-.9-.82-1.77-1.67-2.58-2.55-.68-.74.27-1.8 1.06-1.16 1.49 1.22 2.89 2.57 4.34 3.84 1.45 1.27 2.93 2.5 4.39 3.77.38.31.25 1.02-.26 1.14zm-3.81-.36c.68-.2 1.36-.39 2.04-.57-.52-.38-1.05-.76-1.56-1.16a5.83 5.83 0 0 1-.33 1.52c-.04.09-.09.16-.15.21z"/></g><g><path class="st0" d="M117.29 319.73c-3.86-.22-7.63-.34-11.43.44-.61.12-1.03-.56-.6-1.03 1.72-1.89 3.05-4.08 4.06-6.41.23-.52 1.13-.14.92.39a27.16 27.16 0 0 1-3.08 5.53c2-.34 4.04-.42 6.08-.4-.25-.12-.41-.4-.19-.68.41-.53.76-1.11 1.03-1.72-.26-.37-.51-.75-.76-1.12-.35.63-.66 1.27-.99 1.91-.28.54-1.02.06-.79-.46.34-.79.79-1.54 1.27-2.26-.07-.11-.14-.23-.21-.34-.37.43-.77.83-1.21 1.2-.43.36-1.05-.27-.61-.61.51-.4.97-.84 1.38-1.32-.62-1.05-1.2-2.12-1.71-3.2-.43-.91.79-1.64 1.36-.79 1.07 1.61 2 3.31 3.01 4.95 1.01 1.64 2.06 3.26 3.07 4.9.26.42-.08 1.05-.6 1.02zm-3.53-1.47c.71.01 1.41.03 2.11.06-.39-.51-.77-1.04-1.15-1.57-.19.48-.44.93-.76 1.35-.06.07-.13.12-.2.16zM130.81 295.63c3.07 2.35 6.12 4.57 9.7 6.06.57.24.53 1.04-.08 1.19-2.48.6-4.81 1.66-6.97 3.02-.48.3-1.01-.52-.54-.83 1.78-1.19 3.67-2.11 5.66-2.84-1.84-.85-3.58-1.93-5.26-3.09.14.24.11.56-.22.67-.64.21-1.25.49-1.82.84 0 .45 0 .9-.01 1.35.64-.32 1.26-.67 1.9-1.02.53-.29.88.52.4.83-.73.46-1.52.83-2.32 1.16 0 .13-.01.27-.02.4a9.56 9.56 0 0 1 1.68-.31c.56-.06.71.82.16.85-.64.04-1.27.15-1.89.31-.08 1.22-.2 2.42-.39 3.6-.16.99-1.58.91-1.57-.11.02-1.93.21-3.86.3-5.78.09-1.93.13-3.85.22-5.78.02-.5.65-.84 1.07-.52zm2.09 3.21c-.58-.41-1.15-.82-1.72-1.23.03.64.06 1.29.07 1.94.42-.29.89-.52 1.39-.69.1-.03.18-.03.26-.02zM100.69 340.02c3.86.16 7.63.22 11.42-.62.6-.13 1.03.55.62 1.02-1.69 1.91-2.99 4.12-3.96 6.47-.22.52-1.13.15-.92-.37a27.45 27.45 0 0 1 2.99-5.58c-1.99.37-4.04.48-6.08.49.25.12.41.39.2.68-.4.54-.75 1.12-1.01 1.74.26.37.52.74.77 1.11.34-.63.64-1.28.96-1.92.27-.54 1.02-.08.8.45-.33.79-.77 1.55-1.23 2.28l.22.34a9.8 9.8 0 0 1 1.19-1.22c.42-.37 1.05.26.62.61-.5.41-.96.85-1.36 1.34.64 1.04 1.23 2.1 1.76 3.17.44.9-.77 1.65-1.34.81-1.09-1.59-2.04-3.28-3.08-4.9-1.03-1.63-2.11-3.23-3.15-4.85-.26-.43.06-1.07.58-1.05zm3.56 1.42c-.71 0-1.41-.01-2.11-.02.4.51.79 1.02 1.18 1.55.18-.48.43-.93.74-1.36a.51.51 0 0 1 .19-.17z"/><path class="st1" d="M127.74 345.6c-.17-3.86-.43-7.62-1.58-11.33-.18-.59.46-1.08.97-.7 2.05 1.52 4.36 2.63 6.79 3.4.54.17.25 1.11-.29.95-2.05-.61-3.97-1.46-5.81-2.51.53 1.95.82 3.98 1 6.01.09-.26.35-.45.66-.26.57.35 1.18.65 1.82.86.34-.29.69-.58 1.04-.86-.66-.28-1.33-.53-2-.8-.56-.22-.17-1.01.38-.84.82.26 1.61.63 2.37 1.03.11-.08.21-.17.32-.25-.47-.32-.91-.69-1.32-1.09-.4-.39.17-1.07.55-.67.45.46.93.88 1.45 1.25.98-.72 1.99-1.4 3.01-2.02.86-.52 1.71.62.92 1.27-1.49 1.22-3.09 2.32-4.63 3.48-1.53 1.17-3.04 2.38-4.57 3.55-.4.32-1.06.05-1.08-.47zm1.11-3.67c.06.7.11 1.41.16 2.11.47-.44.95-.87 1.44-1.3-.49-.14-.97-.35-1.42-.63a.445.445 0 0 1-.18-.18z"/><path class="st2" d="M88.49 331.17c-2.82-2.64-5.63-5.15-9.05-6.99-.54-.29-.42-1.09.2-1.18 2.53-.35 4.95-1.17 7.23-2.31.51-.25.95.62.46.88-1.89 1-3.86 1.74-5.91 2.27 1.75 1.02 3.37 2.28 4.92 3.6-.12-.25-.06-.57.29-.64.65-.15 1.3-.36 1.9-.66.04-.45.09-.9.14-1.35-.67.26-1.32.55-1.99.83-.56.23-.83-.61-.31-.87.77-.38 1.59-.67 2.42-.92l.06-.4c-.56.09-1.13.14-1.7.15-.56 0-.63-.88-.08-.87.64.02 1.28-.02 1.91-.12.2-1.2.44-2.39.74-3.55.25-.97 1.66-.75 1.55.26-.21 1.92-.59 3.82-.87 5.73-.28 1.91-.51 3.82-.79 5.73-.08.49-.74.76-1.12.41zm-1.77-3.4c.54.46 1.06.93 1.59 1.4.03-.64.07-1.29.12-1.94-.45.24-.93.43-1.45.55-.1.01-.18.01-.26-.01z"/><path class="st1" d="M96.63 297.78c-3.75.94-7.38 1.94-10.79 3.81-.54.3-1.15-.24-.88-.81 1.08-2.31 1.7-4.8 1.98-7.33.06-.56 1.04-.46.99.1-.18 2.13-.64 4.19-1.3 6.2 1.81-.91 3.74-1.59 5.69-2.18-.28-.04-.51-.26-.38-.59.23-.63.4-1.28.48-1.95-.35-.28-.71-.56-1.05-.85-.14.7-.26 1.41-.38 2.12-.1.59-.96.37-.9-.21.09-.85.3-1.7.54-2.53-.1-.09-.2-.18-.31-.26-.22.52-.49 1.03-.8 1.51-.3.47-1.08.05-.77-.4.36-.53.68-1.09.93-1.67-.9-.82-1.77-1.67-2.58-2.55-.68-.74.27-1.8 1.06-1.16 1.49 1.22 2.89 2.57 4.34 3.84 1.45 1.27 2.93 2.5 4.39 3.77.38.31.25 1.02-.26 1.14zm-3.81-.36c.68-.2 1.36-.39 2.04-.57-.52-.38-1.05-.76-1.56-1.16a5.83 5.83 0 0 1-.33 1.52c-.04.09-.09.16-.15.21z"/></g><g><path class="st0" d="M47.29 39.73c-3.86-.22-7.63-.34-11.43.44-.61.12-1.03-.56-.6-1.03 1.72-1.89 3.05-4.08 4.06-6.41.23-.52 1.13-.14.92.39a27.16 27.16 0 0 1-3.08 5.53c2-.34 4.04-.42 6.08-.4-.25-.12-.41-.4-.19-.68.41-.53.76-1.11 1.03-1.72-.26-.37-.51-.75-.76-1.12-.35.63-.66 1.27-.99 1.91-.28.54-1.02.06-.79-.46.34-.79.79-1.54 1.27-2.26-.07-.11-.14-.23-.21-.34-.37.43-.77.83-1.21 1.2-.43.36-1.05-.27-.61-.61.51-.4.97-.84 1.38-1.32-.62-1.05-1.2-2.12-1.71-3.2-.43-.91.79-1.64 1.36-.79 1.07 1.61 2 3.31 3.01 4.95 1.01 1.64 2.06 3.26 3.07 4.9.26.42-.08 1.05-.6 1.02zm-3.53-1.47c.71.01 1.41.03 2.11.06-.39-.51-.77-1.04-1.15-1.57-.19.48-.44.93-.76 1.35-.06.07-.13.12-.2.16zM60.81 15.63c3.07 2.35 6.12 4.57 9.7 6.06.57.24.53 1.04-.08 1.19-2.48.6-4.81 1.66-6.97 3.02-.48.3-1.01-.52-.54-.83 1.78-1.19 3.67-2.11 5.66-2.84-1.84-.85-3.58-1.93-5.26-3.09.14.24.11.56-.22.67-.64.21-1.25.49-1.82.84 0 .45 0 .9-.01 1.35.64-.32 1.26-.67 1.9-1.02.53-.29.88.52.4.83-.73.46-1.52.83-2.32 1.16 0 .13-.01.27-.02.4a9.56 9.56 0 0 1 1.68-.31c.56-.06.71.82.16.85-.64.04-1.27.15-1.89.31-.08 1.22-.2 2.42-.39 3.6-.16 1-1.58.91-1.57-.11.02-1.93.21-3.86.3-5.78.09-1.93.13-3.85.22-5.78.02-.5.65-.84 1.07-.52zm2.09 3.21c-.58-.41-1.15-.82-1.72-1.23.03.64.06 1.29.07 1.94.42-.29.89-.52 1.39-.69.1-.03.18-.03.26-.02zM30.69 60.02c3.86.16 7.63.22 11.42-.62.6-.13 1.03.55.62 1.02-1.69 1.91-2.99 4.12-3.97 6.47-.22.52-1.13.15-.92-.37a27.45 27.45 0 0 1 2.99-5.58c-1.99.37-4.04.48-6.08.49.25.12.41.39.2.68-.4.54-.75 1.12-1.01 1.74.26.37.52.74.77 1.11.34-.63.64-1.28.96-1.92.27-.54 1.02-.08.8.45-.33.79-.77 1.55-1.23 2.28l.22.34a9.8 9.8 0 0 1 1.19-1.22c.42-.37 1.05.26.62.61-.5.41-.96.85-1.36 1.34.64 1.04 1.23 2.1 1.76 3.17.44.9-.77 1.65-1.34.81-1.09-1.59-2.04-3.28-3.08-4.9-1.03-1.63-2.11-3.23-3.15-4.85-.25-.43.07-1.07.59-1.05zm3.56 1.42c-.71 0-1.41-.01-2.11-.02.4.51.79 1.02 1.18 1.55.18-.48.43-.93.74-1.36a.51.51 0 0 1 .19-.17z"/><path class="st1" d="M57.74 65.6c-.17-3.86-.43-7.62-1.58-11.33-.18-.59.46-1.08.97-.7 2.05 1.52 4.36 2.63 6.79 3.4.54.17.25 1.11-.29.95-2.05-.61-3.97-1.46-5.81-2.51.53 1.95.82 3.98 1 6.01.09-.26.35-.45.66-.26.57.35 1.18.65 1.82.86.34-.29.69-.58 1.04-.86-.66-.28-1.33-.53-2-.8-.56-.22-.17-1.01.38-.84.82.26 1.61.63 2.37 1.03.11-.08.21-.17.32-.25-.47-.32-.91-.69-1.32-1.09-.4-.39.17-1.07.55-.67.45.46.93.88 1.45 1.25.98-.72 1.99-1.4 3.01-2.02.86-.52 1.71.62.92 1.27-1.49 1.22-3.09 2.32-4.63 3.48-1.53 1.17-3.04 2.38-4.57 3.55-.4.32-1.06.05-1.08-.47zm1.11-3.67c.06.7.11 1.41.16 2.11.47-.44.95-.87 1.44-1.3-.49-.14-.97-.35-1.42-.63a.445.445 0 0 1-.18-.18z"/><path class="st2" d="M18.49 51.17c-2.82-2.64-5.63-5.15-9.05-6.99-.54-.29-.42-1.09.2-1.18 2.53-.35 4.95-1.17 7.23-2.31.51-.25.95.62.45.88-1.89 1-3.86 1.74-5.91 2.27 1.75 1.02 3.37 2.28 4.92 3.6-.12-.25-.06-.57.29-.64.65-.15 1.3-.36 1.9-.66.04-.45.09-.9.14-1.35-.67.26-1.32.55-1.99.83-.56.23-.83-.61-.31-.87.77-.38 1.59-.67 2.42-.92l.06-.4c-.56.09-1.13.14-1.7.15-.56 0-.63-.88-.08-.87.64.02 1.28-.02 1.91-.12.2-1.2.44-2.39.74-3.55.25-.97 1.66-.75 1.55.26-.21 1.92-.59 3.82-.87 5.73-.28 1.91-.51 3.82-.79 5.73-.07.49-.73.76-1.11.41zm-1.77-3.4c.54.46 1.06.93 1.59 1.4.03-.64.07-1.29.12-1.94-.45.24-.93.43-1.45.55-.1.01-.18.01-.26-.01z"/><path class="st1" d="M26.63 17.78c-3.75.94-7.38 1.94-10.79 3.81-.54.3-1.15-.24-.88-.81 1.08-2.31 1.7-4.8 1.98-7.33.06-.56 1.04-.46.99.1-.18 2.13-.64 4.19-1.3 6.2 1.81-.91 3.74-1.59 5.69-2.18-.28-.04-.51-.26-.38-.59.23-.63.4-1.28.48-1.95-.35-.28-.71-.56-1.05-.85-.14.7-.26 1.41-.38 2.12-.1.59-.96.37-.9-.21.09-.85.3-1.7.54-2.53-.1-.09-.2-.18-.31-.26-.22.52-.49 1.03-.8 1.51-.3.47-1.08.05-.77-.4.36-.53.68-1.09.93-1.67-.9-.82-1.77-1.67-2.58-2.55-.68-.74.27-1.8 1.06-1.16 1.49 1.22 2.89 2.57 4.34 3.84 1.45 1.27 2.93 2.5 4.39 3.77.38.31.25 1.02-.26 1.14zm-3.81-.36c.68-.2 1.36-.39 2.04-.57-.52-.38-1.05-.76-1.56-1.16a5.83 5.83 0 0 1-.33 1.52c-.04.09-.09.16-.15.21z"/></g><g><path class="st0" d="M47.29 109.73c-3.86-.22-7.63-.34-11.43.44-.61.12-1.03-.56-.6-1.03 1.72-1.89 3.05-4.08 4.06-6.41.23-.52 1.13-.14.92.39a27.16 27.16 0 0 1-3.08 5.53c2-.34 4.04-.42 6.08-.4-.25-.12-.41-.4-.19-.68.41-.53.76-1.11 1.03-1.72-.26-.37-.51-.75-.76-1.12-.35.63-.66 1.27-.99 1.91-.28.54-1.02.06-.79-.46.34-.79.79-1.54 1.27-2.26-.07-.11-.14-.23-.21-.34-.37.43-.77.83-1.21 1.2-.43.36-1.05-.27-.61-.61.51-.4.97-.84 1.38-1.32-.62-1.05-1.2-2.12-1.71-3.2-.43-.91.79-1.64 1.36-.79 1.07 1.61 2 3.31 3.01 4.95 1.01 1.64 2.06 3.26 3.07 4.9.26.42-.08 1.05-.6 1.02zm-3.53-1.47c.71.01 1.41.03 2.11.06-.39-.51-.77-1.04-1.15-1.57-.19.48-.44.93-.76 1.35-.06.07-.13.12-.2.16zM60.81 85.63c3.07 2.35 6.12 4.57 9.7 6.06.57.24.53 1.04-.08 1.19-2.48.6-4.81 1.66-6.97 3.02-.48.3-1.01-.52-.54-.83 1.78-1.19 3.67-2.11 5.66-2.84-1.84-.85-3.58-1.93-5.26-3.09.14.24.11.56-.22.67-.64.21-1.25.49-1.82.84 0 .45 0 .9-.01 1.35.64-.32 1.26-.67 1.9-1.02.53-.29.88.52.4.83-.73.46-1.52.83-2.32 1.16 0 .13-.01.27-.02.4a9.56 9.56 0 0 1 1.68-.31c.56-.06.71.82.16.85-.64.04-1.27.15-1.89.31-.08 1.22-.2 2.42-.39 3.6-.16 1-1.58.91-1.57-.11.02-1.93.21-3.86.3-5.78.09-1.93.13-3.85.22-5.78.02-.5.65-.84 1.07-.52zm2.09 3.21c-.58-.41-1.15-.82-1.72-1.23.03.64.06 1.29.07 1.94.42-.29.89-.52 1.39-.69.1-.03.18-.03.26-.02zM30.69 130.02c3.86.16 7.63.22 11.42-.62.6-.13 1.03.55.62 1.02-1.69 1.91-2.99 4.12-3.97 6.47-.22.52-1.13.15-.92-.37a27.45 27.45 0 0 1 2.99-5.58c-1.99.37-4.04.48-6.08.49.25.12.41.39.2.68-.4.54-.75 1.12-1.01 1.74.26.37.52.74.77 1.11.34-.63.64-1.28.96-1.92.27-.54 1.02-.08.8.45-.33.79-.77 1.55-1.23 2.28l.22.34a9.8 9.8 0 0 1 1.19-1.22c.42-.37 1.05.26.62.61-.5.41-.96.85-1.36 1.34.64 1.04 1.23 2.1 1.76 3.17.44.9-.77 1.65-1.34.81-1.09-1.59-2.04-3.28-3.08-4.9-1.03-1.63-2.11-3.23-3.15-4.85-.25-.43.07-1.07.59-1.05zm3.56 1.42c-.71 0-1.41-.01-2.11-.02.4.51.79 1.02 1.18 1.55.18-.48.43-.93.74-1.36a.51.51 0 0 1 .19-.17z"/><path class="st1" d="M57.74 135.6c-.17-3.86-.43-7.62-1.58-11.33-.18-.59.46-1.08.97-.7 2.05 1.52 4.36 2.63 6.79 3.4.54.17.25 1.11-.29.95-2.05-.61-3.97-1.46-5.81-2.51.53 1.95.82 3.98 1 6.01.09-.26.35-.45.66-.26.57.35 1.18.65 1.82.86.34-.29.69-.58 1.04-.86-.66-.28-1.33-.53-2-.8-.56-.22-.17-1.01.38-.84.82.26 1.61.63 2.37 1.03.11-.08.21-.17.32-.25-.47-.32-.91-.69-1.32-1.09-.4-.39.17-1.07.55-.67.45.46.93.88 1.45 1.25.98-.72 1.99-1.4 3.01-2.02.86-.52 1.71.62.92 1.27-1.49 1.22-3.09 2.32-4.63 3.48-1.53 1.17-3.04 2.38-4.57 3.55-.4.32-1.06.05-1.08-.47zm1.11-3.67c.06.7.11 1.41.16 2.11.47-.44.95-.87 1.44-1.3-.49-.14-.97-.35-1.42-.63a.445.445 0 0 1-.18-.18z"/><path class="st2" d="M18.49 121.17c-2.82-2.64-5.63-5.15-9.05-6.99-.54-.29-.42-1.09.2-1.18 2.53-.35 4.95-1.17 7.23-2.31.51-.25.95.62.45.88-1.89 1-3.86 1.74-5.91 2.27 1.75 1.02 3.37 2.28 4.92 3.6-.12-.25-.06-.57.29-.64.65-.15 1.3-.36 1.9-.66.04-.45.09-.9.14-1.35-.67.26-1.32.55-1.99.83-.56.23-.83-.61-.31-.87.77-.38 1.59-.67 2.42-.92l.06-.4c-.56.09-1.13.14-1.7.15-.56 0-.63-.88-.08-.87.64.02 1.28-.02 1.91-.12.2-1.2.44-2.39.74-3.55.25-.97 1.66-.75 1.55.26-.21 1.92-.59 3.82-.87 5.73-.28 1.91-.51 3.82-.79 5.73-.07.49-.73.76-1.11.41zm-1.77-3.4c.54.46 1.06.93 1.59 1.4.03-.64.07-1.29.12-1.94-.45.24-.93.43-1.45.55-.1.01-.18.01-.26-.01z"/><path class="st1" d="M26.63 87.78c-3.75.94-7.38 1.94-10.79 3.81-.54.3-1.15-.24-.88-.81 1.08-2.31 1.7-4.8 1.98-7.33.06-.56 1.04-.46.99.1-.18 2.13-.64 4.19-1.3 6.2 1.81-.91 3.74-1.59 5.69-2.18-.28-.04-.51-.26-.38-.59.23-.63.4-1.28.48-1.95-.35-.28-.71-.56-1.05-.85-.14.7-.26 1.41-.38 2.12-.1.59-.96.37-.9-.21.09-.85.3-1.7.54-2.53-.1-.09-.2-.18-.31-.26-.22.52-.49 1.03-.8 1.51-.3.47-1.08.05-.77-.4.36-.53.68-1.09.93-1.67-.9-.82-1.77-1.67-2.58-2.55-.68-.74.27-1.8 1.06-1.16 1.49 1.22 2.89 2.57 4.34 3.84 1.45 1.27 2.93 2.5 4.39 3.77.38.31.25 1.02-.26 1.14zm-3.81-.36c.68-.2 1.36-.39 2.04-.57-.52-.38-1.05-.76-1.56-1.16a5.83 5.83 0 0 1-.33 1.52c-.04.09-.09.16-.15.21z"/></g><g><path class="st0" d="M47.29 179.73c-3.86-.22-7.63-.34-11.43.44-.61.12-1.03-.56-.6-1.03 1.72-1.89 3.05-4.08 4.06-6.41.23-.52 1.13-.14.92.39a27.16 27.16 0 0 1-3.08 5.53c2-.34 4.04-.42 6.08-.4-.25-.12-.41-.4-.19-.68.41-.53.76-1.11 1.03-1.72-.26-.37-.51-.75-.76-1.12-.35.63-.66 1.27-.99 1.91-.28.54-1.02.06-.79-.46.34-.79.79-1.54 1.27-2.26-.07-.11-.14-.23-.21-.34-.37.43-.77.83-1.21 1.2-.43.36-1.05-.27-.61-.61.51-.4.97-.84 1.38-1.32-.62-1.05-1.2-2.12-1.71-3.2-.43-.91.79-1.64 1.36-.79 1.07 1.61 2 3.31 3.01 4.95 1.01 1.64 2.06 3.26 3.07 4.9.26.42-.08 1.05-.6 1.02zm-3.53-1.47c.71.01 1.41.03 2.11.06-.39-.51-.77-1.04-1.15-1.57-.19.48-.44.93-.76 1.35-.06.07-.13.12-.2.16zM60.81 155.63c3.07 2.35 6.12 4.57 9.7 6.06.57.24.53 1.04-.08 1.19-2.48.6-4.81 1.66-6.97 3.02-.48.3-1.01-.52-.54-.83 1.78-1.19 3.67-2.11 5.66-2.84-1.84-.85-3.58-1.93-5.26-3.09.14.24.11.56-.22.67-.64.21-1.25.49-1.82.84 0 .45 0 .9-.01 1.35.64-.32 1.26-.67 1.9-1.02.53-.29.88.52.4.83-.73.46-1.52.83-2.32 1.16 0 .13-.01.27-.02.4a9.56 9.56 0 0 1 1.68-.31c.56-.06.71.82.16.85-.64.04-1.27.15-1.89.31-.08 1.22-.2 2.42-.39 3.6-.16.99-1.58.91-1.57-.11.02-1.93.21-3.86.3-5.78.09-1.93.13-3.85.22-5.78.02-.5.65-.84 1.07-.52zm2.09 3.21c-.58-.41-1.15-.82-1.72-1.23.03.64.06 1.29.07 1.94.42-.29.89-.52 1.39-.69.1-.03.18-.03.26-.02zM30.69 200.02c3.86.16 7.63.22 11.42-.62.6-.13 1.03.55.62 1.02-1.69 1.91-2.99 4.12-3.97 6.47-.22.52-1.13.15-.92-.37a27.45 27.45 0 0 1 2.99-5.58c-1.99.37-4.04.48-6.08.49.25.12.41.39.2.68-.4.54-.75 1.12-1.01 1.74.26.37.52.74.77 1.11.34-.63.64-1.28.96-1.92.27-.54 1.02-.08.8.45-.33.79-.77 1.55-1.23 2.28l.22.34a9.8 9.8 0 0 1 1.19-1.22c.42-.37 1.05.26.62.61-.5.41-.96.85-1.36 1.34.64 1.04 1.23 2.1 1.76 3.17.44.9-.77 1.65-1.34.81-1.09-1.59-2.04-3.28-3.08-4.9-1.03-1.63-2.11-3.23-3.15-4.85-.25-.43.07-1.07.59-1.05zm3.56 1.42c-.71 0-1.41-.01-2.11-.02.4.51.79 1.02 1.18 1.55.18-.48.43-.93.74-1.36a.51.51 0 0 1 .19-.17z"/><path class="st1" d="M57.74 205.6c-.17-3.86-.43-7.62-1.58-11.33-.18-.59.46-1.08.97-.7 2.05 1.52 4.36 2.63 6.79 3.4.54.17.25 1.11-.29.95-2.05-.61-3.97-1.46-5.81-2.51.53 1.95.82 3.98 1 6.01.09-.26.35-.45.66-.26.57.35 1.18.65 1.82.86.34-.29.69-.58 1.04-.86-.66-.28-1.33-.53-2-.8-.56-.22-.17-1.01.38-.84.82.26 1.61.63 2.37 1.03.11-.08.21-.17.32-.25-.47-.32-.91-.69-1.32-1.09-.4-.39.17-1.07.55-.67.45.46.93.88 1.45 1.25.98-.72 1.99-1.4 3.01-2.02.86-.52 1.71.62.92 1.27-1.49 1.22-3.09 2.32-4.63 3.48-1.53 1.17-3.04 2.38-4.57 3.55-.4.32-1.06.05-1.08-.47zm1.11-3.67c.06.7.11 1.41.16 2.11.47-.44.95-.87 1.44-1.3-.49-.14-.97-.35-1.42-.63a.445.445 0 0 1-.18-.18z"/><path class="st2" d="M18.49 191.17c-2.82-2.64-5.63-5.15-9.05-6.99-.54-.29-.42-1.09.2-1.18 2.53-.35 4.95-1.17 7.23-2.31.51-.25.95.62.45.88-1.89 1-3.86 1.74-5.91 2.27 1.75 1.02 3.37 2.28 4.92 3.6-.12-.25-.06-.57.29-.64.65-.15 1.3-.36 1.9-.66.04-.45.09-.9.14-1.35-.67.26-1.32.55-1.99.83-.56.23-.83-.61-.31-.87.77-.38 1.59-.67 2.42-.92l.06-.4c-.56.09-1.13.14-1.7.15-.56 0-.63-.88-.08-.87.64.02 1.28-.02 1.91-.12.2-1.2.44-2.39.74-3.55.25-.97 1.66-.75 1.55.26-.21 1.92-.59 3.82-.87 5.73-.28 1.91-.51 3.82-.79 5.73-.07.49-.73.76-1.11.41zm-1.77-3.4c.54.46 1.06.93 1.59 1.4.03-.64.07-1.29.12-1.94-.45.24-.93.43-1.45.55-.1.01-.18.01-.26-.01z"/><path class="st1" d="M26.63 157.78c-3.75.94-7.38 1.94-10.79 3.81-.54.3-1.15-.24-.88-.81 1.08-2.31 1.7-4.8 1.98-7.33.06-.56 1.04-.46.99.1-.18 2.13-.64 4.19-1.3 6.2 1.81-.91 3.74-1.59 5.69-2.18-.28-.04-.51-.26-.38-.59.23-.63.4-1.28.48-1.95-.35-.28-.71-.56-1.05-.85-.14.7-.26 1.41-.38 2.12-.1.59-.96.37-.9-.21.09-.85.3-1.7.54-2.53-.1-.09-.2-.18-.31-.26-.22.52-.49 1.03-.8 1.51-.3.47-1.08.05-.77-.4.36-.53.68-1.09.93-1.67-.9-.82-1.77-1.67-2.58-2.55-.68-.74.27-1.8 1.06-1.16 1.49 1.22 2.89 2.57 4.34 3.84 1.45 1.27 2.93 2.5 4.39 3.77.38.31.25 1.02-.26 1.14zm-3.81-.36c.68-.2 1.36-.39 2.04-.57-.52-.38-1.05-.76-1.56-1.16a5.83 5.83 0 0 1-.33 1.52c-.04.09-.09.16-.15.21z"/></g><g><path class="st0" d="M47.29 249.73c-3.86-.22-7.63-.34-11.43.44-.61.12-1.03-.56-.6-1.03 1.72-1.89 3.05-4.08 4.06-6.41.23-.52 1.13-.14.92.39a27.16 27.16 0 0 1-3.08 5.53c2-.34 4.04-.42 6.08-.4-.25-.12-.41-.4-.19-.68.41-.53.76-1.11 1.03-1.72-.26-.37-.51-.75-.76-1.12-.35.63-.66 1.27-.99 1.91-.28.54-1.02.06-.79-.46.34-.79.79-1.54 1.27-2.26-.07-.11-.14-.23-.21-.34-.37.43-.77.83-1.21 1.2-.43.36-1.05-.27-.61-.61.51-.4.97-.84 1.38-1.32-.62-1.05-1.2-2.12-1.71-3.2-.43-.91.79-1.64 1.36-.79 1.07 1.61 2 3.31 3.01 4.95 1.01 1.64 2.06 3.26 3.07 4.9.26.42-.08 1.05-.6 1.02zm-3.53-1.47c.71.01 1.41.03 2.11.06-.39-.51-.77-1.04-1.15-1.57-.19.48-.44.93-.76 1.35-.06.07-.13.12-.2.16zM60.81 225.63c3.07 2.35 6.12 4.57 9.7 6.06.57.24.53 1.04-.08 1.19-2.48.6-4.81 1.66-6.97 3.02-.48.3-1.01-.52-.54-.83 1.78-1.19 3.67-2.11 5.66-2.84-1.84-.85-3.58-1.93-5.26-3.09.14.24.11.56-.22.67-.64.21-1.25.49-1.82.84 0 .45 0 .9-.01 1.35.64-.32 1.26-.67 1.9-1.02.53-.29.88.52.4.83-.73.46-1.52.83-2.32 1.16 0 .13-.01.27-.02.4a9.56 9.56 0 0 1 1.68-.31c.56-.06.71.82.16.85-.64.04-1.27.15-1.89.31-.08 1.22-.2 2.42-.39 3.6-.16.99-1.58.91-1.57-.11.02-1.93.21-3.86.3-5.78.09-1.93.13-3.85.22-5.78.02-.5.65-.84 1.07-.52zm2.09 3.21c-.58-.41-1.15-.82-1.72-1.23.03.64.06 1.29.07 1.94.42-.29.89-.52 1.39-.69.1-.03.18-.03.26-.02zM30.69 270.02c3.86.16 7.63.22 11.42-.62.6-.13 1.03.55.62 1.02-1.69 1.91-2.99 4.12-3.97 6.47-.22.52-1.13.15-.92-.37a27.45 27.45 0 0 1 2.99-5.58c-1.99.37-4.04.48-6.08.49.25.12.41.39.2.68-.4.54-.75 1.12-1.01 1.74.26.37.52.74.77 1.11.34-.63.64-1.28.96-1.92.27-.54 1.02-.08.8.45-.33.79-.77 1.55-1.23 2.28l.22.34a9.8 9.8 0 0 1 1.19-1.22c.42-.37 1.05.26.62.61-.5.41-.96.85-1.36 1.34.64 1.04 1.23 2.1 1.76 3.17.44.9-.77 1.65-1.34.81-1.09-1.59-2.04-3.28-3.08-4.9-1.03-1.63-2.11-3.23-3.15-4.85-.25-.43.07-1.07.59-1.05zm3.56 1.42c-.71 0-1.41-.01-2.11-.02.4.51.79 1.02 1.18 1.55.18-.48.43-.93.74-1.36a.51.51 0 0 1 .19-.17z"/><path class="st1" d="M57.74 275.6c-.17-3.86-.43-7.62-1.58-11.33-.18-.59.46-1.08.97-.7 2.05 1.52 4.36 2.63 6.79 3.4.54.17.25 1.11-.29.95-2.05-.61-3.97-1.46-5.81-2.51.53 1.95.82 3.98 1 6.01.09-.26.35-.45.66-.26.57.35 1.18.65 1.82.86.34-.29.69-.58 1.04-.86-.66-.28-1.33-.53-2-.8-.56-.22-.17-1.01.38-.84.82.26 1.61.63 2.37 1.03.11-.08.21-.17.32-.25-.47-.32-.91-.69-1.32-1.09-.4-.39.17-1.07.55-.67.45.46.93.88 1.45 1.25.98-.72 1.99-1.4 3.01-2.02.86-.52 1.71.62.92 1.27-1.49 1.22-3.09 2.32-4.63 3.48-1.53 1.17-3.04 2.38-4.57 3.55-.4.32-1.06.05-1.08-.47zm1.11-3.67c.06.7.11 1.41.16 2.11.47-.44.95-.87 1.44-1.3-.49-.14-.97-.35-1.42-.63a.445.445 0 0 1-.18-.18z"/><path class="st2" d="M18.49 261.17c-2.82-2.64-5.63-5.15-9.05-6.99-.54-.29-.42-1.09.2-1.18 2.53-.35 4.95-1.17 7.23-2.31.51-.25.95.62.45.88-1.89 1-3.86 1.74-5.91 2.27 1.75 1.02 3.37 2.28 4.92 3.6-.12-.25-.06-.57.29-.64.65-.15 1.3-.36 1.9-.66.04-.45.09-.9.14-1.35-.67.26-1.32.55-1.99.83-.56.23-.83-.61-.31-.87.77-.38 1.59-.67 2.42-.92l.06-.4c-.56.09-1.13.14-1.7.15-.56 0-.63-.88-.08-.87.64.02 1.28-.02 1.91-.12.2-1.2.44-2.39.74-3.55.25-.97 1.66-.75 1.55.26-.21 1.92-.59 3.82-.87 5.73-.28 1.91-.51 3.82-.79 5.73-.07.49-.73.76-1.11.41zm-1.77-3.4c.54.46 1.06.93 1.59 1.4.03-.64.07-1.29.12-1.94-.45.24-.93.43-1.45.55-.1.01-.18.01-.26-.01z"/><path class="st1" d="M26.63 227.78c-3.75.94-7.38 1.94-10.79 3.81-.54.3-1.15-.24-.88-.81 1.08-2.31 1.7-4.8 1.98-7.33.06-.56 1.04-.46.99.1-.18 2.13-.64 4.19-1.3 6.2 1.81-.91 3.74-1.59 5.69-2.18-.28-.04-.51-.26-.38-.59.23-.63.4-1.28.48-1.95-.35-.28-.71-.56-1.05-.85-.14.7-.26 1.41-.38 2.12-.1.59-.96.37-.9-.21.09-.85.3-1.7.54-2.53-.1-.09-.2-.18-.31-.26-.22.52-.49 1.03-.8 1.51-.3.47-1.08.05-.77-.4.36-.53.68-1.09.93-1.67-.9-.82-1.77-1.67-2.58-2.55-.68-.74.27-1.8 1.06-1.16 1.49 1.22 2.89 2.57 4.34 3.84 1.45 1.27 2.93 2.5 4.39 3.77.38.31.25 1.02-.26 1.14zm-3.81-.36c.68-.2 1.36-.39 2.04-.57-.52-.38-1.05-.76-1.56-1.16a5.83 5.83 0 0 1-.33 1.52c-.04.09-.09.16-.15.21z"/></g><g><path class="st0" d="M47.29 319.73c-3.86-.22-7.63-.34-11.43.44-.61.12-1.03-.56-.6-1.03 1.72-1.89 3.05-4.08 4.06-6.41.23-.52 1.13-.14.92.39a27.16 27.16 0 0 1-3.08 5.53c2-.34 4.04-.42 6.08-.4-.25-.12-.41-.4-.19-.68.41-.53.76-1.11 1.03-1.72-.26-.37-.51-.75-.76-1.12-.35.63-.66 1.27-.99 1.91-.28.54-1.02.06-.79-.46.34-.79.79-1.54 1.27-2.26-.07-.11-.14-.23-.21-.34-.37.43-.77.83-1.21 1.2-.43.36-1.05-.27-.61-.61.51-.4.97-.84 1.38-1.32-.62-1.05-1.2-2.12-1.71-3.2-.43-.91.79-1.64 1.36-.79 1.07 1.61 2 3.31 3.01 4.95 1.01 1.64 2.06 3.26 3.07 4.9.26.42-.08 1.05-.6 1.02zm-3.53-1.47c.71.01 1.41.03 2.11.06-.39-.51-.77-1.04-1.15-1.57-.19.48-.44.93-.76 1.35-.06.07-.13.12-.2.16zM60.81 295.63c3.07 2.35 6.12 4.57 9.7 6.06.57.24.53 1.04-.08 1.19-2.48.6-4.81 1.66-6.97 3.02-.48.3-1.01-.52-.54-.83 1.78-1.19 3.67-2.11 5.66-2.84-1.84-.85-3.58-1.93-5.26-3.09.14.24.11.56-.22.67-.64.21-1.25.49-1.82.84 0 .45 0 .9-.01 1.35.64-.32 1.26-.67 1.9-1.02.53-.29.88.52.4.83-.73.46-1.52.83-2.32 1.16 0 .13-.01.27-.02.4a9.56 9.56 0 0 1 1.68-.31c.56-.06.71.82.16.85-.64.04-1.27.15-1.89.31-.08 1.22-.2 2.42-.39 3.6-.16.99-1.58.91-1.57-.11.02-1.93.21-3.86.3-5.78.09-1.93.13-3.85.22-5.78.02-.5.65-.84 1.07-.52zm2.09 3.21c-.58-.41-1.15-.82-1.72-1.23.03.64.06 1.29.07 1.94.42-.29.89-.52 1.39-.69.1-.03.18-.03.26-.02zM30.69 340.02c3.86.16 7.63.22 11.42-.62.6-.13 1.03.55.62 1.02-1.69 1.91-2.99 4.12-3.97 6.47-.22.52-1.13.15-.92-.37a27.45 27.45 0 0 1 2.99-5.58c-1.99.37-4.04.48-6.08.49.25.12.41.39.2.68-.4.54-.75 1.12-1.01 1.74.26.37.52.74.77 1.11.34-.63.64-1.28.96-1.92.27-.54 1.02-.08.8.45-.33.79-.77 1.55-1.23 2.28l.22.34a9.8 9.8 0 0 1 1.19-1.22c.42-.37 1.05.26.62.61-.5.41-.96.85-1.36 1.34.64 1.04 1.23 2.1 1.76 3.17.44.9-.77 1.65-1.34.81-1.09-1.59-2.04-3.28-3.08-4.9-1.03-1.63-2.11-3.23-3.15-4.85-.25-.43.07-1.07.59-1.05zm3.56 1.42c-.71 0-1.41-.01-2.11-.02.4.51.79 1.02 1.18 1.55.18-.48.43-.93.74-1.36a.51.51 0 0 1 .19-.17z"/><path class="st1" d="M57.74 345.6c-.17-3.86-.43-7.62-1.58-11.33-.18-.59.46-1.08.97-.7 2.05 1.52 4.36 2.63 6.79 3.4.54.17.25 1.11-.29.95-2.05-.61-3.97-1.46-5.81-2.51.53 1.95.82 3.98 1 6.01.09-.26.35-.45.66-.26.57.35 1.18.65 1.82.86.34-.29.69-.58 1.04-.86-.66-.28-1.33-.53-2-.8-.56-.22-.17-1.01.38-.84.82.26 1.61.63 2.37 1.03.11-.08.21-.17.32-.25-.47-.32-.91-.69-1.32-1.09-.4-.39.17-1.07.55-.67.45.46.93.88 1.45 1.25.98-.72 1.99-1.4 3.01-2.02.86-.52 1.71.62.92 1.27-1.49 1.22-3.09 2.32-4.63 3.48-1.53 1.17-3.04 2.38-4.57 3.55-.4.32-1.06.05-1.08-.47zm1.11-3.67c.06.7.11 1.41.16 2.11.47-.44.95-.87 1.44-1.3-.49-.14-.97-.35-1.42-.63a.445.445 0 0 1-.18-.18z"/><path class="st2" d="M18.49 331.17c-2.82-2.64-5.63-5.15-9.05-6.99-.54-.29-.42-1.09.2-1.18 2.53-.35 4.95-1.17 7.23-2.31.51-.25.95.62.45.88-1.89 1-3.86 1.74-5.91 2.27 1.75 1.02 3.37 2.28 4.92 3.6-.12-.25-.06-.57.29-.64.65-.15 1.3-.36 1.9-.66.04-.45.09-.9.14-1.35-.67.26-1.32.55-1.99.83-.56.23-.83-.61-.31-.87.77-.38 1.59-.67 2.42-.92l.06-.4c-.56.09-1.13.14-1.7.15-.56 0-.63-.88-.08-.87.64.02 1.28-.02 1.91-.12.2-1.2.44-2.39.74-3.55.25-.97 1.66-.75 1.55.26-.21 1.92-.59 3.82-.87 5.73-.28 1.91-.51 3.82-.79 5.73-.07.49-.73.76-1.11.41zm-1.77-3.4c.54.46 1.06.93 1.59 1.4.03-.64.07-1.29.12-1.94-.45.24-.93.43-1.45.55-.1.01-.18.01-.26-.01z"/><path class="st1" d="M26.63 297.78c-3.75.94-7.38 1.94-10.79 3.81-.54.3-1.15-.24-.88-.81 1.08-2.31 1.7-4.8 1.98-7.33.06-.56 1.04-.46.99.1-.18 2.13-.64 4.19-1.3 6.2 1.81-.91 3.74-1.59 5.69-2.18-.28-.04-.51-.26-.38-.59.23-.63.4-1.28.48-1.95-.35-.28-.71-.56-1.05-.85-.14.7-.26 1.41-.38 2.12-.1.59-.96.37-.9-.21.09-.85.3-1.7.54-2.53-.1-.09-.2-.18-.31-.26-.22.52-.49 1.03-.8 1.51-.3.47-1.08.05-.77-.4.36-.53.68-1.09.93-1.67-.9-.82-1.77-1.67-2.58-2.55-.68-.74.27-1.8 1.06-1.16 1.49 1.22 2.89 2.57 4.34 3.84 1.45 1.27 2.93 2.5 4.39 3.77.38.31.25 1.02-.26 1.14zm-3.81-.36c.68-.2 1.36-.39 2.04-.57-.52-.38-1.05-.76-1.56-1.16a5.83 5.83 0 0 1-.33 1.52c-.04.09-.09.16-.15.21z"/></g></svg>